<svg width="169.374420" height="72.231445" viewBox="0 0 169.374 72.2314" fill="none" xmlns="http://www.w3.org/2000/svg" xmlns:xlink="http://www.w3.org/1999/xlink">
	<desc>
			Created with Pixso.
	</desc>
	<path id="Hi_Student" d="M47.1973 3.27832Q47.918 3.5332 48.5244 3.70898Q49.2803 3.92871 50.1592 4.05176Q51.0469 4.1748 51.9258 4.15723Q52.7298 4.1413 53.4977 3.9668Q53.5777 3.94861 53.6572 3.92871Q54.4401 3.72485 55.0867 3.30914Q55.137 3.27679 55.1865 3.24316Q55.7106 2.89093 55.8568 2.42114Q55.8601 2.41028 55.8633 2.39941Q55.9526 2.10522 55.9289 1.8205Q55.9129 1.62878 55.8457 1.44141Q55.8122 1.34259 55.7671 1.24927Q55.5999 0.902893 55.2744 0.632812Q55.136 0.517944 54.9799 0.437622Q54.6699 0.278259 54.2901 0.254883Q53.8682 0.222412 53.4463 0.222412Q52.4971 0.222412 51.5479 0.386719Q50.6895 0.530701 49.8277 0.55603Q49.3217 0.570923 48.8145 0.544922Q48.2783 0.509766 47.6983 0.386719Q47.1182 0.254883 46.5381 0.149414Q46.1729 0.076355 45.804 0.0428467Q45.5959 0.0239258 45.3867 0.0175781Q44.9352 0.00366211 44.5055 0.0941162Q44.3917 0.118103 44.2793 0.149414Q44.0582 0.235718 44.0125 0.378235Q43.9837 0.468018 44.0244 0.580078Q44.1312 0.976746 44.338 1.31158Q44.4887 1.55548 44.6924 1.7666Q45.1758 2.26758 45.8262 2.64551Q45.8512 2.66003 45.8763 2.67438Q46.5043 3.03326 47.1973 3.27832ZM25.3579 23.2003Q25.2175 23.2538 25.1279 23.4404Q24.8729 23.978 24.5044 24.0724Q24.403 24.0984 24.293 24.0908Q23.792 24.0469 23.2295 23.5811Q22.6758 23.1152 22.0957 22.3594Q21.5244 21.6035 21.041 20.8477Q20.5576 20.0918 20.2148 19.4678Q19.8721 18.835 19.7666 18.6152Q19.4062 17.9297 19.0635 17.2441Q18.7207 16.5586 18.4307 15.8467L17.8945 14.5459Q20.4817 14.7487 22.7995 14.0533Q22.9935 13.9951 23.1855 13.9307Q23.5792 13.7821 23.8253 13.5034Q24.1617 13.1223 24.2227 12.498Q24.3079 11.8754 24.0363 11.5705Q23.9437 11.4665 23.8096 11.3994Q23.291 11.127 22.5703 11.127Q23.2547 10.0396 23.6035 8.85352Q23.6579 8.66864 23.7041 8.48145Q24.0469 7.09277 23.5811 6.16113Q23.2884 5.57581 22.8177 5.23962Q22.7654 5.20227 22.7109 5.16797Q22.1748 4.8252 21.5068 4.66699Q20.8389 4.5 20.1357 4.44727Q19.4414 4.39453 18.791 4.32422Q18.4307 4.25391 18.0703 4.25391L17.3145 4.25391Q17.1738 2.91797 16.8311 1.7666Q16.5041 0.668274 15.7692 0.161804Q15.7337 0.137329 15.6973 0.114258Q15.4505 0.00366211 15.2779 0.0742798Q15.2722 0.0765991 15.2666 0.0791016Q15.1875 0.149414 15.1172 0.149414Q15.0418 0.194641 14.9988 0.260864Q14.9414 0.349121 14.9414 0.474609L14.9414 0.615234Q14.9414 0.812439 15.0264 0.860962Q15.0361 0.866516 15.0469 0.870117Q15.1172 1.30078 15.1348 1.71387Q15.1523 2.12695 15.1875 2.52246Q15.2666 2.98828 15.2666 3.44531Q15.2666 3.89355 15.3018 4.39453Q14.2776 4.53223 13.2871 4.79639Q13.2661 4.80194 13.2451 4.80762Q12.2344 5.08008 11.2676 5.5459Q11.1268 5.61414 11.0834 5.72168Q11.0372 5.83575 11.1006 5.99414Q11.1755 6.16895 11.3015 6.22174Q11.3973 6.26178 11.5225 6.23145Q12.4541 6.12598 13.4033 6.03809Q14.3613 5.94141 15.3018 5.87109Q15.2227 8.56934 14.9766 11.1973Q14.001 11.0566 13.043 10.9336Q12.0938 10.8018 11.083 10.8018Q10.9975 10.8018 10.9307 10.8371Q10.8602 10.8745 10.8105 10.9512Q10.7862 10.9901 10.7801 11.0316Q10.764 11.1404 10.8721 11.2676Q11.3512 11.8295 11.91 12.296Q13.0731 13.2672 14.5811 13.8252Q14.4668 14.4756 14.3262 15.1611Q14.1855 15.8467 13.9658 16.5586Q13.79 17.1035 13.5 18.0264Q13.21 18.9404 12.7793 19.8281Q12.3486 20.707 11.7686 21.3574Q11.3026 21.8807 10.7607 21.9772Q10.6382 21.999 10.5117 21.999Q10.3271 21.999 10.1426 22.1309Q10.0005 22.2303 9.9503 22.3642Q9.93838 22.396 9.93164 22.4297Q9.80313 23.0883 10.0204 23.6001Q10.1598 23.9284 10.4414 24.1963Q10.6871 24.4301 10.9788 24.5626Q11.5427 24.8189 12.2783 24.6973Q12.5392 24.6579 12.7835 24.5717Q13.4118 24.3499 13.9307 23.8184Q14.6514 23.0801 15.1875 22.1133Q15.7324 21.1377 16.0928 20.1094Q16.4531 19.0811 16.6641 18.3252Q16.7783 17.9648 16.8662 17.6045Q16.9541 17.2441 17.0244 16.8838Q17.1738 17.2441 17.3145 17.5518Q17.4551 17.8594 17.5342 18.1143Q18.1406 19.7666 18.9141 21.4277Q19.6875 23.0801 20.7686 24.4512Q20.8809 24.5976 21.0052 24.7332Q21.5223 25.2972 22.2451 25.6729Q23.1504 26.1387 24.0117 26.1211Q24.5396 26.1104 24.9718 25.9014Q25.2448 25.7695 25.4795 25.5586Q26.0947 25.0225 26.1738 23.7656Q26.1738 23.6041 26.1026 23.4853Q26.0769 23.4425 26.042 23.4053Q25.9434 23.2855 25.8166 23.2279Q25.7851 23.2136 25.752 23.2031Q25.7432 23.2002 25.7345 23.1976Q25.5836 23.1523 25.4092 23.1855Q25.3827 23.1909 25.3579 23.2003ZM77.012 14.6244Q76.8558 14.636 76.711 14.8008Q75.8496 15.8467 75.3047 17.2002Q74.7686 18.5449 74.8213 19.8457Q74.8591 20.6384 75.1482 21.3252Q75.3304 21.7578 75.6123 22.1484Q76.3506 23.1504 78.0469 23.4756Q79.2686 23.6865 80.8858 23.6689Q82.5117 23.6514 84.2168 23.3877Q85.9307 23.1152 87.6182 22.6318Q89.3145 22.1396 90.7207 21.4629Q91.0108 22.1045 91.4942 22.5176Q91.5419 22.5583 91.5923 22.5955Q92.0522 22.935 92.7334 22.9746Q93.1293 22.996 93.4828 22.8839Q93.7101 22.8118 93.92 22.6846Q94.0919 22.582 94.2271 22.4435Q94.5203 22.1431 94.6407 21.6738Q94.7282 21.3588 94.6888 21.0605Q94.6294 20.6098 94.2803 20.1973L93.8848 19.8369Q93.7793 19.6963 93.6826 19.2832Q93.5948 18.8701 93.5069 18.3867Q93.419 17.8945 93.3838 17.499Q93.3487 17.1035 93.3487 16.998Q93.3487 16.1631 93.419 15.3896Q93.4893 14.6162 93.4893 13.8252Q93.4893 13.7516 93.4706 13.683Q93.4157 13.4816 93.1992 13.3242Q93.0507 13.2082 92.8997 13.2049Q92.7648 13.202 92.628 13.2891Q91.8721 13.79 91.292 15.0557Q90.7207 16.3125 90.4659 17.8242Q90.3955 17.9297 89.8858 18.1318Q89.3848 18.3252 88.7696 18.5098Q88.1631 18.6855 87.583 18.8525Q87.0117 19.0107 86.8272 19.0459Q86.6514 19.1162 86.4317 19.1777Q86.2207 19.2305 86.001 19.3008Q85.8252 17.1387 85.7637 15.126Q85.711 13.1045 85.7461 11.0566Q86.6866 10.8721 87.6006 10.6436Q88.5235 10.4062 89.3145 10.0107Q89.4357 10.6049 89.7996 10.9021Q89.9632 11.0358 90.1758 11.1094Q90.4918 11.2188 90.8114 11.231Q91.1854 11.2454 91.5645 11.127Q91.9563 11.0045 92.2581 10.7674Q92.4978 10.579 92.6807 10.3184Q92.7969 10.1503 92.8519 9.96411Q92.9924 9.48834 92.7334 8.89453Q92.3028 7.88379 92.1182 6.91699Q91.9424 5.94141 91.8721 4.86035Q91.8721 4.71973 91.8545 4.41211Q91.8369 4.10449 91.7754 3.82324Q91.7227 3.5332 91.5996 3.32227Q91.5396 3.21497 91.4481 3.1601Q91.3521 3.10254 91.2217 3.10254Q90.9023 3.10254 90.6506 3.23303Q90.5629 3.2785 90.4834 3.33984Q90.1758 3.56836 89.9561 3.92871Q89.7451 4.28906 89.5957 4.70215Q89.4551 5.11523 89.3496 5.44043Q89.2793 5.68652 89.2442 5.88867Q89.209 6.09082 89.1739 6.2666Q89.0948 6.2666 89.0596 6.30176Q88.3389 6.62695 87.5479 6.91699Q86.7569 7.20703 85.9307 7.45312Q86.0362 5.94141 86.1944 4.52637Q86.3614 3.10254 86.6514 1.47656Q86.6676 1.31073 86.5963 1.20258Q86.5126 1.07574 86.3086 1.02832Q86.0619 0.970947 85.8827 1.05585Q85.7873 1.10107 85.711 1.18652Q83.8828 4.42969 82.9776 8.2793L81.0703 8.71875Q80.42 8.85938 79.9014 8.94727Q79.84 8.95764 79.7783 8.96082Q79.3184 8.98419 78.8379 8.60449Q78.5175 8.362 78.4445 8.05975Q78.4434 8.0553 78.4424 8.05078Q78.4266 7.98138 78.4187 7.91107Q78.3919 7.6698 78.46 7.41797Q78.5479 7.09277 78.7412 6.77637Q78.9434 6.45117 79.128 6.09082Q79.5235 5.25586 79.9893 4.51758Q80.4551 3.7793 80.6397 2.84766Q80.6803 2.7207 80.6417 2.62604Q80.6135 2.55682 80.543 2.50488Q80.4548 2.43628 80.3612 2.4278Q80.2868 2.42102 80.209 2.45215Q79.1983 2.95312 78.0469 4.06934Q76.8955 5.18555 76.1924 6.52148Q75.567 7.70197 75.5535 8.8894Q75.5518 9.03693 75.5596 9.18457Q75.5784 9.50012 75.6718 9.79187Q75.971 10.727 77.0362 11.417Q77.4535 11.6782 77.9065 11.8378Q78.7036 12.1186 79.6114 12.085Q81.0352 12.0234 82.3272 11.7422Q82.0811 13.8955 82.1338 15.9697L82.1339 15.9724Q82.1868 18.0365 82.5821 20.0918L81.8614 20.2324Q81.3252 20.3467 80.6573 20.4697Q79.9893 20.5928 79.3565 20.5576Q78.9155 20.5328 78.5139 20.3938Q78.3473 20.3361 78.1875 20.2588L78.1848 20.2574Q77.6506 19.9846 77.3262 19.3008Q77.1504 18.9404 77.1504 18.4043Q77.1504 17.8594 77.2383 17.2705Q77.3262 16.6729 77.4317 16.1367Q77.5459 15.5918 77.5459 15.1963Q77.5459 15.0479 77.4855 14.9305Q77.4135 14.7908 77.2559 14.6953Q77.1307 14.6156 77.012 14.6244ZM130.21 7.96289Q130.966 7.70801 131.581 7.38281Q131.998 7.13019 132.133 6.77142Q132.172 6.6684 132.188 6.55664Q132.232 6.26782 132.17 6.00439Q132.122 5.80286 132.012 5.61621Q131.934 5.48401 131.831 5.37415Q131.6 5.12616 131.247 4.99219Q131.088 4.9278 130.924 4.91693Q130.575 4.89362 130.21 5.11523Q129.92 5.25586 129.507 5.42285Q129.094 5.58105 128.681 5.66016Q128.268 5.73047 127.907 5.66016Q127.804 5.63739 127.712 5.59143Q127.484 5.47748 127.327 5.2207Q127.271 5.12408 127.225 5.02246Q127.102 4.74493 127.064 4.42969Q127.011 3.99902 127.011 3.5332Q127.011 3.05859 126.984 2.61035Q126.967 2.16211 126.826 1.7666Q126.799 1.69977 126.754 1.65076Q126.679 1.5708 126.554 1.53809Q126.481 1.51483 126.414 1.52673Q126.304 1.54639 126.211 1.66113Q125.851 2.19727 125.596 2.93555Q125.463 3.33307 125.382 3.74078Q125.312 4.09027 125.279 4.44727Q125.215 5.15802 125.328 5.83905Q125.338 5.89911 125.35 5.95898Q125.461 6.54602 125.762 7.0108Q125.84 7.13055 125.93 7.24219Q126.239 7.61609 126.631 7.84967Q126.875 7.99493 127.151 8.08594Q127.268 8.12292 127.386 8.15253Q128 8.30591 128.663 8.26172Q129.024 8.23767 129.377 8.1734Q129.799 8.09674 130.21 7.96289ZM121.222 13.2526Q120.127 13.2034 119.013 13.5791Q119.013 11.7773 118.406 10.3359Q119.918 10.4062 121.333 10.2305Q122.757 10.0459 123.908 9.68555Q124.494 9.50543 124.733 9.11377Q124.774 9.04681 124.805 8.97363Q124.936 8.66888 124.929 8.36725Q124.925 8.16437 124.857 7.96289Q124.818 7.83441 124.757 7.71655Q124.577 7.36676 124.216 7.11035Q124.102 7.02948 123.976 6.974Q123.571 6.79456 123.047 6.88184L120.885 7.24219Q120.955 7.12793 120.973 7.04004Q120.99 6.95215 121.069 6.84668Q121.175 6.48865 121.153 6.13867Q121.123 5.67249 120.867 5.2207Q120.419 4.42969 119.883 3.8584Q119.628 3.60352 119.32 3.35742Q119.013 3.10254 118.67 2.94434Q118.423 2.82385 118.166 2.79944Q118.067 2.79004 117.967 2.79492Q117.888 2.79877 117.812 2.81348Q117.537 2.86621 117.29 3.05859Q117.252 3.08807 117.219 3.12335Q117.127 3.22498 117.088 3.375Q117.039 3.55505 117.096 3.68933Q117.101 3.69928 117.106 3.70898L117.325 4.13965Q117.36 4.21875 117.448 4.37695Q117.536 4.53516 117.571 4.61426Q117.686 4.79004 117.791 4.97461Q117.897 5.15039 117.967 5.33496Q118.187 5.73047 118.274 6.1084Q118.362 6.48633 118.441 6.88184Q118.517 7.14069 118.67 7.34058Q118.73 7.41895 118.802 7.48828Q118.512 7.52344 118.274 7.52344Q118.046 7.52344 117.756 7.55859Q116.78 7.6377 115.805 7.69043Q115.675 7.69751 115.546 7.71069Q114.713 7.79614 113.906 8.13867Q113.849 8.16565 113.811 8.20935Q113.75 8.27972 113.739 8.39355Q113.727 8.52063 113.778 8.61102Q113.798 8.64557 113.827 8.6748Q114.087 8.93494 114.381 9.14868Q114.822 9.46936 115.339 9.68555Q116.209 10.0459 117.211 10.2305Q117.115 10.5087 117.039 10.7921Q116.798 11.6813 116.745 12.6211Q116.696 13.4887 116.522 14.3305Q116.447 14.691 116.35 15.0469Q115.989 16.3477 115.392 17.4639Q114.803 18.5801 114.047 19.7314Q113.756 20.1637 113.803 20.556Q113.814 20.6502 113.845 20.7422Q113.928 20.9751 114.073 21.1597Q114.218 21.3442 114.425 21.4805Q114.502 21.5294 114.583 21.5699Q114.938 21.7474 115.374 21.7617Q115.58 21.7684 115.77 21.7159Q116.082 21.6296 116.35 21.3838Q117.396 20.417 118.116 18.6328Q118.523 17.6255 118.745 16.5789Q118.916 15.7719 118.978 14.9414Q119.804 14.8359 120.63 14.8359Q120.932 14.8359 121.218 14.9014Q121.725 15.017 122.186 15.3369Q122.716 15.7126 122.863 16.2034Q123.026 16.7458 122.722 17.4287Q122.432 18 122.001 18.4307Q121.931 18.5098 121.799 18.5977Q121.676 18.6855 121.57 18.7822Q121.465 18.8701 121.43 18.9229Q121.422 18.9342 121.424 18.9431Q121.432 18.9756 121.57 18.9756Q121.045 19.0012 120.721 19.2695Q120.6 19.3694 120.507 19.5029Q120.292 19.8058 120.219 20.1398Q120.175 20.3387 120.182 20.5488Q120.19 20.8081 120.273 21.0404Q120.368 21.3042 120.56 21.5332Q120.633 21.6211 120.722 21.6895Q121.067 21.9567 121.641 21.9287Q121.835 21.9161 122.022 21.871Q122.358 21.7899 122.669 21.6035Q122.951 21.4346 123.196 21.224Q123.372 21.0729 123.53 20.9004Q123.908 20.4873 124.198 19.9863Q124.488 19.4766 124.664 18.9756Q124.898 18.3975 124.988 17.7978Q125.049 17.3854 125.042 16.9629Q125.037 16.6708 124.986 16.3869Q124.855 15.6544 124.418 14.9766Q123.793 14.0711 122.931 13.6471Q122.496 13.4332 122.001 13.3418Q121.613 13.2701 121.222 13.2526ZM109.6 5.15039Q109.907 5.44043 110.303 5.76562Q110.408 5.87109 110.549 5.98535Q110.698 6.09082 110.839 6.19629Q110.839 6.23145 110.883 6.2666Q111.023 6.52148 111.234 6.66211Q111.674 6.9873 112.105 7.04004Q112.377 7.07336 112.628 7.01544Q112.774 6.98169 112.913 6.91699Q113.049 6.85052 113.168 6.76129Q113.38 6.60272 113.537 6.37207Q113.792 6.01172 113.827 5.47559Q113.87 4.97247 113.678 4.58508Q113.511 4.24835 113.168 3.99902Q112.43 3.46289 111.639 3.27832Q110.988 3.1377 110.285 3.01465Q110.014 2.96387 109.756 3.00177Q109.345 3.06226 108.967 3.34863Q108.873 3.43225 108.818 3.53625Q108.727 3.70551 108.738 3.92871Q108.753 4.23309 108.906 4.43091Q108.934 4.46729 108.967 4.5Q109.292 4.86035 109.6 5.15039ZM53.1387 14.5107Q55.1514 13.4648 56.5576 12.3486Q57.1347 11.8665 57.2496 11.2918Q57.2625 11.2275 57.2695 11.1621Q57.3277 10.6842 57.1675 10.2965Q57.1097 10.1566 57.0235 10.0283Q56.9467 9.91418 56.8537 9.81525Q56.553 9.49512 56.083 9.33398Q56.0207 9.3114 55.9569 9.29498Q55.399 9.15125 54.7207 9.47461Q54.6504 9.47461 54.624 9.49219Q54.6065 9.50977 54.5713 9.50977Q54.501 9.54492 54.2461 9.79102Q53.7803 10.1514 53.2969 10.459Q52.8135 10.7666 52.3037 11.0566Q51.6973 9.18457 50.6865 8.06836Q50.2512 7.58765 49.71 7.36774Q48.9944 7.07709 48.0938 7.24219Q47.9899 7.27679 47.9265 7.34766Q47.8612 7.42065 47.8389 7.53223Q47.8211 7.63867 47.8593 7.71826Q47.8969 7.79639 47.9883 7.84863Q48.624 8.26532 49.0389 8.84113Q49.3066 9.21265 49.4824 9.65039Q49.9307 10.7666 50.1065 12.0586Q49.822 12.1544 49.5346 12.2406Q48.952 12.4154 48.3574 12.5508Q47.4785 12.7441 46.5469 12.8145Q45.4307 12.8936 44.833 12.5684Q44.4973 12.3829 44.2758 12.1061Q44.1089 11.8974 44.0069 11.6367Q43.7783 11.0215 43.8311 10.2129Q43.8838 9.39551 44.0596 8.55176Q44.2442 7.70801 44.4727 6.88184Q44.71 6.04688 44.8506 5.40527Q44.8862 5.2746 44.8541 5.16357Q44.8149 5.02814 44.6748 4.92188Q44.5706 4.83923 44.462 4.83301Q44.305 4.82391 44.1387 4.97461Q43.4883 5.51074 42.8906 6.33691Q42.3018 7.16309 41.8623 8.15625Q41.4317 9.14941 41.1944 10.2305Q40.9658 11.3027 41.0537 12.2959Q41.1137 12.9116 41.3154 13.4766Q41.4392 13.823 41.6162 14.1504Q41.6899 14.2866 41.7754 14.4149Q42.2307 15.0979 43.0225 15.5566Q43.3907 15.7665 43.7804 15.9231Q44.9902 16.4094 46.4063 16.3828Q48.2783 16.3477 50.2207 15.7324L50.2207 16.0928Q50.2207 16.998 50.2559 18.1143Q50.291 19.2305 50.0361 20.0566Q49.7901 20.9883 49.3682 21.4277Q49.1302 21.6758 48.8427 21.8334Q48.6311 21.9495 48.3926 22.0166Q47.8389 22.1748 47.1885 22.1748Q46.5469 22.1748 45.791 22.2891Q45.5954 22.3365 45.4837 22.4599Q45.4298 22.5195 45.3955 22.5967Q45.3061 22.7905 45.3178 22.978Q45.3199 23.0116 45.3252 23.0449Q45.4464 24.0872 46.0229 24.7032Q46.2827 24.9808 46.6348 25.1719Q46.87 25.2977 47.1185 25.3865Q48.0677 25.7255 49.21 25.5234Q50.54 25.3309 51.4332 24.6025Q51.8445 24.2672 52.1631 23.8184Q52.5122 23.3265 52.7659 22.7897Q53.2467 21.7722 53.3848 20.5928Q53.4902 19.7666 53.4551 18.1143Q53.4199 16.4531 53.1387 14.5107ZM12.2332 17.2548Q12.7314 17.0688 13.0693 16.4531Q13.2836 16.0714 13.2836 15.6898Q13.2836 15.5704 13.2627 15.4512Q13.2258 15.2371 13.1346 15.0493Q13.0087 14.79 12.7793 14.5811Q12.4945 14.3216 12.1596 14.1852Q12.0294 14.1321 11.8916 14.0977Q11.4082 13.9746 10.9424 13.7197Q10.69 13.5823 10.4573 13.4172Q9.9607 13.0648 9.55371 12.5859Q9.03619 11.968 8.41685 11.4791Q8.33146 11.4116 8.24414 11.3467Q8.17383 11.2676 7.98926 11.2676Q7.69922 9.43066 6.96094 7.90137Q6.45833 6.86023 5.68279 6.09613Q5.31915 5.73779 4.89551 5.44043Q4.75544 5.33899 4.6366 5.35968Q4.5392 5.37659 4.45605 5.47559Q4.38393 5.56213 4.37247 5.65607Q4.35601 5.79108 4.46484 5.94141Q5.36133 7.16309 5.65137 8.98242Q5.94141 10.8018 5.79199 12.7705Q5.65137 14.7305 5.2207 16.6201Q4.79004 18.5098 4.24512 19.8721Q4.1748 20.0215 4.13965 20.127Q4.10449 20.2324 4.06934 20.3027L3.95508 20.6631Q3.77264 21.3549 4.01755 21.8231Q4.05581 21.8962 4.10449 21.9639Q4.30062 22.2365 4.56444 22.3998Q4.78534 22.5366 5.05371 22.5967Q5.17888 22.6224 5.30521 22.6309Q5.78206 22.6627 6.27539 22.4473Q6.45599 22.3695 6.60581 22.2524Q6.98094 21.9591 7.16309 21.4189Q7.59375 20.1621 7.88379 18.4395Q8.17383 16.708 8.24414 14.8711L8.74512 15.6973Q9.07031 16.1279 9.62402 16.5674Q10.1865 16.998 10.8105 17.2178Q11.272 17.3716 11.7242 17.3478Q11.892 17.339 12.0586 17.3057Q12.1482 17.2864 12.2332 17.2548ZM17.6045 9.74707Q17.6045 8.85938 17.5342 7.99805L17.4199 5.80078Q18.3252 5.80078 19.2393 5.88867Q20.1621 5.97656 20.5928 6.30176Q21.1992 6.73242 21.3047 7.18945Q21.3459 7.35132 21.3459 7.51318Q21.3459 7.79956 21.2168 8.08594Q21.0234 8.53418 20.5664 8.98242Q20.1182 9.43066 19.6348 9.87012Q19.1514 10.3008 18.6768 10.7314Q18.2109 11.1621 17.9648 11.5576Q17.8945 11.5225 17.6045 11.5225L17.6045 9.74707ZM3.41895 12.9814Q3.55957 11.707 3.48926 10.5117Q3.4743 10.2986 3.37665 10.1348Q3.24474 9.91351 2.96191 9.78223Q2.71776 9.66235 2.49603 9.69495Q2.27875 9.72693 2.08301 9.90527Q1.6715 10.2802 1.35752 10.7241Q1.06795 11.1335 0.861328 11.6016Q0.739405 11.8752 0.634388 12.1553Q0.368458 12.8644 0.210938 13.6143Q0.105469 14.1152 0.0527344 14.748Q0.0112429 15.239 0.0459251 15.7245Q0.0553226 15.8561 0.0703125 15.9873Q0.133701 16.542 0.361392 17.0181Q0.386259 17.07 0.413086 17.1211Q0.517506 17.3198 0.660654 17.485Q0.891019 17.7508 1.22168 17.9297Q1.60307 18.1095 1.98783 18.117Q2.22375 18.1216 2.46094 18.0615Q2.75183 17.9847 2.99258 17.83Q3.27556 17.6481 3.48926 17.3584Q3.81567 16.8967 3.78872 16.4565Q3.78592 16.4108 3.7793 16.3652Q3.70898 15.8818 3.55957 15.4072Q3.27832 14.2559 3.41895 12.9814ZM133.066 13.9474Q132.654 13.7932 132.117 13.9746Q131.687 14.1152 131.273 14.2646Q130.86 14.4053 130.465 14.5811L130.86 13.2188Q131.106 12.3135 131.194 11.5576Q131.219 11.3624 131.183 11.1796Q131.078 10.6542 130.465 10.2305Q130.192 10.0567 129.895 9.96069Q129.636 9.87708 129.357 9.85254Q129.089 9.82452 128.823 9.83661Q128.504 9.85107 128.189 9.92285Q128.151 9.93103 128.113 9.94006Q127.582 10.0663 127.09 10.3535Q126.571 10.6611 126.211 11.0566Q126.09 11.1776 126.086 11.3026Q126.084 11.3594 126.106 11.417Q126.129 11.4763 126.17 11.5197Q126.25 11.6046 126.396 11.6279Q126.791 11.6631 127.222 11.6279Q127.652 11.5928 128.048 11.6631Q128.698 11.7422 128.944 11.8125Q129.18 11.8776 129.228 12.0103Q129.232 12.021 129.234 12.0322Q129.278 12.1729 129.147 12.4277Q129.023 12.6738 128.874 13.0342Q128.698 13.5791 128.514 14.1328Q128.455 14.3174 128.408 14.5049Q128.314 14.8799 128.268 15.2666Q127.547 15.4512 126.791 15.5742Q126.225 15.6664 125.718 15.8918Q125.548 15.9672 125.385 16.0576Q125.237 16.1519 125.212 16.2714Q125.189 16.3858 125.279 16.5234Q125.497 16.7841 125.756 16.9926Q126.178 17.3326 126.712 17.5342Q127.582 17.8594 128.558 17.9297Q128.769 18.3955 128.98 18.668Q129.199 18.9404 129.357 19.1953Q129.524 19.4414 129.56 19.7842Q129.595 20.127 129.489 20.707Q129.278 21.8145 128.698 22.3066Q128.118 22.79 127.046 23.0801Q126.985 23.1033 126.922 23.1112Q126.795 23.1271 126.659 23.0801Q126.531 23.0336 126.411 23.0486Q126.35 23.0563 126.29 23.0801Q126.035 23.2559 125.903 23.3525Q125.78 23.4404 125.745 23.5459Q125.71 23.6514 125.798 23.8535Q125.895 24.0469 126.07 24.4863Q126.36 25.1631 126.844 25.3828Q127.007 25.4572 127.179 25.4932Q127.514 25.5639 127.881 25.4883Q128.443 25.3828 129.015 25.0752Q129.595 24.7676 130.069 24.3721Q130.57 23.9414 131.019 23.3877Q131.467 22.8252 131.757 22.2188Q131.854 22.0123 131.929 21.7979Q132.076 21.3735 132.135 20.918Q132.161 20.7163 132.161 20.5147Q132.161 20.0308 132.012 19.5469Q131.827 19.0459 131.52 18.7207Q131.221 18.3955 130.931 17.9648L130.825 17.7539Q132.337 17.4287 133.374 16.7432Q133.775 16.4777 133.938 16.1074Q133.997 15.975 134.024 15.8291Q134.105 15.4344 134.02 15.0787Q133.985 14.9274 133.919 14.7832Q133.805 14.5283 133.625 14.3348Q133.458 14.1545 133.233 14.0273Q133.152 13.9799 133.066 13.9474ZM113.155 12.239Q112.641 11.8125 111.955 11.5928Q111.674 11.4873 111.296 11.417Q110.994 11.3607 110.691 11.3607Q110.616 11.3607 110.54 11.3643Q110.3 11.3754 110.067 11.4219Q109.933 11.4488 109.802 11.4873Q109.441 11.5928 109.187 11.8125Q109.081 11.918 109.002 12.1025Q108.974 12.1729 108.97 12.2446Q108.963 12.3522 109.011 12.4629Q109.114 12.7563 109.31 12.9593Q109.449 13.1028 109.635 13.2012Q110.083 13.4297 110.479 13.7197Q110.804 13.9307 111.059 14.1855Q111.101 14.2277 111.118 14.2193Q111.129 14.2137 111.129 14.1855Q111.234 14.3701 111.305 14.5547Q111.384 14.7305 111.56 14.9062Q111.693 15.0583 111.861 15.1451Q112.013 15.2239 112.192 15.249Q112.457 15.2859 112.713 15.254Q112.823 15.2402 112.931 15.2139Q113.126 15.1663 113.293 15.0697Q113.434 14.988 113.555 14.8711Q113.635 14.796 113.698 14.7087Q113.85 14.4997 113.906 14.2207Q114.031 13.476 113.756 12.9363Q113.644 12.718 113.467 12.5332Q113.32 12.3755 113.155 12.239ZM56.1875 17.365Q56.0044 17.4506 55.8369 17.5693Q55.7452 17.6436 55.6948 17.7394Q55.6436 17.8366 55.6348 17.9561Q55.6278 18.0475 55.6404 18.136Q55.6594 18.2689 55.7227 18.3955L55.7227 18.3604Q55.9072 18.7207 56.2149 19.0283Q56.5225 19.3359 56.7686 19.626Q57.0235 19.9072 57.2344 20.127Q57.4541 20.3467 57.6387 20.5928Q57.6762 20.6302 57.6987 20.6753Q57.7184 20.7147 57.7266 20.7598Q57.7301 20.7773 57.7357 20.7942Q57.7582 20.8617 57.8145 20.918L57.7793 20.8301Q57.8145 20.918 57.9551 21.208Q58.2451 21.6387 58.6406 21.8584Q59.0096 22.0482 59.3817 22.0546Q59.6301 22.0588 59.8799 21.9814Q60.2089 21.8763 60.4548 21.6714Q60.6818 21.4823 60.8379 21.208Q61.1932 20.5616 61.1316 19.9576Q61.1003 19.65 60.961 19.3535Q60.887 19.1962 60.7974 19.0485Q60.3859 18.3708 59.6426 17.8945Q59.2896 17.6661 58.908 17.5059Q58.3204 17.2591 57.6651 17.1738Q56.8304 17.0644 56.1875 17.365ZM41.6414 19.2119Q41.5069 18.9678 41.1065 18.8701Q40.7639 18.816 40.4542 18.8934Q40.311 18.9293 40.1748 18.9932Q39.7442 19.1865 39.3135 19.4414Q39.1641 19.4766 38.9531 19.6611Q38.918 19.6611 38.8389 19.7314L38.7686 19.7314Q38.4785 19.8369 38.1885 19.9688Q37.9072 20.0918 37.6875 20.3818Q37.538 20.5637 37.4497 20.7717Q37.3461 21.0159 37.3272 21.2959Q37.3156 21.4664 37.3544 21.6245Q37.4336 21.9474 37.7227 22.2188Q38.3378 22.7629 38.9245 22.7339Q38.9918 22.7306 39.0586 22.7197Q39.2238 22.6929 39.3817 22.6429Q39.8452 22.4959 40.2451 22.1484Q40.7901 21.6738 41.168 20.9707Q41.5459 20.2676 41.6865 19.6963Q41.749 19.4072 41.6414 19.2119ZM112.729 19.3812Q112.525 19.2305 112.21 19.2305Q111.78 19.255 111.415 19.4211Q111.257 19.4928 111.111 19.5908Q110.628 19.9072 110.118 20.1973Q109.617 20.5225 109.107 20.7598Q108.606 20.9883 108.07 21.2783Q107.854 21.3955 107.7 21.5687Q107.474 21.8241 107.385 22.2012Q107.261 22.7525 107.411 23.2147Q107.431 23.2756 107.455 23.335Q107.62 23.6398 107.865 23.8537Q108.05 24.016 108.281 24.126Q108.476 24.2141 108.681 24.2481Q109.047 24.3091 109.441 24.1963Q110.04 23.9896 110.572 23.6716Q111.353 23.2054 111.99 22.5Q112.465 21.999 112.843 21.2959Q113.082 20.8514 113.096 20.3998Q113.104 20.1371 113.036 19.8721Q112.946 19.5414 112.729 19.3812ZM93.9139 19.8781Q93.9054 19.8721 93.8848 19.8721Q93.8994 19.8721 93.9139 19.8781ZM113.669 64.2246Q113.651 61.3242 113.186 58.2656Q113.036 57.3252 112.887 56.3232Q112.746 55.3125 112.474 54.3457Q112.21 53.3701 111.762 52.4912Q111.647 52.2643 111.515 52.0482Q111.129 51.4193 110.593 50.8828Q110.416 50.7167 110.226 50.5669Q109.021 49.6145 107.297 49.3184Q105.302 48.9756 103.157 49.2832Q102.726 49.3451 102.298 49.4258Q100.599 49.7463 98.9561 50.3643Q96.9082 51.1377 95.5108 52.1045Q95.5108 52.127 95.5 52.1351Q95.4939 52.1396 95.4844 52.1396Q95.4809 52.1396 95.4781 52.1411Q95.4668 52.1467 95.4668 52.1748L94.9658 52.5Q94.8759 52.59 94.8419 52.6976Q94.7929 52.8528 94.8604 53.0449Q94.21 54.0908 93.6651 55.4619Q93.1289 56.8242 92.7686 58.3359Q92.4082 59.8477 92.2588 61.4121Q92.1182 62.9766 92.2412 64.4531Q92.3731 65.9297 92.8037 67.1953Q93.179 68.2906 93.8614 69.1389Q93.962 69.264 94.0694 69.3838Q94.09 69.4076 94.1117 69.4303Q94.3873 69.7173 94.8516 69.8232Q95.3326 69.9227 95.7432 69.7953Q95.7677 69.7877 95.792 69.7793Q95.9766 70.2891 96.5654 70.667Q97.1631 71.0449 97.9541 71.3174Q98.7451 71.5811 99.6592 71.7656Q100.582 71.9414 101.408 72.0557Q102.234 72.1611 102.885 72.1963Q103.535 72.2314 103.79 72.2314Q104.467 72.1963 105.293 72.1611Q106.128 72.126 107.007 72.0029Q107.895 71.8711 108.756 71.6602Q109.617 71.4404 110.373 71.0801Q110.562 71.2138 110.771 71.3016Q110.959 71.3811 111.164 71.4229Q111.574 71.5065 111.952 71.4309Q111.971 71.4271 111.99 71.4229Q112.149 71.3883 112.292 71.3199Q112.512 71.2142 112.693 71.0273Q113.001 70.7197 113.106 70.1748Q113.687 67.1162 113.669 64.2246ZM78.1019 67.3271Q77.6975 67.2749 77.2559 67.5117L76.5352 67.8018Q76.7461 67.0811 76.8164 66.2725Q76.8955 65.4639 76.9658 64.6377Q77.2207 62.2207 77.2559 59.7598Q77.2864 57.616 76.9129 55.545Q76.8561 55.2302 76.79 54.917Q76.6406 54.2666 76.4385 53.5986Q76.2451 52.9307 75.9199 52.3418Q75.66 51.8641 75.299 51.4818Q75.2083 51.3859 75.1113 51.2959Q75.0869 51.2732 75.0619 51.2511Q74.5932 50.8365 73.9424 50.6279Q73.7103 50.5592 73.4735 50.5178Q72.3469 50.321 71.1123 50.7422Q69.6182 51.2432 68.4668 52.0693Q68.4311 51.9623 68.3571 51.9052Q68.2851 51.8495 68.1768 51.8408Q68.0859 51.8333 68.0081 51.8616Q67.9053 51.8989 67.8252 51.999Q67.4984 52.4318 67.2405 52.9022Q66.9849 53.3682 66.7969 53.8711Q66.4189 54.8818 66.1992 55.9629Q65.9883 57.0352 65.8564 58.1514Q65.7334 59.2676 65.6279 60.2783Q65.3379 62.4404 65.2061 64.6729Q65.1507 65.6765 65.2517 66.6642Q65.3754 67.8734 65.7334 69.0586Q65.7606 69.2555 65.8559 69.4105Q65.884 69.4561 65.918 69.498Q65.2324 69.5684 64.6348 69.6035Q64.0459 69.6387 63.6504 69.6387Q63.7571 69.5746 63.799 69.4814Q63.8262 69.4211 63.8262 69.3486Q63.8613 69.3135 63.8613 69.2432Q63.8438 69.2432 63.835 69.2344Q63.8262 69.2256 63.8262 69.208Q63.9839 68.9738 64.0324 68.7189Q64.0732 68.5049 64.0371 68.2764Q63.995 67.9709 63.8677 67.7065Q63.7825 67.5297 63.6592 67.3711Q63.5576 67.2366 63.4337 67.1276Q63.193 66.9158 62.8682 66.7998Q62.6527 66.7175 62.4338 66.7068Q62.1615 66.6936 61.8838 66.791Q60.953 67.1348 60.1262 67.6467Q60.0864 67.6713 60.0469 67.6963Q59.1855 68.2324 58.2451 68.707Q57.8496 68.918 57.3047 69.208Q56.7686 69.498 56.2061 69.7705Q55.7077 70.0078 55.188 70.181Q55.1303 70.2003 55.0723 70.2188Q54.501 70.3945 54.0352 70.3945L53.9297 70.3945Q53.7495 70.3945 53.6594 70.4846Q53.5693 70.5747 53.5693 70.7549Q53.5693 71.1245 53.7441 71.3691Q53.8437 71.5085 54 71.6074Q54.4307 71.8711 55.0195 71.9854Q55.3229 72.0389 55.6286 72.0607Q55.925 72.0819 56.2236 72.0732Q56.8389 72.0469 57.1992 72.0117Q58.7109 71.8359 60.3105 71.3174Q61.9189 70.79 63.1758 69.8584Q63.5361 70.3945 64.2568 70.7197Q64.9775 71.0449 65.7861 71.2119Q66.5947 71.3701 67.3857 71.4229Q68.1855 71.4756 68.7217 71.5107Q69.873 71.5811 71.1826 71.5283Q71.4596 71.5172 71.7362 71.4999Q72.7761 71.4349 73.8105 71.2822Q75.1289 71.0801 76.3857 70.7373Q77.6514 70.3945 78.7324 69.8936Q79.1946 69.6725 79.3454 69.3187Q79.3925 69.2083 79.4092 69.085Q79.4466 68.8355 79.4053 68.5999Q79.3594 68.3373 79.2158 68.0918Q79.1342 67.9522 79.028 67.8347Q78.78 67.5601 78.3984 67.4062Q78.2527 67.3466 78.1019 67.3271ZM110.856 59.0742Q110.804 60.0234 110.769 60.8584Q110.72 61.6168 110.651 62.3735Q110.57 63.2651 110.461 64.1543Q110.268 65.7891 110.013 67.4062Q109.222 67.5117 108.413 67.7842Q107.605 68.0566 106.787 68.3467Q105.979 68.6279 105.188 68.8828Q104.396 69.1377 103.711 69.208Q102.779 69.3135 101.821 69.3926Q101.023 69.4517 100.23 69.4052Q100.081 69.3964 99.9317 69.3838Q99.1406 69.3135 98.4375 69.0322Q97.7344 68.7422 97.0576 68.4521Q97.0928 68.2676 97.0752 68.0918Q97.0576 67.9072 97.0225 67.7314Q96.6182 65.9648 96.2227 64.4004Q95.8272 62.8359 95.8272 60.9639Q95.8623 59.0215 96.0996 57.0439Q96.2932 55.4236 96.2528 53.8091Q96.2437 53.4445 96.2227 53.0801Q97.2686 52.7549 98.5606 52.3066Q99.8613 51.8584 101.206 51.498Q102.56 51.1377 103.931 50.9443Q105.302 50.7422 106.506 50.9004Q107.407 51.0187 108.175 51.4028Q108.433 51.532 108.677 51.6914Q109.652 52.3242 110.232 53.5811Q110.593 54.3369 110.733 55.2773Q110.874 56.209 110.892 57.167Q110.918 58.1162 110.856 59.0742ZM54.7156 62.9026Q54.6315 63.133 54.5713 63.3721Q54.4185 63.9778 54.5266 64.5327Q54.5926 64.8715 54.7559 65.1914Q54.9014 65.4766 55.1133 65.6985Q55.5282 66.1332 56.1973 66.3252Q56.4916 66.4099 56.7916 66.4409Q57.1453 66.4775 57.5068 66.4395Q57.7723 66.408 58.0336 66.3558Q58.4298 66.2765 58.8164 66.1494Q59.0743 66.0623 59.3267 65.9613Q59.7108 65.8077 60.082 65.6221Q60.6973 65.3145 61.2334 64.998Q61.6468 64.7412 61.7924 64.3773Q61.8511 64.2306 61.8662 64.0664Q61.9003 63.6916 61.7912 63.3645Q61.7315 63.1853 61.6289 63.0205Q61.4805 62.7776 61.2722 62.6084Q61.0735 62.447 60.8203 62.3525Q60.6926 62.3027 60.5611 62.2892Q60.1589 62.2478 59.7217 62.5459Q59.5811 62.6514 59.1592 62.9062Q58.7461 63.1611 58.2803 63.3984Q57.8145 63.627 57.4014 63.7588Q57.032 63.8688 56.8735 63.7329Q56.8547 63.7168 56.8389 63.6973Q56.83 63.6862 56.8226 63.6743Q56.7115 63.4966 56.9092 63.126Q57.1289 62.7305 57.4717 62.2998Q57.8145 61.8604 58.1572 61.5Q58.5 61.1396 58.6055 60.999Q58.9658 60.6035 59.502 60.1201Q60.0469 59.6279 60.5127 59.0918Q60.8027 59.0215 60.9082 58.9512Q61.5327 58.7115 61.7612 58.2679Q61.8093 58.1746 61.8398 58.0723Q61.9503 57.7145 61.9033 57.3787Q61.8718 57.1536 61.7695 56.9385Q61.6905 56.7634 61.577 56.6147Q61.3371 56.3004 60.9434 56.1035Q60.8394 56.0507 60.7293 56.0195Q60.2345 55.8791 59.6162 56.1738Q59.1504 56.3936 58.6406 56.5781Q58.1396 56.7539 57.6387 56.8242Q57.4541 56.8594 57.1113 56.9297Q56.8187 56.9897 56.6734 56.8704Q56.6485 56.8499 56.6279 56.8242Q56.6228 56.8217 56.6186 56.818Q56.5653 56.7717 56.6631 56.5518Q56.7686 56.3145 56.9092 56.0859Q57.0586 55.8486 57.1992 55.6377Q57.3486 55.418 57.4189 55.3477Q58.1396 54.3721 59.0361 53.6338Q59.9414 52.8955 60.7676 52.0342Q60.9442 51.8575 60.9497 51.6758Q60.9543 51.5228 60.8379 51.3662Q60.7257 51.2154 60.5796 51.1667Q60.3935 51.1047 60.1523 51.208Q59.1504 51.6387 58.1924 52.3945Q57.2344 53.1504 56.4434 53.9062Q55.7666 54.5215 55.1865 55.3301Q54.7909 55.8816 54.6324 56.4944Q54.5585 56.7802 54.5361 57.0791Q54.4658 57.7559 54.6768 58.248Q54.8266 58.5776 55.0663 58.8173Q55.1781 58.9292 55.3096 59.0215Q55.7227 59.3027 56.2588 59.4521Q56.2748 59.4563 56.2909 59.4603Q56.8208 59.5928 57.3838 59.5928Q56.5576 60.3135 55.7051 61.2715Q55.0365 62.0236 54.7156 62.9026ZM74.4534 55.5989Q74.0714 55.5121 73.6172 55.7432Q72.29 56.3936 71.042 56.7012Q69.8027 57 68.4316 57.1143Q68.5811 56.1035 68.6514 55.1191Q68.7217 54.126 68.6514 53.1504Q69.4072 52.8955 70.2686 52.5615Q71.1387 52.2188 71.9824 52.1484Q72.5056 52.0994 72.9949 52.2057Q73.2948 52.271 73.582 52.3945Q74.3379 52.7197 74.874 53.7656Q75.0938 54.2314 75.1641 54.8291Q75.2344 55.418 75.2344 56.0332Q75.182 55.9791 75.1246 55.9309Q74.8745 55.7202 74.5312 55.6201Q74.4927 55.6078 74.4534 55.5989ZM168.856 54.0029Q168.548 53.335 167.907 52.6846Q167.901 52.6789 167.895 52.6734Q167.712 52.4995 167.379 52.4824Q167.076 52.4669 166.904 52.6094Q166.881 52.6281 166.861 52.6494Q166.14 53.3701 165.815 54.1084Q165.604 54.5861 165.493 55.0859Q165.433 55.3585 165.402 55.6377Q165.314 56.4287 165.384 57.29Q165.454 58.1514 165.525 59.0566Q165.595 59.9531 165.788 60.7441Q165.991 61.5352 166.175 62.4404Q166.281 62.8711 166.316 63.2139Q166.351 63.5566 166.421 63.8467Q166.5 64.1279 166.641 64.418Q166.79 64.708 167.072 65.0684Q167.17 65.1608 167.28 65.1773Q167.337 65.1859 167.397 65.1738Q167.581 65.1387 167.687 65.0332Q168.258 64.3125 168.364 63.6094Q168.478 62.9062 168.698 62.0098Q168.909 61.1045 169.032 60.2607Q169.163 59.417 169.234 58.4766Q169.304 57.6152 169.339 56.8594Q169.374 56.1035 169.269 55.3828Q169.215 55.0112 169.106 54.656Q169.005 54.3223 168.856 54.0029ZM108.946 57.3483Q108.682 57.1143 108.211 57.1143Q107.605 57.1143 107.024 57.2021Q106.453 57.29 105.873 57.4307Q105.825 57.2516 105.774 57.0734Q105.6 56.4645 105.39 55.8662Q105.117 55.0928 104.792 54.4863Q104.467 53.8711 104.054 53.4932Q103.813 53.2731 103.531 53.1812Q103.328 53.1152 103.105 53.1152Q102.967 53.1152 102.873 53.1791Q102.793 53.2338 102.744 53.335Q102.698 53.4281 102.706 53.5161Q102.716 53.6274 102.814 53.7305Q103.105 54.0469 103.263 54.5566Q103.43 55.0576 103.518 55.6201Q103.605 56.1738 103.641 56.7363Q103.676 57.29 103.746 57.7207L103.245 57.7207Q101.924 57.7207 100.731 57.3295Q100.527 57.2628 100.327 57.1846Q98.9649 56.6396 97.5586 56.1387Q97.3845 56.0707 97.2473 56.1156Q97.1006 56.1636 96.9961 56.3408Q96.8902 56.5238 96.9082 56.6936Q96.9231 56.8337 97.0225 56.9648Q97.9893 58.1865 99.6768 59.0742Q100.094 59.2902 100.525 59.4707Q101.85 60.0244 103.315 60.2432Q102.955 60.6387 102.577 61.0166Q102.199 61.3945 101.733 61.6846Q100.907 62.2559 100.02 62.4404Q99.1406 62.6162 98.1387 62.5459Q97.9163 62.5459 97.735 62.6322Q97.6512 62.6721 97.5762 62.7305Q97.5123 62.7778 97.4567 62.8334Q97.3058 62.9843 97.2158 63.1963Q97.1201 63.4219 97.1201 63.6475Q97.1201 63.7119 97.1279 63.7764Q97.1344 63.8281 97.1483 63.8777Q97.21 64.098 97.418 64.2773Q97.801 64.585 98.2379 64.7267Q98.4125 64.7834 98.5957 64.8135Q98.7509 64.8386 98.9071 64.8498Q99.4055 64.8854 99.9141 64.7783Q100.582 64.6377 101.232 64.3301Q101.883 64.0225 102.384 63.627Q103.14 63.0908 103.711 62.291Q103.676 62.4053 103.676 62.6865Q103.57 63.1963 103.438 63.4863Q103.399 63.5765 103.351 63.6622Q103.251 63.8437 103.113 64.0049Q102.92 64.2422 102.665 64.4443Q102.419 64.6377 102.094 64.9629Q101.804 65.2441 101.637 65.4463Q101.479 65.6396 101.338 66.0352Q101.217 66.4143 101.278 66.7607Q101.288 66.8159 101.303 66.8701Q101.354 67.0605 101.443 67.2307Q101.539 67.4138 101.681 67.5732Q101.742 67.6401 101.808 67.7012Q102.038 67.9133 102.331 68.0566Q102.468 68.1204 102.612 68.1564Q102.865 68.2197 103.14 68.1973Q104.33 68.1027 105.046 67.4709Q105.129 67.3982 105.205 67.3184Q105.364 67.1518 105.505 66.9709Q106.017 66.3121 106.286 65.4639Q106.629 64.3828 106.646 63.1611Q106.664 61.9307 106.523 60.9287Q106.488 60.7793 106.488 60.6035Q106.488 60.5439 106.481 60.4852Q106.466 60.3622 106.418 60.2432Q107.815 59.9883 108.791 59.2324Q109.018 59.0607 109.146 58.8334Q109.202 58.7349 109.239 58.626Q109.338 58.338 109.312 58.0612Q109.306 57.9917 109.292 57.9229Q109.259 57.7642 109.184 57.6301Q109.096 57.4744 108.949 57.3516L108.946 57.3483ZM123.082 67.5029Q123.943 68.1621 125.174 68.417Q125.605 68.5225 126.246 68.54Q126.897 68.5576 127.6 68.4873Q128.303 68.417 129.023 68.2588Q129.744 68.0918 130.351 67.8018Q130.315 68.4521 130.421 69.0674Q130.452 69.2333 130.499 69.3947Q130.624 69.8229 130.86 70.2188Q131.208 70.7831 131.698 70.9653Q131.864 71.0271 132.047 71.0449Q132.496 71.0887 132.888 70.9583Q133.124 70.8796 133.339 70.7373Q133.544 70.6038 133.705 70.4296Q134 70.111 134.147 69.6562Q134.209 69.4727 134.223 69.2856Q134.263 68.7558 133.919 68.1973Q133.987 68.2865 134.006 68.2771Q134.026 68.2672 133.989 68.1445Q133.919 67.9072 133.919 67.8018L133.849 66.5449Q133.814 65.9648 133.796 65.4287Q133.778 64.8838 133.778 64.3125Q133.778 64.1279 133.796 63.8115Q133.802 63.7031 133.802 63.5947Q133.802 63.3779 133.778 63.1611Q135.325 63.2314 136.477 62.9414Q136.871 62.8499 137.11 62.6057Q137.237 62.4747 137.32 62.2998Q137.498 61.9174 137.488 61.5399Q137.485 61.4142 137.461 61.2891Q137.431 61.1172 137.369 60.9584Q137.246 60.646 136.995 60.3838Q136.858 60.24 136.69 60.1578Q136.397 60.0139 136.011 60.0586Q135.07 60.1729 134.13 60.3223Q133.198 60.4629 132.267 60.498Q131.72 60.498 131.176 60.4528Q130.89 60.429 130.605 60.3926Q130.029 60.3128 129.469 60.3787Q129.227 60.4072 128.988 60.4629Q128.854 60.526 128.784 60.6316Q128.776 60.6436 128.769 60.6562Q128.746 60.6962 128.738 60.7389Q128.721 60.8278 128.769 60.9287Q128.878 61.1119 129.01 61.2775Q129.396 61.7634 129.973 62.0977Q130.746 62.5459 131.687 62.8008Q131.511 63.0908 131.397 63.3633Q131.291 63.627 131.221 63.917Q130.641 63.917 129.902 64.1191Q129.164 64.3125 128.391 64.5146Q127.617 64.708 126.879 64.8398Q126.141 64.9629 125.578 64.8223Q125.296 64.7462 125.087 64.579Q124.886 64.4178 124.752 64.1719Q124.488 63.6621 124.629 62.6162Q124.778 61.6494 125.227 60.7178Q125.675 59.7773 126.29 59.0566Q126.466 58.8369 126.949 58.4062Q127.273 58.123 127.623 57.8777Q127.806 57.7501 127.995 57.6328Q128.558 57.29 129.094 57.1494Q129.478 57.0442 129.748 57.1744Q129.862 57.2291 129.955 57.3252Q129.977 57.3547 130.006 57.376Q130.079 57.4307 130.192 57.4307Q130.268 57.4307 130.326 57.3982Q130.389 57.363 130.43 57.29Q130.79 56.499 130.553 56.0508Q130.491 55.9349 130.41 55.8361Q130.175 55.5526 129.771 55.4092Q129.234 55.207 128.549 55.2246Q127.872 55.2422 127.362 55.3828Q126.745 55.5701 126.171 55.8477Q125.748 56.0522 125.35 56.3057Q124.948 56.5596 124.582 56.8575Q124.1 57.2507 123.68 57.7207Q123.441 57.9879 123.222 58.2708Q122.765 58.8624 122.397 59.5225Q122.298 59.7013 122.207 59.8837Q121.801 60.6962 121.535 61.5791Q121.175 62.7305 121.245 63.8467Q121.314 64.9366 121.743 65.8589Q121.753 65.8812 121.764 65.9033Q121.883 66.1467 122.03 66.3721Q122.446 67.0095 123.082 67.5029ZM75.1113 58.4238Q75.0938 58.6611 75.0938 58.8369L74.9883 60.999Q74.795 60.8916 74.5933 60.8724Q74.3823 60.8523 74.1621 60.9287Q72.6064 61.3594 71.0771 61.7549Q69.5479 62.1504 68.001 62.5811Q68.0361 61.7197 68.0889 60.876Q68.1504 60.0234 68.2207 59.1973Q68.2207 59.0566 68.2383 58.916Q68.2559 58.7666 68.2559 58.5908Q68.7101 58.7612 69.1788 58.867Q70.3791 59.138 71.6748 58.9863Q73.4766 58.7666 74.9883 58.0107Q75.0586 57.9756 75.0762 57.958Q75.0938 57.9404 75.1641 57.9053Q75.1289 58.1865 75.1113 58.4238ZM146.071 70.5615Q147.565 70.0342 148.681 69.1377Q149.3 68.6788 149.795 68.1116Q150.277 67.5598 150.641 66.9053Q151.226 65.8461 151.414 64.7208Q151.463 64.4266 151.485 64.1279Q151.532 63.4763 151.433 62.8481Q151.312 62.0866 150.975 61.3594Q150.909 61.2147 150.833 61.0756Q150.209 59.9302 148.892 59.1621Q147.846 58.5469 146.457 58.248Q145.078 57.9404 143.742 58.0635Q142.716 58.1586 141.837 58.5686Q141.579 58.6891 141.333 58.8369Q141.011 59.031 140.746 59.2855Q140.124 59.8834 139.822 60.8145Q139.461 61.3242 139.25 61.8252Q139.07 62.2055 138.927 62.5993Q138.554 63.6254 138.433 64.7432Q138.338 65.6714 138.481 66.5618Q138.575 67.155 138.776 67.7314Q139.296 69.3437 140.403 70.1055Q140.454 70.1411 140.507 70.1748Q140.982 70.4771 141.497 70.6711Q142.27 70.9623 143.135 71.0098Q144.577 71.0801 146.071 70.5615ZM143.048 61.8737Q143.413 61.5208 143.997 61.3945Q144.682 61.2539 145.473 61.3945Q146.264 61.5352 146.879 61.8604Q147.741 62.3701 147.969 63.0557Q148.078 63.3672 148.098 63.6844Q148.122 64.0562 148.022 64.4355Q147.846 65.1387 147.328 65.7891Q146.923 66.2894 146.417 66.6454Q146.274 66.746 146.123 66.835Q145.508 67.2305 144.77 67.4854Q144.032 67.7314 143.364 67.6963Q142.998 67.6768 142.673 67.5517Q142.412 67.4514 142.177 67.2832Q141.659 66.9053 141.439 66Q141.424 65.9471 141.411 65.894Q141.263 65.3019 141.263 64.6729Q141.263 63.9873 141.369 63.3369Q141.682 63.3167 141.908 63.1661Q142.075 63.0544 142.195 62.8711Q142.59 62.3701 142.968 61.957Q143.007 61.9139 143.048 61.8737ZM74.3027 66.1318Q73.9072 67.4766 73.0459 68.0215Q72.7482 68.2332 72.6497 68.5146Q72.6173 68.6071 72.6064 68.707Q72.3252 68.7773 72.0703 68.7949Q71.8154 68.8125 71.5342 68.8828Q70.8135 68.9883 70.1104 69.0498Q69.4072 69.1025 68.6865 69.1729Q68.6162 69.1729 68.502 69.1904Q68.3965 69.208 68.2559 69.208Q68.3293 69.0869 68.3782 68.9564Q68.4463 68.7748 68.4668 68.5752Q68.4912 68.3846 68.445 68.2131Q68.4081 68.0761 68.3262 67.9512Q68.1504 66.9053 68.0713 65.8594Q68.001 64.8135 68.001 63.7676Q69.7154 64.0896 71.3867 63.9376Q71.4033 63.9362 71.4199 63.9346Q73.1146 63.7678 74.8355 63.2676Q74.6936 64.7941 74.3027 66.1318ZM168.329 67.3037Q167.945 67.0811 167.432 67.0811Q167.235 67.0811 167.048 67.126Q166.628 67.2271 166.263 67.5557Q165.924 67.8605 165.837 68.2255Q165.791 68.4183 165.815 68.6279Q165.858 69.0239 166.04 69.3383Q166.158 69.5405 166.333 69.709Q166.459 69.8276 166.605 69.9136Q166.987 70.1396 167.502 70.1396Q167.712 70.1396 167.911 70.0911Q168.326 69.9892 168.689 69.6738Q169.05 69.3651 169.141 68.9908Q169.187 68.8003 169.163 68.5928Q169.127 68.2629 168.984 67.9888Q168.849 67.7297 168.619 67.5205Q168.484 67.3939 168.329 67.3037Z" fill="#FFFFFFFF"/>
	<defs/>
</svg>
