<svg width="65.819092" height="40.878235" viewBox="0 0 65.8191 40.8782" fill="none" xmlns="http://www.w3.org/2000/svg" xmlns:xlink="http://www.w3.org/1999/xlink">
	<desc>
			Created with Pixso.
	</desc>
	<path id="Path_44098" d="M65.8162 29.8463C65.8162 29.8463 46.8692 37.6683 29.4081 36.3121C28.9188 36.2717 28.5468 35.8719 28.5589 35.3998C28.5826 34.4609 28.6012 32.8141 28.5363 30.8854C28.3857 26.3815 65.8162 29.8463 65.8162 29.8463Z" fill-rule="evenodd" fill="#A9CBD3"/>
	<path id="Path_44099" d="M28.5402 30.8845C28.5805 32.0779 28.5883 33.1625 28.5834 34.0388C46.197 36.0414 65.816 29.8463 65.816 29.8463C65.816 29.8463 28.3857 26.3815 28.5402 30.8845Z" fill-rule="evenodd" fill="#8CB8BF"/>
	<path id="Path_44100" d="M26.8478 12.1902C26.8478 12.1902 29.2812 20.405 28.1093 25.2506C26.9373 30.0962 57.8969 32.3306 65.8172 29.8454C65.8172 29.8454 52.3108 23.725 44.2823 18.1194C39.1257 14.6809 33.1057 12.6336 26.8478 12.1902Z" fill-rule="evenodd" fill="#CCE4EA"/>
	<g opacity="0.500000">
		<path id="Path_44101" d="M28.1093 25.2506C26.9384 30.0952 57.8969 32.3306 65.8172 29.8454C51.8808 29.1706 30.406 19.6176 30.406 19.6176C29.5773 16.9974 28.3802 14.4986 26.8479 12.1902C26.8479 12.1902 29.2812 20.4041 28.1093 25.2506Z" fill-rule="evenodd" fill="#A9CBD3"/>
	</g>
	<path id="Path_44102" d="M18.8361 16.6762C18.0549 17.0293 14.4081 18.6154 10.4632 19.9886C4.54048 22.049 -0.967865 22.3896 0.143951 23.7799C1.13588 25.0197 13.0815 31.5404 28.0335 32.9713C42.9854 34.4023 60.4209 31.6814 65.8191 29.8482C57.2296 29.0703 48.7347 27.5205 40.4457 25.2194C27.3684 21.4972 21.0747 15.6636 18.8361 16.6762Z" fill-rule="evenodd" fill="#F7FCFE"/>
	<path id="Path_44103" d="M65.8172 29.8463C65.8172 29.8463 56.3638 24.3799 49.8302 17.4693C41.2743 8.41986 37.7073 0.709534 36.8945 0.0933838C36.0817 -0.522705 34.0744 1.96259 30.8734 5.96112C29.3516 7.92621 28.0051 10.0113 26.8478 12.1941C26.8479 12.1941 51.9162 28.8687 65.8172 29.8463Z" fill-rule="evenodd" fill="#F7FCFE"/>
	<path id="Path_44104" d="M16.7893 27.8934C10.6816 31.1395 2.40515 31.8748 4.82875 33.5661C7.25235 35.2573 29.0046 44.0513 55.4299 39.6657C55.4299 39.6657 31.382 40.0395 19.7806 36.747C6.14824 32.8799 10.5211 31.8522 12.2638 30.9673C13.9406 30.1936 15.4704 29.1545 16.7893 27.8934Z" fill-rule="evenodd" fill="#FFFFFF"/>
	<path id="Path_44105" d="M61.9796 37.2334C61.9796 37.2334 40.8128 28.676 29.3827 20.8067C29.3827 20.8067 31.6882 15.2476 35.5209 11.8083C35.5209 11.8083 32.7234 15.9971 32.1823 18.3962C31.9313 19.5082 33.5303 21.3026 35.8664 23.0128C41.4021 27.0691 61.9796 37.2334 61.9796 37.2334Z" fill-rule="evenodd" fill="#FFFFFF"/>
	<defs/>
</svg>
