<svg width="73.800049" height="70.979980" viewBox="0 0 73.8 70.98" fill="none" xmlns="http://www.w3.org/2000/svg" xmlns:xlink="http://www.w3.org/1999/xlink">
	<desc>
			Created with Pixso.
	</desc>
	<ellipse id="Ellipse 33" cx="36.899994" cy="35.489990" rx="36.899998" ry="35.489998" fill="#FFFFFF"/>
	<mask id="mask2_13207" mask-type="alpha" maskUnits="userSpaceOnUse" x="0.000061" y="0.000000" width="73.799988" height="70.979980">
		<ellipse id="Ellipse 34" cx="36.900055" cy="35.489990" rx="36.899998" ry="35.489998" fill="#FFFFFF"/>
	</mask>
	<g mask="url(#mask2_13207)">
		<path id="Vector 31" d="M18.8348 72.2895C18.8348 66.5805 18.0951 52.3096 36.2188 52.3096C54.3425 52.3096 54.7123 64.5826 54.7123 72.2895L18.8348 72.2895Z" fill-rule="evenodd" fill="#323941"/>
		<path id="Rectangle 20" d="M32.6797 39.5246L40.2337 39.5246L40.2337 54.6608C40.2337 54.6608 39.6042 55.9418 36.4567 55.9418C33.3092 55.9418 32.6797 54.6608 32.6797 54.6608L32.6797 39.5246Z" fill-rule="evenodd" fill="#E59780"/>
		<ellipse id="Ellipse 35" cx="53.003067" cy="29.731567" rx="2.515871" ry="4.014987" transform="rotate(8.34092 53.0031 29.7316)" fill="#E3827E"/>
		<ellipse id="Ellipse 36" cx="21.073563" cy="29.837158" rx="2.514954" ry="4.243848" transform="rotate(-9.98247 21.0736 29.8372)" fill="#E3827E"/>
		<path id="Ellipse 34" d="M51.6601 27.4456C52.6441 42.588 42.1667 48.7396 36.4081 48.7396C30.6495 48.7396 21.6481 42.588 21.6481 26.0261C21.6481 16.4962 28.3422 12.8014 36.86 12.8014C45.3778 12.8014 51.6601 17.9158 51.6601 27.4456Z" fill-rule="evenodd" fill="#F5B5A4"/>
		<path id="Vector 29" d="M36.8555 33.2496C36.0414 33.3633 34.5463 33.7953 35.0792 34.614C35.6121 35.4326 36.4855 34.955 36.8555 34.614" stroke="#AD6B68" stroke-width="0.455963" stroke-linecap="round"/>
		<path id="Vector 28" d="M21.3484 29.8362L22.2927 30.1387L22.2927 25.9008C24.2861 25.699 26.951 23.7817 27.9582 20.149C29.2172 15.6082 43.3811 21.0571 45.8991 19.2408C44.3253 26.5059 51.5646 22.5709 51.2499 27.1115L51.2499 30.7441L52.1942 30.7441L52.1942 27.1115C57.2302 24.3871 53.3902 14.4578 49.3614 14.7C50.6204 10.7653 43.0034 4.40784 35.1975 6.82965C27.3917 9.2514 18.6932 11.9822 19.1452 18.9382C19.4599 23.7817 20.8239 24.1855 21.3484 26.5063L21.3484 29.8362Z" fill-rule="evenodd" fill="#323941"/>
		<ellipse id="Ellipse 37" cx="31.839539" cy="28.729736" rx="1.757143" ry="1.690000" fill="#34393C"/>
		<ellipse id="Ellipse 39" cx="32.278702" cy="28.306885" rx="0.439286" ry="0.422500" fill="#8C9AA3"/>
		<path id="Vector 33" d="M28.2198 25.7968C28.2198 25.7968 30.6359 23.4732 33.052 24.4026" stroke="#444D56" stroke-width="0.651376" stroke-linecap="round"/>
		<path id="Vector 34" d="M45.5978 25.5519C45.5978 25.5519 43.1817 23.2283 40.7657 24.1577" stroke="#444D56" stroke-width="0.651376" stroke-linecap="round"/>
		<ellipse id="Ellipse 38" cx="42.171570" cy="28.729248" rx="1.757143" ry="1.690000" fill="#34393C"/>
		<ellipse id="Ellipse 40" cx="42.610733" cy="28.306885" rx="0.439286" ry="0.422500" fill="#8C9AA3"/>
		<path id="Vector 30" d="M33.0344 38.8271C34.1619 40.23 37.0934 42.194 39.7994 38.8271" stroke="#444D56" stroke-width="0.651376" stroke-linecap="round"/>
		<ellipse id="Ellipse 39" cx="44.135208" cy="34.137451" rx="1.888511" ry="1.816348" fill="#FF9692"/>
		<ellipse id="Ellipse 40" cx="29.124710" cy="34.137451" rx="1.888511" ry="1.816348" fill="#FF9692"/>
		<path id="Vector 32" d="M30.8047 54.1251C30.6859 55.0317 31.3035 56.8995 34.7237 57.1171C38.9989 57.3891 41.4928 56.0291 41.4928 54.9411" stroke="#FFFFFF" stroke-width="0.651376" stroke-linecap="round"/>
	</g>
	<defs/>
</svg>
