<svg width="77.180145" height="49.343140" viewBox="0 0 77.1801 49.3431" fill="none" xmlns="http://www.w3.org/2000/svg" xmlns:xlink="http://www.w3.org/1999/xlink">
	<desc>
			Created with Pixso.
	</desc>
	<path id="Path_44090" d="M77.1792 44.9772C77.1792 44.9772 51.7487 48.5631 31.1673 41.5502C30.5914 41.3512 30.2762 40.7552 30.4481 40.1903C30.7885 39.067 31.3612 37.0889 31.9241 34.7438C33.2397 29.2726 77.1792 44.9772 77.1792 44.9772Z" fill-rule="evenodd" fill="#A9CBD3"/>
	<path id="Path_44091" d="M31.924 34.7438C31.5757 36.1937 31.2243 37.5025 30.9262 38.5577C51.4771 46.3968 77.1742 44.9772 77.1742 44.9772C77.1742 44.9772 33.2386 29.2726 31.924 34.7438Z" fill-rule="evenodd" fill="#8CB8BF"/>
	<path id="Path_44092" d="M36.112 11.7009C36.112 11.7009 36.3087 22.3478 33.282 27.8237C30.2553 33.2996 66.8098 45.5328 77.1801 44.9782C77.1801 44.9782 62.9466 33.4435 55.1385 24.217C50.0722 18.4857 43.5024 14.164 36.112 11.7009Z" fill-rule="evenodd" fill="#CCE4EA"/>
	<g opacity="0.500000">
		<path id="Path_44093" d="M33.282 27.8237C30.2572 33.2996 66.8098 45.5327 77.1801 44.9781C60.6145 39.8676 37.9255 21.7459 37.9255 21.7459C37.7998 18.3336 37.1896 14.954 36.1119 11.7007C36.1119 11.7008 36.3068 22.3478 33.282 27.8237Z" fill-rule="evenodd" fill="#A9CBD3"/>
	</g>
	<path id="Path_44094" d="M24.9622 14.6356C23.9033 14.8193 18.9774 15.6066 13.7722 16.0439C5.95037 16.7007 -0.799855 15.4146 0.0768806 17.4313C0.859204 19.2295 13.0785 30.7651 30.6154 37.0975C48.1522 43.4299 70.0629 45.5205 77.1793 44.9763C67.0898 41.3932 57.3713 36.9091 48.1513 31.5828C33.6391 23.0785 27.9998 14.1066 24.9622 14.6356Z" fill-rule="evenodd" fill="#F7FCFE"/>
	<path id="Path_44095" d="M77.1793 44.9773C77.1793 44.9773 67.6109 35.4792 62.0414 25.1445C54.748 11.6053 53.0171 1.21759 52.2446 0.225769C51.4721 -0.766052 48.2239 1.60748 43.0363 5.43097C40.5491 7.32965 38.2324 9.42633 36.111 11.6989C36.111 11.699 60.7562 39.5175 77.1793 44.9773Z" fill-rule="evenodd" fill="#F7FCFE"/>
	<path id="Path_44096" d="M21.1277 23.2547C12.6869 25.2847 2.47202 23.62 4.82872 26.4043C7.18542 29.1887 30.462 46.486 63.7595 49.3431C63.7595 49.3431 34.6627 42.3824 21.7821 34.8425C6.64813 25.9841 12.2569 26.092 14.6511 25.5677C16.9292 25.1507 19.1185 24.3688 21.1277 23.2547Z" fill-rule="evenodd" fill="#FFFFFF"/>
	<path id="Path_44097" d="M72.461 48.4318C72.461 48.4318 49.8102 31.5992 38.6606 18.5984C38.6606 18.5984 43.2853 12.6116 49.0517 9.64929C49.0517 9.64929 44.2862 13.8343 42.8348 16.558C42.1627 17.8205 43.4921 20.4742 45.7366 23.2548C51.0551 29.8464 72.461 48.4318 72.461 48.4318Z" fill-rule="evenodd" fill="#FFFFFF"/>
	<defs/>
</svg>
