<svg width="369.000000" height="364.364014" viewBox="0 0 369 364.364" fill="none" xmlns="http://www.w3.org/2000/svg" xmlns:xlink="http://www.w3.org/1999/xlink">
	<desc>
			Created with Pixso.
	</desc>
	<mask id="mask2_12735" mask-type="alpha" maskUnits="userSpaceOnUse" x="0.000000" y="0.000000" width="369.000000" height="364.364014">
		<rect id="Rectangle_53" width="369.000000" height="364.364014" fill="#000000"/>
	</mask>
	<g mask="url(#mask2_12735)">
		<g opacity="0.200000">
			<ellipse id="Ellipse_540" cx="184.007996" cy="335.499023" rx="165.311996" ry="21.294001" fill="#71ABDE"/>
		</g>
		<path id="Path_43883" d="M167.862 194.705C167.862 194.705 180.494 192.734 186.781 194.91C191.33 196.484 196.79 200.24 198.254 211.589C198.254 211.589 183.215 215.848 167.863 215.988C167.862 215.989 165.501 202.719 167.862 194.705Z" fill-rule="evenodd" fill="#F3AE92"/>
		<g opacity="0.500000">
			<path id="Path_43884" d="M179.277 215.216C179.682 211.866 180.044 206.217 178.489 202.804C177.21 199.993 172.932 197.658 167.352 196.869C165.884 204.897 167.856 215.987 167.856 215.987C171.675 215.936 175.488 215.679 179.277 215.216L179.277 215.216Z" fill-rule="evenodd" fill="#EB7C74"/>
		</g>
		<g opacity="0.200000">
			<path id="Path_43885" d="M186.781 194.91C183.725 194.065 180.542 193.723 177.368 193.899C180.5 194.032 190.468 196.348 193.358 202.742C194.638 205.768 195.547 208.928 196.065 212.157C197.46 211.812 198.254 211.589 198.254 211.589C196.788 200.24 191.328 196.485 186.781 194.91Z" fill-rule="evenodd" fill="#FFFFFF"/>
		</g>
		<path id="Path_43886" d="M73.9062 208.487C68.0376 206.761 68.3545 206.46 62.9434 204.577C57.5324 202.695 56.8308 202.495 52.1736 200.83C47.5164 199.166 31.0244 196.986 23.7193 217.603C16.1897 238.848 24.5763 245.781 29.5003 249.294C37.144 254.748 54.8186 260.927 59.9355 262.941C59.9344 262.941 49.9093 228.099 73.9062 208.487Z" fill-rule="evenodd" fill="#F29297"/>
		<path id="Path_43887" d="M73.9062 208.487C68.0376 206.761 68.3545 206.46 62.9434 204.577C57.5324 202.695 56.8308 202.495 52.1736 200.83C47.5164 199.166 31.0244 196.986 23.7193 217.603C16.1897 238.848 24.5763 245.781 29.5003 249.294C37.144 254.748 54.8186 260.927 59.9355 262.941C59.9344 262.941 49.9093 228.099 73.9062 208.487Z" fill-rule="evenodd" fill="#F29297"/>
		<path id="Path_43888" d="M72.6997 208.845C64.8277 206.817 54.1257 202.699 50.4032 201.804C46.6806 200.91 41.0965 201.177 38.0255 203.684C34.9544 206.191 42.5077 203.657 51.5329 206.61C60.5581 209.564 64.3584 211.329 67.3644 212.438C70.3705 213.547 72.6997 208.845 72.6997 208.845Z" fill-rule="evenodd" fill="#F5A9A7"/>
		<g opacity="0.500000">
			<path id="Path_43889" d="M47.3096 226.995C41.9792 224.664 36.1677 222.321 32.7463 218.654C25.8022 211.211 31.2811 205.215 35.6157 202.281C31.0764 204.716 26.6554 209.316 23.7191 217.603C16.1896 238.848 24.5762 245.781 29.4992 249.294C37.1439 254.748 54.8185 260.927 59.9353 262.941C59.9353 262.941 55.6323 247.981 59.4158 232.149C55.2416 230.422 51.1934 228.692 47.3096 226.995Z" fill-rule="evenodd" fill="#EC6469"/>
		</g>
		<g opacity="0.500000">
			<path id="Path_43890" d="M30.068 206.611C27.2027 209.826 25.0423 213.565 23.7163 217.603C16.1867 238.849 24.5733 245.782 29.4963 249.295C37.1411 254.749 54.8156 260.928 59.9325 262.942C58.5581 257.5 57.8644 251.921 57.866 246.321C49.58 243.129 41.6031 239.241 34.0277 234.701C17.9973 224.625 29.1302 207.96 30.068 206.611Z" fill-rule="evenodd" fill="#E73555"/>
		</g>
		<path id="Path_43891" d="M93.8695 272.438C93.3405 273.13 92.4804 273.513 91.5896 273.454C89.6009 273.422 85.6403 271.57 75.5002 268.496C67.3478 266.025 62.2379 265.039 60.7097 263.724C56.9026 260.45 52.1725 248.145 55.6559 232.697C58.913 218.256 68.7923 210.589 72.1872 209.059C74.9669 207.807 77.9721 208.069 83.6635 209.701C87.1073 210.688 90.6136 211.459 94.1607 212.011C96.184 212.327 98.1214 212.556 99.9507 212.718C104.767 213.142 103.875 214.869 103.875 214.869C103.875 214.869 87.2552 220.827 83.452 238.254C78.6619 260.2 93.8695 272.438 93.8695 272.438Z" fill-rule="evenodd" fill="#16A461"/>
		<path id="Path_43892" d="M72.6998 208.846C72.5276 208.911 72.3555 208.982 72.1842 209.059C70.4188 209.961 68.7953 211.099 67.3627 212.439C74.6633 215.223 82.1354 217.572 89.7364 219.472C89.7368 219.472 94.0132 219.078 97.2673 218.426C98.4294 217.635 99.5157 216.987 100.458 216.473C99.5469 216.03 98.5697 215.726 97.5616 215.57C89.3757 213.878 77.6975 210.381 72.6998 208.846Z" fill-rule="evenodd" fill="#3EC664"/>
		<path id="Path_43893" d="M56.1381 230.846C55.9698 231.455 55.7996 232.06 55.6559 232.696C52.1725 248.144 56.9026 260.449 60.7097 263.724C62.2379 265.039 67.3488 266.026 75.5002 268.496C85.6404 271.57 89.6009 273.423 91.5896 273.454C92.4804 273.513 93.3405 273.13 93.8695 272.438C93.8695 272.438 80.0827 261.327 82.9117 241.306C73.6139 238.005 64.5807 234.417 56.1381 230.846Z" fill-rule="evenodd" fill="#16935D"/>
		<path id="Path_43894" d="M91.5907 273.453C92.4814 273.512 93.3415 273.129 93.8705 272.437C89.8696 268.828 86.8056 264.366 84.9251 259.41L77.1515 253.192C77.1515 253.192 66.5135 249.979 54.4693 244.948C54.7852 254.397 57.9851 261.376 60.7127 263.723C62.2409 265.037 67.3517 266.023 75.5033 268.494C85.6414 271.569 89.602 273.422 91.5907 273.453Z" fill-rule="evenodd" fill="#0E7F4C"/>
		<path id="Path_43895" d="M69.3228 237.579C72.7717 217.957 91.324 212.374 93.6 211.916C90.4995 211.411 87.4312 210.739 84.4094 209.904L84.3957 209.904C81.2843 210.234 65.3483 217.191 62.4721 234.775C59.6844 251.81 66.787 264.172 69.2883 266.7C71.1058 267.205 73.1741 267.787 75.5002 268.491C76.6565 268.843 77.7222 269.174 78.7238 269.492C78.7238 269.492 66.0097 256.429 69.3228 237.579Z" fill-rule="evenodd" fill="#FFD348"/>
		<path id="Path_43896" d="M80.6053 211.202C78.4166 212.238 76.3545 213.506 74.4573 214.981C76.813 215.782 79.4048 216.618 82.1059 217.417C84.2427 215.883 86.5451 214.575 88.9732 213.516C86.1098 212.765 83.2238 211.959 80.6053 211.202Z" fill-rule="evenodd" fill="#FFE568"/>
		<g opacity="0.100000">
			<path id="Path_43897" d="M78.72 269.496L78.7259 269.496C78.7259 269.496 66.0097 256.429 69.3228 237.58C69.3986 237.152 69.489 236.738 69.5786 236.323C67.2556 235.414 64.9633 234.499 62.7014 233.579C62.6207 233.976 62.539 234.375 62.4721 234.785C59.6844 251.82 66.787 264.182 69.2883 266.71L69.304 266.715L70.4347 267.03L70.8518 267.148L71.829 267.424L72.3447 267.572C72.689 267.666 73.0433 267.774 73.4015 267.878L73.8846 268.018C74.409 268.174 74.9453 268.333 75.4993 268.5C76.0838 268.678 76.6446 268.85 77.1849 269.018C77.7252 269.185 78.2271 269.339 78.72 269.496Z" fill-rule="evenodd" fill="#E85D1C"/>
		</g>
		<g opacity="0.300000">
			<path id="Path_43898" d="M77.1888 269.014C77.7074 269.174 78.2034 269.33 78.6865 269.487L78.7219 269.497L78.7278 269.497C73.9726 264.1 70.7649 257.603 69.4221 250.647C67.2937 249.907 64.8278 249.021 62.1562 248.008C63.3369 258.027 67.4964 264.893 69.2902 266.706L69.3 266.706L70.4277 267.021L70.4376 267.021L70.7377 267.105C71.189 267.231 71.6541 267.363 72.133 267.5L72.3475 267.562L73.3916 267.865L73.4014 267.865L73.8846 268.005C74.408 268.159 74.9434 268.318 75.4963 268.486C76.0808 268.664 76.6416 268.836 77.1819 269.003L77.1888 269.014Z" fill-rule="evenodd" fill="#E85D1C"/>
		</g>
		<path id="Path_43899" d="M271.308 190.457C271.308 190.457 268.273 189.404 256.927 193.636C245.582 197.867 179.125 220.066 103.877 214.868C103.877 214.868 88.363 212.824 78.8694 233.851C69.3759 254.878 87.8287 269.766 87.8287 269.766C87.8287 269.766 113.654 283.944 175.988 286.725C235.944 289.399 264.864 282.939 277.564 279.816C290.741 276.576 295.258 273.993 296.028 272.36C296.761 270.794 271.308 190.457 271.308 190.457Z" fill-rule="evenodd" fill="#FFD348"/>
		<g opacity="0.100000">
			<path id="Path_43900" d="M151.681 255.895C128.517 255.835 101.563 248.302 77.0087 239.17C72.442 257.341 87.8238 269.767 87.8238 269.767C87.8238 269.767 113.65 283.945 175.983 286.725C235.939 289.4 264.859 282.94 277.559 279.817C290.736 276.577 295.253 273.993 296.023 272.361C296.209 271.964 294.706 266.481 292.361 258.528L246.242 248.141C246.242 248.141 205.006 256.036 151.681 255.895Z" fill-rule="evenodd" fill="#E85D1C"/>
		</g>
		<path id="Path_43901" d="M271.307 190.457C271.307 190.457 268.273 189.404 256.926 193.636C245.58 197.867 179.122 220.066 103.872 214.868C103.872 214.868 90.7738 213.158 81.2841 229.194C143.807 249.228 216.063 233.851 239.13 226.834L272.509 216.244L277.505 210.146C273.95 198.795 271.307 190.457 271.307 190.457Z" fill-rule="evenodd" fill="#FFDA60"/>
		<path id="Path_43902" d="M255.689 204.517C255.689 204.517 272.47 192.165 266.849 193.358C261.228 194.55 236.668 206.354 185.36 214.347C156.311 218.851 126.735 219.262 97.5623 215.568C94.7203 216.378 92.0651 217.703 89.7387 219.47C102.598 222.387 127.197 226.832 160.898 224.663C214.942 221.187 246.109 208.439 255.689 204.517Z" fill-rule="evenodd" fill="#FFE568"/>
		<path id="Path_43903" d="M81.2841 229.194C143.807 249.228 216.063 233.851 239.131 226.834" stroke="#FFEAA8" stroke-width="3.000000"/>
		<path id="Path_43904" d="M252.771 262.714C242.761 266.132 165.808 282.559 77.1514 253.193C79.0395 259.564 82.735 265.303 87.8238 269.767C87.8238 269.767 113.649 283.945 175.983 286.726C235.939 289.4 264.859 282.94 277.559 279.817C290.736 276.577 295.253 273.994 296.023 272.361C296.26 271.858 293.777 263.172 290.305 251.635L252.771 262.714Z" fill-rule="evenodd" fill="#FECB2F"/>
		<g opacity="0.300000">
			<path id="Path_43905" d="M296.024 272.358C295.957 271.379 295.766 270.411 295.456 269.477L274.455 268.545C250.204 279.135 145.679 292.467 77.1524 253.193C77.9987 256.224 79.3016 259.119 81.0197 261.787C82.8686 264.754 85.1613 267.442 87.8241 269.767C87.8239 269.767 113.649 283.945 175.983 286.726C235.94 289.4 264.859 282.94 277.559 279.817C290.737 276.575 295.254 273.99 296.024 272.358Z" fill-rule="evenodd" fill="#E85D1C"/>
		</g>
		<path id="Path_43906" d="M252.771 262.714C242.761 266.132 165.808 282.559 77.1514 253.193" stroke="#FFE568" stroke-width="3.000000"/>
		<path id="Path_43907" d="M102.822 241.322C97.6421 240.249 95.128 239.7 91.4321 239.107C85.0056 238.076 84.1693 246.169 89.1364 248.854C92.9886 250.912 97.1517 252.377 101.475 253.196C104.024 253.748 106.637 253.984 109.248 253.899C111.744 253.77 114.07 252.352 114.631 250.201C115.374 247.554 113.999 244.782 111.392 243.671C108.63 242.599 105.757 241.812 102.822 241.322Z" fill-rule="evenodd" fill="#16A461"/>
		<path id="Path_43908" d="M89.1365 248.852C92.9886 250.909 97.1518 252.374 101.475 253.193C104.024 253.745 106.637 253.981 109.248 253.896C111.426 253.866 113.407 252.682 114.399 250.817C104.933 248.537 95.378 245.638 86.0507 242.414C85.548 244.973 86.7867 247.557 89.1365 248.852Z" fill-rule="evenodd" fill="#16935D"/>
		<path id="Path_43909" d="M106.369 251.795C105.779 251.752 105.489 251.727 104.908 251.667C104.318 251.06 104.03 250.751 103.479 250.127C100.24 246.383 99.06 244.453 96.969 243.753C95.559 243.279 93.9895 243.331 93.0823 245.024C92.6401 245.947 92.6284 247.007 93.0498 247.939C92.3541 247.907 92.0058 247.885 91.3091 247.825C90.8426 246.566 90.9742 245.174 91.6692 244.017C92.7614 242.037 95.2479 241.191 97.3911 242.071C99.8384 242.894 101.318 245.018 103.947 248.085C104.325 248.549 104.519 248.779 104.919 249.233L104.969 249.239C105.478 246.982 105.691 245.849 106.031 243.584C106.684 243.647 107.015 243.671 107.674 243.706C107.406 246.425 106.97 249.126 106.369 251.795L106.369 251.795Z" fill-rule="evenodd" fill="#FFD348"/>
		<path id="Path_43910" d="M271.308 190.456C268.356 191.213 258.95 200.14 252.539 208.329C246.127 216.517 239.598 223.471 239.131 226.833C238.663 230.196 243.911 241.859 246.242 248.138C248.573 254.417 251.722 261.482 252.771 262.712C253.82 263.943 268.51 266.971 274.455 268.543C280.401 270.115 293.925 272.802 296.023 272.356C298.122 271.911 318.188 251.566 328.322 238.232C335.949 228.304 342.914 217.922 349.176 207.148C349.992 205.467 350.002 202.388 345.688 201.715C341.374 201.042 321.786 198.651 306.283 196.333C291.776 194.166 274.572 189.623 271.308 190.456Z" fill-rule="evenodd" fill="#F8E9D0"/>
		<path id="Path_43911" d="M347.564 202.273C346.972 201.997 346.339 201.809 345.688 201.716C341.375 201.043 321.787 198.652 306.283 196.334C291.776 194.165 274.572 189.623 271.307 190.456C268.355 191.213 258.949 200.14 252.538 208.329C247.286 215.036 241.962 220.908 239.948 224.665C243.631 223.543 257.67 221.163 286.654 215.987C292.052 215.024 298.544 213.8 303.874 212.892C318.67 210.306 333.267 206.758 347.565 202.273L347.564 202.273Z" fill-rule="evenodd" fill="#FCF1E0"/>
		<path id="Path_43912" d="M347.564 202.273C350.665 206.072 344.836 209.89 338.528 215.101C332.221 220.312 317.797 230.35 291.06 238.233C263.39 246.392 257.353 246.392 246.244 248.137C248.575 254.416 251.724 261.481 252.773 262.712C253.822 263.942 268.512 266.97 274.457 268.542C280.402 270.114 293.927 272.801 296.025 272.356C298.124 271.91 318.19 251.565 328.324 238.231C335.95 228.303 342.914 217.921 349.176 207.147C349.657 206.299 349.757 205.299 349.452 204.379C349.148 203.459 348.466 202.698 347.564 202.273Z" fill-rule="evenodd" fill="#F5DFCE"/>
		<path id="Path_43913" d="M339.996 202.747C339.996 202.747 319.295 201.576 303.851 199.022C289.763 196.692 270.592 192.87 266.853 193.36C262.842 196.801 259.111 200.532 255.693 204.52C257.14 203.613 263.905 203.469 283.245 204.527C299.499 205.416 330.795 205.163 339.996 202.747Z" fill-rule="evenodd" fill="#FFF8ED"/>
		<path id="Path_43914" d="M347.128 210.707C337.829 225.471 307.742 253.965 274.456 268.544C280.402 270.114 293.926 272.803 296.024 272.357C298.123 271.912 318.189 251.567 328.323 238.233C337.063 226.734 343.87 216.109 347.127 210.707L347.128 210.707Z" fill-rule="evenodd" fill="#EDC1AD"/>
		<path id="Path_43915" d="M345.688 201.716C341.714 201.096 324.773 199.017 310.006 196.881C310.006 196.881 299.963 205.481 305.53 220.906C311.097 236.33 328.322 238.233 328.322 238.233C335.949 228.306 342.914 217.924 349.176 207.15C349.993 205.468 350.002 202.39 345.688 201.716Z" fill-rule="evenodd" fill="#194A72"/>
		<path id="Path_43916" d="M345.108 201.629L344.738 201.576L344.53 201.546L344.16 201.493L343.865 201.452L343.5 201.401L343.166 201.356L342.762 201.301L342.413 201.254L341.933 201.189L341.619 201.147L341.029 201.068L340.744 201.031C333.649 200.085 321.206 198.501 310.009 196.882C305.705 201.146 303.478 206.961 303.878 212.891C327.328 208.896 350.196 203.46 345.691 201.716L345.257 201.651L345.108 201.629Z" fill-rule="evenodd" fill="#29688C"/>
		<path id="Path_43917" d="M349.345 206.737C349.371 206.666 349.396 206.594 349.417 206.52C349.431 206.474 349.444 206.426 349.456 206.381C349.473 206.314 349.488 206.247 349.504 206.179C349.516 206.126 349.526 206.071 349.536 206.017C349.546 205.963 349.554 205.891 349.563 205.827C349.572 205.764 349.578 205.707 349.583 205.646C349.583 205.598 349.583 205.551 349.589 205.502C349.596 205.351 349.594 205.2 349.581 205.05C349.581 205.016 349.581 204.982 349.573 204.949C349.564 204.863 349.55 204.778 349.534 204.693C349.527 204.658 349.521 204.623 349.514 204.588C349.495 204.5 349.472 204.413 349.444 204.326C349.436 204.296 349.427 204.27 349.417 204.241C349.385 204.147 349.35 204.052 349.309 203.962L349.299 203.94C349.145 203.607 348.932 203.302 348.668 203.039L348.66 203.031C348.573 202.945 348.48 202.863 348.384 202.786L348.322 202.737C348.222 202.659 348.118 202.587 348.011 202.52C347.985 202.504 347.959 202.489 347.934 202.473C347.817 202.403 347.696 202.334 347.564 202.272C350.665 206.072 344.835 209.889 338.528 215.1C334.457 218.464 324.74 224.014 312.208 230.841C319.096 236.972 328.335 238.57 328.322 238.233C335.948 228.306 342.913 217.924 349.176 207.15C349.223 207.055 349.266 206.951 349.307 206.846C349.322 206.811 349.333 206.769 349.345 206.737Z" fill-rule="evenodd" fill="#123668"/>
		<path id="Path_43918" d="M304.962 204.995C319.202 204.952 334.113 204.292 339.992 202.748C339.992 202.748 322.49 201.757 307.665 199.612C306.506 201.275 305.596 203.087 304.962 204.995Z" fill-rule="evenodd" fill="#3C8DAA"/>
		<path id="Path_43919" d="M330.122 235.841C330.573 235.236 331.018 234.635 331.458 234.036L331.518 233.955C331.977 233.332 332.427 232.713 332.869 232.099L333.204 231.634C333.61 231.071 334.011 230.513 334.406 229.959C334.44 229.909 334.476 229.859 334.511 229.81C334.935 229.213 335.352 228.622 335.761 228.038C335.865 227.89 335.969 227.742 336.072 227.595C336.435 227.074 336.793 226.56 337.145 226.051L337.286 225.849C337.679 225.281 338.062 224.722 338.433 224.173L338.7 223.781C339.032 223.29 339.359 222.807 339.679 222.332C339.723 222.265 339.768 222.198 339.813 222.134C340.17 221.601 340.519 221.078 340.858 220.566L341.08 220.23C341.379 219.779 341.671 219.335 341.957 218.898L342.082 218.709C342.405 218.213 342.719 217.73 343.022 217.26C343.075 217.181 343.121 217.103 343.174 217.025C343.449 216.597 343.716 216.18 343.977 215.773C344.007 215.726 344.038 215.678 344.068 215.63C344.355 215.179 344.631 214.743 344.897 214.32L344.985 214.181C345.239 213.777 345.483 213.385 345.717 213.011L345.752 212.955C346.001 212.552 346.239 212.166 346.466 211.798L346.492 211.755C346.716 211.388 346.929 211.038 347.128 210.714C342.873 217.468 334.258 227.099 322.985 236.954C324.717 237.547 326.505 237.978 328.324 238.24C328.812 237.598 329.292 236.96 329.766 236.324L330.122 235.841Z" fill-rule="evenodd" fill="#0E2D54"/>
		<path id="Path_43920" d="M102.339 215.987C101.856 219.408 103.467 225.183 112.376 228.311C121.284 231.44 134.22 228.924 135.617 228.924C137.013 228.924 138.56 229.817 137.63 234.734C136.7 239.65 138.252 246.391 138.252 246.391C136.722 247.364 136.189 249.283 137.011 250.86C138.25 253.948 135.772 256.917 135.772 260.198C135.772 263.48 133.759 272.55 142.432 273.448C151.105 274.346 172.633 265.521 172.323 262.935C172.013 260.35 165.757 258.806 162.303 253.917C158.848 249.028 160.004 218.953 146.729 218.493C133.454 218.032 102.339 215.987 102.339 215.987Z" fill-rule="evenodd" fill="url(#paint_linear_2_12789_0)"/>
		<path id="Path_43921" d="M110.138 137.638C110.138 137.638 102.669 135.425 96.2007 141.944C90.9609 147.223 86.6283 155.414 90.9353 158.625C95.2423 161.836 110.138 137.638 110.138 137.638Z" fill-rule="evenodd" fill="#28BBE2"/>
		<g opacity="0.200000">
			<path id="Path_43922" d="M110.138 137.639C105.075 139.734 100.642 143.021 97.2475 147.197C93.2318 152.008 90.8053 152.087 90.7473 149.374C88.8669 153.11 88.3927 156.733 90.9313 158.626C95.2432 161.833 110.138 137.639 110.138 137.639Z" fill-rule="evenodd" fill="#242357"/>
		</g>
		<path id="Path_43923" d="M85.6945 167.961C83.5858 167.656 79.2719 168.73 76.9202 173.913C74.5684 179.097 72.868 191.289 76.2658 195.564C79.6635 199.839 83.9911 198.74 83.9911 198.74L85.6945 167.961Z" fill-rule="evenodd" fill="#28BBE2"/>
		<g opacity="0.200000">
			<path id="Path_43924" d="M79.1891 183.39C78.3035 189.235 75.1931 189.257 74.3607 187.64C74.3794 190.905 74.9156 193.863 76.2677 195.563C79.6654 199.837 83.993 198.739 83.993 198.739L85.6963 167.961C85.6963 167.961 80.9073 172.074 79.1891 183.39Z" fill-rule="evenodd" fill="#242357"/>
		</g>
		<path id="Path_43925" d="M140.47 136.303C136.39 134.092 123.446 132.234 113.387 135.993C103.328 139.752 88.424 158.942 82.8015 174.822C77.1789 190.702 81.9365 205.118 99.9487 207.13C117.961 209.142 127.259 206.752 131.633 204.741C136.008 202.731 142.979 188.23 146.067 172.045C149.154 155.861 140.47 136.303 140.47 136.303Z" fill-rule="evenodd" fill="#28BBE2"/>
		<g opacity="0.200000">
			<path id="Path_43926" d="M140.47 136.304C139.307 135.673 130.984 134.715 122.453 137.277C114.586 139.643 101.493 148.784 94.4531 161.48C87.4126 174.176 95.1241 199.108 94.4531 200.921C93.9256 202.341 88.3779 201.874 83.8878 198.584C86.9667 203.127 92.24 206.269 99.9477 207.13C117.961 209.141 127.258 206.752 131.632 204.742C136.007 202.731 142.978 188.23 146.066 172.045C149.153 155.861 140.47 136.304 140.47 136.304Z" fill-rule="evenodd" fill="#242357"/>
		</g>
		<g opacity="0.200000">
			<path id="Path_43927" d="M81.8391 169.305C79.5296 170.579 77.051 173.808 76.1496 178.192C75.2482 182.577 77.3423 181.913 77.9592 179.935C78.5761 177.956 79.4185 173.41 81.7564 170.867C83.6604 168.794 82.765 168.794 81.8391 169.305Z" fill-rule="evenodd" fill="#F5FFFE"/>
		</g>
		<g opacity="0.200000">
			<path id="Path_43928" d="M103.139 138.388C99.8927 139.372 97.1074 141.419 95.2668 144.172C93.8715 146.57 95.4064 147.165 96.9395 145.558C98.4726 143.951 101.458 140.305 104.459 139.232C107.46 138.158 105.793 137.639 103.139 138.388Z" fill-rule="evenodd" fill="#F5FFFE"/>
		</g>
		<g opacity="0.200000">
			<path id="Path_43929" d="M123.339 134.785C124.082 134.88 121.411 135.593 117.346 137.639C112.999 139.827 106.612 144.867 103.963 147.324C101.315 149.782 99.6634 147.556 106.633 141.345C111.938 136.614 119.791 134.353 123.339 134.785Z" fill-rule="evenodd" fill="#F5FFFE"/>
		</g>
		<path id="Path_43930" d="M164.988 152.513C166.01 154.378 169.953 166.325 166.415 172.871C162.876 179.416 159.054 175.142 159.054 175.142L162.498 153.226L164.988 152.513Z" fill-rule="evenodd" fill="#007CB6"/>
		<path id="Path_43931" d="M164.752 156.836C164.628 155.471 164.352 154.123 163.93 152.815L162.498 153.224L159.054 175.14C159.715 175.834 160.591 176.304 161.553 176.479C161.225 175.894 161.005 175.57 161.005 175.57C161.005 175.57 165.943 168.375 164.752 156.836Z" fill-rule="evenodd" fill="#00629E"/>
		<path id="Path_43932" d="M167.078 171.339C165.079 170.04 162.459 170.04 160.46 171.339C158.556 172.766 158.019 177.506 158.019 177.506L159.855 188.775C160.899 189.598 162.135 190.166 163.457 190.43C164.833 190.508 166.169 189.971 167.078 188.975C167.847 188.352 169.575 188.352 170.222 186.69C170.87 185.028 170.871 183.054 171.735 181.91C172.598 180.767 175.277 178.898 174.096 175.885C172.915 172.871 172.415 171.46 173.119 169.131C173.743 167.071 174.773 165.309 173.632 163.973C172.213 162.311 169.274 163.625 167.857 165.806C167.908 167.679 167.645 169.547 167.078 171.339Z" fill-rule="evenodd" fill="#F8C6A3"/>
		<path id="Path_43933" d="M168.153 178.464C168.131 177.748 165.269 176.96 163.26 175.042C161.252 173.123 163.26 169.905 165.65 170.668C163.908 170.073 161.974 170.322 160.456 171.337C158.552 172.764 158.015 177.504 158.015 177.504L159.851 188.773C160.895 189.596 162.131 190.164 163.453 190.428C164.362 190.536 165.28 190.308 166.02 189.789C165.267 190.092 164.397 189.88 163.884 189.27C162.9 188.212 164.23 185.964 164.891 184.496C165.551 183.028 161.84 181.887 163.71 178.723C164.627 177.166 168.177 179.181 168.153 178.464Z" fill-rule="evenodd" fill="#F2A37C"/>
		<path id="Path_43934" d="M171.808 163.23C170.152 163.465 168.697 164.414 167.857 165.806C167.908 167.679 167.645 169.548 167.077 171.34C167.077 171.34 169.093 172.592 170.539 173.565C170.01 172.802 169.637 171.948 169.442 171.05C168.827 169.172 168.877 167.151 169.584 165.303C170.025 164.366 170.82 163.625 171.808 163.23L171.808 163.23Z" fill-rule="evenodd" fill="#F2A37C"/>
		<g opacity="0.300000">
			<path id="Path_43935" d="M172.426 168.579C171.48 170.604 172.307 173.23 173.103 175.098C173.899 176.966 174.017 178.708 172.015 181.576C173.057 180.414 175.164 178.622 174.098 175.883C172.923 172.87 172.415 171.458 173.12 169.129C173.744 167.069 174.774 165.307 173.633 163.971C174.016 164.638 173.526 166.225 172.426 168.579Z" fill-rule="evenodd" fill="#FFFFFF"/>
		</g>
		<path id="Path_43936" d="M156.131 147.314C156.131 147.314 161.86 146.092 162.895 156.136C164.087 167.675 159.148 174.87 159.148 174.87C159.148 174.87 164.894 183.267 161.865 193.28C159.874 199.858 126.062 206.226 99.9478 200.698C99.9478 200.698 100.824 178.226 109.197 162.842C114.124 153.71 121.996 146.359 131.633 141.892L140.474 141.343C140.474 141.343 144.558 146.38 148.431 147.941C152.305 149.503 156.131 147.314 156.131 147.314Z" fill-rule="evenodd" fill="#EFF8FC"/>
		<path id="Path_43937" d="M128.238 202.488L140.198 193.28C140.198 193.28 125.818 196.269 117.511 194.725C109.204 193.18 107.236 185.133 110.137 181.576L107.972 176.838L103.631 177.344C101.633 184.998 100.4 192.818 99.9488 200.698C109.245 202.565 118.767 203.167 128.238 202.488Z" fill-rule="evenodd" fill="#CCE4EA"/>
		<path id="Path_43938" d="M146.727 171.22C146.727 171.22 155.744 171.504 159.149 174.87C159.646 174.196 160.045 173.46 160.337 172.682C156.336 170.046 151.234 169.498 146.727 171.22Z" fill-rule="evenodd" fill="#CCE4EA"/>
		<path id="Path_43939" d="M112.281 179.358C115.976 180.254 120.832 184.878 130.623 185.496C140.414 186.113 144.87 183.21 149.429 179.358C143.901 181.451 137.781 181.592 132.156 179.755C121.513 176.225 118.478 167.479 107.574 167.241C107.401 167.241 107.235 167.25 107.066 167.254C103.34 175.948 101.54 185.858 100.688 192.617L112.281 179.358Z" fill-rule="evenodd" fill="#CCE4EA"/>
		<path id="Path_43940" d="M150.961 158.919C150.961 158.919 150.779 166.475 144.467 168.58C144.467 168.58 153.801 168.485 154.071 163.222C154.34 157.959 150.961 158.919 150.961 158.919Z" fill-rule="evenodd" fill="#A9CBD3"/>
		<path id="Path_43941" d="M146.727 150.84C146.727 150.84 146.991 158.331 151.682 159.564C156.538 160.84 152.58 150.957 151.922 150.875C151.263 150.794 146.727 150.84 146.727 150.84Z" fill-rule="evenodd" fill="#A9CBD3"/>
		<path id="Path_43942" d="M150.701 149.359C148.266 150.4 147.124 153.189 146.921 155.042C146.718 156.895 146.738 157.258 146.258 157.157C144.576 156.93 143.015 156.189 141.806 155.042C139.579 153.117 144.85 145.559 144.85 145.559L145.821 145.559C147.712 145.56 149.426 146.627 150.201 148.286L150.701 149.359Z" fill-rule="evenodd" fill="#A9CBD3"/>
		<path id="Path_43943" d="M158.598 151.437C159.908 152.864 159.808 155.868 159.908 156.495C160.007 157.121 163.221 154.943 163.457 153.765C163.693 152.586 161.796 147.477 161.796 147.477L158.598 151.437Z" fill-rule="evenodd" fill="#A9CBD3"/>
		<path id="Path_43944" d="M133.207 143.221L139.451 142.833C141.447 147.741 141.447 153.192 139.451 158.1C136.131 166.565 129.497 170.577 121.971 169.815L133.207 143.221Z" fill-rule="evenodd" fill="#CCE4EA"/>
		<path id="Path_43945" d="M131.629 141.894L137.873 141.506C139.868 146.414 139.868 151.864 137.873 156.772C134.552 165.238 127.918 169.25 120.393 168.488L131.629 141.894Z" fill-rule="evenodd" fill="#007CB6"/>
		<path id="Path_43946" d="M120.394 168.488C121.543 168.602 122.702 168.601 123.85 168.482C127.301 164.665 131.404 159.877 133.368 156.642C135.959 152.36 136.365 147.173 134.468 142.567C134.246 142.25 133.96 141.979 133.627 141.77L131.63 141.894L120.394 168.488Z" fill-rule="evenodd" fill="#00629E"/>
		<path id="Path_43947" d="M119.216 165.781C119.216 165.781 88.4929 202.486 86.2012 205.02C83.9095 207.554 83.4519 210.089 78.1806 209.979C72.9092 209.869 69.0147 210.86 64.6604 211.852C60.3062 212.844 57.2135 212.514 57.556 210.088C57.8984 207.661 62.9414 204.578 62.9414 204.578L52.1716 200.831C53.4125 199.305 55.3128 198.412 57.3268 198.406C60.8781 198.296 66.722 199.839 68.4411 199.839C70.1602 199.839 71.764 198.737 74.9728 194.549C78.1817 190.361 102.7 158.625 102.7 158.625L119.216 165.781Z" fill-rule="evenodd" fill="#F8C6A3"/>
		<path id="Path_43948" d="M99.1921 163.166C97.2004 165.745 94.5486 169.179 91.7137 172.848C93.9897 175.44 96.3277 177.618 97.3225 177.857C98.6144 178.168 102.027 177.298 103.631 177.344C103.631 177.344 84.1929 202.197 81.7162 204.936C79.2395 207.675 74.5616 206.706 70.2802 207.889C65.9989 209.072 60.7029 212.863 57.6998 211.202C58.3777 212.587 61.0956 212.665 64.6615 211.853C69.0147 210.86 72.9114 209.865 78.1817 209.98C83.4519 210.095 83.9115 207.555 86.2023 205.021C87.937 203.103 105.951 181.619 114.612 171.28L99.1921 163.166Z" fill-rule="evenodd" fill="#F2A37C"/>
		<path id="Path_43949" d="M65.9376 203.03C65.9376 203.03 55.3528 200.577 54.4406 200.244C53.6435 199.955 54.4082 199.027 55.0103 198.839C53.8838 199.226 52.8978 199.919 52.1715 200.833L62.9413 204.58C63.9117 204.014 64.9118 203.496 65.9377 203.03L65.9376 203.03Z" fill-rule="evenodd" fill="#F2A37C"/>
		<g opacity="0.300000">
			<path id="Path_43950" d="M74.9728 194.551C71.764 198.739 70.1601 199.841 68.4411 199.841C66.7221 199.841 60.879 198.298 57.3268 198.408C57.0613 198.417 56.7966 198.44 56.5337 198.476C60.2207 198.526 64.3289 200.029 66.3678 200.538C68.4066 201.047 70.3038 201.484 72.6988 198.839C75.0938 196.194 91.1833 173.538 91.1882 173.53C84.3434 182.393 76.6712 192.331 74.9728 194.551Z" fill-rule="evenodd" fill="#FFFFFF"/>
		</g>
		<path id="Path_43951" d="M131.625 141.894C129.703 138.96 120.329 139.135 112.814 145.301C104.267 152.312 96.1968 160.33 96.1968 160.33C96.1968 160.33 97.3118 164.248 103.583 169.555C106.777 172.385 110.971 173.939 115.313 173.902C115.313 173.902 126.789 162.121 130.525 155.971C133.116 151.689 133.522 146.5 131.625 141.894Z" fill-rule="evenodd" fill="#DEF1F8"/>
		<path id="Path_43952" d="M103.588 169.553C106.781 172.383 110.975 173.937 115.317 173.9C115.317 173.9 126.792 162.119 130.529 155.969C131.811 153.874 132.573 151.522 132.754 149.098L132.744 149.047C129.683 155.83 115.032 171.497 96.2008 160.328C96.2007 160.328 97.3156 164.246 103.588 169.553Z" fill-rule="evenodd" fill="#CCE4EA"/>
		<path id="Path_43953" d="M128.251 141.391C123.564 141.161 118.933 142.449 115.098 145.051C111.521 147.491 108.861 150.328 115.098 150.715C121.336 151.102 127.56 146.69 129.131 145.051C130.623 143.499 131.572 141.657 128.251 141.391Z" fill-rule="evenodd" fill="#E9F6FB"/>
		<path id="Path_43954" d="M125.435 142.196C121.685 142.595 119.007 143.771 117.517 145.248C116.027 146.724 124.69 145.668 127.388 144.556C130.706 143.188 129.597 141.752 125.435 142.196Z" fill-rule="evenodd" fill="#EFF8FC"/>
		<path id="Path_43955" d="M159.458 141.952C159.458 141.952 162.729 141.726 164.256 143.739C165.561 145.459 166.263 148.625 164.987 152.514C163.59 156.772 161.655 156.835 161.248 156.757C160.841 156.68 161.293 152.404 159.731 150.878C158.168 149.353 156.128 147.314 156.128 147.314C156.128 147.314 157.666 142.887 159.458 141.952Z" fill-rule="evenodd" fill="#DEF1F8"/>
		<path id="Path_43956" d="M164.891 144.837C164.719 144.451 164.505 144.082 164.254 143.738C162.727 141.725 159.456 141.951 159.456 141.951C157.664 142.886 156.128 147.313 156.128 147.313C156.128 147.313 158.169 149.354 159.731 150.877C160.574 151.701 160.83 153.325 160.951 154.657C161.289 151.931 160.656 150.085 159.905 147.535C159.547 146.28 160.176 144.959 161.399 144.402C162.566 143.982 163.873 144.145 164.891 144.837L164.891 144.837Z" fill-rule="evenodd" fill="#CCE4EA"/>
		<path id="Path_43957" d="M163.684 145.987C162.29 145.194 161.704 147.377 162.194 149.773C162.462 151.598 162.436 153.452 162.115 155.269C162.072 155.932 163.329 155.021 164.227 152.525C165.124 150.028 165.379 146.951 163.684 145.987Z" fill-rule="evenodd" fill="#E9F6FB"/>
		<path id="Path_43958" d="M146.714 134.965C144.823 137.257 142.734 139.391 140.47 141.345C140.47 141.345 144.259 149.383 151.923 150.878C151.923 150.878 157.291 147.523 159.499 142.339C159.499 142.339 158.575 139.315 153.578 136.645C148.58 133.975 146.714 134.965 146.714 134.965Z" fill-rule="evenodd" fill="#F8C6A3"/>
		<path id="Path_43959" d="M153.574 136.644C148.577 133.974 146.714 134.964 146.714 134.964C146.714 134.964 146.419 135.353 145.744 136.114L145.319 136.587C145.319 136.587 146.49 140.278 151.495 142.992C153.469 144.087 155.634 144.824 157.885 145.168C158.521 144.281 159.061 143.334 159.497 142.341C159.497 142.341 158.571 139.314 153.574 136.644Z" fill-rule="evenodd" fill="#F2A37C"/>
		<path id="Path_43960" d="M153.574 136.644C148.577 133.974 146.714 134.964 146.714 134.964C146.714 134.964 146.531 135.201 146.168 135.627C150.166 139.856 155.383 141.305 159.495 142.338C159.495 142.338 158.572 139.314 153.574 136.644Z" fill-rule="evenodd" fill="#DD8964"/>
		<path id="Path_43961" d="M151.681 159.567C151.554 161.585 150.893 167.084 144.372 167.596C137.851 168.108 133.334 167.397 123.36 159.567C113.386 151.736 108.2 147.878 99.0227 149.359C95.9634 150.074 85.5901 159.153 85.4582 161.457C85.3263 163.76 97.1609 174.119 98.3575 175.015C99.5541 175.911 106.49 174.179 113.696 177.089C119.949 179.613 125.898 185.503 139.655 183.457C153.412 181.411 159.637 167.652 157.656 159.568C157.657 159.567 155.93 157.544 151.681 159.567Z" fill-rule="evenodd" fill="#EA4D5F"/>
		<path id="Path_43962" d="M117.511 155.09C115.63 153.679 113.635 152.413 111.546 151.305C105.365 157.879 97.8382 163.155 89.4376 166.799C91.9783 169.409 95.1212 172.248 96.9474 173.831C106.59 168.539 114.673 159.343 117.511 155.09Z" fill-rule="evenodd" fill="#EFF8FC"/>
		<path id="Path_43963" d="M126.69 182.903C129.427 183.635 132.266 183.957 135.105 183.859C136.668 178.381 137.042 172.652 136.203 167.028C134.719 166.597 133.287 166.018 131.928 165.301C131.619 171.479 129.826 177.504 126.69 182.903Z" fill-rule="evenodd" fill="#EFF8FC"/>
		<path id="Path_43964" d="M145.81 181.575C147.674 180.676 149.387 179.514 150.893 178.128C149.992 174.242 148.261 170.58 145.812 167.371C145.339 167.48 144.859 167.555 144.374 167.595C143.309 167.678 142.299 167.724 141.308 167.716C144.349 171.736 145.93 176.606 145.81 181.575Z" fill-rule="evenodd" fill="#EFF8FC"/>
		<path id="Path_43965" d="M118.289 179.346C123.276 173.455 125.792 166.405 126.936 162.231C125.822 161.449 124.637 160.568 123.361 159.566C122.926 159.223 122.51 158.903 122.093 158.572C118.794 166.542 112.926 172.579 109.239 175.807C110.767 176.085 112.261 176.513 113.697 177.087C115.268 177.762 116.8 178.516 118.289 179.346L118.289 179.346Z" fill-rule="evenodd" fill="#EFF8FC"/>
		<path id="Path_43966" d="M151.204 162.335C150.839 163.618 150.126 164.784 149.138 165.714C151.845 166.991 154.191 168.881 155.974 171.22C156.649 169.801 157.169 168.318 157.523 166.795C155.744 164.922 153.596 163.406 151.204 162.335Z" fill-rule="evenodd" fill="#EFF8FC"/>
		<g opacity="0.200000">
			<path id="Path_43967" d="M151.681 159.566C151.641 161.646 150.9 163.658 149.569 165.298L149.569 165.298C150.954 164.078 151.94 162.497 152.407 160.747C152.407 160.747 156.523 162.008 157.657 159.563L154.635 158.693C153.603 158.806 152.601 159.102 151.681 159.566Z" fill-rule="evenodd" fill="#242357"/>
		</g>
		<path id="Path_43968" d="M151.67 147.744C152.954 147.229 156.517 146.609 158.227 148.326C159.937 150.042 160.331 152.095 159.458 155.111C159.056 156.664 158.451 158.161 157.657 159.567C155.811 160.605 153.527 160.605 151.681 159.567C149.139 157.39 147.685 154.274 147.684 151.001C148.674 149.582 150.054 148.455 151.67 147.744Z" fill-rule="evenodd" fill="#EA4D5F"/>
		<path id="Path_43969" d="M158.044 158.853C155.551 155.616 151.916 153.365 147.82 152.522C147.965 153.499 148.232 154.457 148.615 155.372C151.385 156.454 153.873 158.108 155.905 160.217C156.526 160.107 157.12 159.886 157.656 159.566C157.656 159.566 157.81 159.323 158.044 158.853Z" fill-rule="evenodd" fill="#EFF8FC"/>
		<path id="Path_43970" d="M152.665 147.446C152.326 147.52 151.993 147.619 151.671 147.744C150.834 148.13 150.052 148.617 149.344 149.193C153.279 150.071 156.825 152.125 159.472 155.06C159.821 153.966 159.958 152.82 159.876 151.678C157.865 149.725 155.39 148.273 152.665 147.446Z" fill-rule="evenodd" fill="#EFF8FC"/>
		<g opacity="0.200000">
			<path id="Path_43971" d="M150.701 155.042C150.041 151.379 151.402 148.024 153.283 147.327C152.731 147.41 152.19 147.55 151.67 147.744C150.054 148.455 148.674 149.582 147.684 151.001C147.685 154.272 149.139 157.389 151.679 159.566C152.583 160.032 153.587 160.292 154.612 160.324C152.88 159.69 151.301 158.376 150.701 155.042Z" fill-rule="evenodd" fill="#242357"/>
		</g>
		<g opacity="0.200000">
			<path id="Path_43972" d="M138.692 180.997C126.687 180.744 122.96 176.644 113.649 172.655C109.139 170.724 101.766 171.177 99.9478 170.376C97.6846 169.377 88.3966 161.728 88.1063 160.917C87.5995 159.498 93.906 152.513 93.906 152.513C89.9799 155.58 85.547 159.956 85.4613 161.456C85.3285 163.757 97.164 174.118 98.3606 175.014C99.5572 175.91 106.493 174.178 113.699 177.087C119.952 179.612 125.901 185.502 139.658 183.456C145.395 182.6 150.509 179.501 153.788 174.894C150.883 178.135 147.12 181.175 138.692 180.997Z" fill-rule="evenodd" fill="#242357"/>
		</g>
		<g opacity="0.150000">
			<path id="Path_43973" d="M107.957 151.121C105.362 150.362 102.63 150.126 99.9351 150.429C98.3724 150.702 95.5661 153.212 93.8765 155.212C90.951 158.674 98.2139 155.014 108.412 159.102C118.61 163.191 131.738 169.81 134.354 168.997C136.971 168.184 129.331 165.5 123.334 160.858C118.347 156.983 112.226 152.37 107.957 151.121Z" fill-rule="evenodd" fill="#FFFFFF"/>
		</g>
		<g opacity="0.150000">
			<path id="Path_43974" d="M157.657 148.709C155.911 147.606 155.179 150.574 155.355 153.764C155.531 156.953 155.915 159.455 156.867 159.063C157.82 158.672 159.371 154.724 159.256 152.524C159.142 150.323 158.53 149.262 157.657 148.709Z" fill-rule="evenodd" fill="#FFFFFF"/>
		</g>
		<path id="Path_43975" d="M145.049 136.883C144.04 136.104 142.723 135.796 141.455 136.043C139.037 136.343 132.097 140.993 131.63 141.894C131.162 142.795 131.293 146.676 136.156 152.094C138.863 155.113 143.487 156.97 144.735 157.345C145.982 157.72 145.254 150.625 151.676 147.744C151.676 147.744 152.019 146.404 148.92 145.128C146.657 144.198 143.451 141.342 143.296 138.704L145.049 136.883Z" fill-rule="evenodd" fill="#DEF1F8"/>
		<path id="Path_43976" d="M143.287 138.704L145.049 136.883C144.04 136.104 142.723 135.796 141.455 136.043C139.037 136.343 132.097 140.993 131.63 141.894C131.162 142.795 131.293 146.676 136.156 152.094C133.449 148.372 133.803 142.927 135.942 141.345C138.08 139.763 141.207 137.34 142.28 139.975C143.354 142.611 147.692 144.486 147.692 144.487C145.64 143.222 143.416 140.896 143.287 138.704Z" fill-rule="evenodd" fill="#CCE4EA"/>
		<path id="Path_43977" d="M148.048 146.418C149.162 145.818 151.8 146.553 149.86 147.789C146.972 149.631 145.143 154.309 144.802 155.255C144.462 156.201 142.166 155.367 140.32 154.251C138.474 153.135 137.032 151.94 136.639 150.739C136.47 150.218 140.55 152.808 142.931 150.878C145.312 148.948 145.808 147.625 148.048 146.418Z" fill-rule="evenodd" fill="#E9F6FB"/>
		<path id="Path_43978" d="M131.948 123.754C130.915 128.078 132.616 130.708 133.771 131.819C134.925 132.929 137.296 133.63 138.085 131.234C138.983 133.166 140.758 134.591 142.894 135.097C146.48 135.916 147.685 133.455 147.685 133.455L141.912 124.924L131.948 123.754Z" fill-rule="evenodd" fill="#D65132"/>
		<path id="Path_43979" d="M131.948 123.754C131.67 124.869 131.576 126.019 131.67 127.161C133.841 129.084 137.025 129.508 139.657 128.224C139.657 128.224 141.311 133.453 146.222 134.82C146.839 134.513 147.348 134.037 147.685 133.453L141.912 124.922L131.948 123.754Z" fill-rule="evenodd" fill="#BA422B"/>
		<path id="Path_43980" d="M171.256 90.6027C179.058 90.6027 188.62 95.8874 190.818 104.136C193.017 112.385 192.356 119.251 193.455 124.011C194.144 126.983 194.655 130.62 193.231 133.788C192.969 134.372 192.669 134.939 192.332 135.487C190 139.272 185.591 141.977 179.391 143.381C172.257 144.831 164.84 144.286 158.018 141.811C149.555 138.428 143.891 134.686 140.264 125.596C136.208 114.983 140.198 103.077 149.935 96.7401C160.816 89.6506 171.256 90.6027 171.256 90.6027Z" fill-rule="evenodd" fill="#F8C6A3"/>
		<path id="Path_43981" d="M142.046 116.453C142.211 117.895 143.581 119.262 146.234 118.32C148.887 117.378 153.836 112.992 154.795 101.374L142.046 116.453Z" fill-rule="evenodd" fill="#F2A37C"/>
		<path id="Path_43982" d="M171.256 90.6028C167.921 90.4557 164.583 90.8279 161.372 91.7053C158.197 93.5981 155.355 95.207 155.355 95.207C159.042 102.833 167.039 107.524 172.104 108.575C177.17 109.625 183.238 109.616 185.487 106.633C187.598 103.833 184.365 100.947 184.365 100.947C186.178 102.124 188.272 102.837 190.451 103.019C187.725 95.4181 178.701 90.6028 171.256 90.6028Z" fill-rule="evenodd" fill="#F2A37C"/>
		<g opacity="0.500000">
			<ellipse id="Ellipse_541" cx="156.020935" cy="124.975861" rx="8.630664" ry="8.300875" fill="#EE9681"/>
		</g>
		<g opacity="0.500000">
			<path id="Path_43983" d="M185.508 125.201C185.508 129.489 188.906 133.072 193.347 133.464C194.604 130.371 194.12 126.879 193.455 124C193.018 121.697 192.755 119.367 192.668 117.027C188.531 117.713 185.509 121.164 185.508 125.201L185.508 125.201Z" fill-rule="evenodd" fill="#EE9681"/>
		</g>
		<path id="Path_43984" d="M193.137 122.267C191.809 123.252 190.181 123.789 188.504 123.794C184.094 123.794 180.502 120.103 180.407 115.532C180.314 115.5 180.224 115.46 180.138 115.415C179.912 115.288 179.691 115.151 179.472 115.016C179.472 115.127 179.455 115.236 179.455 115.347C179.455 115.402 179.463 115.456 179.464 115.51C179.15 115.387 178.812 115.331 178.474 115.347C177.61 115.327 176.757 115.529 176 115.93C176.011 115.741 176.032 115.545 176.032 115.347L176.032 115.318C175.896 115.439 175.769 115.57 175.653 115.709C175.501 115.911 175.29 116.065 175.048 116.154C174.593 121.374 169.942 125.321 164.5 125.105C159.058 124.889 154.761 120.585 154.756 115.347C154.756 115.077 154.774 114.809 154.798 114.543C154.671 114.486 154.551 114.416 154.441 114.333L153.919 113.944C153.9 114.091 153.886 114.24 153.87 114.389L139.377 112.307L140.135 116.325L153.901 116.642C154.556 121.813 158.994 125.776 164.404 126.019C169.815 126.263 174.618 122.715 175.771 117.625C176.621 117.209 177.561 116.993 178.515 116.994C178.896 116.986 179.276 117.048 179.633 117.176C180.321 121.411 184.05 124.573 188.505 124.7C190.217 124.696 191.889 124.197 193.303 123.267L193.137 122.267Z" fill-rule="evenodd" fill="#F2A37C"/>
		<path id="Path_43985" d="M193.136 122.267C191.809 123.252 190.18 123.788 188.504 123.794C187.56 123.791 186.625 123.617 185.749 123.28C185.674 123.58 185.617 123.884 185.578 124.19C186.514 124.526 187.505 124.698 188.505 124.7C190.217 124.696 191.889 124.197 193.303 123.267L193.191 122.598C193.181 122.524 193.166 122.453 193.155 122.378L193.136 122.267Z" fill-rule="evenodd" fill="#EB7C74"/>
		<g opacity="0.300000">
			<path id="Path_43986" d="M192.923 125.829C193.524 130.142 193.287 133.991 188.781 137.921C183.512 142.516 173.869 144.331 167.538 143.966C171.496 144.385 175.5 144.185 179.392 143.374C185.591 141.97 189.999 139.262 192.332 135.48C192.67 134.933 192.97 134.365 193.232 133.781C194.656 130.613 194.143 126.977 193.456 124.004C193.072 122.075 192.834 120.122 192.745 118.16L192.592 118.055C192.833 119.37 192.32 121.515 192.923 125.829Z" fill-rule="evenodd" fill="#FFFFFF"/>
		</g>
		<path id="Path_43987" d="M164.576 126.015C164.616 125.715 164.638 125.414 164.644 125.111C159.709 124.977 155.588 121.453 154.871 116.755C154.561 116.796 154.254 116.852 153.951 116.924C154.747 122.023 159.217 125.848 164.576 126.015Z" fill-rule="evenodd" fill="#EB7C74"/>
		<g opacity="0.300000">
			<path id="Path_43988" d="M154.982 117.906C154.982 118.853 153.731 119.61 152.189 119.61C150.647 119.61 149.397 118.846 149.397 117.906C149.397 116.967 150.647 116.203 152.189 116.203C153.731 116.203 154.982 116.965 154.982 117.906Z" fill-rule="evenodd" fill="#FFFFFF"/>
		</g>
		<g opacity="0.700000">
			<path id="Path_43989" d="M164.257 122.998C168.643 122.998 173.05 119.885 173.718 113.881C174.386 107.877 169.823 102.097 162.17 104.283C154.518 106.469 154.348 115.225 156.66 118.63C158.273 121.217 161.124 122.857 164.257 122.998Z" fill-rule="evenodd" fill="url(#paint_linear_2_12874_0)"/>
		</g>
		<g opacity="0.700000">
			<path id="Path_43990" d="M190.836 104.222C189.059 103.673 187.146 103.681 185.374 104.244C178.348 106.246 178.195 114.286 180.318 117.411C181.798 119.786 184.416 121.291 187.292 121.419C189.337 121.415 191.309 120.685 192.829 119.371C192.502 115.184 192.381 110.047 190.836 104.222Z" fill-rule="evenodd" fill="url(#paint_linear_2_12875_0)"/>
		</g>
		<path id="Path_43991" d="M139.375 111.476C140.801 112.814 141.738 114.56 142.046 116.453C142.335 118.406 145.581 119.183 149.963 113.24C156.021 105.027 155.355 95.2078 155.355 95.2078C159.323 99.24 163.986 102.582 169.137 105.086C177.162 108.806 181.899 107.811 184.219 106.867C186.54 105.924 188.183 103.227 186.055 99.8793C186.055 99.8793 190.019 102.855 197.656 102.576C205.293 102.296 208.386 98.7635 206.259 96.0672C204.131 93.3709 200.048 91.2604 194.138 89.5455C194.138 89.5455 200.942 89.0023 200.557 85.3766C200.171 81.751 190.547 72.8983 172.175 75.3448C151.532 78.0894 148.418 88.2395 148.418 88.2395C148.418 88.2395 145.579 86.6476 139.376 86.694C134.996 86.7271 132.113 88.4155 131.822 89.3676C131.532 90.3197 132.166 90.8695 134.164 91.6049C135.709 92.1417 137.22 92.7639 138.691 93.4683C135.086 94.5689 131.759 96.3786 128.921 98.7823C123.991 102.873 124.053 106.622 124.57 107.15C125.542 108.139 128.08 105.808 131.754 105.343C131.754 105.343 129.21 110.854 129.884 115.594C130.558 120.335 139.375 111.476 139.375 111.476Z" fill-rule="evenodd" fill="#E26644"/>
		<path id="Path_43992" d="M160.536 88.4969C158.174 88.8887 156.493 90.7749 159.734 91.8888C162.974 93.0027 173.229 97.1441 178.068 100.916C183.198 104.916 187.243 105.695 185.98 101.846C184.185 97.3057 180.78 93.5217 176.365 91.162C171.557 88.5698 165.974 87.6299 160.536 88.4969L160.536 88.4969Z" fill-rule="evenodd" fill="#EE7249"/>
		<path id="Path_43993" d="M181.117 107.642C175.758 107.314 165.683 102.933 155.857 91.4706C155.72 91.3121 155.491 91.2592 155.295 91.3406C155.099 91.4222 154.982 91.6185 155.008 91.8227C155.13 92.7265 155.268 93.9199 155.355 95.2089C159.323 99.2411 163.986 102.584 169.137 105.088C174.528 107.586 178.429 107.95 181.117 107.642Z" fill-rule="evenodd" fill="#D65132"/>
		<path id="Path_43994" d="M160.891 78.0668C150.309 82.0871 148.418 88.2387 148.418 88.2387C148.418 88.2387 145.579 86.6468 139.375 86.6932C134.996 86.7254 132.113 88.4147 131.822 89.3668C131.532 90.3188 132.166 90.8687 134.164 91.6041C135.709 92.141 137.22 92.7631 138.691 93.4676C135.086 94.5681 131.759 96.3778 128.92 98.7816C123.991 102.872 124.053 106.622 124.57 107.149C125.541 108.139 128.08 105.808 131.753 105.342C131.753 105.342 129.21 110.853 129.884 115.593C130.558 120.334 139.371 111.477 139.371 111.477C140.19 112.269 140.859 113.193 141.348 114.207C141.873 113.28 142.262 112.366 141.902 111.841C140.051 109.122 139.366 105.101 141.115 99.992C142.091 96.6221 144.565 93.8392 147.875 92.3886C149.194 91.7777 150.643 91.4739 152.106 91.5019C152.267 91.5057 152.419 91.4286 152.506 91.2984C152.565 91.1538 152.557 90.992 152.483 90.8536C151.929 89.2166 151.916 87.4543 152.448 85.8102C153.391 83.0902 155.392 80.7564 160.891 78.0668Z" fill-rule="evenodd" fill="#D65132"/>
		<path id="Path_43995" d="M141.499 114.53C141.762 115.147 141.946 115.792 142.046 116.453C142.206 117.529 143.305 118.266 144.966 117.711C144.45 117.863 143.889 117.73 143.504 117.366C143.338 117.07 143.272 116.732 143.315 116.399L147.055 116.485L147.061 116.485C147.607 116.035 148.114 115.541 148.575 115.009L145.239 114.784L141.499 114.53Z" fill-rule="evenodd" fill="#D65132"/>
		<path id="Path_43996" d="M197.656 102.576C202.656 102.394 205.693 100.814 206.61 98.9897C202.424 102.302 192.646 99.8622 188.505 97.9893C186.361 96.9684 184.279 95.8308 182.27 94.5823C183.878 96.0957 185.164 97.8958 186.056 99.8821C186.056 99.8821 190.019 102.855 197.656 102.576Z" fill-rule="evenodd" fill="#D65132"/>
		<path id="Path_43997" d="M200.556 85.3757C200.375 84.4303 199.918 83.5538 199.24 82.8478C201.477 85.9709 197.543 86.8398 194.801 87.3679C192.06 87.8959 184.717 88.2915 184.717 88.2915C184.717 88.2915 191.919 89.1499 194.138 89.5446C194.138 89.5446 200.942 89.0023 200.556 85.3757Z" fill-rule="evenodd" fill="#D65132"/>
		<path id="Path_43998" d="M136.062 89.978C133.333 89.3061 133.345 88.0294 134.654 87.4615C133.001 88.0398 131.988 88.8225 131.821 89.3666C131.531 90.3197 132.165 90.8686 134.163 91.6039C135.708 92.1408 137.219 92.763 138.689 93.4674C140.044 93.0843 141.432 92.8174 142.835 92.6696C140.664 91.5822 138.398 90.6815 136.062 89.978Z" fill-rule="evenodd" fill="#BA422B"/>
		<path id="Path_43999" d="M127.931 104.215C125.667 105.28 124.358 105.874 124.541 104.825C124.23 105.573 124.241 106.408 124.571 107.148C125.543 108.138 128.081 105.807 131.754 105.341C132.276 104.017 133.008 102.779 133.924 101.671C131.878 102.41 129.877 103.26 127.93 104.215L127.931 104.215Z" fill-rule="evenodd" fill="#BA422B"/>
		<path id="Path_44000" d="M186.341 76.9489C178.953 74.9274 163.561 76.0688 157.077 81.8371C154.959 83.7204 160.575 82.5195 167.676 82.6198C174.354 82.8265 181.002 83.5827 187.545 84.8798C194.664 86.394 199.38 85.9776 198.884 84.2268C198.388 82.4759 193.514 78.908 186.341 76.9489Z" fill-rule="evenodd" fill="#EE7249"/>
		<path id="Path_44001" d="M206.108 98.2639C206.706 96.8131 203.576 93.6691 198.919 91.9334C194.263 90.1977 187.545 88.9996 186.046 89.5457C184.381 90.1552 189.483 96.8727 197.023 99.0324C203.562 100.904 205.599 99.4904 206.108 98.2639Z" fill-rule="evenodd" fill="#EE7249"/>
		<path id="Path_44002" d="M153.542 95.0461C152.558 93.7628 148.872 95.1919 146.648 98.8535C143.808 103.531 144.877 110.805 146.867 111.476C148.857 112.147 151.697 107.625 152.73 103.81C153.762 99.9948 154.405 96.1723 153.542 95.0461Z" fill-rule="evenodd" fill="#EE7249"/>
		<path id="Path_44003" d="M135.41 87.8912C134.405 88.1912 135.143 89.3317 136.872 89.3629C138.619 89.395 145.269 89.0355 145.181 88.4354C145.094 87.8354 139.788 86.5823 135.41 87.8912Z" fill-rule="evenodd" fill="#E26644"/>
		<path id="Path_44004" d="M125.665 104.215C125.919 104.51 127.298 104.047 128.586 102.831C129.874 101.615 133.609 97.4906 133.926 96.9635C134.243 96.4363 131.288 97.4159 128.586 99.8812C125.884 102.347 125.394 103.9 125.665 104.215Z" fill-rule="evenodd" fill="#E26644"/>
		<path id="Path_44005" d="M192.575 90.845C195.36 91.5075 201.848 92.7047 205.586 97.1272C203.905 95.7326 202.006 94.6028 199.958 93.7798C197.554 92.6737 195.089 91.694 192.575 90.845L192.575 90.845Z" fill-rule="evenodd" fill="#F49A6E"/>
		<path id="Path_44006" d="M165.969 78.0667C169.232 76.8108 181.736 76.154 187.739 78.0667C194.834 80.3257 197.186 83.2435 197.186 83.2435C193.24 81.4138 189.042 80.1389 184.719 79.4579C186.905 79.5428 189.079 79.8175 191.214 80.2784C191.214 80.2784 187.179 77.8178 179.124 77.4392C174.729 77.1682 170.315 77.3788 165.969 78.0667L165.969 78.0667Z" fill-rule="evenodd" fill="#F49A6E"/>
		<path id="Path_44007" d="M175.409 91.3011C179.283 92.7282 184.098 97.7319 185.307 101.179C184.033 99.1991 182.532 97.3641 180.831 95.7085C179.141 94.1103 177.329 92.6371 175.409 91.3011L175.409 91.3011Z" fill-rule="evenodd" fill="#F49A6E"/>
		<path id="Path_44008" d="M153.195 96.6132C153.246 98.419 152.471 105.822 148.418 110.49C147.981 108.736 147.981 106.908 148.418 105.154C148.483 106.27 148.638 107.379 148.881 108.473C148.881 108.473 151.724 105.057 153.195 96.6132Z" fill-rule="evenodd" fill="#F49A6E"/>
		<g opacity="0.500000">
			<path id="Path_44009" d="M167.622 103.256C167.494 102.103 164.953 100.994 161.331 102.95C157.708 104.907 156.436 107.966 156.691 108.88C156.946 109.793 160.233 108.463 162.538 107.596C166.415 106.135 168.002 106.679 167.622 103.256Z" fill-rule="evenodd" fill="#F2A37C"/>
		</g>
		<g opacity="0.500000">
			<path id="Path_44010" d="M191.916 109.488C191.755 108.42 191.556 107.322 191.31 106.195C190.493 105.083 189.418 104.17 188.17 103.527C184.547 101.57 183.189 103.264 183.174 104.424C183.138 107.046 185.535 107.417 187.798 108.164C189.679 108.784 191.238 109.643 191.916 109.488Z" fill-rule="evenodd" fill="#F2A37C"/>
		</g>
		<path id="Path_44011" d="M168.058 101.881C167.894 100.467 164.952 99.7355 161.329 101.692C157.706 103.648 156.434 106.708 156.689 107.622C156.944 108.536 160.232 107.204 162.536 106.338C166.415 104.877 168.4 104.822 168.058 101.881Z" fill-rule="evenodd" fill="#D65132"/>
		<path id="Path_44012" d="M163.912 104.215C160.566 105.262 158.696 105.694 158.852 104.521C159.008 103.349 160.809 101.956 161.329 101.692C157.706 103.649 156.434 106.708 156.689 107.622C156.944 108.536 160.232 107.204 162.536 106.338C166.415 104.877 168.4 104.823 168.058 101.881C167.886 102.627 167.259 103.168 163.912 104.215Z" fill-rule="evenodd" fill="#BA422B"/>
		<path id="Path_44013" d="M183.178 103.164C183.193 102.004 184.556 100.311 188.175 102.267C191.794 104.223 192.518 107.013 192.264 107.93C192.009 108.847 190.141 107.676 187.802 106.904C185.531 106.158 183.138 105.788 183.178 103.164Z" fill-rule="evenodd" fill="#D65132"/>
		<path id="Path_44014" d="M190.871 106.888C189.86 106.301 187.078 105.279 185.378 104.245C183.697 103.221 184.189 101.654 185.532 101.388C184.967 101.279 184.381 101.414 183.927 101.755C183.473 102.097 183.197 102.612 183.171 103.165C183.135 105.788 185.532 106.159 187.795 106.905C190.134 107.677 192.002 108.847 192.257 107.931C192.349 107.295 192.243 106.647 191.952 106.069C192.246 106.661 191.881 107.475 190.871 106.888Z" fill-rule="evenodd" fill="#BA422B"/>
		<path id="Path_44015" d="M179.452 114.515C179.452 119.673 183.514 123.87 188.504 123.87C193.494 123.87 197.557 119.673 197.557 114.515C197.557 109.357 193.498 105.161 188.504 105.161C183.511 105.161 179.452 109.357 179.452 114.515ZM180.397 114.515C180.397 109.853 184.035 106.068 188.504 106.068C192.975 106.068 196.612 109.853 196.612 114.515C196.612 119.177 192.971 122.963 188.504 122.963C184.038 122.963 180.397 119.177 180.397 114.515Z" clip-rule="evenodd" fill-rule="evenodd" fill="#19313A" fill-opacity="1.000000"/>
		<ellipse id="Ellipse_542" cx="164.256989" cy="116.261780" rx="7.005700" ry="6.737988" fill="#FFFFFF"/>
		<g opacity="0.200000">
			<path id="Path_44016" d="M161.406 120.341C158.914 117.791 158.552 113.936 160.529 110.997L160.281 110.714C157.845 112.332 156.731 115.25 157.498 118C158.266 120.75 160.749 122.739 163.7 122.967C166.651 123.195 169.433 121.613 170.647 119.016C168.664 121.546 163.536 122.2 161.406 120.341Z" fill-rule="evenodd" fill="#BAC4CA"/>
		</g>
		<path id="Path_44017" d="M157.347 117.367C157.347 117.367 157.574 112.593 161.564 111.02C166.057 109.25 169.928 111.569 170.724 113.688C170.803 113.087 170.645 112.479 170.28 111.985C169.127 110.281 166.288 108.181 161.795 109.624C158.346 110.584 156.357 114.048 157.347 117.367Z" fill-rule="evenodd" fill="#19313A"/>
		<path id="Path_44018" d="M171.261 116.261C171.262 115.604 171.163 114.951 170.966 114.322C170.65 113.291 169.819 112.481 168.752 112.164C167.406 111.742 165.929 112.03 164.859 112.922C162.779 114.839 162.3 117.863 163.694 120.289C164.195 120.984 164.901 121.52 165.72 121.826C166.925 122.23 168.264 121.933 169.164 121.062C170.507 119.799 171.264 118.068 171.261 116.261Z" fill-rule="evenodd" fill="#19313A"/>
		<path id="Path_44019" d="M164.89 121.404C165.148 121.575 165.426 121.717 165.718 121.827C166.923 122.231 168.263 121.934 169.162 121.063C169.781 120.477 170.282 119.785 170.638 119.022C169.181 120.593 167.077 121.465 164.89 121.404Z" fill-rule="evenodd" fill="#002030"/>
		<path id="Path_44020" d="M169.908 113.24C169.459 112.797 168.783 112.645 168.176 112.85C167.569 113.055 167.141 113.58 167.078 114.195C166.814 115.966 168.067 117.907 169.592 117.907C170.6 117.907 171.068 116.985 170.93 115.605C170.901 114.723 170.538 113.881 169.908 113.24Z" fill-rule="evenodd" fill="#FFFFFF"/>
		<path id="Path_44021" d="M180.266 115.621C180.23 115.34 180.086 115.081 179.862 114.897C179.463 114.613 178.969 114.478 178.474 114.518C177.557 114.492 176.651 114.718 175.863 115.169C175.529 115.361 175.303 115.687 175.248 116.057L175.076 117.204C176.08 116.517 177.283 116.153 178.515 116.163C180.146 116.163 180.491 117.027 180.491 117.027L180.266 115.621Z" fill-rule="evenodd" fill="#19313A"/>
		<path id="Path_44022" d="M178.474 114.515C177.557 114.488 176.651 114.714 175.863 115.167C175.529 115.358 175.303 115.684 175.248 116.054L175.076 117.201C176.08 116.514 177.283 116.15 178.515 116.16C180.146 116.16 180.491 117.024 180.491 117.024C179.911 115.299 177.238 115.92 177.132 115.493C177.026 115.066 177.459 114.599 178.474 114.515Z" fill-rule="evenodd" fill="#002030"/>
		<path id="Path_44023" d="M154.546 113.653L139.376 111.476L140.134 115.495L154.282 115.82C154.282 115.82 154.504 114.534 154.546 113.653Z" fill-rule="evenodd" fill="#19313A"/>
		<path id="Path_44024" d="M154.358 115.345L142.796 113.841C142.657 113.119 142.355 112.436 141.91 111.839L139.378 111.476L140.137 115.495L154.285 115.82C154.285 115.82 154.316 115.629 154.358 115.345Z" fill-rule="evenodd" fill="#002030"/>
		<path id="Path_44025" d="M177.34 118.442C176.59 118.784 175.88 121.146 176.522 123.174C176.978 124.738 178.459 125.82 180.148 125.824C181.874 125.881 182.812 124.915 182.768 123.696C182.731 122.629 181.399 122.609 180.148 121.14C178.988 119.788 178.743 117.803 177.34 118.442Z" fill-rule="evenodd" fill="#EE9681"/>
		<path id="Path_44026" d="M179.689 124.747C177.459 124.351 176.297 121.829 176.383 120.344C176.201 121.285 176.248 122.253 176.522 123.172C176.978 124.736 178.459 125.818 180.148 125.822C181.874 125.878 182.812 124.914 182.768 123.694C182.476 124.529 181.533 125.074 179.689 124.747Z" fill-rule="evenodd" fill="#EB7C74"/>
		<path id="Path_44027" d="M181.81 123.651C181.764 123.65 181.718 123.645 181.673 123.638C181.534 123.614 181.4 123.566 181.279 123.496C180.949 123.304 180.701 123.005 180.579 122.653C180.529 122.518 180.395 122.093 180.699 122.166C180.762 122.186 180.82 122.218 180.869 122.261C181.011 122.371 181.164 122.469 181.303 122.573C181.56 122.762 181.884 122.869 182.126 123.062C182.216 123.128 182.27 123.229 182.272 123.338C182.258 123.462 182.172 123.568 182.051 123.612C181.974 123.642 181.892 123.655 181.81 123.651Z" fill-rule="evenodd" fill="#F8C6A3"/>
		<path id="Path_44028" d="M164.921 125.201L164.92 125.201C158.784 125.2 153.811 120.416 153.811 114.515C153.811 108.614 158.785 103.829 164.921 103.83C171.057 103.83 176.032 108.614 176.032 114.515C176.026 120.416 171.055 125.196 164.921 125.201ZM164.92 104.735L164.92 104.735C170.533 104.741 175.082 109.116 175.088 114.515C175.088 118.471 172.611 122.037 168.811 123.551C165.011 125.065 160.637 124.228 157.729 121.43C154.821 118.633 153.951 114.426 155.525 110.772C157.099 107.118 160.807 104.735 164.92 104.735Z" clip-rule="evenodd" fill-rule="evenodd" fill="#19313A" fill-opacity="1.000000"/>
		<path id="Path_44029" d="M174.295 131.712C171.521 131.344 168.846 130.47 166.415 129.134C164.079 127.948 162.292 127.775 161.879 129.513C161.279 132.02 163.835 138.409 172.407 139.648C177.894 140.441 181.879 138.902 184.098 137.171C185.223 136.331 186.066 135.19 186.52 133.891C187.012 132.377 186.394 130.566 182.528 131.285C179.822 131.831 177.046 131.975 174.295 131.712Z" fill-rule="evenodd" fill="#C9434D"/>
		<path id="Path_44030" d="M173.114 131.555C170.77 131.067 168.513 130.251 166.415 129.134C164.079 127.948 162.292 127.775 161.879 129.513C161.394 131.544 162.981 136.123 168.163 138.447C171.135 137.42 173.118 134.71 173.12 131.673C173.12 131.631 173.114 131.594 173.114 131.555Z" fill-rule="evenodd" fill="#7C1423"/>
		<path id="Path_44031" d="M181.117 131.521C178.861 131.864 176.569 131.928 174.297 131.711C171.768 131.393 169.322 130.63 167.081 129.46L167.081 129.46C167.131 130.375 167.368 131.271 167.777 132.098C168.43 133.026 171.558 134.18 173.323 134.421C176.767 134.894 179.474 134.049 179.773 133.729C180.281 133.029 180.731 132.291 181.117 131.521Z" fill-rule="evenodd" fill="#FFFFFF"/>
		<g opacity="0.200000">
			<path id="Path_44032" d="M172.071 132.014C174.952 132.672 177.952 132.682 180.837 132.044C181.002 131.743 181.117 131.521 181.117 131.521C178.861 131.864 176.569 131.928 174.297 131.711C171.768 131.393 169.322 130.63 167.081 129.46L167.081 129.46C167.131 130.375 167.368 131.271 167.777 132.098C168.227 132.738 169.858 133.485 171.404 133.967C170.16 133.545 169.146 132.658 168.594 131.506C168.442 130.818 169.31 131.331 172.071 132.014Z" fill-rule="evenodd" fill="#BAC4CA"/>
		</g>
		<path id="Path_44033" d="M177.864 139.674C177.123 138.133 172.73 134.185 163.891 135.262C166.045 137.718 169.096 139.286 172.415 139.643C174.219 139.918 176.056 139.928 177.864 139.674Z" fill-rule="evenodd" fill="#EC6469"/>
		<path id="Path_44034" d="M176.617 139.811C176.609 139.811 171.646 139.516 169.268 137.994C166.906 136.479 167.463 135.116 169.525 135.262C167.655 135.02 165.759 135.02 163.888 135.262C166.042 137.718 169.093 139.286 172.412 139.643C173.803 139.851 175.214 139.907 176.617 139.811Z" fill-rule="evenodd" fill="#DB545B"/>
		<g opacity="0.200000">
			<path id="Path_44035" d="M173.825 136.899C172.528 136.2 171.079 135.802 169.594 135.738C167.543 135.937 171.652 137.522 173.439 138.147C175.729 138.949 175.997 137.982 173.825 136.899Z" fill-rule="evenodd" fill="#FFFFFF"/>
		</g>
		<g opacity="0.200000">
			<path id="Path_44036" d="M176.5 138.602C176.153 138.377 175.689 138.388 175.689 138.66C175.689 138.863 175.957 139.199 176.5 139.361C177.043 139.523 177.06 138.964 176.5 138.602Z" fill-rule="evenodd" fill="#FFFFFF"/>
		</g>
		<path id="Path_44037" d="M191.679 119.515C193.207 117.906 193.095 112.445 190.938 110.833C188.323 108.907 184.591 109.322 182.502 111.772C180.413 114.221 180.72 117.823 183.196 119.913C185.673 122.002 189.426 121.826 191.679 119.515Z" fill-rule="evenodd" fill="#FFFFFF"/>
		<g opacity="0.200000">
			<path id="Path_44038" d="M191.679 119.515C192.175 118.888 192.485 118.143 192.575 117.36C191.295 119.746 188.245 121.104 185.577 119.398C182.274 117.283 182.699 112.383 184.032 110.502C182.017 111.702 180.907 113.914 181.185 116.178C181.462 118.441 183.077 120.344 185.326 121.061C187.575 121.777 190.052 121.176 191.679 119.519L191.679 119.515Z" fill-rule="evenodd" fill="#BAC4CA"/>
		</g>
		<path id="Path_44039" d="M181.26 116.721C181.26 116.721 181.077 112.318 184.757 110.867C186.734 110.023 189.006 110.102 190.916 111.08C191.391 111.346 191.771 111.746 192.004 112.225C191.953 111.4 191.533 110.637 190.851 110.135C189.566 109.209 187.679 108.681 184.97 109.575C179.536 111.376 181.26 116.721 181.26 116.721Z" fill-rule="evenodd" fill="#19313A"/>
		<path id="Path_44040" d="M191.068 111.907C189.916 111.578 188.67 111.832 187.756 112.583C185.942 114.256 185.525 116.894 186.742 119.009C187.545 120.174 188.997 120.761 190.425 120.498C191.537 120.098 192.356 119.173 192.589 118.053C193.127 116.394 193.026 114.604 192.305 113.01C192.073 112.491 191.624 112.09 191.068 111.907Z" fill-rule="evenodd" fill="#19313A"/>
		<path id="Path_44041" d="M192.59 118.054C192.723 117.624 192.814 117.184 192.864 116.738C192.158 118.723 190.25 120.083 188.069 120.154C188.787 120.531 189.621 120.653 190.423 120.499C191.537 120.099 192.356 119.175 192.59 118.054Z" fill-rule="evenodd" fill="#002030"/>
		<path id="Path_44042" d="M191.672 112.672C191.279 112.284 190.688 112.151 190.156 112.331C189.625 112.51 189.25 112.97 189.196 113.51C188.965 115.059 190.062 116.756 191.396 116.756C192.281 116.756 192.689 115.95 192.566 114.741C192.54 113.969 192.223 113.234 191.672 112.672Z" fill-rule="evenodd" fill="#FFFFFF"/>
		<path id="Path_44043" d="M139.374 111.477C137.49 110.379 132.879 109.622 129.866 112.463C126.853 115.303 127.072 123.112 132.544 125.743C135.548 127.331 139.253 127.006 141.91 124.924C142.587 119.405 142.612 113.511 139.374 111.477Z" fill-rule="evenodd" fill="#F8C6A3"/>
		<path id="Path_44044" d="M133.371 120.684C133.371 119.635 134.028 118.691 135.034 118.29C136.041 117.889 137.2 118.111 137.97 118.852C138.74 119.593 138.97 120.708 138.552 121.676C138.135 122.644 137.152 123.274 136.062 123.273C134.576 123.272 133.372 122.114 133.371 120.684Z" fill-rule="evenodd" fill="#DD8964"/>
		<path id="Path_44045" d="M136.063 123.269C138.605 123.25 140.555 120.575 140.143 117.362C139.657 113.577 136.449 112.909 134.47 113.015C132.399 113.096 130.732 114.68 130.624 116.671C131.39 115.031 133.322 114.214 135.097 114.779C138.394 115.625 137.329 120.362 136.229 120.681C135.129 121 136.063 123.269 136.063 123.269Z" fill-rule="evenodd" fill="#DD8964"/>
		<path id="Path_44046" d="M135.874 111.122C133.945 110.802 131.971 111.35 130.517 112.608C128.578 114.179 128.155 116.645 128.471 118.913C128.479 118.967 128.618 119.054 128.628 118.982C128.972 116.528 129.499 114.026 131.822 112.546C133.057 111.796 134.46 111.337 135.915 111.208C135.975 111.196 135.9 111.127 135.874 111.122Z" fill-rule="evenodd" fill="#FDDEBC"/>
		<path id="Path_44047" d="M142.853 125.756C142.493 124.845 142.091 123.273 142.091 123.273C141.241 124.015 140.252 124.593 139.177 124.977C136.247 126.015 132.984 125.697 130.331 124.116C130.959 124.784 131.709 125.335 132.544 125.743C134.979 127.017 137.907 127.067 140.388 125.878C144.019 134.752 149.648 138.458 158.017 141.804C160.2 142.645 162.473 143.251 164.794 143.611C154.69 141.855 146.326 135.049 142.853 125.756Z" fill-rule="evenodd" fill="#F2A37C"/>
		<path id="Path_44048" d="M170.876 140.733C169.309 140.352 167.806 139.756 166.415 138.964C166.415 138.964 167.355 140.762 170.724 141.506C174.485 142.337 176.387 141.177 176.387 141.177C174.537 141.29 172.681 141.141 170.876 140.733Z" fill-rule="evenodd" fill="#F2A37C"/>
		<path id="Path_44049" d="M99.9487 200.699C99.8935 204.249 98.6242 213.792 106.239 221.227C113.854 228.662 128.51 225.776 131.45 225.107C133.674 224.706 135.943 224.594 138.198 224.774C139.766 224.744 143.851 223.776 144.543 220.78C144.543 220.78 140.159 222.998 136.928 218.116C133.389 212.367 133.49 205.197 137.188 199.542C140.616 194.479 147.958 193.382 149.963 193.15C149.963 193.15 149.466 190.852 146.189 190.454C144.401 190.235 139.793 192.295 133.47 194.061C124.011 196.708 111.755 200.906 99.9487 200.699Z" fill-rule="evenodd" fill="#4477BB"/>
		<path id="Path_44050" d="M138.74 192.736C135.343 194.143 131.386 199.638 130.481 204.661C131.752 201.226 133.797 198.104 136.468 195.518C138.366 193.676 141.822 192.118 142.203 191.809C142.607 191.483 141.013 191.795 138.74 192.736Z" fill-rule="evenodd" fill="#71ABDE"/>
		<path id="Path_44051" d="M131.451 225.111C133.675 224.709 135.944 224.597 138.199 224.778C139.767 224.747 143.852 223.779 144.545 220.784C142.439 221.723 139.948 221.303 138.299 219.732L136.643 220.469C136.643 220.469 135.475 222.783 132.812 219.916C129.166 215.988 129.873 207.482 129.873 207.482C128.052 217.602 132.596 221.646 132.022 221.938C131.448 222.231 121.376 224.72 114.399 220.548C107.421 216.377 109.031 203.911 112.834 202.283C116.691 200.633 121.1 199.29 127.758 195.711C119.339 198.153 109.498 200.866 99.9496 200.699C99.8945 204.249 98.6252 213.792 106.24 221.227C113.855 228.662 128.512 225.776 131.451 225.111Z" fill-rule="evenodd" fill="#3E65AE"/>
		<path id="Path_44052" d="M139.454 195.258C142.323 194.233 145.323 193.588 148.372 193.341C147.22 192.03 143.618 192.543 139.454 195.258Z" fill-rule="evenodd" fill="#295296"/>
		<path id="Path_44053" d="M149.964 193.154C152.824 192.738 163.787 192.31 169.546 195.478C175.581 198.801 176.343 203.144 175.873 207.891C175.403 212.638 144.548 220.784 144.548 220.784C144.548 220.784 143.555 222.787 139.923 222.078C136.291 221.368 133.674 218.136 132.868 211.544C132.061 204.953 135.286 197.974 139.452 195.26C142.121 193.684 145.259 193.009 148.37 193.343L149.964 193.154Z" fill-rule="evenodd" fill="#F8C6A3"/>
		<path id="Path_44054" d="M153.797 206.611C153.797 206.611 149.801 207.48 143.831 212.374C138.94 216.384 136.298 217.127 134.55 212.608C132.802 208.089 134.39 200.995 137.294 197.137C133.883 201.18 132.289 206.366 132.866 211.543C133.673 218.135 136.294 221.366 139.922 222.077C143.55 222.787 144.546 220.783 144.546 220.783C144.546 220.783 148.338 210.12 153.797 206.611Z" fill-rule="evenodd" fill="#F2A37C"/>
		<path id="Path_44055" d="M144.544 220.784C143.051 221.363 141.501 221.796 139.919 222.078C143.551 222.788 144.544 220.784 144.544 220.784Z" fill-rule="evenodd" fill="#295296"/>
		<path id="Path_44056" d="M175.869 207.888C175.419 213.971 168.747 236.627 167.289 242.473C166.017 247.569 165.222 250.653 165.222 250.653C157.102 256.835 149.043 260.071 141.048 260.197C141.048 260.197 141.442 247.548 141.442 240.431C141.442 233.314 141.702 227.135 144.234 220.019C145.002 217.858 148.696 209.659 153.8 206.608C160.6 202.545 167.307 206.398 175.869 207.888Z" fill-rule="evenodd" fill="#F8C6A3"/>
		<path id="Path_44057" d="M154.081 240.863C148.188 241.625 146.661 240.863 145.41 234.776C144.16 228.69 145.687 216.742 147.536 213.418C146.222 215.516 145.116 217.727 144.231 220.023C141.7 227.139 141.439 233.319 141.439 240.435C141.439 244.275 141.326 249.724 141.222 253.93L146.732 253.193L164.942 248.762C164.942 248.762 165.373 248.406 165.94 247.863C166.285 246.499 166.745 244.677 167.293 242.476C167.33 242.325 167.374 242.152 167.419 241.974C164.7 240.588 159.439 240.17 154.081 240.863Z" fill-rule="evenodd" fill="#F2A37C"/>
		<path id="Path_44058" d="M170.261 210.624C168.674 210.161 167.243 209.301 166.114 208.134C164.933 206.822 164.427 205.091 163.773 205.439C162.465 206.137 163.118 211.174 165.81 212.87C167.483 214.093 169.725 214.32 171.626 213.459C172.572 212.999 173.734 211.533 170.261 210.624Z" fill-rule="evenodd" fill="#F2A37C"/>
		<g opacity="0.300000">
			<path id="Path_44059" d="M175.869 207.891C176.339 203.141 175.574 198.8 169.542 195.478C166.316 193.703 161.456 193.057 157.304 192.906C161.877 193.284 171.776 196.107 173.901 202.337C174.441 203.916 174.393 206.538 173.969 210.53C172.975 219.926 169.869 232.959 169.866 232.97C172.338 223.982 175.56 212.054 175.869 207.891Z" fill-rule="evenodd" fill="#FFFFFF"/>
		</g>
		<path id="Path_44060" d="M165.228 250.655C165.649 248.967 166.293 247.337 167.145 245.807C167.656 245.153 167.656 244.009 164.509 243.354C161.362 242.699 152.939 243.108 146.733 245.071C140.527 247.035 139.335 249.162 139.676 250.061C140.016 250.96 141.499 256.352 141.053 260.2C149.027 260.102 157.088 256.816 165.228 250.655Z" fill-rule="evenodd" fill="#EFF8FC"/>
		<path id="Path_44061" d="M166.588 246.822L166.588 246.816C166.588 246.816 160.353 245.456 151.577 247.607C142.563 249.815 140.309 252.369 140.309 252.369C140.505 253.229 140.712 254.249 140.867 255.329C141.973 254.486 144.937 252.679 151.577 251.05C156.077 249.9 160.76 249.568 165.386 250.07C165.714 248.964 166.116 247.879 166.588 246.822L166.588 246.822Z" fill-rule="evenodd" fill="#4477BB"/>
		<g opacity="0.200000">
			<path id="Path_44062" d="M151.89 258.148C151.269 257.912 150.576 257.924 149.965 258.181C146.133 259.404 145.278 256.627 145.26 254.749C145.294 252.772 145.006 250.801 144.408 248.909C144.096 248.244 144.081 247.486 144.367 246.81C144.653 246.135 145.215 245.602 145.921 245.337C140.417 247.223 139.345 249.201 139.671 250.061C140.011 250.961 141.494 256.351 141.048 260.199C144.759 260.129 148.428 259.434 151.89 258.148Z" fill-rule="evenodd" fill="#242357"/>
		</g>
		<path id="Path_44063" d="M148.257 257.159C146.486 258.365 142.413 258.484 140.969 256.096C140.969 256.096 140.32 256.469 139.619 258.419C138.917 260.368 138.077 264.96 139.619 267.436C142.578 265.984 145.717 264.901 148.96 264.21C154.107 263.161 161.205 259.485 163.621 257.91C166.038 256.336 176.178 250.708 183.742 254.234C183.742 254.234 181.169 250.334 174.229 250.409C167.289 250.484 165.224 250.657 165.224 250.657C165.224 250.657 156.048 251.003 151.767 252.885C149.038 254.083 150.129 255.883 148.257 257.159Z" fill-rule="evenodd" fill="#4477BB"/>
		<g opacity="0.200000">
			<path id="Path_44064" d="M163.62 257.908C165.441 256.762 167.371 255.786 169.385 254.993C168.92 252.971 168.21 250.97 167.182 250.558C166.83 250.57 166.531 250.583 166.283 250.595L166.272 250.595C163.361 251.968 163.173 256.016 163.173 256.016C161.539 256.264 156.285 259.386 154.363 260.196C150.597 261.781 148.483 261.562 147.595 260.945C146.346 260.078 146.427 257.86 146.427 257.86C144.486 258.239 142.024 257.84 140.966 256.093C140.966 256.093 140.317 256.466 139.616 258.416C138.914 260.365 138.074 264.957 139.616 267.433C142.575 265.981 145.713 264.898 148.957 264.208C154.106 263.159 161.203 259.483 163.62 257.908Z" fill-rule="evenodd" fill="#242357"/>
		</g>
		<path id="Path_44065" d="M183.733 254.224C176.572 250.897 167.111 255.755 164.076 257.623C164.218 257.528 163.001 253.562 166.271 250.598C169.541 247.634 181.864 247.861 183.733 254.224Z" fill-rule="evenodd" fill="#EFF8FC"/>
		<path id="Path_44066" d="M183.733 254.221C180.683 248.856 172.011 250.909 169.723 251.773C167.435 252.637 164.446 253.287 164.835 252.398C164.056 254.03 163.792 255.845 164.076 257.62C167.113 255.755 176.574 250.897 183.733 254.221Z" fill-rule="evenodd" fill="#A9CBD3"/>
		<path id="Path_44067" d="M183.735 254.225C182.503 252.89 180.789 252.055 178.94 251.891C174.349 251.451 169.743 252.582 165.935 255.087C162.109 257.493 158.063 259.558 153.847 261.258C149.895 262.911 141.646 263.517 139.142 266.532C139.142 266.532 138.473 267.595 138.664 270.438C138.616 272.864 140.234 275.032 142.641 275.763C145.37 276.813 153.326 277.337 163.23 274.188C173.134 271.04 179.662 270.581 183.74 264.962C187.286 260.074 185.051 255.694 183.735 254.225Z" fill-rule="evenodd" fill="#DEF1F8"/>
		<mask id="mask2_12976" mask-type="alpha" maskUnits="userSpaceOnUse" x="138.629852" y="251.797974" width="47.019196" height="24.777496">
			<path id="Path_44069" d="M183.735 254.225C182.503 252.89 180.789 252.055 178.94 251.891C174.349 251.451 169.743 252.582 165.935 255.087C162.109 257.493 158.063 259.559 153.847 261.259C149.895 262.911 141.646 263.518 139.142 266.532C139.142 266.532 138.473 267.595 138.664 270.438C138.616 272.864 140.234 275.032 142.641 275.763C145.37 276.813 153.326 277.337 163.23 274.188C173.134 271.04 179.662 270.582 183.74 264.962C187.286 260.074 185.051 255.694 183.735 254.225Z" fill-rule="evenodd" fill="#000000"/>
		</mask>
		<g mask="url(#mask2_12976)">
			<path id="Path_44068" d="M186.597 257.624C184.903 254.423 179.512 251.777 172.015 254.079C164.362 256.429 163.025 259.581 154.875 262.545C146.724 265.509 139.664 264.568 137.529 271.252" stroke="#4477BB"/>
		</g>
		<path id="Path_44070" d="M178.712 254.755C173.4 254.681 168.213 256.31 163.97 259.384C160.258 261.973 156.091 263.896 151.67 265.062C147.823 266.124 145.737 265.998 141.957 267.658C139.956 268.364 138.735 270.314 139.022 272.345C139.59 273.976 140.935 275.247 142.64 275.765C145.37 276.815 153.326 277.339 163.23 274.19C173.134 271.042 179.662 270.583 183.74 264.964C185.332 262.93 185.959 260.346 185.467 257.845C184.664 256.291 183.57 254.865 178.712 254.755Z" fill-rule="evenodd" fill="#E8914F"/>
		<path id="Path_44071" d="M148.887 275.214C146.951 275.306 145.014 275.064 143.168 274.498C141.891 274.135 140.866 273.216 140.401 272.016C140.295 270.628 141.175 269.345 142.544 268.893C144.365 268.107 146.283 267.548 148.251 267.23C149.348 267.017 150.589 266.773 152.056 266.368C156.64 265.164 160.959 263.17 164.802 260.483C168.661 257.685 173.352 256.152 178.185 256.111C178.346 256.111 178.508 256.111 178.67 256.117C182.802 256.212 183.576 257.281 184.11 258.283C184.456 260.369 183.902 262.501 182.575 264.185C179.73 268.108 175.534 269.27 169.181 271.03C167.268 271.559 165.099 272.16 162.785 272.898C158.308 274.374 153.617 275.157 148.885 275.218L148.887 275.214Z" fill-rule="evenodd" fill="#D1783B"/>
		<mask id="mask2_12984" mask-type="alpha" maskUnits="userSpaceOnUse" x="140.392151" y="256.111267" width="43.818573" height="19.122131">
			<path id="Path_44072" d="M148.887 275.214C146.951 275.306 145.014 275.064 143.168 274.498C141.891 274.135 140.866 273.216 140.401 272.016C140.295 270.628 141.175 269.345 142.544 268.893C144.365 268.107 146.283 267.548 148.251 267.231C149.347 267.017 150.589 266.773 152.056 266.368C156.64 265.164 160.958 263.17 164.802 260.483C168.661 257.685 173.352 256.152 178.184 256.111C178.346 256.111 178.508 256.111 178.67 256.117C182.802 256.212 183.576 257.281 184.11 258.283C184.456 260.369 183.902 262.501 182.575 264.185C179.73 268.108 175.534 269.27 169.181 271.03C167.268 271.559 165.099 272.16 162.785 272.899C158.308 274.375 153.617 275.157 148.885 275.218L148.887 275.214Z" fill-rule="evenodd" fill="#000000"/>
		</mask>
		<g mask="url(#mask2_12984)">
			<path id="Rectangle_33" d="M180.919 267.651L182.472 256.325L183.406 256.443L181.854 267.769L180.919 267.651Z" fill-rule="evenodd" fill="#C66D32"/>
			<path id="Rectangle_34" d="M176.916 269.883L178.881 255.548L179.816 255.667L177.851 270.001L176.916 269.883Z" fill-rule="evenodd" fill="#C66D32"/>
			<path id="Rectangle_35" d="M173.059 271.172L175.061 256.351L175.996 256.467L173.994 271.289L173.059 271.172Z" fill-rule="evenodd" fill="#C66D32"/>
			<path id="Rectangle_36" d="M169.182 272.291L171.372 256.82L172.305 256.943L170.115 272.414L169.182 272.291Z" fill-rule="evenodd" fill="#C66D32"/>
			<path id="Rectangle_37" d="M165.341 273.475L167.291 258.831L168.226 258.947L166.277 273.59L165.341 273.475Z" fill-rule="evenodd" fill="#C66D32"/>
			<path id="Rectangle_38" d="M161.557 274L163.323 261.128L164.257 261.247L162.492 274.119L161.557 274Z" fill-rule="evenodd" fill="#C66D32"/>
			<path id="Rectangle_39" d="M157.735 275.026L159.287 263.701L160.222 263.819L158.67 275.145L157.735 275.026Z" fill-rule="evenodd" fill="#C66D32"/>
			<path id="Rectangle_40" d="M153.848 276.096L155.401 264.77L156.335 264.888L154.783 276.214L153.848 276.096Z" fill-rule="evenodd" fill="#C66D32"/>
			<path id="Rectangle_41" d="M150.169 276.206L151.547 266.153L152.482 266.271L151.104 276.324L150.169 276.206Z" fill-rule="evenodd" fill="#C66D32"/>
			<path id="Rectangle_42" d="M146.476 276.028L147.703 267.078L148.637 267.197L147.411 276.146L146.476 276.028Z" fill-rule="evenodd" fill="#C66D32"/>
			<path id="Rectangle_43" d="M142.872 275.142L143.858 267.95L144.793 268.068L143.806 275.26L142.872 275.142Z" fill-rule="evenodd" fill="#C66D32"/>
			<path id="Rectangle_44" d="M140.686 270.172L141.054 269.338L156.047 275.449L155.68 276.283L140.686 270.172Z" fill-rule="evenodd" fill="#C66D32"/>
			<path id="Rectangle_45" d="M146.108 267.94L146.472 267.104L163.096 273.79L162.732 274.626L146.108 267.94Z" fill-rule="evenodd" fill="#C66D32"/>
			<path id="Rectangle_46" d="M153.568 266.112L153.944 265.282L169.839 271.937L169.463 272.767L153.568 266.112Z" fill-rule="evenodd" fill="#C66D32"/>
			<path id="Rectangle_47" d="M158.979 263.869L159.347 263.036L176.154 269.905L175.785 270.739L158.979 263.869Z" fill-rule="evenodd" fill="#C66D32"/>
			<path id="Rectangle_48" d="M163.898 261.062L164.276 260.232L181.05 267.296L180.673 268.126L163.898 261.062Z" fill-rule="evenodd" fill="#C66D32"/>
			<path id="Rectangle_49" d="M168.358 258.599L168.725 257.764L184.57 264.199L184.203 265.034L168.358 258.599Z" fill-rule="evenodd" fill="#C66D32"/>
			<path id="Rectangle_50" d="M174.652 256.523L175.019 255.688L185.788 260.063L185.421 260.898L174.652 256.523Z" fill-rule="evenodd" fill="#C66D32"/>
		</g>
		<path id="Path_44073" d="M184.118 258.279C184.074 258.197 184.027 258.114 183.978 258.031C183.95 259.713 183.377 261.343 182.338 262.695C179.494 266.618 175.298 267.781 168.944 269.541C167.031 270.071 164.862 270.671 162.548 271.409C158.072 272.885 153.38 273.668 148.648 273.728C146.712 273.821 144.775 273.578 142.929 273.012C141.893 272.692 141.012 272.024 140.446 271.131C140.379 271.422 140.366 271.722 140.408 272.017C140.873 273.217 141.898 274.136 143.175 274.499C145.021 275.065 146.958 275.307 148.894 275.215C153.626 275.155 158.318 274.372 162.794 272.896C165.113 272.157 167.281 271.557 169.19 271.028C175.543 269.267 179.739 268.104 182.584 264.182C183.911 262.498 184.465 260.366 184.118 258.279Z" fill-rule="evenodd" fill="#C66D32"/>
		<path id="Line_1" d="M174.632 -426.076L176.6 -426.076" stroke="#E8914F"/>
		<path id="Line_2" d="M170.63 -426.852L172.598 -426.852" stroke="#E8914F"/>
		<path id="Line_3" d="M166.761 -426.049L168.778 -426.049" stroke="#E8914F"/>
		<path id="Line_4" d="M162.893 -425.579L165.077 -425.579" stroke="#E8914F"/>
		<path id="Line_5" d="M159.053 -423.569L161.021 -423.569" stroke="#E8914F"/>
		<path id="Line_6" d="M155.271 -421.271L157.239 -421.271" stroke="#E8914F"/>
		<path id="Line_7" d="M151.448 -418.699L153.416 -418.699" stroke="#E8914F"/>
		<path id="Line_8" d="M147.562 -417.631L149.53 -417.631" stroke="#E8914F"/>
		<path id="Line_9" d="M143.881 -416.247L145.849 -416.247" stroke="#E8914F"/>
		<path id="Line_10" d="M140.188 -415.322L142.156 -415.322" stroke="#E8914F"/>
		<path id="Line_11" d="M136.584 -414.451L138.552 -414.451" stroke="#E8914F"/>
		<path id="Line_12" d="M134.111 -412.704L149.105 -412.704" stroke="#E8914F"/>
		<path id="Line_13" d="M139.531 -414.936L156.149 -414.936" stroke="#E8914F"/>
		<path id="Line_14" d="M146.997 -416.762L162.893 -416.762" stroke="#E8914F"/>
		<path id="Line_15" d="M152.405 -419.007L169.216 -419.007" stroke="#E8914F"/>
		<path id="Line_16" d="M157.33 -421.812L174.105 -421.812" stroke="#E8914F"/>
		<path id="Line_17" d="M161.783 -424.277L177.629 -424.277" stroke="#E8914F"/>
		<path id="Line_18" d="M168.077 -426.354L178.851 -426.354" stroke="#E8914F"/>
		<path id="Path_44090" d="M67.2415 120.62C67.2415 120.62 41.811 124.206 21.2296 117.193C20.6537 116.994 20.3385 116.398 20.5104 115.833C20.8508 114.71 21.4235 112.732 21.9864 110.387C23.302 104.916 67.2415 120.62 67.2415 120.62Z" fill-rule="evenodd" fill="#A9CBD3"/>
		<path id="Path_44091" d="M21.9864 110.387C21.638 111.837 21.2867 113.146 20.9886 114.201C41.5394 122.04 67.2365 120.62 67.2365 120.62C67.2365 120.62 23.3009 104.916 21.9864 110.387Z" fill-rule="evenodd" fill="#8CB8BF"/>
		<path id="Path_44092" d="M26.1743 87.3438C26.1743 87.3438 26.371 97.9908 23.3443 103.467C20.3176 108.943 56.8721 121.176 67.2425 120.621C67.2425 120.621 53.0089 109.086 45.2008 99.86C40.1346 94.1287 33.5647 89.807 26.1743 87.3438Z" fill-rule="evenodd" fill="#CCE4EA"/>
		<g opacity="0.500000">
			<path id="Path_44093" d="M23.3443 103.467C20.3195 108.943 56.8721 121.176 67.2424 120.621C50.6768 115.511 27.9878 97.3889 27.9878 97.3889C27.8622 93.9766 27.252 90.5969 26.1743 87.3437C26.1743 87.3438 26.3691 97.9908 23.3443 103.467Z" fill-rule="evenodd" fill="#A9CBD3"/>
		</g>
		<path id="Path_44094" d="M15.0245 90.2786C13.9657 90.4622 9.03979 91.2496 3.8345 91.6869C-3.98727 92.3436 -10.7375 91.0575 -9.86078 93.0743C-9.07846 94.8724 3.14084 106.408 20.6777 112.74C38.2146 119.073 60.1253 121.163 67.2416 120.619C57.1521 117.036 47.4337 112.552 38.2136 107.226C23.7014 98.7214 18.0621 89.7496 15.0245 90.2786Z" fill-rule="evenodd" fill="#F7FCFE"/>
		<path id="Path_44095" d="M67.2416 120.62C67.2416 120.62 57.6732 111.122 52.1037 100.787C44.8103 87.2482 43.0794 76.8605 42.307 75.8687C41.5345 74.8768 38.2863 77.2504 33.0987 81.0739C30.6114 82.9725 28.2947 85.0692 26.1733 87.3418C26.1733 87.3419 50.8186 115.16 67.2416 120.62Z" fill-rule="evenodd" fill="#F7FCFE"/>
		<path id="Path_44096" d="M11.119 92.4023C2.67828 94.4323 -7.53659 92.7676 -5.1799 95.5519C-2.82318 98.3362 20.4534 115.634 53.7509 118.491C53.7509 118.491 24.6541 111.53 11.7735 103.99C-3.36047 95.1317 2.24829 95.2396 4.64246 94.7153C6.92059 94.2982 9.10986 93.5164 11.119 92.4023Z" fill-rule="evenodd" fill="#FFFFFF"/>
		<path id="Path_44097" d="M62.4523 117.579C62.4523 117.579 39.8015 100.747 28.6519 87.7461C28.6519 87.7461 33.2767 81.7592 39.043 78.7969C39.043 78.7969 34.2775 82.9819 32.8261 85.7056C32.1541 86.9681 33.4834 89.6218 35.7279 92.4023C41.0464 98.994 62.4523 117.579 62.4523 117.579Z" fill-rule="evenodd" fill="#FFFFFF"/>
		<path id="Path_44098" d="M274.587 160.086C274.587 160.086 255.64 167.908 238.179 166.551C237.69 166.511 237.318 166.111 237.33 165.639C237.353 164.7 237.372 163.053 237.307 161.125C237.157 156.621 274.587 160.086 274.587 160.086Z" fill-rule="evenodd" fill="#A9CBD3"/>
		<path id="Path_44099" d="M237.311 161.124C237.352 162.317 237.359 163.402 237.354 164.278C254.968 166.281 274.587 160.086 274.587 160.086C274.587 160.086 237.157 156.621 237.311 161.124Z" fill-rule="evenodd" fill="#8CB8BF"/>
		<path id="Path_44100" d="M235.619 142.429C235.619 142.429 238.052 150.644 236.88 155.49C235.708 160.335 266.668 162.57 274.588 160.085C274.588 160.085 261.082 153.964 253.053 148.359C247.897 144.92 241.877 142.873 235.619 142.429Z" fill-rule="evenodd" fill="#CCE4EA"/>
		<g opacity="0.500000">
			<path id="Path_44101" d="M236.88 155.49C235.709 160.334 266.668 162.57 274.588 160.085C260.652 159.41 239.177 149.857 239.177 149.857C238.348 147.237 237.151 144.738 235.619 142.429C235.619 142.429 238.052 150.643 236.88 155.49Z" fill-rule="evenodd" fill="#A9CBD3"/>
		</g>
		<path id="Path_44102" d="M227.607 146.915C226.826 147.268 223.179 148.855 219.234 150.228C213.311 152.288 207.803 152.629 208.915 154.019C209.907 155.259 221.852 161.78 236.804 163.21C251.756 164.641 269.192 161.921 274.59 160.087C266 159.309 257.506 157.76 249.216 155.458C236.139 151.736 229.846 145.903 227.607 146.915Z" fill-rule="evenodd" fill="#F7FCFE"/>
		<path id="Path_44103" d="M274.588 160.085C274.588 160.085 265.135 154.619 258.601 147.708C250.045 138.659 246.478 130.949 245.665 130.333C244.853 129.716 242.845 132.202 239.644 136.2C238.122 138.165 236.776 140.25 235.619 142.433C235.619 142.433 260.687 159.108 274.588 160.085Z" fill-rule="evenodd" fill="#F7FCFE"/>
		<path id="Path_44104" d="M225.032 149.336C218.924 152.582 210.648 153.318 213.071 155.009C215.495 156.7 237.247 165.494 263.672 161.109C263.672 161.109 239.624 161.482 228.023 158.19C214.391 154.323 218.764 153.295 220.506 152.41C222.183 151.637 223.713 150.597 225.032 149.336Z" fill-rule="evenodd" fill="#FFFFFF"/>
		<path id="Path_44105" d="M270.222 158.676C270.222 158.676 249.055 150.119 237.625 142.25C237.625 142.25 239.931 136.69 243.763 133.251C243.763 133.251 240.966 137.44 240.425 139.839C240.174 140.951 241.773 142.745 244.109 144.456C249.645 148.512 270.222 158.676 270.222 158.676Z" fill-rule="evenodd" fill="#FFFFFF"/>
		<path id="Path_44106" d="M2.54745 159.363L-7.32401 159.363C-8.12988 152.932 -13.8026 148.092 -20.5381 148.089L-20.5381 142.117C-20.5406 134.831 -26.6807 128.929 -34.2528 128.93L-34.2491 128.93C-41.8216 128.93 -47.9601 134.834 -47.9601 142.117L-47.9601 146.018C-49.8864 142.249 -54.2611 140.255 -58.5143 141.208C-62.7676 142.161 -65.7753 145.81 -65.7704 150.01L-65.7705 159.364L-77.3168 159.364C-79.5853 159.365 -81.4241 161.134 -81.4241 163.316L-81.424 163.316C-81.4241 165.496 -79.5859 167.265 -77.3179 167.266L2.54663 167.266C4.81516 167.266 6.65427 165.497 6.65485 163.316C6.65533 162.269 6.22305 161.263 5.45285 160.522C4.6828 159.781 3.638 159.364 2.54843 159.363L2.54745 159.363Z" fill-rule="evenodd" fill="#FFFFFF"/>
		<ellipse id="Ellipse_544" cx="-91.885010" cy="64.322266" rx="27.517561" ry="26.466076" fill="#FFD348"/>
		<g opacity="0.300000">
			<path id="Path_44107" d="M-98.7307 49.5519C-100.69 47.4424 -103.893 44.2691 -106.389 41.8312C-107.879 42.7184 -109.276 43.7414 -110.561 44.8861C-106.101 48.8014 -101.849 52.3182 -100.638 53.5618C-99.1488 55.0883 -95.1558 53.4028 -98.7307 49.5519Z" fill-rule="evenodd" fill="#E85D1C"/>
			<path id="Path_44108" d="M-67.8694 77.2322C-73.4695 74.0579 -83.9038 68.1126 -88.3583 65.3662C-94.5959 61.5219 -99.3436 62.4324 -101.235 60.9181C-102.605 59.8184 -109.926 52.6844 -114.192 48.842C-114.799 49.6506 -115.357 50.4914 -115.865 51.3604C-112.457 54.9851 -106.975 60.796 -105.765 61.979C-103.98 63.7242 -104.683 66.2785 -106.809 64.4567C-108.133 63.321 -113.846 59.0102 -117.972 55.9154C-118.608 57.7287 -119.037 59.6032 -119.251 61.5058C-113.099 66.8397 -105.513 71.8311 -103.212 72.0591C-100.635 72.3156 -97.7567 67.5164 -94.597 69.2142C-92.2295 70.4862 -78.7044 78.6641 -72.0683 82.6862C-70.4322 81.0482 -69.0211 79.2153 -67.8694 77.2322Z" fill-rule="evenodd" fill="#E85D1C"/>
			<path id="Path_44109" d="M-85.3739 90.0369C-82.0374 89.2572 -78.8828 87.8819 -76.0739 85.9825C-81.4368 83.2029 -89.9337 78.8713 -92.3572 78.0593C-95.9785 76.8451 -95.6045 82.9446 -98.4857 83.1121C-101.019 83.2588 -109.69 77.6154 -118.679 70.3281C-118.659 70.4133 -118.644 70.4994 -118.622 70.5846C-116.895 77.4048 -112.422 83.2858 -106.187 86.9338C-99.9517 90.5818 -92.465 91.6981 -85.374 90.0369L-85.3739 90.0369Z" fill-rule="evenodd" fill="#E85D1C"/>
			<path id="Path_44110" d="M-86.9119 38.2935C-86.6875 39.713 -85.6504 41.215 -82.9237 43.3615C-78.6522 46.724 -75.159 48.8912 -73.7283 50.3449C-72.2975 51.7986 -76.2512 52.356 -74.1771 54.7731C-72.8595 56.3082 -67.9473 59.3821 -64.5338 61.4197C-64.6629 60.2881 -64.8668 59.1656 -65.1439 58.059C-67.7127 47.9185 -76.2383 40.1772 -86.9117 38.2935L-86.9119 38.2935Z" fill-rule="evenodd" fill="#E85D1C"/>
			<path id="Path_44111" d="M-87.4492 53.5589C-89.246 51.0812 -86.4268 48.3537 -88.5217 45.4738C-90.6321 42.8861 -92.8889 40.4119 -95.2817 38.0625C-96.3298 38.188 -97.3695 38.3703 -98.3961 38.6086C-99.5023 38.87 -100.591 39.1969 -101.655 39.5872C-98.2112 43.3151 -94.285 47.6534 -93.4151 49.2405C-92.3257 51.2355 -95.6783 54.5129 -94.0674 55.7016C-92.7184 56.6953 -72.5818 69.2436 -66.0136 73.333C-65.2826 71.3993 -64.7888 69.39 -64.5427 67.346C-70.2134 64.2683 -85.978 55.588 -87.4492 53.5589Z" fill-rule="evenodd" fill="#E85D1C"/>
		</g>
		<g opacity="0.300000">
			<path id="Path_44112" d="M-67.3715 52.287C-70.3823 46.5817 -75.4464 42.1234 -81.6208 39.7424C-81.2804 40.3027 -74.5695 51.6671 -81.7379 66.4196C-88.9261 81.209 -107.863 85.1252 -108.707 85.2936C-98.5053 92.8424 -84.2272 92.5874 -74.3237 84.6794C-64.4201 76.7715 -61.5331 63.3203 -67.3714 52.287L-67.3715 52.287Z" fill-rule="evenodd" fill="#E85D1C"/>
		</g>
		<g opacity="0.300000">
			<path id="Path_44113" d="M-69.3809 52.7468C-64.3345 62.2975 -66.2876 73.8903 -74.2114 81.4197C-82.1353 88.9491 -94.2114 90.6871 -104.08 85.7185C-93.0113 88.2069 -81.5024 83.8026 -75.2373 74.6806C-68.9721 65.5587 -69.2761 53.6492 -75.9993 44.834C-73.2425 46.9978 -70.9879 49.6934 -69.3809 52.7468Z" fill-rule="evenodd" fill="#E85D1C"/>
		</g>
		<g opacity="0.150000">
			<path id="Path_44114" d="M-88.3868 41.3047C-92.0355 40.4123 -104.791 41.0076 -111.6 52.1581C-117.125 61.3394 -115.891 72.8956 -108.54 80.8046C-110.109 77.8377 -113.148 66.9247 -108.106 56.9137C-103.064 46.9027 -93.0836 42.8833 -88.3868 41.3047Z" fill-rule="evenodd" fill="#FFEDB2"/>
		</g>
		<path id="Path_44115" d="M-88.3859 41.3049C-88.3859 41.3049 -104.279 40.4474 -111.142 53.4188C-118.005 66.3901 -110.073 79.2829 -108.54 80.801C-108.54 80.801 -121.282 68.2205 -112.726 52.6248C-104.738 38.0701 -88.3859 41.3049 -88.3859 41.3049Z" fill-rule="evenodd" fill="#FFEDB2"/>
		<ellipse id="Ellipse_545" cx="188.067932" cy="54.127502" rx="7.209768" ry="6.934273" fill="#FFFFFF" fill-opacity="0.2"/>
		<path id="Path_44116" d="M188.068 62.2543C187.395 62.2543 186.849 61.7299 186.849 61.0827L186.849 47.1706C186.849 46.5234 187.395 45.999 188.068 45.999C188.391 45.999 188.701 46.1224 188.929 46.3421C189.158 46.5618 189.286 46.8598 189.286 47.1706L189.286 61.0827C189.286 61.394 189.158 61.692 188.929 61.9116C188.7 62.1312 188.391 62.2545 188.067 62.2543L188.068 62.2543Z" fill-rule="evenodd" fill="#FFFFFF" fill-opacity="0.298039"/>
		<path id="Path_44117" d="M196.517 54.1267C196.517 54.7739 195.971 55.2987 195.298 55.2993L180.834 55.2993C180.161 55.2987 179.615 54.7739 179.615 54.1267C179.616 53.8153 179.744 53.5174 179.973 53.2978C180.201 53.0782 180.511 52.9549 180.834 52.955L195.298 52.955C195.621 52.955 195.931 53.0785 196.16 53.2982C196.388 53.5179 196.517 53.8159 196.517 54.1267Z" fill-rule="evenodd" fill="#FFFFFF" fill-opacity="0.298039"/>
		<path id="Path_44118" d="M193.182 54.1266C193.182 54.7742 192.636 55.2992 191.963 55.2991L184.172 55.2991C183.499 55.2992 182.953 54.7742 182.953 54.1266C182.954 53.4797 183.5 52.9559 184.172 52.9559L191.963 52.9559C192.635 52.9559 193.181 53.4797 193.182 54.1266Z" fill-rule="evenodd" fill="#FFFFFF"/>
		<path id="Path_44119" d="M188.068 59.046C187.395 59.046 186.849 58.521 186.849 57.8734L186.849 50.377C186.849 49.7293 187.395 49.2043 188.068 49.2043C188.741 49.2049 189.286 49.7297 189.286 50.377L189.286 57.8696C189.287 58.1811 189.159 58.4802 188.931 58.7009C188.702 58.9216 188.392 59.0457 188.068 59.046Z" fill-rule="evenodd" fill="#FFFFFF"/>
		<ellipse id="Ellipse_546" cx="-139.532288" cy="103.829468" rx="7.209768" ry="6.934273" fill="#FFFFFF" fill-opacity="0.2"/>
		<path id="Path_44120" d="M-139.533 111.955C-140.206 111.955 -140.751 111.431 -140.751 110.784L-140.751 96.8716C-140.751 96.224 -140.205 95.6997 -139.533 95.7L-139.533 95.7C-138.86 95.7 -138.315 96.2244 -138.314 96.8716L-138.314 110.784C-138.315 111.431 -138.86 111.955 -139.533 111.955L-139.533 111.955Z" fill-rule="evenodd" fill="#FFFFFF" fill-opacity="0.298039"/>
		<path id="Path_44121" d="M-131.084 103.829C-131.084 104.476 -131.63 105.001 -132.303 105.001L-146.763 105.001C-147.436 105.001 -147.981 104.476 -147.981 103.829C-147.981 103.181 -147.435 102.657 -146.762 102.657L-132.303 102.657C-131.63 102.657 -131.084 103.181 -131.084 103.829Z" fill-rule="evenodd" fill="#FFFFFF" fill-opacity="0.298039"/>
		<path id="Path_44122" d="M-134.419 103.829C-134.419 104.476 -134.965 105.001 -135.637 105.001L-143.428 105.001C-144.101 105.001 -144.647 104.476 -144.647 103.829C-144.646 103.181 -144.101 102.657 -143.428 102.657L-135.638 102.657C-134.965 102.657 -134.419 103.182 -134.419 103.829Z" fill-rule="evenodd" fill="#FFFFFF"/>
		<path id="Path_44123" d="M-139.533 108.749C-140.206 108.748 -140.751 108.224 -140.751 107.576L-140.751 100.083C-140.751 99.4355 -140.206 98.9106 -139.533 98.9101C-138.86 98.9101 -138.314 99.4351 -138.314 100.083L-138.314 107.575C-138.314 107.887 -138.442 108.185 -138.671 108.405C-138.899 108.625 -139.21 108.749 -139.533 108.749L-139.533 108.749Z" fill-rule="evenodd" fill="#FFFFFF"/>
		<path id="Path_44124" d="M-172.887 43.9357C-172.887 43.179 -172.413 42.4977 -171.687 42.2086C-170.96 41.9196 -170.124 42.0797 -169.569 42.6145C-169.013 43.1493 -168.847 43.9533 -169.148 44.6516C-169.449 45.3499 -170.158 45.8051 -170.944 45.8048C-172.017 45.8044 -172.887 44.9677 -172.887 43.9357Z" fill-rule="evenodd" fill="#FFEDB2"/>
		<path id="Path_44125" d="M-93.8293 115.518C-93.8287 114.485 -92.9583 113.649 -91.8851 113.649C-90.8119 113.65 -89.9423 114.487 -89.9426 115.519C-89.9428 116.551 -90.813 117.388 -91.8862 117.388C-92.4019 117.388 -92.8964 117.191 -93.2608 116.84C-93.6254 116.489 -93.8298 116.013 -93.8293 115.518Z" fill-rule="evenodd" fill="#FFEDB2"/>
		<path id="Path_44126" d="M231.73 101.105C231.73 100.073 232.6 99.2358 233.673 99.2357C234.746 99.2355 235.616 100.072 235.617 101.104C235.617 102.136 234.747 102.973 233.674 102.974C233.159 102.974 232.664 102.777 232.299 102.427C231.935 102.076 231.73 101.601 231.73 101.105Z" fill-rule="evenodd" fill="#FFEDB2"/>
		<path id="Path_44127" d="M101.994 46.0016C101.994 45.245 102.468 44.5636 103.194 44.2745C103.92 43.9855 104.756 44.1457 105.312 44.6804C105.867 45.2152 106.033 46.0192 105.732 46.7175C105.431 47.4159 104.722 47.8711 103.936 47.8708C102.863 47.8705 101.994 47.0337 101.994 46.0016Z" fill-rule="evenodd" fill="#FFEDB2"/>
		<path id="Path_44128" d="M93.8696 93.987C93.8692 93.2307 94.3426 92.5485 95.0691 92.2587C95.7957 91.9688 96.6321 92.1286 97.1884 92.6633C97.7448 93.198 97.9114 94.0024 97.6105 94.7014C97.3097 95.4004 96.6007 95.8561 95.8141 95.8562C95.2985 95.8564 94.8038 95.6596 94.4392 95.3091C94.0745 94.9585 93.8696 94.4829 93.8696 93.987Z" fill-rule="evenodd" fill="#FFEDB2"/>
		<path id="Path_44129" d="M210.694 42.0684C210.694 41.3127 211.167 40.6306 211.894 40.3409C212.62 40.0513 213.456 40.211 214.013 40.7456C214.569 41.2803 214.736 42.0846 214.435 42.7835C214.134 43.4824 213.425 43.9383 212.639 43.9385C212.123 43.9387 211.628 43.7417 211.264 43.391C210.899 43.0403 210.694 42.5645 210.694 42.0684Z" fill-rule="evenodd" fill="#FFEDB2"/>
		<path id="Path_44130" d="M-7.34454 58.4789C-7.34418 57.7219 -6.87021 57.0402 -6.14349 56.751C-5.4169 56.4618 -4.58066 56.622 -4.02475 57.1571C-3.46884 57.6921 -3.30273 58.4966 -3.60397 59.1953C-3.90524 59.894 -4.61441 60.3493 -5.40082 60.3491C-5.91647 60.3492 -6.41098 60.1521 -6.77554 59.8014C-7.14011 59.4506 -7.34479 58.9749 -7.34454 58.4789Z" fill-rule="evenodd" fill="#FFEDB2"/>
		<path id="Path_44131" d="M-192.864 80.9712C-192.864 80.2158 -192.391 79.5341 -191.665 79.2445C-190.939 78.955 -190.103 79.1146 -189.547 79.649C-188.991 80.1834 -188.824 80.9873 -189.125 81.6858C-189.425 82.3844 -190.134 82.8401 -190.92 82.8403C-191.436 82.8405 -191.93 82.6436 -192.295 82.293C-192.659 81.9424 -192.864 81.4669 -192.864 80.9712Z" fill-rule="evenodd" fill="#FFEDB2"/>
	</g>
	<defs>
		<linearGradient id="paint_linear_2_12789_0" x1="92.768150" y1="219.151276" x2="92.768150" y2="292.264954" gradientUnits="userSpaceOnUse">
			<stop stop-color="#F59D10" stop-opacity="0.501961"/>
			<stop offset="0.144000" stop-color="#F59D10" stop-opacity="0.470588"/>
			<stop offset="0.361000" stop-color="#F59D12" stop-opacity="0.384314"/>
			<stop offset="0.624000" stop-color="#F69E16" stop-opacity="0.247059"/>
			<stop offset="0.921000" stop-color="#F69F1B" stop-opacity="0.054902"/>
			<stop offset="1.000000" stop-color="#F7A01D" stop-opacity="0.000000"/>
		</linearGradient>
		<linearGradient id="paint_linear_2_12874_0" x1="173.543289" y1="122.940460" x2="173.543289" y2="104.251976" gradientUnits="userSpaceOnUse">
			<stop stop-color="#F2A37C"/>
			<stop offset="0.090000" stop-color="#F2A47D" stop-opacity="0.968627"/>
			<stop offset="0.225000" stop-color="#F2A780" stop-opacity="0.882353"/>
			<stop offset="0.390000" stop-color="#F3AC86" stop-opacity="0.741176"/>
			<stop offset="0.577000" stop-color="#F4B28D" stop-opacity="0.549020"/>
			<stop offset="0.783000" stop-color="#F6BB97" stop-opacity="0.298039"/>
			<stop offset="1.000000" stop-color="#F8C6A3" stop-opacity="0.000000"/>
		</linearGradient>
		<linearGradient id="paint_linear_2_12875_0" x1="192.651199" y1="121.366646" x2="192.651199" y2="104.220856" gradientUnits="userSpaceOnUse">
			<stop stop-color="#F2A37C"/>
			<stop offset="0.090000" stop-color="#F2A47D" stop-opacity="0.968627"/>
			<stop offset="0.225000" stop-color="#F2A780" stop-opacity="0.882353"/>
			<stop offset="0.390000" stop-color="#F3AC86" stop-opacity="0.741176"/>
			<stop offset="0.577000" stop-color="#F4B28D" stop-opacity="0.549020"/>
			<stop offset="0.783000" stop-color="#F6BB97" stop-opacity="0.298039"/>
			<stop offset="1.000000" stop-color="#F8C6A3" stop-opacity="0.000000"/>
		</linearGradient>
	</defs>
</svg>
