<svg width="88.877045" height="49.232605" viewBox="0 0 88.877 49.2326" fill="none" xmlns="http://www.w3.org/2000/svg" xmlns:xlink="http://www.w3.org/1999/xlink">
	<desc>
			Created with Pixso.
	</desc>
	<ellipse id="Ellipse_543" cx="46.012589" cy="23.820068" rx="24.766438" ry="23.820078" fill="#7A60A6"/>
	<path id="Path_44074" d="M70.1116 18.3514C68.7443 12.7564 65.3096 7.83002 60.4467 4.4895C60.6199 5.04785 63.9656 16.3413 54.4444 27.7501C44.8996 39.1902 27.5074 38.7369 26.733 38.7104C33.9699 47.3836 46.4879 50.079 56.8791 45.2017C67.2705 40.3243 72.7634 29.1749 70.1076 18.3514L70.1116 18.3514Z" fill-rule="evenodd" fill="#6D5298"/>
	<path id="Path_44075" d="M68.2636 18.3713C70.5576 27.7396 66.2906 37.4594 57.7099 42.4116C49.1293 47.3638 38.2041 46.4119 30.6885 40.0572C39.7988 44.4887 50.8145 42.996 58.2971 36.3159C65.7797 29.636 68.1466 19.1815 64.2292 10.114C66.1584 12.5655 67.5328 15.3782 68.2635 18.3713L68.2636 18.3713Z" fill-rule="evenodd" fill="#5F4589"/>
	<g opacity="0.250000">
		<path id="Path_44076" d="M24.6262 21.5494C23.6426 17.53 26.2331 13.5048 30.4121 12.5588C34.5911 11.6129 38.7762 14.1042 39.7598 18.1235C40.7435 22.1429 38.1532 26.1682 33.9742 27.1142C31.9674 27.5685 29.855 27.2375 28.1019 26.1939C26.3488 25.1503 25.0986 23.4796 24.6262 21.5494Z" fill-rule="evenodd" fill="#F298BB"/>
	</g>
	<g opacity="0.250000">
		<path id="Path_44077" d="M26.3816 18.9979C25.9662 17.301 26.6545 15.5305 28.1254 14.512C29.5964 13.4936 31.5605 13.4277 33.1018 14.345C34.643 15.2625 35.4579 16.9825 35.1663 18.7031C34.8748 20.4236 33.5343 21.8058 31.77 22.2052C29.3613 22.7499 26.9492 21.3143 26.3816 18.9979Z" fill-rule="evenodd" fill="#F298BB"/>
	</g>
	<g opacity="0.250000">
		<path id="Path_44078" d="M43.8093 12.3295C42.8257 8.31018 45.4162 4.28497 49.5952 3.33899C53.7742 2.39294 57.9593 4.88434 58.9429 8.90369C59.9266 12.923 57.3363 16.9482 53.1573 17.8943C51.1505 18.3487 49.0381 18.0176 47.285 16.974C45.5319 15.9304 44.2817 14.2597 43.8093 12.3295Z" fill-rule="evenodd" fill="#F298BB"/>
	</g>
	<g opacity="0.250000">
		<path id="Path_44079" d="M46.0892 9.35492C45.7012 7.77026 46.344 6.11682 47.7178 5.16565C49.0916 4.21448 50.9257 4.15289 52.3651 5.00964C53.8045 5.86646 54.5654 7.47278 54.2932 9.07965C54.021 10.6865 52.7692 11.9774 51.1214 12.3503C48.8719 12.8595 46.6189 11.5185 46.0892 9.35492Z" fill-rule="evenodd" fill="#F298BB"/>
	</g>
	<g opacity="0.250000">
		<path id="Path_44080" d="M34.2447 7.90222C33.8874 6.44867 34.4761 4.93127 35.7362 4.05817C36.9962 3.18512 38.6792 3.12848 39.9995 3.91473C41.3199 4.70099 42.0174 6.17511 41.7665 7.64911C41.5157 9.12317 40.3658 10.3065 38.8538 10.6468C37.8642 10.8708 36.8225 10.7075 35.9581 10.1928C35.0936 9.6781 34.4773 8.85413 34.2447 7.90222Z" fill-rule="evenodd" fill="#F298BB"/>
	</g>
	<g opacity="0.250000">
		<path id="Path_44081" d="M35.0852 6.98706C34.8924 6.20428 35.2092 5.38702 35.8878 4.91663C36.5663 4.44635 37.4727 4.41583 38.1838 4.83929C38.8949 5.26276 39.2704 6.05676 39.1351 6.85059C38.9998 7.64441 38.3802 8.28149 37.5658 8.46442C36.4569 8.71344 35.3476 8.05273 35.0852 6.98706Z" fill-rule="evenodd" fill="#F298BB"/>
	</g>
	<g opacity="0.150000">
		<path id="Path_44082" d="M54.2042 4.49524C51.2158 2.9696 39.95 0.882812 31.5427 9.22723C24.6922 16.1122 23.2152 26.4508 27.8813 34.8577C27.1689 31.9465 26.9268 21.7973 33.5412 14.0927C40.1556 6.38806 49.7556 4.91357 54.2042 4.49524Z" fill-rule="evenodd" fill="#D6B6D8"/>
	</g>
	<path id="Path_44083" d="M54.2032 4.49518C54.2032 4.49518 40.5207 0.498535 31.6628 10.4197C22.8048 20.3408 26.8785 33.2137 27.8812 34.8528C27.8812 34.8528 19.5398 21.2664 30.4553 9.4032C40.6457 -1.67157 54.2032 4.49518 54.2032 4.49518Z" fill-rule="evenodd" fill="#D7CEE7"/>
	<path id="Path_44084" d="M88.7397 47.2819C87.3916 50.0142 76.3571 47.8781 61.4051 42.4628C55.2295 40.2246 48.3809 37.4242 41.2714 34.1799C33.9081 30.8183 27.1018 27.3611 21.256 24.0667C7.80078 16.4899 -0.62532 9.78271 0.705093 7.08832C1.96861 4.53302 11.7082 6.24219 25.2067 10.908C24.7433 11.6011 24.3163 12.3163 23.9275 13.0506C18.4516 11.5317 14.8225 11.1805 14.244 12.3541C13.6358 13.5844 16.5072 16.2608 21.6416 19.5997C28.4325 23.8538 35.5308 27.6355 42.8824 30.9158C49.9594 34.2104 57.2606 37.0391 64.736 39.3823C71.0542 41.2704 75.312 41.8013 75.9428 40.5236C76.543 39.3047 73.7337 36.6661 68.6858 33.3699C69.0245 32.6276 69.3243 31.8696 69.584 31.0984C82.2266 38.3489 90.0218 44.684 88.7397 47.2819Z" fill-rule="evenodd" fill="#D5E9F9"/>
	<path id="Path_44085" d="M88.174 48.0447C86.8249 50.777 75.7903 48.641 60.8394 43.2257C54.6628 40.9874 47.8152 38.187 40.7047 34.9427C33.3414 31.5812 26.5351 28.124 20.6892 24.8295C7.23297 17.2526 -1.19193 10.5455 0.137421 7.85114C1.40092 5.29584 11.1995 7.03723 24.6951 11.702C24.2587 12.397 23.8664 13.1166 23.5203 13.8569C18.0444 12.337 14.2559 11.9424 13.6803 13.116C13.0732 14.3463 15.9435 17.0227 21.079 20.3616C27.8697 24.6158 34.968 28.3975 42.3198 31.6778C49.3966 34.9725 56.6978 37.8011 64.1732 40.1441C70.4916 42.0322 74.7494 42.5632 75.3811 41.2855C75.9813 40.0666 73.3216 37.5141 68.2727 34.2178C68.6112 33.4759 69.0038 32.7726 69.2635 32.0013C81.9029 39.2508 89.4561 45.4478 88.174 48.0447Z" fill-rule="evenodd" fill="#F49639"/>
	<path id="Path_44086" d="M88.7397 47.2819C87.3916 50.0142 76.3571 47.8781 61.4051 42.4628C55.2295 40.2246 48.3809 37.4242 41.2714 34.1799C33.9081 30.8183 27.1018 27.3611 21.256 24.0667C7.80078 16.4899 -0.62532 9.78271 0.705093 7.08832C1.96861 4.53302 11.7082 6.24219 25.2067 10.908C24.7433 11.6011 24.3163 12.3163 23.9275 13.0506C18.4516 11.5317 14.8225 11.1805 14.244 12.3541C13.6358 13.5844 16.5072 16.2608 21.6416 19.5997C28.4325 23.8538 35.5308 27.6355 42.8824 30.9158C49.9594 34.2104 57.2606 37.0391 64.736 39.3823C71.0542 41.2704 75.312 41.8013 75.9428 40.5236C76.543 39.3047 73.7337 36.6661 68.6858 33.3699C69.0245 32.6276 69.3243 31.8696 69.584 31.0984C82.2266 38.3489 90.0218 44.684 88.7397 47.2819Z" fill-rule="evenodd" fill="#FFE568"/>
	<path id="Path_44087" d="M82.9154 40.4744C85.4306 42.8234 89.5152 45.585 87.4803 47.2327C85.4454 48.8804 69.473 45.9078 39.0901 32.3156C39.0901 32.3156 69.9394 43.7982 77.9148 45.1478C85.8271 46.486 86.938 45.4573 82.9154 40.4744Z" fill-rule="evenodd" fill="#FCC231"/>
	<path id="Path_44088" d="M15.2634 8.41333C11.9011 7.75934 3.61287 5.80499 2.02371 7.29089C0.43457 8.77673 9.91338 16.5476 13.3348 18.4016C13.3348 18.4016 4.8311 11.7995 4.46306 8.75494C4.1875 6.48169 15.2634 8.41333 15.2634 8.41333Z" fill-rule="evenodd" fill="#FFEDB2"/>
	<path id="Path_44089" d="M23.8568 12.145C21.7259 11.5086 19.5546 11.0048 17.3565 10.6364C14.2235 10.1575 10.4833 9.67957 10.868 11.7285C11.2527 13.7775 14.1064 16.2911 19.8864 20.1516C25.6664 24.0118 35.4257 29.2881 35.4257 29.2881C35.4257 29.2881 21.1409 22.3888 15.6699 18.6978C10.1989 15.0068 6.89656 11.2761 7.66016 9.6701C8.61269 7.66663 17.2827 9.00763 24.2563 11.6575L23.8568 12.145Z" fill-rule="evenodd" fill="#FFDA60"/>
	<defs/>
</svg>
