<svg width="542.489441" height="784.144714" viewBox="0 0 542.489 784.145" fill="none" xmlns="http://www.w3.org/2000/svg" xmlns:xlink="http://www.w3.org/1999/xlink">
	<path id="Path_43883" d="M360.726 622.057C360.726 622.057 373.358 620.085 379.645 622.262C384.194 623.836 389.654 627.592 391.118 638.94C391.118 638.94 376.079 643.199 360.727 643.339C360.726 643.34 358.365 630.071 360.726 622.057Z" fill-rule="evenodd" fill="#F3AE92"/>
	<g opacity="0.500000">
		<path id="Path_43884" d="M372.141 642.568C372.546 639.218 372.908 633.569 371.353 630.156C370.074 627.344 365.796 625.01 360.216 624.221C358.748 632.249 360.72 643.338 360.72 643.338C364.539 643.288 368.352 643.031 372.141 642.568L372.141 642.568Z" fill-rule="evenodd" fill="#EB7C74"/>
	</g>
	<g opacity="0.200000">
		<path id="Path_43885" d="M379.645 622.262C376.589 621.417 373.406 621.075 370.232 621.25C373.364 621.384 383.332 623.7 386.222 630.094C387.503 633.12 388.411 636.279 388.929 639.508C390.324 639.164 391.118 638.94 391.118 638.94C389.652 627.592 384.192 623.837 379.645 622.262Z" fill-rule="evenodd" fill="#FFFFFF"/>
	</g>
	<path id="Path_43886" d="M266.77 635.839C260.902 634.112 261.218 633.811 255.807 631.929C250.396 630.047 249.695 629.847 245.038 628.182C240.38 626.517 223.888 624.338 216.583 644.954C209.054 666.2 217.44 673.132 222.364 676.645C230.008 682.099 247.683 688.278 252.799 690.292C252.798 690.292 242.773 655.451 266.77 635.839Z" fill-rule="evenodd" fill="#F29297"/>
	<path id="Path_43887" d="M266.77 635.839C260.902 634.112 261.218 633.811 255.807 631.929C250.396 630.047 249.695 629.847 245.038 628.182C240.38 626.517 223.888 624.338 216.583 644.954C209.054 666.2 217.44 673.132 222.364 676.645C230.008 682.099 247.683 688.278 252.799 690.292C252.798 690.292 242.773 655.451 266.77 635.839Z" fill-rule="evenodd" fill="#F29297"/>
	<path id="Path_43888" d="M265.564 636.196C257.692 634.168 246.99 630.05 243.267 629.156C239.545 628.262 233.961 628.529 230.889 631.036C227.818 633.543 235.372 631.008 244.397 633.962C253.422 636.916 257.222 638.681 260.228 639.79C263.235 640.899 265.564 636.196 265.564 636.196Z" fill-rule="evenodd" fill="#F5A9A7"/>
	<g opacity="0.500000">
		<path id="Path_43889" d="M240.174 654.346C234.843 652.015 229.032 649.673 225.61 646.006C218.666 638.562 224.145 632.567 228.48 629.633C223.94 632.068 219.519 636.667 216.583 644.954C209.054 666.2 217.44 673.132 222.363 676.645C230.008 682.099 247.682 688.278 252.799 690.292C252.799 690.292 248.496 675.333 252.28 659.5C248.106 657.774 244.057 656.044 240.174 654.346Z" fill-rule="evenodd" fill="#EC6469"/>
	</g>
	<g opacity="0.500000">
		<path id="Path_43890" d="M222.932 633.963C220.067 637.178 217.906 640.917 216.58 644.955C209.051 666.201 217.437 673.133 222.36 676.646C230.005 682.1 247.68 688.28 252.796 690.293C251.422 684.852 250.728 679.272 250.73 673.673C242.444 670.481 234.467 666.593 226.892 662.053C210.861 651.977 221.994 635.311 222.932 633.963Z" fill-rule="evenodd" fill="#E73555"/>
	</g>
	<path id="Path_43891" d="M286.734 699.79C286.205 700.481 285.344 700.865 284.454 700.806C282.465 700.774 278.504 698.922 268.364 695.848C260.212 693.377 255.102 692.391 253.574 691.076C249.767 687.802 245.037 675.496 248.52 660.048C251.777 645.607 261.656 637.94 265.051 636.411C267.831 635.159 270.836 635.421 276.528 637.053C279.971 638.039 283.478 638.811 287.025 639.363C289.048 639.679 290.985 639.908 292.815 640.07C297.631 640.494 296.739 642.221 296.739 642.221C296.739 642.221 280.119 648.179 276.316 665.606C271.526 687.552 286.734 699.79 286.734 699.79Z" fill-rule="evenodd" fill="#16A461"/>
	<path id="Path_43892" d="M265.564 636.197C265.392 636.263 265.219 636.333 265.048 636.411C263.283 637.312 261.659 638.45 260.227 639.791C267.527 642.575 274.999 644.923 282.6 646.823C282.601 646.823 286.877 646.43 290.131 645.778C291.293 644.986 292.38 644.338 293.322 643.824C292.411 643.382 291.434 643.077 290.426 642.921C282.24 641.229 270.562 637.732 265.564 636.197Z" fill-rule="evenodd" fill="#3EC664"/>
	<path id="Path_43893" d="M249.002 658.197C248.834 658.807 248.664 659.411 248.52 660.047C245.037 675.495 249.767 687.801 253.574 691.076C255.102 692.391 260.213 693.378 268.364 695.848C278.504 698.922 282.465 700.775 284.454 700.806C285.344 700.865 286.205 700.481 286.734 699.79C286.734 699.79 272.947 688.679 275.776 668.658C266.478 665.357 257.445 661.769 249.002 658.197Z" fill-rule="evenodd" fill="#16935D"/>
	<path id="Path_43894" d="M284.455 700.805C285.345 700.864 286.206 700.48 286.735 699.789C282.734 696.18 279.67 691.717 277.789 686.761L270.016 680.544C270.016 680.544 259.377 677.331 247.333 672.299C247.649 681.748 250.849 688.728 253.577 691.074C255.105 692.389 260.216 693.375 268.367 695.846C278.505 698.921 282.466 700.774 284.455 700.805Z" fill-rule="evenodd" fill="#0E7F4C"/>
	<path id="Path_43895" d="M262.187 664.931C265.636 645.308 284.188 639.725 286.464 639.267C283.364 638.763 280.295 638.091 277.273 637.255L277.26 637.255C274.148 637.586 258.212 644.543 255.336 662.127C252.548 679.162 259.651 691.524 262.152 694.052C263.97 694.557 266.038 695.139 268.364 695.843C269.521 696.194 270.586 696.525 271.588 696.843C271.588 696.843 258.874 683.78 262.187 664.931Z" fill-rule="evenodd" fill="#FFD348"/>
	<path id="Path_43896" d="M273.469 638.554C271.281 639.59 269.219 640.858 267.321 642.333C269.677 643.133 272.269 643.97 274.97 644.769C277.107 643.235 279.409 641.927 281.837 640.868C278.974 640.117 276.088 639.311 273.469 638.554Z" fill-rule="evenodd" fill="#FFE568"/>
	<g opacity="0.100000">
		<path id="Path_43897" d="M271.584 696.847L271.59 696.847C271.59 696.847 258.874 683.78 262.187 664.932C262.263 664.503 262.353 664.09 262.443 663.675C260.12 662.766 257.827 661.851 255.565 660.931C255.485 661.328 255.403 661.726 255.336 662.136C252.548 679.171 259.651 691.533 262.152 694.061L262.168 694.067L263.299 694.382L263.716 694.499L264.693 694.776L265.209 694.923C265.553 695.018 265.907 695.126 266.265 695.23L266.749 695.37C267.273 695.525 267.809 695.684 268.363 695.852C268.948 696.03 269.509 696.202 270.049 696.37C270.589 696.537 271.091 696.69 271.584 696.847Z" fill-rule="evenodd" fill="#E85D1C"/>
	</g>
	<g opacity="0.300000">
		<path id="Path_43898" d="M270.053 696.366C270.571 696.526 271.067 696.682 271.55 696.839L271.586 696.849L271.592 696.849C266.837 691.452 263.629 684.954 262.286 677.999C260.158 677.259 257.692 676.373 255.02 675.36C256.201 685.379 260.36 692.245 262.154 694.058L262.164 694.058L263.292 694.372L263.302 694.372L263.602 694.457C264.053 694.583 264.518 694.715 264.997 694.852L265.212 694.914L266.256 695.217L266.265 695.217L266.749 695.357C267.272 695.511 267.807 695.67 268.36 695.837C268.945 696.015 269.506 696.188 270.046 696.355L270.053 696.366Z" fill-rule="evenodd" fill="#E85D1C"/>
	</g>
	<path id="Path_43899" d="M464.172 617.808C464.172 617.808 461.137 616.756 449.791 620.987C438.446 625.219 371.989 647.417 296.741 642.22C296.741 642.22 281.227 640.176 271.733 661.203C262.24 682.23 280.693 697.118 280.693 697.118C280.693 697.118 306.518 711.296 368.852 714.076C428.808 716.751 457.728 710.291 470.428 707.167C483.605 703.928 488.122 701.344 488.892 699.712C489.625 698.145 464.172 617.808 464.172 617.808Z" fill-rule="evenodd" fill="#FFD348"/>
	<g opacity="0.100000">
		<path id="Path_43900" d="M344.545 683.247C321.381 683.187 294.427 675.653 269.873 666.521C265.306 684.692 280.688 697.119 280.688 697.119C280.688 697.119 306.514 711.297 368.847 714.077C428.803 716.752 457.723 710.292 470.423 707.168C483.6 703.929 488.117 701.345 488.887 699.713C489.073 699.316 487.57 693.833 485.225 685.88L439.106 675.492C439.106 675.492 397.87 683.387 344.545 683.247Z" fill-rule="evenodd" fill="#E85D1C"/>
	</g>
	<path id="Path_43901" d="M464.171 617.808C464.171 617.808 461.137 616.756 449.79 620.987C438.444 625.219 371.986 647.417 296.736 642.22C296.736 642.22 283.638 640.51 274.148 656.546C336.671 676.58 408.927 661.203 431.995 654.185L465.373 643.596L470.369 637.497C466.814 626.146 464.171 617.808 464.171 617.808Z" fill-rule="evenodd" fill="#FFDA60"/>
	<path id="Path_43902" d="M448.553 631.869C448.553 631.869 465.334 619.517 459.713 620.709C454.092 621.902 429.532 633.706 378.224 641.698C349.175 646.202 319.599 646.614 290.426 642.919C287.584 643.73 284.929 645.054 282.603 646.821C295.462 649.739 320.061 654.183 353.762 652.014C407.806 648.539 438.973 635.791 448.553 631.869Z" fill-rule="evenodd" fill="#FFE568"/>
	<path id="Path_43903" d="M274.148 656.546C336.671 676.58 408.927 661.203 431.995 654.185" stroke="#FFEAA8" stroke-width="3.000000"/>
	<path id="Path_43904" d="M445.635 690.066C435.625 693.484 358.672 709.911 270.015 680.544C271.904 686.915 275.599 692.654 280.688 697.119C280.688 697.119 306.513 711.297 368.847 714.077C428.803 716.752 457.723 710.292 470.423 707.169C483.6 703.929 488.117 701.345 488.887 699.713C489.124 699.209 486.641 690.523 483.169 678.987L445.635 690.066Z" fill-rule="evenodd" fill="#FECB2F"/>
	<g opacity="0.300000">
		<path id="Path_43905" d="M488.888 699.71C488.821 698.731 488.63 697.763 488.32 696.828L467.319 695.897C443.068 706.486 338.543 719.819 270.016 680.544C270.863 683.575 272.166 686.471 273.884 689.139C275.733 692.105 278.025 694.794 280.688 697.119C280.688 697.119 306.513 711.297 368.847 714.077C428.804 716.752 457.723 710.292 470.423 707.169C483.601 703.926 488.118 701.342 488.888 699.71Z" fill-rule="evenodd" fill="#E85D1C"/>
	</g>
	<path id="Path_43906" d="M445.635 690.066C435.625 693.484 358.672 709.911 270.015 680.544" stroke="#FFE568" stroke-width="3.000000"/>
	<path id="Path_43907" d="M295.686 668.674C290.506 667.6 287.992 667.052 284.296 666.458C277.87 665.428 277.033 673.521 282 676.206C285.853 678.263 290.016 679.728 294.339 680.547C296.888 681.099 299.501 681.336 302.112 681.25C304.608 681.122 306.934 679.704 307.495 677.553C308.238 674.906 306.863 672.133 304.257 671.023C301.494 669.951 298.621 669.164 295.686 668.674Z" fill-rule="evenodd" fill="#16A461"/>
	<path id="Path_43908" d="M282 676.203C285.853 678.26 290.016 679.725 294.339 680.544C296.888 681.097 299.501 681.333 302.112 681.248C304.29 681.218 306.271 680.033 307.263 678.169C297.797 675.889 288.242 672.989 278.915 669.766C278.412 672.325 279.651 674.909 282 676.203Z" fill-rule="evenodd" fill="#16935D"/>
	<path id="Path_43909" d="M299.233 679.147C298.643 679.104 298.353 679.079 297.772 679.019C297.182 678.411 296.894 678.103 296.343 677.478C293.104 673.734 291.924 671.805 289.833 671.104C288.423 670.631 286.854 670.683 285.946 672.375C285.504 673.298 285.492 674.359 285.914 675.291C285.218 675.259 284.87 675.236 284.173 675.177C283.707 673.918 283.838 672.526 284.533 671.368C285.625 669.389 288.112 668.543 290.255 669.422C292.702 670.246 294.182 672.37 296.811 675.437C297.189 675.901 297.383 676.131 297.783 676.585L297.833 676.591C298.342 674.333 298.555 673.201 298.895 670.936C299.548 670.998 299.879 671.023 300.538 671.058C300.27 673.777 299.834 676.478 299.233 679.147L299.233 679.147Z" fill-rule="evenodd" fill="#FFD348"/>
	<path id="Path_43910" d="M464.172 617.807C461.22 618.565 451.814 627.492 445.403 635.68C438.991 643.868 432.462 650.823 431.995 654.185C431.527 657.548 436.775 669.21 439.106 675.49C441.437 681.769 444.586 688.834 445.635 690.064C446.684 691.295 461.374 694.323 467.319 695.895C473.265 697.467 486.789 700.154 488.888 699.708C490.986 699.262 511.052 678.917 521.186 665.584C528.813 655.656 535.778 645.274 542.04 634.5C542.856 632.818 542.866 629.74 538.552 629.067C534.238 628.394 514.651 626.002 499.147 623.685C484.64 621.517 467.436 616.975 464.172 617.807Z" fill-rule="evenodd" fill="#F8E9D0"/>
	<path id="Path_43911" d="M540.429 629.624C539.836 629.348 539.203 629.161 538.552 629.068C534.239 628.395 514.651 626.003 499.147 623.686C484.64 621.517 467.436 616.975 464.172 617.808C461.219 618.565 451.813 627.492 445.402 635.68C440.15 642.388 434.826 648.26 432.812 652.016C436.495 650.895 450.534 648.515 479.518 643.339C484.916 642.375 491.408 641.151 496.738 640.244C511.534 637.657 526.131 634.109 540.429 629.624L540.429 629.624Z" fill-rule="evenodd" fill="#FCF1E0"/>
	<path id="Path_43912" d="M540.428 629.624C543.529 633.424 537.7 637.242 531.392 642.453C525.085 647.664 510.661 657.702 483.924 665.585C456.254 673.744 450.217 673.744 439.108 675.489C441.439 681.768 444.588 688.833 445.637 690.063C446.686 691.294 461.376 694.322 467.321 695.894C473.266 697.466 486.791 700.153 488.889 699.707C490.988 699.261 511.054 678.917 521.188 665.583C528.814 655.655 535.779 645.273 542.04 634.499C542.521 633.651 542.621 632.651 542.316 631.731C542.012 630.81 541.33 630.05 540.428 629.624Z" fill-rule="evenodd" fill="#F5DFCE"/>
	<path id="Path_43913" d="M532.86 630.099C532.86 630.099 512.159 628.928 496.715 626.373C482.627 624.043 463.456 620.222 459.717 620.712C455.706 624.153 451.975 627.883 448.557 631.872C450.004 630.964 456.769 630.821 476.109 631.879C492.363 632.767 523.659 632.515 532.86 630.099Z" fill-rule="evenodd" fill="#FFF8ED"/>
	<path id="Path_43914" d="M539.992 638.059C530.693 652.823 500.606 681.317 467.32 695.896C473.266 697.466 486.79 700.155 488.888 699.709C490.987 699.263 511.053 678.918 521.187 665.585C529.927 654.086 536.734 643.461 539.991 638.059L539.992 638.059Z" fill-rule="evenodd" fill="#EDC1AD"/>
	<path id="Path_43915" d="M538.552 629.068C534.578 628.448 517.637 626.369 502.87 624.233C502.87 624.233 492.827 632.833 498.394 648.257C503.961 663.682 521.186 665.585 521.186 665.585C528.813 655.657 535.778 645.275 542.04 634.501C542.857 632.82 542.866 629.742 538.552 629.068Z" fill-rule="evenodd" fill="#194A72"/>
	<path id="Path_43916" d="M537.972 628.981L537.602 628.928L537.394 628.898L537.024 628.845L536.729 628.804L536.364 628.753L536.03 628.707L535.625 628.653L535.277 628.605L534.797 628.541L534.483 628.498L533.893 628.42L533.608 628.383C526.513 627.436 514.07 625.853 502.873 624.234C498.569 628.497 496.342 634.313 496.742 640.243C520.192 636.247 543.06 630.811 538.555 629.068L538.121 629.003L537.972 628.981Z" fill-rule="evenodd" fill="#29688C"/>
	<path id="Path_43917" d="M542.209 634.089C542.235 634.018 542.26 633.946 542.281 633.872C542.295 633.826 542.308 633.777 542.32 633.733C542.337 633.666 542.352 633.598 542.368 633.53C542.38 633.477 542.39 633.422 542.4 633.368C542.41 633.314 542.418 633.243 542.427 633.179C542.436 633.116 542.443 633.059 542.447 632.997C542.447 632.95 542.447 632.903 542.453 632.854C542.46 632.703 542.458 632.552 542.445 632.401C542.445 632.368 542.445 632.334 542.438 632.301C542.428 632.215 542.414 632.13 542.398 632.044C542.391 632.009 542.385 631.974 542.378 631.939C542.359 631.851 542.336 631.764 542.308 631.677C542.3 631.648 542.291 631.621 542.281 631.593C542.249 631.498 542.214 631.404 542.173 631.314L542.163 631.292C542.009 630.959 541.796 630.654 541.532 630.391L541.524 630.383C541.437 630.296 541.344 630.214 541.248 630.137L541.186 630.088C541.086 630.011 540.982 629.939 540.875 629.872C540.849 629.855 540.823 629.84 540.798 629.825C540.681 629.755 540.56 629.686 540.428 629.624C543.529 633.423 537.699 637.241 531.392 642.452C527.321 645.815 517.604 651.365 505.072 658.193C511.96 664.323 521.199 665.922 521.186 665.585C528.812 655.657 535.777 645.275 542.04 634.501C542.087 634.407 542.13 634.303 542.171 634.198C542.186 634.162 542.197 634.121 542.209 634.089Z" fill-rule="evenodd" fill="#123668"/>
	<path id="Path_43918" d="M497.826 632.346C512.066 632.304 526.977 631.644 532.857 630.099C532.857 630.099 515.354 629.109 500.529 626.963C499.37 628.627 498.46 630.439 497.826 632.346Z" fill-rule="evenodd" fill="#3C8DAA"/>
	<path id="Path_43919" d="M522.986 663.192C523.437 662.588 523.882 661.986 524.322 661.388L524.382 661.307C524.841 660.684 525.291 660.065 525.733 659.451L526.068 658.986C526.474 658.423 526.875 657.864 527.27 657.31C527.304 657.261 527.34 657.211 527.375 657.162C527.799 656.564 528.216 655.974 528.625 655.39C528.729 655.241 528.833 655.093 528.936 654.946C529.299 654.426 529.657 653.911 530.009 653.403L530.15 653.2C530.543 652.632 530.926 652.074 531.297 651.525L531.564 651.132C531.896 650.642 532.223 650.159 532.543 649.683C532.587 649.617 532.632 649.55 532.677 649.486C533.034 648.952 533.383 648.43 533.722 647.917L533.944 647.581C534.243 647.13 534.535 646.686 534.821 646.25L534.946 646.061C535.269 645.565 535.583 645.082 535.886 644.612C535.939 644.533 535.985 644.454 536.038 644.377C536.313 643.949 536.58 643.532 536.841 643.125C536.871 643.077 536.902 643.03 536.932 642.982C537.219 642.531 537.495 642.094 537.761 641.672L537.849 641.533C538.103 641.129 538.347 640.737 538.581 640.362L538.616 640.306C538.865 639.903 539.103 639.518 539.33 639.15L539.356 639.106C539.581 638.74 539.793 638.39 539.992 638.065C535.737 644.82 527.122 654.45 515.849 664.305C517.581 664.899 519.369 665.33 521.188 665.591C521.676 664.95 522.156 664.311 522.63 663.676L522.986 663.192Z" fill-rule="evenodd" fill="#0E2D54"/>
	<path id="Path_43920" d="M295.203 643.339C294.72 646.759 296.331 652.534 305.24 655.663C314.148 658.792 327.084 656.275 328.481 656.275C329.877 656.275 331.424 657.169 330.494 662.085C329.564 667.002 331.116 673.743 331.116 673.743C329.586 674.716 329.053 676.635 329.875 678.212C331.114 681.3 328.636 684.269 328.636 687.55C328.636 690.831 326.623 699.902 335.296 700.8C343.969 701.698 365.497 692.873 365.187 690.287C364.877 687.702 358.621 686.158 355.167 681.269C351.712 676.38 352.868 646.305 339.593 645.844C326.318 645.383 295.203 643.339 295.203 643.339Z" fill-rule="evenodd" fill="url(#paint_linear_2_12789_0)"/>
	<path id="Path_43921" d="M303.002 564.99C303.002 564.99 295.533 562.777 289.065 569.296C283.825 574.575 279.492 582.766 283.799 585.977C288.106 589.188 303.002 564.99 303.002 564.99Z" fill-rule="evenodd" fill="#28BBE2"/>
	<g opacity="0.200000">
		<path id="Path_43922" d="M303.002 564.99C297.939 567.085 293.506 570.372 290.111 574.549C286.096 579.36 283.669 579.438 283.611 576.726C281.731 580.461 281.257 584.085 283.795 585.978C288.107 589.185 303.002 564.99 303.002 564.99Z" fill-rule="evenodd" fill="#242357"/>
	</g>
	<path id="Path_43923" d="M278.559 595.313C276.45 595.007 272.136 596.082 269.784 601.265C267.432 606.448 265.732 618.641 269.13 622.916C272.528 627.191 276.855 626.092 276.855 626.092L278.559 595.313Z" fill-rule="evenodd" fill="#28BBE2"/>
	<g opacity="0.200000">
		<path id="Path_43924" d="M272.053 610.741C271.168 616.586 268.057 616.609 267.225 614.992C267.243 618.257 267.78 621.214 269.132 622.915C272.529 627.189 276.857 626.091 276.857 626.091L278.56 595.313C278.56 595.313 273.771 599.426 272.053 610.741Z" fill-rule="evenodd" fill="#242357"/>
	</g>
	<path id="Path_43925" d="M333.334 563.655C329.254 561.443 316.31 559.586 306.251 563.345C296.192 567.104 281.288 586.294 275.665 602.174C270.043 618.053 274.801 632.47 292.813 634.482C310.825 636.494 320.123 634.103 324.497 632.093C328.872 630.083 335.843 615.581 338.931 599.397C342.018 583.213 333.334 563.655 333.334 563.655Z" fill-rule="evenodd" fill="#28BBE2"/>
	<g opacity="0.200000">
		<path id="Path_43926" d="M333.334 563.655C332.171 563.025 323.848 562.066 315.317 564.629C307.45 566.995 294.357 576.135 287.317 588.831C280.277 601.527 287.988 626.459 287.317 628.273C286.79 629.692 281.242 629.226 276.752 625.936C279.831 630.479 285.104 633.621 292.812 634.482C310.825 636.493 320.122 634.103 324.496 632.093C328.871 630.083 335.842 615.581 338.93 599.397C342.017 583.213 333.334 563.655 333.334 563.655Z" fill-rule="evenodd" fill="#242357"/>
	</g>
	<g opacity="0.200000">
		<path id="Path_43927" d="M274.703 596.656C272.394 597.931 269.915 601.159 269.014 605.544C268.112 609.929 270.206 609.265 270.823 607.286C271.44 605.307 272.283 600.762 274.62 598.219C276.524 596.145 275.629 596.146 274.703 596.656Z" fill-rule="evenodd" fill="#F5FFFE"/>
	</g>
	<g opacity="0.200000">
		<path id="Path_43928" d="M296.003 565.74C292.757 566.724 289.971 568.77 288.131 571.524C286.735 573.922 288.27 574.517 289.803 572.91C291.337 571.303 294.322 567.657 297.323 566.583C300.324 565.51 298.657 564.991 296.003 565.74Z" fill-rule="evenodd" fill="#F5FFFE"/>
	</g>
	<g opacity="0.200000">
		<path id="Path_43929" d="M316.203 562.137C316.946 562.232 314.275 562.944 310.21 564.991C305.863 567.179 299.476 572.218 296.827 574.676C294.179 577.134 292.527 574.908 299.497 568.697C304.802 563.966 312.655 561.705 316.203 562.137Z" fill-rule="evenodd" fill="#F5FFFE"/>
	</g>
	<path id="Path_43930" d="M357.852 579.865C358.874 581.73 362.817 593.677 359.279 600.222C355.74 606.768 351.918 602.494 351.918 602.494L355.362 580.578L357.852 579.865Z" fill-rule="evenodd" fill="#007CB6"/>
	<path id="Path_43931" d="M357.616 584.187C357.492 582.823 357.216 581.475 356.794 580.167L355.362 580.576L351.918 602.492C352.579 603.186 353.455 603.656 354.417 603.831C354.089 603.246 353.869 602.921 353.869 602.921C353.869 602.921 358.807 595.727 357.616 584.187Z" fill-rule="evenodd" fill="#00629E"/>
	<path id="Path_43932" d="M359.942 598.691C357.943 597.392 355.323 597.392 353.324 598.691C351.42 600.118 350.883 604.858 350.883 604.858L352.719 616.126C353.763 616.95 354.999 617.518 356.321 617.782C357.697 617.86 359.033 617.323 359.942 616.327C360.711 615.703 362.439 615.703 363.086 614.041C363.734 612.38 363.735 610.405 364.599 609.262C365.462 608.119 368.141 606.25 366.96 603.236C365.779 600.223 365.279 598.812 365.983 596.483C366.607 594.422 367.637 592.66 366.496 591.325C365.077 589.663 362.138 590.977 360.721 593.158C360.772 595.031 360.509 596.899 359.942 598.691Z" fill-rule="evenodd" fill="#F8C6A3"/>
	<path id="Path_43933" d="M361.017 605.815C360.995 605.1 358.133 604.312 356.124 602.393C354.116 600.475 356.124 597.257 358.514 598.02C356.772 597.425 354.838 597.674 353.32 598.689C351.416 600.116 350.879 604.856 350.879 604.856L352.715 616.125C353.759 616.948 354.995 617.516 356.317 617.78C357.226 617.888 358.144 617.659 358.884 617.141C358.131 617.444 357.261 617.232 356.748 616.621C355.764 615.563 357.094 613.316 357.755 611.848C358.415 610.38 354.704 609.238 356.574 606.075C357.491 604.518 361.041 606.533 361.017 605.815Z" fill-rule="evenodd" fill="#F2A37C"/>
	<path id="Path_43934" d="M364.672 590.582C363.016 590.817 361.561 591.765 360.721 593.158C360.772 595.031 360.509 596.9 359.941 598.692C359.941 598.692 361.957 599.944 363.403 600.917C362.874 600.153 362.501 599.299 362.306 598.401C361.691 596.523 361.741 594.502 362.448 592.655C362.889 591.717 363.684 590.976 364.672 590.582L364.672 590.582Z" fill-rule="evenodd" fill="#F2A37C"/>
	<g opacity="0.300000">
		<path id="Path_43935" d="M365.29 595.931C364.344 597.955 365.171 600.582 365.967 602.45C366.763 604.318 366.881 606.059 364.879 608.928C365.921 607.766 368.028 605.973 366.962 603.234C365.787 600.222 365.279 598.81 365.984 596.481C366.608 594.421 367.638 592.658 366.497 591.323C366.88 591.989 366.39 593.576 365.29 595.931Z" fill-rule="evenodd" fill="#FFFFFF"/>
	</g>
	<path id="Path_43936" d="M348.995 574.666C348.995 574.666 354.724 573.444 355.759 583.488C356.951 595.026 352.012 602.222 352.012 602.222C352.012 602.222 357.758 610.618 354.729 620.631C352.738 627.21 318.926 633.578 292.812 628.05C292.812 628.05 293.688 605.578 302.061 590.194C306.988 581.061 314.86 573.71 324.497 569.244L333.338 568.695C333.338 568.695 337.422 573.731 341.296 575.293C345.169 576.855 348.995 574.666 348.995 574.666Z" fill-rule="evenodd" fill="#EFF8FC"/>
	<path id="Path_43937" d="M321.102 629.84L333.062 620.631C333.062 620.631 318.682 623.621 310.375 622.077C302.068 620.532 300.1 612.485 303.001 608.928L300.836 604.19L296.495 604.696C294.497 612.35 293.264 620.17 292.813 628.049C302.109 629.916 311.631 630.519 321.102 629.84Z" fill-rule="evenodd" fill="#CCE4EA"/>
	<path id="Path_43938" d="M339.591 598.572C339.591 598.572 348.608 598.856 352.013 602.222C352.51 601.547 352.909 600.811 353.201 600.034C349.2 597.398 344.098 596.849 339.591 598.572Z" fill-rule="evenodd" fill="#CCE4EA"/>
	<path id="Path_43939" d="M305.145 606.71C308.84 607.606 313.696 612.23 323.487 612.847C333.278 613.464 337.734 610.562 342.293 606.71C336.766 608.803 330.645 608.943 325.02 607.106C314.377 603.576 311.342 594.831 300.438 594.593C300.265 594.593 300.099 594.602 299.93 594.605C296.204 603.3 294.404 613.21 293.552 619.969L305.145 606.71Z" fill-rule="evenodd" fill="#CCE4EA"/>
	<path id="Path_43940" d="M343.825 586.271C343.825 586.271 343.643 593.826 337.331 595.931C337.331 595.931 346.665 595.837 346.935 590.574C347.204 585.311 343.825 586.271 343.825 586.271Z" fill-rule="evenodd" fill="#A9CBD3"/>
	<path id="Path_43941" d="M339.591 578.192C339.591 578.192 339.855 585.683 344.546 586.916C349.402 588.192 345.444 578.308 344.786 578.227C344.128 578.146 339.591 578.192 339.591 578.192Z" fill-rule="evenodd" fill="#A9CBD3"/>
	<path id="Path_43942" d="M343.565 576.711C341.13 577.752 339.988 580.541 339.785 582.394C339.582 584.247 339.602 584.61 339.122 584.508C337.44 584.282 335.879 583.54 334.67 582.394C332.443 580.469 337.714 572.911 337.714 572.911L338.685 572.911C340.576 572.912 342.29 573.979 343.065 575.638L343.565 576.711Z" fill-rule="evenodd" fill="#A9CBD3"/>
	<path id="Path_43943" d="M351.462 578.789C352.772 580.215 352.672 583.22 352.772 583.847C352.871 584.473 356.085 582.295 356.321 581.116C356.557 579.938 354.66 574.828 354.66 574.828L351.462 578.789Z" fill-rule="evenodd" fill="#A9CBD3"/>
	<path id="Path_43944" d="M326.071 570.572L332.315 570.184C334.311 575.093 334.311 580.544 332.315 585.452C328.995 593.916 322.361 597.929 314.835 597.166L326.071 570.572Z" fill-rule="evenodd" fill="#CCE4EA"/>
	<path id="Path_43945" d="M324.493 569.246L330.737 568.858C332.732 573.765 332.732 579.216 330.737 584.124C327.416 592.589 320.782 596.601 313.257 595.839L324.493 569.246Z" fill-rule="evenodd" fill="#007CB6"/>
	<path id="Path_43946" d="M313.258 595.84C314.407 595.954 315.566 595.952 316.714 595.834C320.165 592.017 324.268 587.228 326.232 583.993C328.823 579.712 329.229 574.524 327.332 569.919C327.11 569.602 326.824 569.331 326.491 569.122L324.494 569.246L313.258 595.84Z" fill-rule="evenodd" fill="#00629E"/>
	<path id="Path_43947" d="M312.08 593.133C312.08 593.133 281.357 629.837 279.065 632.372C276.773 634.906 276.316 637.441 271.045 637.331C265.773 637.221 261.879 638.212 257.524 639.204C253.17 640.196 250.078 639.866 250.42 637.44C250.762 635.013 255.805 631.93 255.805 631.93L245.036 628.183C246.277 626.657 248.177 625.763 250.191 625.758C253.742 625.647 259.586 627.191 261.305 627.191C263.024 627.191 264.628 626.089 267.837 621.901C271.046 617.713 295.564 585.976 295.564 585.976L312.08 593.133Z" fill-rule="evenodd" fill="#F8C6A3"/>
	<path id="Path_43948" d="M292.056 590.518C290.064 593.097 287.413 596.531 284.578 600.2C286.854 602.792 289.192 604.97 290.186 605.209C291.478 605.519 294.891 604.65 296.495 604.696C296.495 604.696 277.057 629.549 274.58 632.287C272.104 635.026 267.426 634.058 263.144 635.241C258.863 636.424 253.567 640.214 250.564 638.553C251.242 639.939 253.96 640.017 257.526 639.205C261.879 638.212 265.775 637.217 271.046 637.332C276.316 637.446 276.776 634.907 279.066 632.373C280.801 630.455 298.815 608.971 307.476 598.631L292.056 590.518Z" fill-rule="evenodd" fill="#F2A37C"/>
	<path id="Path_43949" d="M258.802 630.381C258.802 630.381 248.217 627.928 247.305 627.596C246.508 627.306 247.272 626.379 247.874 626.191C246.748 626.578 245.762 627.27 245.035 628.185L255.805 631.932C256.776 631.365 257.776 630.848 258.802 630.381L258.802 630.381Z" fill-rule="evenodd" fill="#F2A37C"/>
	<g opacity="0.300000">
		<path id="Path_43950" d="M267.837 621.902C264.628 626.09 263.024 627.193 261.305 627.193C259.586 627.193 253.743 625.649 250.191 625.76C249.925 625.769 249.661 625.792 249.398 625.828C253.085 625.877 257.193 627.38 259.232 627.889C261.271 628.399 263.168 628.836 265.563 626.191C267.958 623.545 284.047 600.89 284.052 600.882C277.207 609.745 269.535 619.682 267.837 621.902Z" fill-rule="evenodd" fill="#FFFFFF"/>
	</g>
	<path id="Path_43951" d="M324.489 569.245C322.567 566.312 313.193 566.487 305.678 572.652C297.131 579.663 289.061 587.681 289.061 587.681C289.061 587.681 290.176 591.599 296.447 596.907C299.641 599.737 303.835 601.291 308.177 601.254C308.177 601.254 319.653 589.473 323.389 583.323C325.98 579.041 326.386 573.852 324.489 569.245Z" fill-rule="evenodd" fill="#DEF1F8"/>
	<path id="Path_43952" d="M296.452 596.905C299.645 599.735 303.839 601.289 308.181 601.252C308.181 601.252 319.656 589.471 323.393 583.32C324.675 581.226 325.437 578.874 325.618 576.449L325.608 576.398C322.547 583.181 307.896 598.849 289.065 587.679C289.065 587.679 290.18 591.598 296.452 596.905Z" fill-rule="evenodd" fill="#CCE4EA"/>
	<path id="Path_43953" d="M321.115 568.743C316.428 568.512 311.797 569.801 307.962 572.403C304.385 574.843 301.725 577.68 307.962 578.067C314.2 578.454 320.424 574.042 321.995 572.403C323.487 570.851 324.436 569.009 321.115 568.743Z" fill-rule="evenodd" fill="#E9F6FB"/>
	<path id="Path_43954" d="M318.299 569.547C314.549 569.947 311.871 571.123 310.381 572.599C308.891 574.076 317.554 573.02 320.252 571.908C323.57 570.54 322.461 569.104 318.299 569.547Z" fill-rule="evenodd" fill="#EFF8FC"/>
	<path id="Path_43955" d="M352.322 569.303C352.322 569.303 355.593 569.077 357.12 571.09C358.425 572.811 359.128 575.976 357.851 579.865C356.454 584.124 354.519 584.187 354.112 584.109C353.705 584.031 354.157 579.755 352.595 578.23C351.032 576.704 348.992 574.666 348.992 574.666C348.992 574.666 350.53 570.238 352.322 569.303Z" fill-rule="evenodd" fill="#DEF1F8"/>
	<path id="Path_43956" d="M357.755 572.189C357.583 571.802 357.369 571.434 357.118 571.089C355.591 569.076 352.32 569.302 352.32 569.302C350.528 570.237 348.992 574.665 348.992 574.665C348.992 574.665 351.033 576.706 352.595 578.229C353.438 579.052 353.694 580.676 353.815 582.009C354.153 579.282 353.52 577.437 352.769 574.886C352.411 573.632 353.04 572.311 354.263 571.754C355.43 571.334 356.737 571.497 357.755 572.189L357.755 572.189Z" fill-rule="evenodd" fill="#CCE4EA"/>
	<path id="Path_43957" d="M356.548 573.339C355.154 572.546 354.568 574.729 355.058 577.124C355.326 578.95 355.3 580.804 354.979 582.621C354.936 583.284 356.193 582.373 357.091 579.877C357.988 577.38 358.243 574.302 356.548 573.339Z" fill-rule="evenodd" fill="#E9F6FB"/>
	<path id="Path_43958" d="M339.578 562.317C337.687 564.608 335.598 566.742 333.334 568.697C333.334 568.697 337.123 576.734 344.787 578.23C344.787 578.23 350.155 574.875 352.363 569.69C352.363 569.69 351.439 566.667 346.442 563.997C341.444 561.327 339.578 562.317 339.578 562.317Z" fill-rule="evenodd" fill="#F8C6A3"/>
	<path id="Path_43959" d="M346.438 563.996C341.441 561.326 339.578 562.316 339.578 562.316C339.578 562.316 339.283 562.705 338.608 563.466L338.183 563.939C338.183 563.939 339.354 567.63 344.359 570.343C346.333 571.438 348.498 572.176 350.749 572.52C351.385 571.633 351.925 570.686 352.361 569.693C352.361 569.693 351.435 566.666 346.438 563.996Z" fill-rule="evenodd" fill="#F2A37C"/>
	<path id="Path_43960" d="M346.438 563.996C341.441 561.326 339.578 562.316 339.578 562.316C339.578 562.316 339.395 562.553 339.032 562.979C343.03 567.208 348.247 568.657 352.359 569.689C352.359 569.689 351.436 566.666 346.438 563.996Z" fill-rule="evenodd" fill="#DD8964"/>
	<path id="Path_43961" d="M344.545 586.919C344.418 588.936 343.757 594.436 337.236 594.948C330.715 595.46 326.198 594.749 316.224 586.919C306.25 579.088 301.064 575.23 291.887 576.711C288.827 577.425 278.454 586.505 278.322 588.809C278.19 591.112 290.025 601.47 291.221 602.367C292.418 603.263 299.354 601.531 306.56 604.44C312.813 606.964 318.762 612.855 332.519 610.809C346.276 608.763 352.501 595.004 350.52 586.92C350.521 586.919 348.794 584.895 344.545 586.919Z" fill-rule="evenodd" fill="#EA4D5F"/>
	<path id="Path_43962" d="M310.375 582.442C308.494 581.031 306.499 579.765 304.41 578.656C298.229 585.231 290.702 590.506 282.302 594.151C284.842 596.76 287.985 599.599 289.811 601.183C299.454 595.89 307.537 586.694 310.375 582.442Z" fill-rule="evenodd" fill="#EFF8FC"/>
	<path id="Path_43963" d="M319.554 610.255C322.291 610.986 325.13 611.309 327.969 611.211C329.532 605.733 329.906 600.003 329.067 594.38C327.583 593.949 326.151 593.37 324.792 592.653C324.483 598.831 322.69 604.856 319.554 610.255Z" fill-rule="evenodd" fill="#EFF8FC"/>
	<path id="Path_43964" d="M338.674 608.927C340.538 608.028 342.251 606.866 343.757 605.479C342.856 601.594 341.125 597.931 338.676 594.723C338.203 594.832 337.723 594.907 337.238 594.947C336.173 595.03 335.163 595.076 334.172 595.068C337.213 599.088 338.794 603.958 338.674 608.927Z" fill-rule="evenodd" fill="#EFF8FC"/>
	<path id="Path_43965" d="M311.153 606.697C316.14 600.807 318.656 593.756 319.8 589.583C318.686 588.801 317.501 587.92 316.225 586.918C315.79 586.575 315.374 586.255 314.957 585.924C311.658 593.894 305.79 599.931 302.103 603.159C303.631 603.436 305.125 603.865 306.561 604.438C308.132 605.113 309.664 605.867 311.153 606.697L311.153 606.697Z" fill-rule="evenodd" fill="#EFF8FC"/>
	<path id="Path_43966" d="M344.068 589.687C343.703 590.969 342.99 592.135 342.002 593.066C344.709 594.343 347.055 596.232 348.838 598.572C349.513 597.152 350.033 595.669 350.387 594.146C348.608 592.273 346.46 590.758 344.068 589.687Z" fill-rule="evenodd" fill="#EFF8FC"/>
	<g opacity="0.200000">
		<path id="Path_43967" d="M344.545 586.918C344.505 588.998 343.764 591.01 342.433 592.65L342.433 592.65C343.818 591.43 344.804 589.849 345.271 588.099C345.271 588.099 349.387 589.359 350.521 586.915L347.5 586.045C346.467 586.157 345.465 586.453 344.545 586.918Z" fill-rule="evenodd" fill="#242357"/>
	</g>
	<path id="Path_43968" d="M344.534 575.096C345.818 574.58 349.381 573.96 351.091 575.677C352.801 577.394 353.195 579.447 352.322 582.463C351.92 584.016 351.315 585.513 350.521 586.919C348.675 587.956 346.391 587.956 344.545 586.919C342.003 584.742 340.549 581.625 340.548 578.353C341.538 576.934 342.918 575.806 344.534 575.096Z" fill-rule="evenodd" fill="#EA4D5F"/>
	<path id="Path_43969" d="M350.908 586.205C348.415 582.968 344.78 580.717 340.684 579.874C340.829 580.851 341.096 581.808 341.479 582.724C344.249 583.806 346.737 585.46 348.769 587.569C349.39 587.459 349.984 587.238 350.52 586.918C350.52 586.918 350.674 586.674 350.908 586.205Z" fill-rule="evenodd" fill="#EFF8FC"/>
	<path id="Path_43970" d="M345.529 574.798C345.19 574.872 344.857 574.971 344.535 575.095C343.698 575.481 342.916 575.968 342.208 576.544C346.143 577.422 349.689 579.476 352.336 582.412C352.685 581.318 352.822 580.171 352.74 579.029C350.729 577.077 348.254 575.624 345.529 574.798Z" fill-rule="evenodd" fill="#EFF8FC"/>
	<g opacity="0.200000">
		<path id="Path_43971" d="M343.565 582.394C342.905 578.731 344.266 575.376 346.147 574.679C345.595 574.762 345.054 574.902 344.534 575.096C342.918 575.806 341.538 576.934 340.548 578.353C340.549 581.624 342.003 584.74 344.543 586.917C345.447 587.384 346.451 587.643 347.476 587.676C345.744 587.042 344.165 585.728 343.565 582.394Z" fill-rule="evenodd" fill="#242357"/>
	</g>
	<g opacity="0.200000">
		<path id="Path_43972" d="M331.556 608.349C319.551 608.096 315.824 603.995 306.513 600.006C302.003 598.076 294.63 598.529 292.812 597.727C290.549 596.729 281.261 589.08 280.97 588.269C280.464 586.849 286.77 579.865 286.77 579.865C282.844 582.931 278.411 587.307 278.325 588.807C278.192 591.109 290.028 601.469 291.225 602.366C292.421 603.262 299.357 601.53 306.563 604.439C312.816 606.963 318.765 612.854 332.522 610.807C338.259 609.952 343.373 606.853 346.652 602.245C343.747 605.487 339.984 608.527 331.556 608.349Z" fill-rule="evenodd" fill="#242357"/>
	</g>
	<g opacity="0.150000">
		<path id="Path_43973" d="M300.822 578.473C298.226 577.713 295.494 577.478 292.799 577.781C291.236 578.054 288.43 580.563 286.741 582.564C283.815 586.026 291.078 582.365 301.276 586.454C311.474 590.542 324.602 597.161 327.218 596.348C329.835 595.536 322.195 592.852 316.198 588.209C311.211 584.335 305.09 579.722 300.822 578.473Z" fill-rule="evenodd" fill="#FFFFFF"/>
	</g>
	<g opacity="0.150000">
		<path id="Path_43974" d="M350.521 576.061C348.775 574.958 348.043 577.926 348.219 581.115C348.395 584.305 348.779 586.807 349.731 586.415C350.684 586.023 352.235 582.076 352.12 579.875C352.006 577.675 351.394 576.613 350.521 576.061Z" fill-rule="evenodd" fill="#FFFFFF"/>
	</g>
	<path id="Path_43975" d="M337.913 564.234C336.904 563.455 335.587 563.148 334.319 563.395C331.901 563.695 324.961 568.344 324.494 569.245C324.026 570.146 324.157 574.028 329.02 579.446C331.727 582.465 336.351 584.322 337.599 584.696C338.846 585.071 338.118 577.977 344.54 575.096C344.54 575.096 344.883 573.756 341.784 572.479C339.521 571.55 336.315 568.694 336.16 566.056L337.913 564.234Z" fill-rule="evenodd" fill="#DEF1F8"/>
	<path id="Path_43976" d="M336.151 566.056L337.913 564.234C336.904 563.455 335.587 563.148 334.319 563.395C331.901 563.695 324.961 568.344 324.494 569.245C324.026 570.146 324.157 574.028 329.02 579.446C326.313 575.724 326.667 570.279 328.806 568.697C330.944 567.114 334.071 564.691 335.145 567.327C336.218 569.963 340.556 571.838 340.556 571.839C338.504 570.573 336.28 568.248 336.151 566.056Z" fill-rule="evenodd" fill="#CCE4EA"/>
	<path id="Path_43977" d="M340.912 573.769C342.026 573.169 344.664 573.905 342.724 575.141C339.836 576.982 338.007 581.66 337.667 582.607C337.326 583.553 335.03 582.718 333.184 581.603C331.338 580.487 329.896 579.292 329.503 578.09C329.334 577.57 333.414 580.159 335.795 578.23C338.176 576.3 338.672 574.977 340.912 573.769Z" fill-rule="evenodd" fill="#E9F6FB"/>
	<path id="Path_43978" d="M324.812 551.106C323.779 555.43 325.48 558.06 326.635 559.17C327.789 560.28 330.16 560.982 330.949 558.585C331.847 560.517 333.622 561.943 335.758 562.449C339.344 563.267 340.549 560.807 340.549 560.807L334.776 552.276L324.812 551.106Z" fill-rule="evenodd" fill="#D65132"/>
	<path id="Path_43979" d="M324.812 551.106C324.534 552.22 324.44 553.37 324.534 554.513C326.705 556.436 329.889 556.859 332.521 555.576C332.521 555.576 334.175 560.805 339.086 562.172C339.703 561.865 340.212 561.389 340.549 560.805L334.776 552.274L324.812 551.106Z" fill-rule="evenodd" fill="#BA422B"/>
	<path id="Path_43980" d="M364.12 517.954C371.922 517.954 381.484 523.239 383.682 531.488C385.881 539.737 385.22 546.603 386.319 551.362C387.008 554.335 387.519 557.972 386.095 561.14C385.833 561.724 385.533 562.291 385.196 562.838C382.864 566.624 378.455 569.329 372.255 570.732C365.121 572.183 357.704 571.638 350.882 569.162C342.419 565.78 336.755 562.038 333.128 552.948C329.072 542.334 333.062 530.429 342.799 524.092C353.68 517.002 364.12 517.954 364.12 517.954Z" fill-rule="evenodd" fill="#F8C6A3"/>
	<path id="Path_43981" d="M334.91 543.804C335.075 545.247 336.445 546.613 339.098 545.672C341.751 544.73 346.7 540.343 347.659 528.725L334.91 543.804Z" fill-rule="evenodd" fill="#F2A37C"/>
	<path id="Path_43982" d="M364.12 517.954C360.785 517.807 357.447 518.18 354.236 519.057C351.061 520.95 348.219 522.559 348.219 522.559C351.906 530.185 359.903 534.876 364.969 535.927C370.034 536.977 376.102 536.968 378.351 533.985C380.462 531.184 377.229 528.299 377.229 528.299C379.042 529.476 381.136 530.189 383.315 530.37C380.589 522.77 371.565 517.954 364.12 517.954Z" fill-rule="evenodd" fill="#F2A37C"/>
	<g opacity="0.500000">
		<ellipse id="Ellipse_541" cx="348.884949" cy="552.327515" rx="8.630664" ry="8.300875" fill="#EE9681"/>
	</g>
	<g opacity="0.500000">
		<path id="Path_43983" d="M378.372 552.553C378.372 556.841 381.77 560.423 386.211 560.816C387.468 557.723 386.984 554.231 386.319 551.352C385.882 549.049 385.619 546.718 385.532 544.379C381.395 545.065 378.373 548.516 378.372 552.553L378.372 552.553Z" fill-rule="evenodd" fill="#EE9681"/>
	</g>
	<path id="Path_43984" d="M386.001 549.619C384.673 550.604 383.045 551.14 381.368 551.146C376.958 551.146 373.366 547.455 373.271 542.884C373.178 542.851 373.088 542.812 373.002 542.766C372.776 542.639 372.555 542.503 372.336 542.368C372.336 542.479 372.319 542.587 372.319 542.699C372.319 542.754 372.327 542.808 372.328 542.862C372.014 542.739 371.676 542.683 371.338 542.699C370.474 542.679 369.621 542.88 368.864 543.282C368.875 543.093 368.896 542.897 368.896 542.699L368.896 542.67C368.76 542.791 368.633 542.921 368.517 543.061C368.365 543.262 368.154 543.417 367.912 543.505C367.457 548.725 362.806 552.673 357.364 552.456C351.922 552.24 347.625 547.937 347.62 542.699C347.62 542.428 347.638 542.161 347.662 541.895C347.535 541.838 347.415 541.768 347.305 541.685L346.783 541.296C346.764 541.443 346.75 541.592 346.734 541.74L332.241 539.658L332.999 543.677L346.765 543.994C347.42 549.165 351.858 553.128 357.268 553.371C362.679 553.614 367.482 550.067 368.635 544.977C369.485 544.561 370.425 544.345 371.379 544.346C371.76 544.338 372.14 544.399 372.497 544.527C373.185 548.763 376.914 551.925 381.369 552.051C383.081 552.048 384.753 551.548 386.167 550.619L386.001 549.619Z" fill-rule="evenodd" fill="#F2A37C"/>
	<path id="Path_43985" d="M386 549.619C384.673 550.603 383.044 551.14 381.368 551.146C380.424 551.143 379.489 550.969 378.613 550.632C378.538 550.932 378.481 551.236 378.442 551.542C379.379 551.877 380.369 552.05 381.369 552.051C383.081 552.048 384.753 551.548 386.167 550.618L386.055 549.949C386.045 549.875 386.03 549.805 386.019 549.73L386 549.619Z" fill-rule="evenodd" fill="#EB7C74"/>
	<g opacity="0.300000">
		<path id="Path_43986" d="M385.787 553.18C386.388 557.494 386.151 561.343 381.645 565.273C376.376 569.867 366.733 571.682 360.402 571.318C364.36 571.736 368.364 571.536 372.256 570.726C378.455 569.322 382.863 566.614 385.197 562.832C385.534 562.285 385.834 561.717 386.096 561.133C387.52 557.964 387.007 554.328 386.32 551.356C385.936 549.427 385.698 547.474 385.609 545.512L385.456 545.407C385.697 546.722 385.184 548.867 385.787 553.18Z" fill-rule="evenodd" fill="#FFFFFF"/>
	</g>
	<path id="Path_43987" d="M357.44 553.367C357.48 553.067 357.503 552.765 357.508 552.463C352.573 552.328 348.452 548.805 347.735 544.107C347.425 544.147 347.118 544.204 346.815 544.276C347.611 549.375 352.081 553.2 357.44 553.367Z" fill-rule="evenodd" fill="#EB7C74"/>
	<g opacity="0.300000">
		<path id="Path_43988" d="M347.846 545.258C347.846 546.204 346.595 546.962 345.053 546.962C343.511 546.962 342.261 546.198 342.261 545.258C342.261 544.318 343.511 543.554 345.053 543.554C346.595 543.554 347.846 544.316 347.846 545.258Z" fill-rule="evenodd" fill="#FFFFFF"/>
	</g>
	<g opacity="0.700000">
		<path id="Path_43989" d="M357.121 550.35C361.507 550.35 365.914 547.237 366.582 541.233C367.25 535.229 362.687 529.448 355.034 531.635C347.382 533.821 347.212 542.577 349.524 545.982C351.137 548.569 353.988 550.208 357.121 550.35Z" fill-rule="evenodd" fill="url(#paint_linear_2_12874_0)"/>
	</g>
	<g opacity="0.700000">
		<path id="Path_43990" d="M383.7 531.574C381.923 531.025 380.01 531.032 378.238 531.596C371.212 533.598 371.059 541.638 373.182 544.762C374.662 547.138 377.28 548.642 380.156 548.771C382.201 548.766 384.173 548.037 385.693 546.722C385.366 542.535 385.245 537.398 383.7 531.574Z" fill-rule="evenodd" fill="url(#paint_linear_2_12875_0)"/>
	</g>
	<path id="Path_43991" d="M332.239 538.828C333.665 540.166 334.602 541.912 334.91 543.804C335.199 545.758 338.445 546.535 342.827 540.591C348.885 532.378 348.219 522.56 348.219 522.56C352.187 526.592 356.85 529.934 362.001 532.438C370.026 536.157 374.763 535.163 377.083 534.219C379.404 533.276 381.047 530.578 378.919 527.231C378.919 527.231 382.883 530.206 390.52 529.927C398.157 529.648 401.25 526.115 399.123 523.419C396.995 520.723 392.912 518.612 387.002 516.897C387.002 516.897 393.806 516.354 393.421 512.728C393.035 509.103 383.411 500.25 365.039 502.696C344.396 505.441 341.282 515.591 341.282 515.591C341.282 515.591 338.443 513.999 332.24 514.046C327.86 514.079 324.977 515.767 324.686 516.719C324.396 517.671 325.03 518.221 327.028 518.957C328.573 519.493 330.084 520.116 331.555 520.82C327.95 521.921 324.623 523.73 321.785 526.134C316.855 530.224 316.917 533.974 317.434 534.501C318.406 535.491 320.944 533.16 324.618 532.694C324.618 532.694 322.074 538.205 322.748 542.946C323.422 547.686 332.239 538.828 332.239 538.828Z" fill-rule="evenodd" fill="#E26644"/>
	<path id="Path_43992" d="M353.4 515.849C351.038 516.24 349.357 518.127 352.598 519.24C355.838 520.354 366.093 524.496 370.932 528.267C376.062 532.268 380.107 533.047 378.844 529.198C377.049 524.657 373.644 520.873 369.229 518.514C364.421 515.922 358.838 514.982 353.4 515.849L353.4 515.849Z" fill-rule="evenodd" fill="#EE7249"/>
	<path id="Path_43993" d="M373.981 534.993C368.622 534.666 358.547 530.285 348.721 518.822C348.584 518.664 348.355 518.611 348.159 518.692C347.963 518.774 347.846 518.97 347.872 519.174C347.994 520.078 348.132 521.272 348.219 522.561C352.187 526.593 356.85 529.935 362.001 532.44C367.392 534.938 371.293 535.302 373.981 534.993Z" fill-rule="evenodd" fill="#D65132"/>
	<path id="Path_43994" d="M353.755 505.418C343.173 509.439 341.282 515.59 341.282 515.59C341.282 515.59 338.443 513.999 332.239 514.045C327.86 514.077 324.977 515.766 324.686 516.719C324.396 517.671 325.03 518.22 327.028 518.956C328.573 519.493 330.084 520.115 331.555 520.819C327.95 521.92 324.623 523.729 321.784 526.133C316.855 530.224 316.917 533.973 317.434 534.5C318.405 535.49 320.944 533.159 324.617 532.694C324.617 532.694 322.074 538.205 322.748 542.945C323.422 547.686 332.235 538.828 332.235 538.828C333.054 539.621 333.723 540.545 334.212 541.559C334.737 540.631 335.126 539.718 334.766 539.193C332.915 536.474 332.23 532.452 333.979 527.344C334.955 523.974 337.429 521.191 340.739 519.74C342.058 519.129 343.507 518.826 344.97 518.854C345.131 518.857 345.283 518.78 345.37 518.65C345.429 518.505 345.421 518.344 345.347 518.205C344.793 516.568 344.78 514.806 345.312 513.162C346.255 510.442 348.256 508.108 353.755 505.418Z" fill-rule="evenodd" fill="#D65132"/>
	<path id="Path_43995" d="M334.363 541.881C334.626 542.498 334.81 543.144 334.91 543.804C335.07 544.88 336.169 545.618 337.83 545.063C337.314 545.215 336.753 545.082 336.368 544.718C336.202 544.422 336.136 544.084 336.179 543.75L339.919 543.836L339.925 543.836C340.471 543.386 340.978 542.893 341.439 542.361L338.103 542.136L334.363 541.881Z" fill-rule="evenodd" fill="#D65132"/>
	<path id="Path_43996" d="M390.52 529.927C395.52 529.746 398.557 528.166 399.474 526.341C395.288 529.654 385.51 527.214 381.369 525.341C379.225 524.32 377.143 523.182 375.134 521.934C376.742 523.447 378.028 525.248 378.92 527.234C378.92 527.234 382.883 530.206 390.52 529.927Z" fill-rule="evenodd" fill="#D65132"/>
	<path id="Path_43997" d="M393.42 512.727C393.239 511.782 392.783 510.905 392.104 510.2C394.341 513.323 390.407 514.191 387.665 514.72C384.924 515.248 377.581 515.643 377.581 515.643C377.581 515.643 384.783 516.502 387.002 516.896C387.002 516.896 393.806 516.354 393.42 512.727Z" fill-rule="evenodd" fill="#D65132"/>
	<path id="Path_43998" d="M328.926 517.33C326.197 516.658 326.209 515.381 327.518 514.813C325.865 515.391 324.852 516.174 324.685 516.718C324.395 517.671 325.029 518.22 327.027 518.956C328.572 519.492 330.083 520.115 331.553 520.819C332.908 520.436 334.296 520.169 335.699 520.021C333.528 518.934 331.262 518.033 328.926 517.33Z" fill-rule="evenodd" fill="#BA422B"/>
	<path id="Path_43999" d="M320.795 531.567C318.531 532.632 317.222 533.226 317.405 532.177C317.094 532.924 317.105 533.76 317.435 534.499C318.407 535.489 320.945 533.158 324.618 532.693C325.14 531.369 325.872 530.131 326.788 529.023C324.742 529.762 322.741 530.611 320.794 531.567L320.795 531.567Z" fill-rule="evenodd" fill="#BA422B"/>
	<path id="Path_44000" d="M379.205 504.301C371.817 502.279 356.425 503.42 349.941 509.189C347.823 511.072 353.439 509.871 360.54 509.971C367.218 510.178 373.866 510.934 380.409 512.231C387.528 513.746 392.244 513.329 391.748 511.578C391.252 509.828 386.378 506.26 379.205 504.301Z" fill-rule="evenodd" fill="#EE7249"/>
	<path id="Path_44001" d="M398.972 525.616C399.57 524.165 396.44 521.021 391.783 519.285C387.127 517.549 380.409 516.351 378.91 516.897C377.245 517.507 382.347 524.224 389.887 526.384C396.426 528.256 398.463 526.842 398.972 525.616Z" fill-rule="evenodd" fill="#EE7249"/>
	<path id="Path_44002" d="M346.406 522.398C345.422 521.115 341.736 522.544 339.512 526.205C336.672 530.882 337.741 538.156 339.731 538.827C341.721 539.498 344.561 534.976 345.594 531.161C346.626 527.347 347.269 523.524 346.406 522.398Z" fill-rule="evenodd" fill="#EE7249"/>
	<path id="Path_44003" d="M328.274 515.243C327.269 515.543 328.007 516.683 329.736 516.715C331.483 516.747 338.133 516.387 338.045 515.787C337.958 515.187 332.652 513.934 328.274 515.243Z" fill-rule="evenodd" fill="#E26644"/>
	<path id="Path_44004" d="M318.53 531.566C318.783 531.862 320.162 531.399 321.45 530.183C322.738 528.967 326.473 524.842 326.79 524.315C327.107 523.788 324.152 524.768 321.45 527.233C318.748 529.698 318.258 531.251 318.53 531.566Z" fill-rule="evenodd" fill="#E26644"/>
	<path id="Path_44005" d="M385.439 518.197C388.224 518.859 394.712 520.056 398.45 524.479C396.769 523.084 394.87 521.954 392.822 521.131C390.418 520.025 387.953 519.046 385.439 518.197L385.439 518.197Z" fill-rule="evenodd" fill="#F49A6E"/>
	<path id="Path_44006" d="M358.833 505.418C362.096 504.162 374.6 503.506 380.603 505.418C387.698 507.677 390.05 510.595 390.05 510.595C386.104 508.765 381.906 507.491 377.583 506.81C379.769 506.895 381.943 507.169 384.078 507.63C384.078 507.63 380.043 505.169 371.988 504.791C367.593 504.52 363.179 504.73 358.833 505.418L358.833 505.418Z" fill-rule="evenodd" fill="#F49A6E"/>
	<path id="Path_44007" d="M368.273 518.653C372.147 520.08 376.962 525.084 378.171 528.53C376.897 526.551 375.396 524.716 373.695 523.06C372.005 521.462 370.193 519.989 368.273 518.653L368.273 518.653Z" fill-rule="evenodd" fill="#F49A6E"/>
	<path id="Path_44008" d="M346.059 523.965C346.11 525.771 345.335 533.173 341.282 537.842C340.845 536.088 340.845 534.259 341.282 532.505C341.347 533.621 341.502 534.731 341.745 535.824C341.745 535.824 344.588 532.409 346.059 523.965Z" fill-rule="evenodd" fill="#F49A6E"/>
	<g opacity="0.500000">
		<path id="Path_44009" d="M360.486 530.608C360.358 529.455 357.817 528.346 354.195 530.302C350.572 532.258 349.3 535.318 349.555 536.231C349.81 537.145 353.097 535.815 355.402 534.948C359.279 533.487 360.866 534.031 360.486 530.608Z" fill-rule="evenodd" fill="#F2A37C"/>
	</g>
	<g opacity="0.500000">
		<path id="Path_44010" d="M384.78 536.84C384.619 535.771 384.42 534.674 384.174 533.546C383.357 532.435 382.282 531.522 381.034 530.878C377.411 528.921 376.053 530.615 376.038 531.776C376.002 534.398 378.399 534.768 380.662 535.516C382.543 536.136 384.102 536.995 384.78 536.84Z" fill-rule="evenodd" fill="#F2A37C"/>
	</g>
	<path id="Path_44011" d="M360.922 529.233C360.758 527.819 357.816 527.087 354.193 529.043C350.57 531 349.298 534.059 349.553 534.974C349.808 535.888 353.096 534.556 355.4 533.689C359.279 532.229 361.264 532.174 360.922 529.233Z" fill-rule="evenodd" fill="#D65132"/>
	<path id="Path_44012" d="M356.776 531.567C353.43 532.613 351.56 533.046 351.716 531.873C351.872 530.701 353.673 529.307 354.193 529.043C350.57 531.001 349.298 534.059 349.553 534.974C349.808 535.888 353.096 534.556 355.4 533.689C359.279 532.229 361.264 532.175 360.922 529.233C360.75 529.979 360.123 530.52 356.776 531.567Z" fill-rule="evenodd" fill="#BA422B"/>
	<path id="Path_44013" d="M376.042 530.516C376.057 529.356 377.42 527.662 381.039 529.619C384.658 531.575 385.382 534.365 385.128 535.282C384.873 536.199 383.005 535.027 380.666 534.256C378.395 533.509 376.002 533.139 376.042 530.516Z" fill-rule="evenodd" fill="#D65132"/>
	<path id="Path_44014" d="M383.735 534.24C382.724 533.652 379.942 532.631 378.242 531.597C376.561 530.573 377.053 529.005 378.396 528.74C377.831 528.631 377.245 528.765 376.791 529.107C376.337 529.448 376.061 529.963 376.035 530.517C375.999 533.139 378.396 533.51 380.659 534.257C382.998 535.028 384.866 536.199 385.121 535.283C385.213 534.647 385.107 533.999 384.816 533.421C385.11 534.013 384.745 534.827 383.735 534.24Z" fill-rule="evenodd" fill="#BA422B"/>
	<path id="Path_44015" d="M372.316 541.867C372.316 547.025 376.378 551.221 381.368 551.221C386.358 551.221 390.421 547.025 390.421 541.867C390.421 536.709 386.362 532.513 381.368 532.513C376.375 532.513 372.316 536.709 372.316 541.867ZM373.261 541.867C373.261 537.205 376.899 533.419 381.368 533.419C385.839 533.419 389.476 537.205 389.476 541.867C389.476 546.529 385.835 550.314 381.368 550.314C376.902 550.314 373.261 546.529 373.261 541.867Z" clip-rule="evenodd" fill-rule="evenodd" fill="#19313A" fill-opacity="1.000000"/>
	<ellipse id="Ellipse_542" cx="357.121002" cy="543.613464" rx="7.005700" ry="6.737988" fill="#FFFFFF"/>
	<g opacity="0.200000">
		<path id="Path_44016" d="M354.27 547.693C351.778 545.143 351.416 541.287 353.393 538.349L353.145 538.065C350.709 539.684 349.595 542.601 350.362 545.352C351.13 548.102 353.613 550.091 356.564 550.319C359.515 550.547 362.297 548.965 363.511 546.368C361.528 548.898 356.4 549.552 354.27 547.693Z" fill-rule="evenodd" fill="#BAC4CA"/>
	</g>
	<path id="Path_44017" d="M350.211 544.718C350.211 544.718 350.438 539.945 354.428 538.372C358.921 536.601 362.792 538.921 363.588 541.04C363.667 540.439 363.509 539.831 363.144 539.336C361.991 537.633 359.152 535.533 354.659 536.976C351.21 537.936 349.221 541.4 350.211 544.718Z" fill-rule="evenodd" fill="#19313A"/>
	<path id="Path_44018" d="M364.125 543.613C364.126 542.956 364.027 542.302 363.83 541.673C363.514 540.643 362.683 539.833 361.616 539.516C360.27 539.094 358.793 539.381 357.723 540.273C355.643 542.191 355.164 545.215 356.558 547.641C357.059 548.336 357.765 548.871 358.584 549.178C359.789 549.582 361.128 549.285 362.028 548.414C363.371 547.151 364.128 545.42 364.125 543.613Z" fill-rule="evenodd" fill="#19313A"/>
	<path id="Path_44019" d="M357.754 548.756C358.012 548.927 358.29 549.069 358.582 549.179C359.787 549.583 361.127 549.286 362.026 548.415C362.645 547.828 363.146 547.136 363.502 546.374C362.045 547.945 359.941 548.817 357.754 548.756Z" fill-rule="evenodd" fill="#002030"/>
	<path id="Path_44020" d="M362.772 540.591C362.323 540.148 361.647 539.996 361.04 540.201C360.433 540.406 360.005 540.931 359.942 541.547C359.678 543.318 360.931 545.259 362.456 545.259C363.464 545.259 363.932 544.337 363.794 542.956C363.765 542.074 363.402 541.233 362.772 540.591Z" fill-rule="evenodd" fill="#FFFFFF"/>
	<path id="Path_44021" d="M373.13 542.973C373.094 542.691 372.95 542.433 372.726 542.249C372.327 541.964 371.833 541.83 371.338 541.87C370.421 541.843 369.515 542.069 368.727 542.521C368.393 542.712 368.167 543.039 368.112 543.409L367.94 544.556C368.944 543.869 370.147 543.504 371.379 543.515C373.01 543.515 373.355 544.379 373.355 544.379L373.13 542.973Z" fill-rule="evenodd" fill="#19313A"/>
	<path id="Path_44022" d="M371.338 541.867C370.421 541.84 369.515 542.066 368.727 542.518C368.393 542.71 368.167 543.036 368.112 543.406L367.94 544.553C368.944 543.866 370.147 543.502 371.379 543.512C373.01 543.512 373.355 544.376 373.355 544.376C372.775 542.651 370.102 543.272 369.996 542.845C369.89 542.418 370.323 541.95 371.338 541.867Z" fill-rule="evenodd" fill="#002030"/>
	<path id="Path_44023" d="M347.41 541.005L332.24 538.828L332.998 542.846L347.146 543.172C347.146 543.172 347.368 541.886 347.41 541.005Z" fill-rule="evenodd" fill="#19313A"/>
	<path id="Path_44024" d="M347.222 542.697L335.66 541.193C335.521 540.471 335.219 539.787 334.774 539.191L332.242 538.828L333.001 542.846L347.149 543.172C347.149 543.172 347.18 542.981 347.222 542.697Z" fill-rule="evenodd" fill="#002030"/>
	<path id="Path_44025" d="M370.204 545.794C369.454 546.135 368.744 548.498 369.386 550.526C369.842 552.089 371.323 553.171 373.012 553.176C374.738 553.232 375.676 552.267 375.632 551.047C375.595 549.981 374.263 549.961 373.012 548.492C371.853 547.14 371.607 545.155 370.204 545.794Z" fill-rule="evenodd" fill="#EE9681"/>
	<path id="Path_44026" d="M372.553 552.099C370.323 551.703 369.161 549.181 369.247 547.696C369.065 548.636 369.112 549.604 369.386 550.524C369.842 552.087 371.323 553.169 373.012 553.174C374.738 553.23 375.676 552.265 375.632 551.045C375.34 551.881 374.397 552.426 372.553 552.099Z" fill-rule="evenodd" fill="#EB7C74"/>
	<path id="Path_44027" d="M374.674 551.003C374.628 551.001 374.582 550.997 374.537 550.99C374.398 550.966 374.264 550.918 374.143 550.848C373.813 550.656 373.565 550.357 373.443 550.004C373.393 549.87 373.259 549.445 373.563 549.518C373.626 549.538 373.684 549.57 373.733 549.613C373.875 549.722 374.028 549.821 374.167 549.925C374.424 550.114 374.748 550.221 374.99 550.414C375.08 550.48 375.134 550.581 375.136 550.69C375.122 550.814 375.036 550.92 374.915 550.964C374.838 550.994 374.756 551.007 374.674 551.003Z" fill-rule="evenodd" fill="#F8C6A3"/>
	<path id="Path_44028" d="M357.785 552.553L357.784 552.553C351.648 552.552 346.675 547.768 346.675 541.867C346.675 535.965 351.649 531.181 357.785 531.181C363.921 531.181 368.896 535.965 368.896 541.867C368.89 547.767 363.919 552.548 357.785 552.553ZM357.784 532.087L357.784 532.087C363.397 532.093 367.946 536.468 367.952 541.867C367.952 545.823 365.475 549.389 361.675 550.903C357.875 552.416 353.501 551.579 350.593 548.782C347.685 545.985 346.815 541.778 348.389 538.124C349.963 534.469 353.671 532.087 357.784 532.087Z" clip-rule="evenodd" fill-rule="evenodd" fill="#19313A" fill-opacity="1.000000"/>
	<path id="Path_44029" d="M367.159 559.063C364.385 558.696 361.71 557.821 359.279 556.486C356.943 555.299 355.156 555.127 354.743 556.865C354.143 559.372 356.699 565.761 365.271 567C370.758 567.793 374.743 566.254 376.962 564.523C378.087 563.682 378.93 562.541 379.384 561.243C379.876 559.729 379.258 557.918 375.392 558.636C372.686 559.183 369.91 559.327 367.159 559.063Z" fill-rule="evenodd" fill="#C9434D"/>
	<path id="Path_44030" d="M365.978 558.907C363.634 558.419 361.377 557.603 359.279 556.486C356.943 555.299 355.156 555.127 354.743 556.865C354.258 558.896 355.845 563.474 361.027 565.799C363.999 564.772 365.982 562.062 365.984 559.024C365.984 558.983 365.978 558.946 365.978 558.907Z" fill-rule="evenodd" fill="#7C1423"/>
	<path id="Path_44031" d="M373.981 558.873C371.725 559.216 369.433 559.28 367.161 559.062C364.632 558.744 362.186 557.981 359.945 556.812L359.945 556.812C359.995 557.726 360.232 558.622 360.641 559.449C361.294 560.378 364.422 561.531 366.187 561.773C369.631 562.246 372.338 561.401 372.637 561.081C373.145 560.381 373.595 559.642 373.981 558.873Z" fill-rule="evenodd" fill="#FFFFFF"/>
	<g opacity="0.200000">
		<path id="Path_44032" d="M364.935 559.366C367.816 560.023 370.816 560.033 373.701 559.395C373.866 559.094 373.981 558.873 373.981 558.873C371.725 559.216 369.433 559.28 367.161 559.062C364.632 558.744 362.186 557.981 359.945 556.812L359.945 556.812C359.995 557.726 360.232 558.622 360.641 559.449C361.091 560.09 362.722 560.837 364.268 561.318C363.024 560.897 362.01 560.009 361.458 558.858C361.306 558.17 362.174 558.683 364.935 559.366Z" fill-rule="evenodd" fill="#BAC4CA"/>
	</g>
	<path id="Path_44033" d="M370.728 567.026C369.987 565.484 365.594 561.537 356.755 562.614C358.909 565.07 361.96 566.638 365.279 566.995C367.083 567.269 368.92 567.28 370.728 567.026Z" fill-rule="evenodd" fill="#EC6469"/>
	<path id="Path_44034" d="M369.481 567.162C369.473 567.162 364.51 566.868 362.132 565.345C359.77 563.831 360.327 562.467 362.389 562.614C360.519 562.372 358.623 562.372 356.752 562.614C358.906 565.07 361.957 566.638 365.276 566.995C366.667 567.202 368.078 567.258 369.481 567.162Z" fill-rule="evenodd" fill="#DB545B"/>
	<g opacity="0.200000">
		<path id="Path_44035" d="M366.689 564.25C365.392 563.552 363.943 563.154 362.458 563.089C360.407 563.289 364.516 564.874 366.303 565.499C368.593 566.3 368.861 565.334 366.689 564.25Z" fill-rule="evenodd" fill="#FFFFFF"/>
	</g>
	<g opacity="0.200000">
		<path id="Path_44036" d="M369.364 565.954C369.017 565.729 368.553 565.739 368.553 566.011C368.553 566.214 368.821 566.551 369.364 566.713C369.907 566.875 369.924 566.316 369.364 565.954Z" fill-rule="evenodd" fill="#FFFFFF"/>
	</g>
	<path id="Path_44037" d="M384.543 546.867C386.071 545.258 385.959 539.797 383.802 538.185C381.187 536.258 377.455 536.674 375.366 539.123C373.277 541.573 373.584 545.175 376.06 547.264C378.537 549.354 382.29 549.178 384.543 546.867Z" fill-rule="evenodd" fill="#FFFFFF"/>
	<g opacity="0.200000">
		<path id="Path_44038" d="M384.543 546.867C385.039 546.24 385.349 545.495 385.439 544.712C384.159 547.098 381.109 548.456 378.441 546.75C375.138 544.634 375.563 539.735 376.896 537.853C374.881 539.053 373.771 541.266 374.049 543.529C374.326 545.792 375.941 547.696 378.19 548.412C380.439 549.128 382.916 548.527 384.543 546.871L384.543 546.867Z" fill-rule="evenodd" fill="#BAC4CA"/>
	</g>
	<path id="Path_44039" d="M374.124 544.072C374.124 544.072 373.941 539.67 377.621 538.219C379.598 537.375 381.87 537.453 383.78 538.432C384.255 538.698 384.635 539.097 384.868 539.577C384.817 538.752 384.397 537.989 383.715 537.486C382.43 536.561 380.543 536.033 377.834 536.927C372.4 538.728 374.124 544.072 374.124 544.072Z" fill-rule="evenodd" fill="#19313A"/>
	<path id="Path_44040" d="M383.932 539.259C382.78 538.929 381.534 539.184 380.62 539.935C378.806 541.607 378.389 544.245 379.606 546.361C380.409 547.526 381.861 548.113 383.289 547.849C384.401 547.449 385.22 546.525 385.453 545.405C385.991 543.745 385.89 541.955 385.169 540.361C384.937 539.843 384.488 539.442 383.932 539.259Z" fill-rule="evenodd" fill="#19313A"/>
	<path id="Path_44041" d="M385.454 545.406C385.587 544.976 385.678 544.535 385.728 544.089C385.022 546.075 383.114 547.435 380.933 547.506C381.651 547.883 382.485 548.005 383.287 547.85C384.401 547.451 385.22 546.526 385.454 545.406Z" fill-rule="evenodd" fill="#002030"/>
	<path id="Path_44042" d="M384.536 540.024C384.143 539.636 383.552 539.502 383.02 539.682C382.489 539.862 382.115 540.322 382.06 540.861C381.829 542.41 382.927 544.107 384.26 544.107C385.145 544.107 385.553 543.302 385.43 542.093C385.404 541.321 385.087 540.585 384.536 540.024Z" fill-rule="evenodd" fill="#FFFFFF"/>
	<path id="Path_44043" d="M332.238 538.829C330.354 537.73 325.743 536.974 322.73 539.814C319.717 542.654 319.936 550.463 325.408 553.095C328.412 554.682 332.117 554.358 334.774 552.276C335.451 546.757 335.476 540.863 332.238 538.829Z" fill-rule="evenodd" fill="#F8C6A3"/>
	<path id="Path_44044" d="M326.235 548.036C326.235 546.987 326.892 546.042 327.898 545.642C328.905 545.241 330.064 545.463 330.834 546.204C331.604 546.945 331.834 548.06 331.416 549.027C330.999 549.995 330.016 550.626 328.927 550.625C327.44 550.624 326.236 549.465 326.235 548.036Z" fill-rule="evenodd" fill="#DD8964"/>
	<path id="Path_44045" d="M328.927 550.62C331.469 550.602 333.419 547.927 333.007 544.714C332.521 540.928 329.313 540.261 327.334 540.367C325.263 540.447 323.596 542.032 323.488 544.023C324.254 542.383 326.186 541.566 327.961 542.13C331.258 542.976 330.193 547.714 329.093 548.033C327.993 548.352 328.927 550.62 328.927 550.62Z" fill-rule="evenodd" fill="#DD8964"/>
	<path id="Path_44046" d="M328.738 538.473C326.809 538.154 324.835 538.701 323.381 539.96C321.442 541.53 321.019 543.997 321.335 546.265C321.343 546.319 321.482 546.406 321.492 546.333C321.836 543.879 322.363 541.378 324.686 539.898C325.921 539.148 327.324 538.689 328.779 538.56C328.839 538.548 328.764 538.479 328.738 538.473Z" fill-rule="evenodd" fill="#FDDEBC"/>
	<path id="Path_44047" d="M335.717 553.108C335.357 552.196 334.955 550.625 334.955 550.625C334.105 551.366 333.116 551.944 332.041 552.329C329.111 553.367 325.848 553.049 323.195 551.468C323.823 552.136 324.573 552.687 325.409 553.094C327.843 554.368 330.771 554.419 333.252 553.23C336.883 562.104 342.512 565.81 350.881 569.156C353.064 569.997 355.337 570.603 357.658 570.962C347.554 569.207 339.19 562.401 335.717 553.108Z" fill-rule="evenodd" fill="#F2A37C"/>
	<path id="Path_44048" d="M363.74 568.084C362.173 567.703 360.67 567.108 359.279 566.315C359.279 566.315 360.219 568.114 363.588 568.858C367.349 569.688 369.251 568.529 369.251 568.529C367.401 568.642 365.545 568.492 363.74 568.084Z" fill-rule="evenodd" fill="#F2A37C"/>
	<path id="Path_44049" d="M292.813 628.051C292.758 631.601 291.488 641.144 299.103 648.579C306.718 656.013 321.374 653.128 324.314 652.459C326.538 652.057 328.807 651.945 331.062 652.126C332.63 652.095 336.715 651.127 337.408 648.132C337.408 648.132 333.023 650.35 329.792 645.468C326.253 639.719 326.354 632.549 330.052 626.894C333.48 621.83 340.822 620.734 342.827 620.502C342.827 620.502 342.33 618.204 339.053 617.805C337.265 617.587 332.657 619.647 326.335 621.413C316.875 624.059 304.619 628.257 292.813 628.051Z" fill-rule="evenodd" fill="#4477BB"/>
	<path id="Path_44050" d="M331.604 620.088C328.207 621.494 324.25 626.99 323.345 632.013C324.616 628.578 326.661 625.456 329.332 622.87C331.23 621.028 334.686 619.47 335.067 619.161C335.471 618.835 333.877 619.146 331.604 620.088Z" fill-rule="evenodd" fill="#71ABDE"/>
	<path id="Path_44051" d="M324.315 652.463C326.539 652.061 328.808 651.949 331.063 652.129C332.631 652.099 336.716 651.131 337.409 648.136C335.303 649.074 332.812 648.655 331.163 647.084L329.507 647.82C329.507 647.82 328.339 650.134 325.676 647.268C322.03 643.34 322.737 634.834 322.737 634.834C320.916 644.954 325.46 648.998 324.886 649.29C324.312 649.583 314.24 652.072 307.263 647.9C300.285 643.728 301.895 631.263 305.698 629.634C309.555 627.985 313.964 626.642 320.622 623.063C312.203 625.504 302.362 628.218 292.814 628.051C292.759 631.601 291.489 641.144 299.104 648.578C306.719 656.013 321.376 653.128 324.315 652.463Z" fill-rule="evenodd" fill="#3E65AE"/>
	<path id="Path_44052" d="M332.318 622.609C335.187 621.585 338.187 620.94 341.236 620.693C340.084 619.381 336.482 619.895 332.318 622.609Z" fill-rule="evenodd" fill="#295296"/>
	<path id="Path_44053" d="M342.828 620.505C345.688 620.09 356.651 619.661 362.41 622.83C368.445 626.153 369.207 630.496 368.737 635.243C368.267 639.99 337.412 648.136 337.412 648.136C337.412 648.136 336.419 650.139 332.787 649.429C329.155 648.72 326.538 645.488 325.732 638.896C324.925 632.304 328.15 625.325 332.316 622.611C334.985 621.035 338.123 620.361 341.234 620.695L342.828 620.505Z" fill-rule="evenodd" fill="#F8C6A3"/>
	<path id="Path_44054" d="M346.661 633.962C346.661 633.962 342.665 634.832 336.695 639.726C331.804 643.736 329.162 644.479 327.414 639.96C325.666 635.441 327.254 628.346 330.158 624.489C326.747 628.532 325.153 633.717 325.73 638.895C326.537 645.487 329.158 648.718 332.786 649.428C336.414 650.139 337.41 648.135 337.41 648.135C337.41 648.135 341.202 637.471 346.661 633.962Z" fill-rule="evenodd" fill="#F2A37C"/>
	<path id="Path_44055" d="M337.408 648.136C335.915 648.715 334.365 649.148 332.783 649.429C336.415 650.139 337.408 648.136 337.408 648.136Z" fill-rule="evenodd" fill="#295296"/>
	<path id="Path_44056" d="M368.733 635.24C368.283 641.323 361.611 663.979 360.153 669.824C358.881 674.921 358.086 678.005 358.086 678.005C349.966 684.187 341.907 687.423 333.912 687.549C333.912 687.549 334.306 674.9 334.306 667.783C334.306 660.666 334.566 654.487 337.098 647.371C337.866 645.209 341.56 637.011 346.664 633.96C353.465 629.897 360.171 633.75 368.733 635.24Z" fill-rule="evenodd" fill="#F8C6A3"/>
	<path id="Path_44057" d="M346.945 668.214C341.052 668.976 339.525 668.214 338.274 662.128C337.024 656.042 338.551 644.093 340.4 640.77C339.086 642.867 337.98 645.079 337.095 647.375C334.564 654.491 334.303 660.671 334.303 667.787C334.303 671.627 334.19 677.075 334.086 681.281L339.596 680.545L357.806 676.114C357.806 676.114 358.237 675.758 358.804 675.215C359.149 673.851 359.609 672.028 360.157 669.828C360.194 669.677 360.238 669.503 360.283 669.325C357.564 667.94 352.303 667.522 346.945 668.214Z" fill-rule="evenodd" fill="#F2A37C"/>
	<path id="Path_44058" d="M363.125 637.976C361.538 637.512 360.108 636.653 358.978 635.485C357.797 634.174 357.291 632.443 356.637 632.791C355.329 633.488 355.982 638.526 358.674 640.222C360.347 641.445 362.589 641.672 364.49 640.811C365.436 640.351 366.598 638.885 363.125 637.976Z" fill-rule="evenodd" fill="#F2A37C"/>
	<g opacity="0.300000">
		<path id="Path_44059" d="M368.733 635.243C369.203 630.493 368.438 626.152 362.406 622.83C359.18 621.054 354.32 620.409 350.168 620.257C354.741 620.636 364.64 623.458 366.765 629.688C367.305 631.268 367.257 633.889 366.833 637.881C365.839 647.278 362.733 660.311 362.73 660.321C365.202 651.333 368.424 639.406 368.733 635.243Z" fill-rule="evenodd" fill="#FFFFFF"/>
	</g>
	<path id="Path_44060" d="M358.092 678.007C358.513 676.318 359.157 674.689 360.009 673.158C360.52 672.505 360.52 671.36 357.373 670.705C354.226 670.05 345.803 670.459 339.597 672.423C333.391 674.387 332.199 676.513 332.54 677.413C332.88 678.312 334.363 683.703 333.918 687.551C341.891 687.454 349.952 684.168 358.092 678.007Z" fill-rule="evenodd" fill="#EFF8FC"/>
	<path id="Path_44061" d="M359.452 674.174L359.452 674.167C359.452 674.167 353.217 672.808 344.441 674.958C335.427 677.166 333.173 679.721 333.173 679.721C333.369 680.581 333.576 681.6 333.731 682.681C334.837 681.838 337.801 680.031 344.441 678.401C348.941 677.251 353.624 676.919 358.25 677.422C358.578 676.316 358.98 675.231 359.452 674.174L359.452 674.174Z" fill-rule="evenodd" fill="#4477BB"/>
	<g opacity="0.200000">
		<path id="Path_44062" d="M344.754 685.499C344.133 685.264 343.44 685.276 342.829 685.533C338.997 686.755 338.142 683.979 338.124 682.101C338.158 680.123 337.87 678.153 337.272 676.261C336.96 675.596 336.945 674.837 337.231 674.162C337.517 673.487 338.079 672.954 338.785 672.689C333.281 674.575 332.209 676.553 332.535 677.412C332.875 678.312 334.358 683.703 333.912 687.551C337.623 687.48 341.292 686.786 344.754 685.499Z" fill-rule="evenodd" fill="#242357"/>
	</g>
	<path id="Path_44063" d="M341.121 684.511C339.35 685.716 335.277 685.835 333.833 683.448C333.833 683.448 333.184 683.821 332.483 685.77C331.781 687.72 330.941 692.312 332.483 694.787C335.442 693.336 338.581 692.252 341.824 691.562C346.971 690.513 354.069 686.837 356.485 685.262C358.902 683.687 369.042 678.06 376.606 681.586C376.606 681.586 374.033 677.686 367.093 677.761C360.153 677.836 358.088 678.009 358.088 678.009C358.088 678.009 348.912 678.354 344.631 680.237C341.902 681.435 342.993 683.235 341.121 684.511Z" fill-rule="evenodd" fill="#4477BB"/>
	<g opacity="0.200000">
		<path id="Path_44064" d="M356.484 685.26C358.305 684.114 360.235 683.138 362.249 682.345C361.784 680.323 361.074 678.322 360.046 677.909C359.694 677.922 359.395 677.935 359.147 677.946L359.136 677.946C356.225 679.319 356.037 683.367 356.037 683.367C354.403 683.615 349.149 686.737 347.227 687.547C343.461 689.133 341.347 688.914 340.459 688.297C339.21 687.43 339.291 685.212 339.291 685.212C337.35 685.59 334.888 685.192 333.83 683.445C333.83 683.445 333.181 683.818 332.48 685.767C331.778 687.717 330.938 692.309 332.48 694.785C335.439 693.333 338.577 692.249 341.821 691.559C346.97 690.511 354.067 686.835 356.484 685.26Z" fill-rule="evenodd" fill="#242357"/>
	</g>
	<path id="Path_44065" d="M376.597 681.576C369.436 678.249 359.975 683.107 356.94 684.974C357.082 684.88 355.865 680.914 359.135 677.95C362.405 674.986 374.728 675.213 376.597 681.576Z" fill-rule="evenodd" fill="#EFF8FC"/>
	<path id="Path_44066" d="M376.597 681.573C373.547 676.208 364.875 678.261 362.587 679.125C360.299 679.989 357.31 680.639 357.699 679.75C356.92 681.382 356.656 683.197 356.94 684.971C359.977 683.107 369.438 678.249 376.597 681.573Z" fill-rule="evenodd" fill="#A9CBD3"/>
	<path id="Path_44067" d="M376.599 681.576C375.367 680.241 373.653 679.407 371.804 679.243C367.213 678.802 362.608 679.934 358.799 682.439C354.973 684.844 350.927 686.91 346.711 688.61C342.759 690.263 334.51 690.869 332.006 693.883C332.006 693.883 331.337 694.946 331.528 697.789C331.48 700.216 333.098 702.384 335.505 703.115C338.234 704.164 346.19 704.689 356.094 701.54C365.998 698.391 372.526 697.933 376.604 692.313C380.15 687.425 377.915 683.045 376.599 681.576Z" fill-rule="evenodd" fill="#DEF1F8"/>
	<mask id="mask2_12976" mask-type="alpha" maskUnits="userSpaceOnUse" x="331.493866" y="679.149658" width="47.019196" height="24.777496">
		<path id="Path_44069" d="M376.599 681.577C375.367 680.241 373.653 679.407 371.804 679.243C367.213 678.802 362.608 679.934 358.799 682.439C354.973 684.844 350.927 686.91 346.711 688.61C342.759 690.263 334.51 690.869 332.006 693.884C332.006 693.884 331.337 694.946 331.528 697.789C331.48 700.216 333.098 702.384 335.505 703.115C338.234 704.164 346.19 704.689 356.094 701.54C365.998 698.391 372.526 697.933 376.604 692.313C380.15 687.425 377.915 683.045 376.599 681.577Z" fill-rule="evenodd" fill="#000000"/>
	</mask>
	<g mask="url(#mask2_12976)">
		<path id="Path_44068" d="M379.461 684.975C377.767 681.774 372.376 679.128 364.879 681.431C357.226 683.781 355.889 686.932 347.739 689.896C339.588 692.861 332.528 691.92 330.393 698.603" stroke="#4477BB"/>
	</g>
	<path id="Path_44070" d="M371.576 682.107C366.264 682.033 361.077 683.661 356.834 686.735C353.122 689.324 348.955 691.248 344.534 692.414C340.687 693.476 338.601 693.35 334.821 695.01C332.82 695.715 331.599 697.665 331.886 699.696C332.454 701.328 333.799 702.599 335.504 703.117C338.234 704.166 346.19 704.691 356.094 701.542C365.998 698.393 372.526 697.935 376.604 692.315C378.196 690.282 378.823 687.698 378.331 685.197C377.528 683.643 376.434 682.216 371.576 682.107Z" fill-rule="evenodd" fill="#E8914F"/>
	<path id="Path_44071" d="M341.751 702.566C339.815 702.658 337.878 702.416 336.032 701.849C334.755 701.487 333.73 700.568 333.265 699.368C333.159 697.98 334.039 696.697 335.408 696.245C337.229 695.459 339.147 694.9 341.115 694.582C342.212 694.368 343.453 694.125 344.92 693.72C349.504 692.516 353.823 690.521 357.666 687.834C361.525 685.036 366.216 683.504 371.049 683.463C371.21 683.463 371.372 683.463 371.534 683.469C375.666 683.563 376.44 684.633 376.974 685.635C377.32 687.721 376.766 689.853 375.439 691.537C372.594 695.459 368.398 696.622 362.045 698.382C360.132 698.911 357.963 699.512 355.649 700.25C351.172 701.726 346.481 702.509 341.749 702.57L341.751 702.566Z" fill-rule="evenodd" fill="#D1783B"/>
	<mask id="mask2_12984" mask-type="alpha" maskUnits="userSpaceOnUse" x="333.256165" y="683.462952" width="43.818573" height="19.122131">
		<path id="Path_44072" d="M341.751 702.566C339.815 702.658 337.878 702.416 336.032 701.85C334.755 701.487 333.73 700.568 333.265 699.368C333.159 697.98 334.039 696.697 335.408 696.245C337.229 695.459 339.147 694.9 341.115 694.582C342.211 694.368 343.453 694.125 344.92 693.72C349.504 692.516 353.823 690.521 357.666 687.834C361.525 685.037 366.216 683.504 371.048 683.463C371.21 683.463 371.372 683.463 371.534 683.469C375.666 683.563 376.44 684.633 376.974 685.635C377.32 687.721 376.766 689.853 375.439 691.537C372.594 695.46 368.398 696.622 362.045 698.382C360.132 698.911 357.963 699.512 355.649 700.25C351.172 701.726 346.481 702.509 341.749 702.57L341.751 702.566Z" fill-rule="evenodd" fill="#000000"/>
	</mask>
	<g mask="url(#mask2_12984)">
		<path id="Rectangle_33" d="M373.783 695.003L375.336 683.677L376.27 683.795L374.718 695.121L373.783 695.003Z" fill-rule="evenodd" fill="#C66D32"/>
		<path id="Rectangle_34" d="M369.78 697.234L371.745 682.9L372.68 683.019L370.715 697.353L369.78 697.234Z" fill-rule="evenodd" fill="#C66D32"/>
		<path id="Rectangle_35" d="M365.923 698.524L367.925 683.702L368.86 683.819L366.858 698.641L365.923 698.524Z" fill-rule="evenodd" fill="#C66D32"/>
		<path id="Rectangle_36" d="M362.046 699.643L364.236 684.172L365.169 684.294L362.979 699.765L362.046 699.643Z" fill-rule="evenodd" fill="#C66D32"/>
		<path id="Rectangle_37" d="M358.205 700.827L360.155 686.183L361.09 686.298L359.141 700.942L358.205 700.827Z" fill-rule="evenodd" fill="#C66D32"/>
		<path id="Rectangle_38" d="M354.421 701.352L356.187 688.48L357.121 688.599L355.356 701.471L354.421 701.352Z" fill-rule="evenodd" fill="#C66D32"/>
		<path id="Rectangle_39" d="M350.599 702.378L352.151 691.053L353.086 691.171L351.534 702.496L350.599 702.378Z" fill-rule="evenodd" fill="#C66D32"/>
		<path id="Rectangle_40" d="M346.712 703.447L348.265 692.121L349.199 692.24L347.647 703.566L346.712 703.447Z" fill-rule="evenodd" fill="#C66D32"/>
		<path id="Rectangle_41" d="M343.033 703.557L344.411 693.504L345.346 693.623L343.968 703.676L343.033 703.557Z" fill-rule="evenodd" fill="#C66D32"/>
		<path id="Rectangle_42" d="M339.34 703.379L340.567 694.43L341.501 694.549L340.275 703.498L339.34 703.379Z" fill-rule="evenodd" fill="#C66D32"/>
		<path id="Rectangle_43" d="M335.736 702.493L336.722 695.302L337.657 695.42L336.67 702.612L335.736 702.493Z" fill-rule="evenodd" fill="#C66D32"/>
		<path id="Rectangle_44" d="M333.55 697.524L333.918 696.69L348.911 702.8L348.544 703.634L333.55 697.524Z" fill-rule="evenodd" fill="#C66D32"/>
		<path id="Rectangle_45" d="M338.972 695.291L339.336 694.455L355.96 701.142L355.596 701.978L338.972 695.291Z" fill-rule="evenodd" fill="#C66D32"/>
		<path id="Rectangle_46" d="M346.432 693.464L346.808 692.633L362.703 699.288L362.327 700.119L346.432 693.464Z" fill-rule="evenodd" fill="#C66D32"/>
		<path id="Rectangle_47" d="M351.843 691.221L352.211 690.387L369.018 697.257L368.649 698.09L351.843 691.221Z" fill-rule="evenodd" fill="#C66D32"/>
		<path id="Rectangle_48" d="M356.762 688.414L357.14 687.584L373.914 694.648L373.537 695.478L356.762 688.414Z" fill-rule="evenodd" fill="#C66D32"/>
		<path id="Rectangle_49" d="M361.222 685.951L361.589 685.116L377.434 691.55L377.067 692.386L361.222 685.951Z" fill-rule="evenodd" fill="#C66D32"/>
		<path id="Rectangle_50" d="M367.516 683.875L367.883 683.04L378.652 687.414L378.285 688.25L367.516 683.875Z" fill-rule="evenodd" fill="#C66D32"/>
	</g>
	<path id="Path_44073" d="M376.982 685.631C376.938 685.549 376.891 685.466 376.842 685.383C376.814 687.064 376.241 688.695 375.202 690.047C372.358 693.97 368.162 695.133 361.808 696.892C359.895 697.422 357.726 698.022 355.412 698.761C350.936 700.237 346.244 701.02 341.512 701.08C339.576 701.173 337.639 700.93 335.793 700.364C334.757 700.044 333.876 699.376 333.31 698.482C333.243 698.773 333.23 699.074 333.272 699.369C333.737 700.569 334.762 701.488 336.039 701.851C337.885 702.417 339.822 702.659 341.758 702.567C346.49 702.506 351.182 701.723 355.658 700.247C357.977 699.509 360.145 698.909 362.054 698.379C368.407 696.619 372.603 695.456 375.448 691.534C376.775 689.849 377.329 687.718 376.982 685.631Z" fill-rule="evenodd" fill="#C66D32"/>
  <path id="Path_44090" d="M260.105 547.972C260.105 547.972 234.675 551.558 214.094 544.545C213.518 544.346 213.203 543.75 213.374 543.185C213.715 542.062 214.288 540.083 214.85 537.738C216.166 532.267 260.105 547.972 260.105 547.972Z" fill-rule="evenodd" fill="#A9CBD3"/>
	<path id="Path_44091" d="M214.85 537.738C214.502 539.188 214.151 540.497 213.853 541.552C234.403 549.391 260.101 547.972 260.101 547.972C260.101 547.972 216.165 532.267 214.85 537.738Z" fill-rule="evenodd" fill="#8CB8BF"/>
	<path id="Path_44092" d="M219.038 514.695C219.038 514.695 219.235 525.343 216.208 530.818C213.182 536.294 249.736 548.527 260.106 547.973C260.106 547.973 245.873 536.438 238.065 527.212C232.999 521.48 226.429 517.159 219.038 514.695Z" fill-rule="evenodd" fill="#CCE4EA"/>
	<g opacity="0.500000">
		<path id="Path_44093" d="M216.208 530.818C213.184 536.294 249.736 548.527 260.106 547.973C243.541 542.862 220.852 524.741 220.852 524.741C220.726 521.328 220.116 517.949 219.038 514.695C219.038 514.695 219.233 525.342 216.208 530.818Z" fill-rule="evenodd" fill="#A9CBD3"/>
	</g>
	<path id="Path_44094" d="M207.889 517.63C206.83 517.814 201.904 518.601 196.699 519.039C188.877 519.695 182.126 518.409 183.003 520.426C183.786 522.224 196.005 533.76 213.542 540.092C231.079 546.425 252.989 548.515 260.106 547.971C250.016 544.388 240.298 539.904 231.078 534.577C216.565 526.073 210.926 517.101 207.889 517.63Z" fill-rule="evenodd" fill="#F7FCFE"/>
	<path id="Path_44095" d="M260.106 547.972C260.106 547.972 250.537 538.474 244.968 528.139C237.674 514.6 235.943 504.212 235.171 503.22C234.398 502.229 231.15 504.602 225.963 508.426C223.475 510.324 221.159 512.421 219.037 514.693C219.037 514.694 243.683 542.512 260.106 547.972Z" fill-rule="evenodd" fill="#F7FCFE"/>
	<path id="Path_44096" d="M203.983 519.754C195.542 521.784 185.327 520.119 187.684 522.904C190.041 525.688 213.317 542.985 246.615 545.842C246.615 545.842 217.518 538.882 204.637 531.342C189.504 522.483 195.112 522.591 197.506 522.067C199.785 521.65 201.974 520.868 203.983 519.754Z" fill-rule="evenodd" fill="#FFFFFF"/>
	<path id="Path_44097" d="M255.316 544.931C255.316 544.931 232.666 528.098 221.516 515.098C221.516 515.098 226.141 509.111 231.907 506.149C231.907 506.149 227.142 510.334 225.69 513.057C225.018 514.32 226.347 516.974 228.592 519.754C233.91 526.346 255.316 544.931 255.316 544.931Z" fill-rule="evenodd" fill="#FFFFFF"/>
	<path id="Path_44098" d="M467.451 587.437C467.451 587.437 448.504 595.259 431.043 593.903C430.554 593.863 430.182 593.463 430.194 592.991C430.217 592.052 430.236 590.405 430.171 588.476C430.021 583.972 467.451 587.437 467.451 587.437Z" fill-rule="evenodd" fill="#A9CBD3"/>
	<path id="Path_44099" d="M430.175 588.475C430.216 589.669 430.223 590.753 430.218 591.63C447.832 593.632 467.451 587.437 467.451 587.437C467.451 587.437 430.021 583.972 430.175 588.475Z" fill-rule="evenodd" fill="#8CB8BF"/>
	<path id="Path_44100" d="M428.483 569.781C428.483 569.781 430.916 577.996 429.744 582.841C428.572 587.687 459.532 589.921 467.452 587.436C467.452 587.436 453.946 581.316 445.917 575.71C440.761 572.272 434.741 570.224 428.483 569.781Z" fill-rule="evenodd" fill="#CCE4EA"/>
	<g opacity="0.500000">
		<path id="Path_44101" d="M429.744 582.841C428.573 587.686 459.532 589.921 467.452 587.436C453.516 586.761 432.041 577.208 432.041 577.208C431.212 574.588 430.015 572.089 428.483 569.781C428.483 569.781 430.916 577.995 429.744 582.841Z" fill-rule="evenodd" fill="#A9CBD3"/>
	</g>
	<path id="Path_44102" d="M420.471 574.267C419.69 574.62 416.043 576.206 412.098 577.579C406.175 579.64 400.667 579.98 401.779 581.371C402.771 582.611 414.716 589.131 429.668 590.562C444.62 591.993 462.056 589.272 467.454 587.439C458.864 586.661 450.37 585.111 442.081 582.81C429.003 579.088 422.71 573.254 420.471 574.267Z" fill-rule="evenodd" fill="#F7FCFE"/>
	<path id="Path_44103" d="M467.452 587.437C467.452 587.437 457.999 581.971 451.465 575.06C442.909 566.011 439.342 558.3 438.529 557.684C437.717 557.068 435.709 559.553 432.508 563.552C430.987 565.517 429.64 567.602 428.483 569.785C428.483 569.785 453.551 586.46 467.452 587.437Z" fill-rule="evenodd" fill="#F7FCFE"/>
	<path id="Path_44104" d="M417.896 576.688C411.788 579.934 403.512 580.669 405.935 582.361C408.359 584.052 430.111 592.846 456.536 588.46C456.536 588.46 432.488 588.834 420.887 585.542C407.255 581.674 411.628 580.647 413.37 579.762C415.047 578.988 416.577 577.949 417.896 576.688Z" fill-rule="evenodd" fill="#FFFFFF"/>
	<path id="Path_44105" d="M463.086 586.028C463.086 586.028 441.919 577.471 430.489 569.601C430.489 569.601 432.795 564.042 436.627 560.603C436.627 560.603 433.83 564.792 433.289 567.191C433.038 568.303 434.637 570.097 436.973 571.807C442.509 575.864 463.086 586.028 463.086 586.028Z" fill-rule="evenodd" fill="#FFFFFF"/>
	<path id="Path_44106" d="M195.411 586.715L185.54 586.715C184.734 580.283 179.061 575.443 172.326 575.441L172.326 569.469C172.323 562.182 166.183 556.28 158.611 556.282L158.615 556.282C151.042 556.282 144.904 562.186 144.904 569.469L144.904 573.37C142.978 569.6 138.603 567.606 134.35 568.56C130.096 569.513 127.089 573.161 127.094 577.362L127.094 586.716L115.547 586.716C113.279 586.717 111.44 588.485 111.44 590.667L111.44 590.667C111.44 592.848 113.278 594.616 115.546 594.618L195.411 594.618C197.679 594.618 199.518 592.849 199.519 590.667C199.519 589.62 199.087 588.615 198.317 587.874C197.547 587.132 196.502 586.716 195.412 586.715L195.411 586.715Z" fill-rule="evenodd" fill="#FFFFFF"/>
	<ellipse id="Ellipse_544" cx="100.979004" cy="491.673950" rx="27.517561" ry="26.466076" fill="#FFD348"/>
	<g opacity="0.300000">
		<path id="Path_44107" d="M94.1333 476.904C92.1742 474.794 88.9713 471.621 86.4749 469.183C84.9854 470.07 83.5884 471.093 82.3027 472.238C86.7632 476.153 91.0151 479.67 92.2263 480.913C93.7152 482.44 97.7083 480.754 94.1333 476.904Z" fill-rule="evenodd" fill="#E85D1C"/>
		<path id="Path_44108" d="M124.995 504.584C119.395 501.41 108.96 495.464 104.506 492.718C98.2681 488.874 93.5204 489.784 91.629 488.27C90.2593 487.17 82.9384 480.036 78.6716 476.194C78.0653 477.002 77.5068 477.843 76.9988 478.712C80.4074 482.337 85.8893 488.148 87.0986 489.331C88.8836 491.076 88.181 493.63 86.0546 491.808C84.7311 490.673 79.018 486.362 74.8921 483.267C74.256 485.08 73.8271 486.955 73.6129 488.857C79.7649 494.191 87.3505 499.183 89.6521 499.411C92.2292 499.667 95.1074 494.868 98.267 496.566C100.635 497.838 114.16 506.016 120.796 510.038C122.432 508.4 123.843 506.567 124.995 504.584Z" fill-rule="evenodd" fill="#E85D1C"/>
		<path id="Path_44109" d="M107.49 517.389C110.827 516.609 113.981 515.234 116.79 513.334C111.427 510.555 102.93 506.223 100.507 505.411C96.8856 504.197 97.2595 510.296 94.3784 510.464C91.8446 510.611 83.1735 504.967 74.1848 497.68C74.2054 497.765 74.2202 497.851 74.2418 497.936C75.9686 504.756 80.4417 510.637 86.6769 514.286C92.9124 517.934 100.399 519.05 107.49 517.389L107.49 517.389Z" fill-rule="evenodd" fill="#E85D1C"/>
		<path id="Path_44110" d="M105.952 465.645C106.177 467.065 107.214 468.567 109.94 470.713C114.212 474.076 117.705 476.243 119.136 477.697C120.566 479.15 116.613 479.708 118.687 482.125C120.005 483.66 124.917 486.734 128.33 488.771C128.201 487.64 127.997 486.517 127.72 485.411C125.151 475.27 116.626 467.529 105.952 465.645L105.952 465.645Z" fill-rule="evenodd" fill="#E85D1C"/>
		<path id="Path_44111" d="M105.415 480.911C103.618 478.433 106.437 475.705 104.342 472.826C102.232 470.238 99.9752 467.764 97.5823 465.414C96.5342 465.54 95.4945 465.722 94.4679 465.96C93.3617 466.222 92.2732 466.549 91.2089 466.939C94.6528 470.667 98.579 475.005 99.4489 476.592C100.538 478.587 97.1857 481.865 98.7966 483.053C100.146 484.047 120.282 496.595 126.85 500.685C127.581 498.751 128.075 496.742 128.321 494.698C122.651 491.62 106.886 482.94 105.415 480.911Z" fill-rule="evenodd" fill="#E85D1C"/>
	</g>
	<g opacity="0.300000">
		<path id="Path_44112" d="M125.492 479.639C122.482 473.933 117.418 469.475 111.243 467.094C111.584 467.654 118.295 479.019 111.126 493.771C103.938 508.561 85.0009 512.477 84.1567 512.645C94.3587 520.194 108.637 519.939 118.54 512.031C128.444 504.123 131.331 490.672 125.493 479.639L125.492 479.639Z" fill-rule="evenodd" fill="#E85D1C"/>
	</g>
	<g opacity="0.300000">
		<path id="Path_44113" d="M123.483 480.099C128.53 489.649 126.576 501.242 118.653 508.771C110.729 516.301 98.6526 518.039 88.7843 513.07C99.8527 515.559 111.362 511.154 117.627 502.032C123.892 492.91 123.588 481.001 116.865 472.186C119.622 474.35 121.876 477.045 123.483 480.099Z" fill-rule="evenodd" fill="#E85D1C"/>
	</g>
	<g opacity="0.150000">
		<path id="Path_44114" d="M104.477 468.656C100.828 467.764 88.0729 468.359 81.2636 479.51C75.7388 488.691 76.9733 500.247 84.3238 508.156C82.7554 505.189 79.7158 494.276 84.7579 484.265C89.7999 474.254 99.7805 470.235 104.477 468.656Z" fill-rule="evenodd" fill="#FFEDB2"/>
	</g>
	<path id="Path_44115" d="M104.478 468.657C104.478 468.657 88.5855 467.799 81.7221 480.77C74.8587 493.742 82.7907 506.635 84.3239 508.153C84.3239 508.153 71.582 495.572 80.1379 479.976C88.126 465.422 104.478 468.657 104.478 468.657Z" fill-rule="evenodd" fill="#FFEDB2"/>
	<ellipse id="Ellipse_545" cx="380.931946" cy="481.479187" rx="7.209768" ry="6.934273" fill="#FFFFFF" fill-opacity="0.2"/>
	<path id="Path_44116" d="M380.932 489.606C380.259 489.606 379.713 489.082 379.713 488.434L379.713 474.522C379.713 473.875 380.259 473.351 380.932 473.351C381.255 473.351 381.565 473.474 381.793 473.694C382.022 473.914 382.15 474.212 382.15 474.522L382.15 488.434C382.15 488.746 382.022 489.044 381.793 489.263C381.564 489.483 381.255 489.606 380.931 489.606L380.932 489.606Z" fill-rule="evenodd" fill="#FFFFFF" fill-opacity="0.298039"/>
	<path id="Path_44117" d="M389.381 481.478C389.381 482.126 388.835 482.65 388.162 482.651L373.698 482.651C373.025 482.65 372.479 482.126 372.479 481.478C372.48 481.167 372.608 480.869 372.837 480.649C373.065 480.43 373.375 480.307 373.698 480.307L388.162 480.307C388.485 480.307 388.795 480.43 389.024 480.65C389.252 480.87 389.381 481.168 389.381 481.478Z" fill-rule="evenodd" fill="#FFFFFF" fill-opacity="0.298039"/>
	<path id="Path_44118" d="M386.046 481.478C386.046 482.126 385.5 482.651 384.827 482.651L377.036 482.651C376.363 482.651 375.817 482.126 375.817 481.478C375.818 480.831 376.364 480.308 377.036 480.308L384.827 480.308C385.499 480.308 386.045 480.831 386.046 481.478Z" fill-rule="evenodd" fill="#FFFFFF"/>
	<path id="Path_44119" d="M380.932 486.398C380.259 486.398 379.713 485.873 379.713 485.225L379.713 477.729C379.713 477.081 380.259 476.556 380.932 476.556C381.605 476.557 382.15 477.081 382.15 477.729L382.15 485.221C382.151 485.533 382.023 485.832 381.795 486.053C381.566 486.273 381.256 486.397 380.932 486.398Z" fill-rule="evenodd" fill="#FFFFFF"/>
	<ellipse id="Ellipse_546" cx="53.331726" cy="531.181152" rx="7.209768" ry="6.934273" fill="#FFFFFF" fill-opacity="0.2"/>
	<path id="Path_44120" d="M53.3308 539.307C52.6581 539.307 52.1127 538.782 52.1127 538.135L52.1127 524.223C52.113 523.576 52.6587 523.051 53.3314 523.052L53.3308 523.052C54.0038 523.052 54.5495 523.576 54.55 524.223L54.55 538.135C54.5495 538.783 54.0038 539.307 53.3309 539.307L53.3308 539.307Z" fill-rule="evenodd" fill="#FFFFFF" fill-opacity="0.298039"/>
	<path id="Path_44121" d="M61.7803 531.18C61.7803 531.828 61.2344 532.353 60.5611 532.353L46.1013 532.353C45.4284 532.352 44.8831 531.828 44.8831 531.18C44.8835 530.533 45.4291 530.008 46.1019 530.009L60.5611 530.009C61.2341 530.009 61.7798 530.533 61.7803 531.18Z" fill-rule="evenodd" fill="#FFFFFF" fill-opacity="0.298039"/>
	<path id="Path_44122" d="M58.4446 531.18C58.4447 531.828 57.8995 532.352 57.2266 532.353L49.4362 532.353C48.7629 532.353 48.217 531.828 48.217 531.18C48.2175 530.533 48.7632 530.009 49.4362 530.009L57.2265 530.009C57.8993 530.009 58.4446 530.533 58.4446 531.18Z" fill-rule="evenodd" fill="#FFFFFF"/>
	<path id="Path_44123" d="M53.3308 536.101C52.658 536.1 52.1127 535.575 52.1127 534.928L52.1127 527.434C52.1127 526.787 52.658 526.262 53.3308 526.262C54.0042 526.262 54.55 526.787 54.55 527.434L54.55 534.927C54.5503 535.238 54.4219 535.537 54.1932 535.757C53.9646 535.977 53.6543 536.101 53.3307 536.101L53.3308 536.101Z" fill-rule="evenodd" fill="#FFFFFF"/>
	<path id="Path_44124" d="M19.9772 471.287C19.9774 470.531 20.4512 469.849 21.1774 469.56C21.9038 469.271 22.7396 469.431 23.2952 469.966C23.8508 470.501 24.0168 471.305 23.7158 472.003C23.4147 472.702 22.7059 473.157 21.9198 473.157C20.8467 473.156 19.9772 472.319 19.9772 471.287Z" fill-rule="evenodd" fill="#FFEDB2"/>
	<path id="Path_44125" d="M99.0347 542.869C99.0353 541.837 99.9058 541.001 100.979 541.001C102.052 541.001 102.922 541.839 102.921 542.871C102.921 543.903 102.051 544.739 100.978 544.739C100.462 544.74 99.9676 544.542 99.6032 544.192C99.2386 543.841 99.0342 543.365 99.0347 542.869Z" fill-rule="evenodd" fill="#FFEDB2"/>
	<path id="Path_44126" d="M424.594 528.457C424.594 527.424 425.464 526.588 426.537 526.587C427.61 526.587 428.48 527.424 428.481 528.456C428.481 529.488 427.611 530.325 426.538 530.326C426.023 530.326 425.528 530.129 425.163 529.779C424.799 529.428 424.594 528.952 424.594 528.457Z" fill-rule="evenodd" fill="#FFEDB2"/>
	<path id="Path_44127" d="M294.858 473.353C294.858 472.597 295.332 471.915 296.058 471.626C296.784 471.337 297.62 471.497 298.176 472.032C298.731 472.567 298.897 473.371 298.596 474.069C298.295 474.768 297.586 475.223 296.8 475.222C295.727 475.222 294.858 474.385 294.858 473.353Z" fill-rule="evenodd" fill="#FFEDB2"/>
	<path id="Path_44128" d="M286.734 521.339C286.733 520.582 287.207 519.9 287.933 519.61C288.66 519.321 289.496 519.48 290.052 520.015C290.609 520.55 290.775 521.354 290.475 522.053C290.174 522.752 289.465 523.208 288.678 523.208C288.163 523.208 287.668 523.011 287.303 522.661C286.939 522.31 286.734 521.835 286.734 521.339Z" fill-rule="evenodd" fill="#FFEDB2"/>
	<path id="Path_44129" d="M403.558 469.42C403.558 468.664 404.031 467.982 404.758 467.693C405.484 467.403 406.32 467.563 406.877 468.097C407.433 468.632 407.6 469.436 407.299 470.135C406.998 470.834 406.289 471.29 405.503 471.29C404.987 471.29 404.492 471.093 404.128 470.743C403.763 470.392 403.558 469.916 403.558 469.42Z" fill-rule="evenodd" fill="#FFEDB2"/>
	<path id="Path_44130" d="M185.519 485.831C185.52 485.074 185.994 484.392 186.721 484.103C187.447 483.813 188.283 483.974 188.839 484.509C189.395 485.044 189.561 485.848 189.26 486.547C188.959 487.246 188.25 487.701 187.463 487.701C186.948 487.701 186.453 487.504 186.088 487.153C185.724 486.802 185.519 486.327 185.519 485.831Z" fill-rule="evenodd" fill="#FFEDB2"/>
	<path id="Path_44131" d="M0 508.323C-0.000305176 507.567 0.472961 506.886 1.1991 506.596C1.92517 506.307 2.76105 506.466 3.31708 507.001C3.87311 507.535 4.03967 508.339 3.73907 509.038C3.43854 509.736 2.7301 510.192 1.94403 510.192C1.42847 510.192 0.934021 509.995 0.569397 509.645C0.204773 509.294 0 508.819 0 508.323Z" fill-rule="evenodd" fill="#FFEDB2"/>
	<defs>
		<linearGradient id="paint_linear_2_12789_0" x1="285.632172" y1="646.502930" x2="285.632172" y2="719.616577" gradientUnits="userSpaceOnUse">
			<stop stop-color="#F59D10" stop-opacity="0.501961"/>
			<stop offset="0.144000" stop-color="#F59D10" stop-opacity="0.470588"/>
			<stop offset="0.361000" stop-color="#F59D12" stop-opacity="0.384314"/>
			<stop offset="0.624000" stop-color="#F69E16" stop-opacity="0.247059"/>
			<stop offset="0.921000" stop-color="#F69F1B" stop-opacity="0.054902"/>
			<stop offset="1.000000" stop-color="#F7A01D" stop-opacity="0.000000"/>
		</linearGradient>
		<linearGradient id="paint_linear_2_12874_0" x1="366.407288" y1="550.292175" x2="366.407288" y2="531.603699" gradientUnits="userSpaceOnUse">
			<stop stop-color="#F2A37C"/>
			<stop offset="0.090000" stop-color="#F2A47D" stop-opacity="0.968627"/>
			<stop offset="0.225000" stop-color="#F2A780" stop-opacity="0.882353"/>
			<stop offset="0.390000" stop-color="#F3AC86" stop-opacity="0.741176"/>
			<stop offset="0.577000" stop-color="#F4B28D" stop-opacity="0.549020"/>
			<stop offset="0.783000" stop-color="#F6BB97" stop-opacity="0.298039"/>
			<stop offset="1.000000" stop-color="#F8C6A3" stop-opacity="0.000000"/>
		</linearGradient>
		<linearGradient id="paint_linear_2_12875_0" x1="385.515198" y1="548.718323" x2="385.515198" y2="531.572510" gradientUnits="userSpaceOnUse">
			<stop stop-color="#F2A37C"/>
			<stop offset="0.090000" stop-color="#F2A47D" stop-opacity="0.968627"/>
			<stop offset="0.225000" stop-color="#F2A780" stop-opacity="0.882353"/>
			<stop offset="0.390000" stop-color="#F3AC86" stop-opacity="0.741176"/>
			<stop offset="0.577000" stop-color="#F4B28D" stop-opacity="0.549020"/>
			<stop offset="0.783000" stop-color="#F6BB97" stop-opacity="0.298039"/>
			<stop offset="1.000000" stop-color="#F8C6A3" stop-opacity="0.000000"/>
		</linearGradient>
	</defs>
</svg>
