<svg width="374.787994" height="131.843994" viewBox="0 0 374.788 131.844" fill="none" xmlns="http://www.w3.org/2000/svg" xmlns:xlink="http://www.w3.org/1999/xlink">
	<desc>
			Created with Pixso.
	</desc>
	<mask id="mask45_107" mask-type="alpha" maskUnits="userSpaceOnUse" x="0.000000" y="0.000000" width="374.787994" height="131.843994">
		<rect id="Rectangle_2391" width="374.787994" height="131.843994" fill="#000000"/>
	</mask>
	<g mask="url(#mask45_107)">
		<mask id="mask45_108" mask-type="alpha" maskUnits="userSpaceOnUse" x="-0.036987" y="17.455566" width="374.825012" height="128.387939">
			<rect id="Rectangle_2390" x="-0.036987" y="17.455566" width="374.825012" height="128.388000" fill="#000000"/>
		</mask>
		<g mask="url(#mask45_108)">
			<path id="Path_50082" d="M283.074 133.256C287.337 126.019 291.355 116.841 287.231 113.802C275.69 105.229 275.69 133.585 263.82 119.408C257.556 112.154 244.037 72.2568 229.859 83.7979C217.659 93.6897 241.399 114.792 231.837 123.698C223.264 131.941 217.659 104.904 210.075 106.223C201.175 107.542 201.175 128.315 191.281 125.017C179.74 121.39 196.886 95.6716 183.368 92.7039C168.201 89.0767 167.868 114.795 159.628 120.071C157.979 118.423 157.65 116.444 156.99 113.806C155.012 106.882 148.747 72.2607 136.877 78.5256C122.699 86.1086 139.515 108.526 138.525 118.426C137.206 133.263 117.753 104.578 113.466 104.248C100.866 103.389 117.623 125.671 123.752 133.264L283.074 133.256Z" fill-rule="evenodd" fill="#90CCD6"/>
			<path id="Path_50083" d="M18.559 22.9836C13.927 22.9966 9.07196 23.9287 5.44598 26.9985C2.55371 29.6072 0.71228 33.1814 0.266968 37.0505C-0.0309448 39.2021 -0.0786133 41.3811 0.125 43.5437C0.268372 45.96 0.903687 48.3215 1.992 50.4836C4.33997 54.6086 8.23193 57.6306 12.81 58.8835C17.0186 60.2107 21.5466 60.1189 25.698 58.6226C28.6678 57.4307 31.222 55.3921 33.043 52.7607C36.668 47.3792 37.6608 40.6453 35.743 34.4465C34.8479 31.4556 33.1336 28.7749 30.794 26.7075C28.1767 24.5298 24.9382 23.2349 21.541 23.0076C20.5492 22.9292 19.5532 22.9189 18.5601 22.9766C18.16 22.9985 18.16 23.6167 18.56 23.5947C22.0477 23.3093 25.5396 24.0938 28.57 25.8438C31.1156 27.448 33.1273 29.7722 34.35 32.5217C36.8284 38.2188 36.6341 44.7246 33.82 50.2637C32.4641 52.9805 30.3856 55.271 27.813 56.8835C24.5043 58.7771 20.6686 59.5408 16.887 59.0586C12.2098 58.6682 7.84052 56.5681 4.61401 53.1597C3.01941 51.3875 1.87329 49.2585 1.27197 46.9517C0.76123 44.7832 0.54364 42.5559 0.625 40.3296C0.541443 36.4502 1.70093 32.646 3.93396 29.4727C6.51801 26.1135 10.534 24.4155 14.64 23.8516C15.9396 23.6814 17.2492 23.5979 18.56 23.6016C18.7307 23.6016 18.869 23.4634 18.869 23.2927C18.869 23.1221 18.7307 22.9836 18.56 22.9836L18.559 22.9836Z" fill-rule="evenodd" fill="#003849"/>
			<path id="Path_50084" d="M7.05402 26.7737C9.10602 27.9866 11.74 28.5667 13.431 30.3235C15.475 32.4465 12.898 34.7776 11.255 36.1235C10.3148 36.7922 9.51788 37.6423 8.91101 38.6235C8.3587 39.7222 8.23059 40.9856 8.55103 42.1726C8.88342 43.2017 9.50897 44.1111 10.351 44.7896C11.2155 45.4229 11.9568 46.2092 12.538 47.1096C13.284 48.5867 12.548 50.3545 11.638 51.5786C10.4432 53.0364 8.97028 54.2417 7.30499 55.1245C7.17059 55.2163 7.13007 55.3965 7.21216 55.5369C7.29425 55.6775 7.47107 55.7307 7.617 55.6587C10.178 54.1587 13.282 51.8865 13.455 48.6235C13.594 46.0056 11.04 45.0525 9.729 43.2236C8.94855 42.0769 8.77618 40.6218 9.26703 39.3247C9.83575 38.1882 10.6904 37.2195 11.747 36.5137C13.395 35.1687 15.791 32.9565 14.436 30.6206C13.66 29.5354 12.5934 28.6914 11.359 28.1855C10.041 27.5156 8.64502 26.9937 7.37 26.2395C7.22375 26.1648 7.04456 26.217 6.96149 26.3589C6.87842 26.5005 6.92029 26.6826 7.05701 26.7737L7.05402 26.7737Z" fill-rule="evenodd" fill="#003849"/>
			<path id="Path_50085" d="M19.207 23.5886C18.451 25.8887 17.939 28.7117 18.862 31.0356C19.74 33.2468 21.917 33.9487 24.106 34.0947C25.002 34.0662 25.897 34.1772 26.759 34.4238C27.688 34.7998 27.701 35.7876 27.55 36.6516C27.262 38.3047 26.337 39.6726 25.788 41.2307C25.2736 42.7498 25.519 44.4233 26.448 45.7307C28.305 48.6038 31.819 48.4148 34.826 48.7568C35.221 48.8018 35.217 48.1826 34.826 48.1387C32.177 47.8386 28.873 48.0718 27.126 45.6338C26.5728 44.905 26.2235 44.042 26.114 43.1338C26.0869 42.3345 26.2587 41.541 26.614 40.8247C27.3246 39.4951 27.8524 38.0757 28.183 36.6047C28.3895 35.8049 28.2112 34.9543 27.701 34.3047C27.1433 33.844 26.4443 33.5891 25.721 33.5828C23.759 33.3757 21.458 33.5728 20.057 31.8828C18.281 29.7368 19.019 26.1528 19.808 23.7568C19.933 23.3777 19.336 23.2158 19.208 23.5928L19.207 23.5886Z" fill-rule="evenodd" fill="#003849"/>
			<path id="Path_50086" d="M15.374 59.0073C17.1711 57.074 18.053 54.4626 17.796 51.8354C17.4346 49.9006 16.8716 48.0088 16.116 46.1914C15.4501 44.5886 15.2424 42.8323 15.5161 41.1184C15.88 39.7295 17.684 38.4543 19.066 39.3674C20.2321 40.1384 20.4431 42.0305 20.596 43.2874C20.796 44.9023 20.796 46.5325 20.984 48.1494C21.0678 48.7126 21.1816 49.2712 21.325 49.8225C21.5341 50.7644 21.387 51.7634 21.625 52.7053C21.747 53.1733 22.059 53.9055 22.597 54.0244C23.074 54.1245 23.406 53.6885 23.619 53.3303C23.9913 52.6113 24.317 51.8691 24.594 51.1084C24.7335 50.7578 24.9042 50.4204 25.104 50.1003C25.37 49.7004 25.583 49.6523 26.08 49.6274C28.801 49.4944 29.71 52.5435 30.549 54.5845C30.698 54.9475 31.297 54.7844 31.149 54.4204C30.4171 52.6394 29.694 50.1675 27.778 49.3054C26.9608 48.9185 26.024 48.8696 25.171 49.1694C24.6755 49.5405 24.3104 50.0588 24.1281 50.6504C23.828 51.3303 23.585 52.0393 23.255 52.7063C23.028 53.1653 22.812 53.7063 22.447 53.0774C22.0925 52.1318 21.935 51.124 21.984 50.1155C21.92 49.5154 21.704 48.9443 21.624 48.3403C21.406 46.6843 21.419 45.0054 21.224 43.3474C21.059 41.9543 20.8391 40.2593 19.824 39.1975C18.7018 38.2251 17.0275 38.2546 15.94 39.2654C14.649 40.3513 14.64 42.2354 14.877 43.7654C15.2937 45.655 15.8694 47.5059 16.598 49.2983C17.1183 50.7532 17.3175 52.3032 17.182 53.8423C16.9321 55.6079 16.15 57.2556 14.94 58.5654C14.6801 58.8655 15.1151 59.3035 15.3781 59.0034L15.374 59.0073Z" fill-rule="evenodd" fill="#003849"/>
			<path id="Path_50087" d="M5.54297 30.0049C5.87897 30.3418 6.18597 30.7048 6.55096 31.0139C6.61041 31.0698 6.68829 31.1023 6.77002 31.1047C6.85199 31.1038 6.93042 31.0713 6.98901 31.0139C7.1076 30.8918 7.1076 30.6978 6.98901 30.5759C6.62396 30.2698 6.31598 29.9038 5.98102 29.5669C5.86005 29.4463 5.66418 29.4465 5.54358 29.5674C5.42291 29.6885 5.4231 29.8843 5.54401 30.0049L5.54297 30.0049Z" fill-rule="evenodd" fill="#003849"/>
			<path id="Path_50088" d="M10.9 33.1609L10.207 33.8538C10.1497 33.9126 10.1172 33.991 10.116 34.0728C10.116 34.2434 10.2543 34.3818 10.425 34.3818C10.5065 34.3801 10.5844 34.3474 10.643 34.2908L11.337 33.5979C11.3939 33.5391 11.4261 33.4607 11.427 33.3789C11.4272 33.2969 11.3948 33.218 11.3368 33.1602C11.2788 33.1021 11.2 33.0696 11.118 33.0698C11.0361 33.0715 10.9579 33.104 10.899 33.1609L10.9 33.1609Z" fill-rule="evenodd" fill="#003849"/>
			<path id="Path_50089" d="M3.90319 36.8792C4.03015 37.0049 4.15637 37.1316 4.28192 37.259C4.34081 37.3162 4.4194 37.3486 4.50134 37.3494C4.54275 37.3513 4.58385 37.3423 4.6206 37.3232C4.65888 37.3105 4.69331 37.2886 4.72083 37.259C4.77881 37.2007 4.81152 37.1218 4.81201 37.0396C4.81049 36.9575 4.77795 36.8789 4.72083 36.8201L4.34204 36.4402C4.28303 36.3833 4.20456 36.3511 4.12262 36.3499C4.08128 36.3479 4.04018 36.3569 4.00343 36.376C3.9652 36.3887 3.93077 36.4106 3.90319 36.4402C3.84528 36.4985 3.81256 36.5774 3.81201 36.6597C3.8136 36.7417 3.8462 36.8201 3.90319 36.8792Z" fill-rule="evenodd" fill="#003849"/>
			<path id="Path_50090" d="M5.68304 43.0586L5.65002 43.1025L5.698 43.0405C5.53802 43.2478 5.35217 43.4336 5.14502 43.5935L5.20404 43.5486L5.16003 43.5825C5.12494 43.6018 5.09503 43.6292 5.073 43.6626C5.04626 43.6924 5.02734 43.7285 5.01801 43.7676C4.99677 43.8479 5.00787 43.9333 5.04901 44.0056C5.08984 44.0752 5.15619 44.1262 5.23401 44.1475C5.31421 44.1709 5.40045 44.1597 5.47205 44.1165C5.75897 43.9124 6.00977 43.6616 6.21399 43.3745C6.2558 43.3025 6.26697 43.2168 6.245 43.1365C6.22363 43.0583 6.17322 42.991 6.104 42.9485C6.03198 42.907 5.94629 42.896 5.86603 42.9175L5.79199 42.9485C5.74628 42.9756 5.70807 43.0139 5.68103 43.0596L5.68304 43.0586Z" fill-rule="evenodd" fill="#003849"/>
			<path id="Path_50091" d="M6.58002 50.9048L8.47205 50.9048C8.64227 50.9038 8.77997 50.6802 8.77997 50.4048C8.77997 50.1294 8.64227 49.9058 8.47205 49.9048L6.58002 49.9048C6.40979 49.9058 6.27209 50.1294 6.27209 50.4048C6.27209 50.6802 6.40979 50.9038 6.58002 50.9048Z" fill-rule="evenodd" fill="#003849"/>
			<path id="Path_50092" d="M17.769 43.6865C18.0466 43.376 18.3414 43.0811 18.652 42.8035C18.7101 42.7454 18.7428 42.6665 18.743 42.5845C18.7422 42.5024 18.7096 42.4238 18.652 42.3655C18.5938 42.3074 18.5151 42.2747 18.433 42.2744C18.3518 42.2791 18.2746 42.311 18.214 42.3655C17.9037 42.6433 17.6089 42.938 17.331 43.2485C17.21 43.3691 17.2098 43.5649 17.3305 43.6858C17.4512 43.8069 17.647 43.8071 17.768 43.6865L17.769 43.6865Z" fill-rule="evenodd" fill="#003849"/>
			<path id="Path_50093" d="M18.026 48.3994C18.4174 48.585 18.8214 48.7427 19.235 48.8716C19.3994 48.9155 19.5688 48.8193 19.615 48.6555C19.6564 48.4915 19.5612 48.324 19.399 48.2754C19.213 48.2134 19.026 48.1504 18.842 48.0825L18.711 48.0325L18.63 47.9995C18.612 47.9924 18.547 47.9705 18.623 47.9995C18.5258 47.9612 18.431 47.917 18.339 47.8674C18.1916 47.7812 18.0022 47.8311 17.916 47.9785C17.8298 48.126 17.8796 48.3154 18.027 48.4014L18.026 48.3994Z" fill-rule="evenodd" fill="#003849"/>
			<path id="Path_50094" d="M19.4287 55.48C19.2941 55.7488 19.1837 56.0288 19.0492 56.2988C19.0093 56.3716 18.9982 56.4565 19.0181 56.5369C19.0403 56.6143 19.0913 56.6804 19.1606 56.7219C19.2332 56.7656 19.3205 56.7783 19.4026 56.7568C19.4812 56.7363 19.5481 56.6853 19.5883 56.615C19.7228 56.345 19.8332 56.0649 19.9678 55.7959C20.0075 55.7231 20.0186 55.6384 19.9989 55.5579C19.9766 55.4805 19.9256 55.4146 19.8563 55.3728C19.784 55.3313 19.698 55.3203 19.6174 55.3418C19.5392 55.363 19.4725 55.4141 19.4317 55.4839L19.4287 55.48Z" fill-rule="evenodd" fill="#003849"/>
			<path id="Path_50095" d="M25.6641 55.2827C25.998 55.4026 26.3461 55.4807 26.673 55.6211C26.7533 55.6445 26.8391 55.6326 26.911 55.5879C26.9819 55.5437 27.0334 55.4709 27.0543 55.386C27.0751 55.301 27.0635 55.2107 27.022 55.1348C26.978 55.0635 26.9128 55.0098 26.837 54.9827C26.51 54.8425 26.162 54.7686 25.829 54.6443C25.6644 54.5969 25.4947 54.7 25.4481 54.8757C25.4072 55.0513 25.5023 55.2302 25.6641 55.2827L25.6641 55.2827Z" fill-rule="evenodd" fill="#003849"/>
			<path id="Path_50096" d="M32.905 43.3115C32.4814 43.7949 32.1548 44.355 31.943 44.9617C31.8989 45.126 31.9951 45.2954 32.1591 45.3416C32.3233 45.3823 32.4906 45.2869 32.539 45.1245C32.561 45.0586 32.585 44.9917 32.61 44.9246L32.63 44.8757C32.662 44.7976 32.614 44.9097 32.63 44.8657L32.673 44.7705C32.733 44.6406 32.801 44.5146 32.873 44.3916C32.945 44.2686 33.019 44.1587 33.099 44.0466L33.16 43.9636L33.183 43.9336C33.161 43.9626 33.195 43.9187 33.199 43.9146C33.244 43.8577 33.29 43.8015 33.337 43.7466C33.4579 43.626 33.4582 43.4302 33.3375 43.3091C33.2169 43.1882 33.0209 43.188 32.9 43.3086L32.905 43.3115Z" fill-rule="evenodd" fill="#003849"/>
			<path id="Path_50097" d="M29.889 39.3762C30.177 39.4951 30.4717 39.5913 30.7711 39.6646C30.9367 39.7163 31.1077 39.6047 31.153 39.4153C31.1983 39.2258 31.1007 39.03 30.9351 38.9783C30.6357 38.905 30.3411 38.8086 30.053 38.6902C29.9728 38.6646 29.8869 38.6775 29.8151 38.7256C29.746 38.7729 29.6953 38.8486 29.673 38.9373C29.6514 39.0291 29.6625 39.127 29.704 39.2095C29.7481 39.2856 29.8132 39.3428 29.889 39.3718L29.889 39.3762Z" fill-rule="evenodd" fill="#003849"/>
			<path id="Path_50098" d="M30.3424 31.0273C30.2103 31.4204 30.1133 31.8215 30.0524 32.2273C30.0303 32.3079 30.0434 32.3928 30.0892 32.4653C30.1614 32.573 30.3007 32.6323 30.4427 32.6162C30.5847 32.6001 30.7017 32.5115 30.7396 32.3914C30.8008 31.9856 30.8978 31.5845 31.0296 31.1914C31.0804 31.0269 30.9696 30.8577 30.781 30.8115C30.5922 30.77 30.3993 30.8652 30.3436 31.0273L30.3424 31.0273Z" fill-rule="evenodd" fill="#003849"/>
			<path id="Path_50099" d="M23.1951 28.7256C23.5599 28.9595 23.939 29.1702 24.33 29.3567C24.4775 29.4429 24.6669 29.3931 24.7531 29.2456C24.8392 29.0981 24.7895 28.9089 24.642 28.8228C24.2507 28.6365 23.8716 28.4258 23.507 28.1917C23.3594 28.1072 23.1711 28.1565 23.084 28.3027C23.0023 28.4507 23.0511 28.637 23.1951 28.7256Z" fill-rule="evenodd" fill="#003849"/>
			<path id="Path_50100" d="M63.437 88.1577C61.7441 86.3096 59.3698 85.2327 56.864 85.1768C54.3299 85.1755 52.0379 86.6819 51.034 89.0088C48.834 93.5579 49.829 100.134 53.923 103.309C57.807 106.324 63.44 105.954 67.798 104.267C70.3023 103.32 72.4172 101.561 73.805 99.2717C75.2422 96.9941 75.8563 94.293 75.545 91.6177C75.0989 88.8276 73.0924 86.5403 70.384 85.7349C67.745 84.9548 64.543 85.6877 63.074 88.1558C63.002 88.3018 63.0551 88.4785 63.1956 88.5605C63.3361 88.6426 63.5162 88.6021 63.608 88.4678C64.879 86.3328 67.608 85.6829 69.908 86.2468C72.2499 86.8247 74.1029 88.6128 74.764 90.9329C75.2917 93.3481 74.937 95.8726 73.764 98.0488C72.6862 100.271 70.9089 102.077 68.705 103.192C64.883 105.119 59.605 105.735 55.705 103.717C51.33 101.455 49.781 95.9167 50.861 91.3408C51.489 88.6797 53.174 86.1638 56.08 85.8308C58.6898 85.6243 61.2471 86.6445 62.998 88.5908C63.267 88.8848 63.703 88.4468 63.436 88.1528L63.437 88.1577Z" fill-rule="evenodd" fill="#003849"/>
			<path id="Path_50101" d="M63.535 88.0105C63.711 85.1746 63.811 80.7046 67.269 79.8994C67.656 79.8086 67.493 79.2134 67.105 79.2996C63.316 80.1814 63.113 84.8694 62.917 88.0066C62.892 88.4065 63.51 88.4065 63.535 88.0066L63.535 88.0105Z" fill-rule="evenodd" fill="#003849"/>
			<path id="Path_50102" d="M63.886 83.9495C63.9536 83.0945 63.6771 82.2478 63.118 81.5974C62.6476 80.8691 61.9205 80.3445 61.081 80.1274C60.6595 80.0813 60.2374 80.2078 59.9108 80.4783C59.5842 80.7485 59.3812 81.1399 59.348 81.5625C59.3557 82.5129 59.9001 83.3772 60.754 83.7944C61.6129 84.4297 62.7208 84.623 63.744 84.3164C63.8902 84.2292 63.9396 84.0413 63.855 83.8936C63.7662 83.7495 63.5801 83.7007 63.432 83.7825C63.3107 83.824 63.1848 83.8508 63.057 83.8625C62.89 83.8721 62.7224 83.864 62.557 83.8386C62.152 83.7708 61.7604 83.6387 61.397 83.4475C60.786 83.1306 60.052 82.5754 59.963 81.8794C59.9413 81.5605 60.0458 81.2461 60.254 81.0034C60.3342 80.9041 60.4371 80.8252 60.554 80.7734C60.6589 80.7285 60.7736 80.7112 60.887 80.7234C60.904 80.7234 60.987 80.7324 60.965 80.7295L61.045 80.7456C61.1228 80.7639 61.1993 80.7874 61.274 80.8154C61.4137 80.8755 61.5475 80.9482 61.674 81.0325C61.9746 81.2373 62.2441 81.4846 62.474 81.7666C62.7386 82.0801 62.9557 82.4307 63.118 82.8076C63.1899 82.9841 63.2449 83.1675 63.282 83.3545C63.2967 83.429 63.3041 83.5046 63.304 83.5806C63.304 83.6226 63.304 83.6636 63.304 83.7046C63.304 83.7195 63.304 83.7344 63.304 83.7505C63.297 83.8506 63.315 83.6924 63.304 83.7864C63.2638 83.9504 63.3586 84.1172 63.52 84.1665C63.6844 84.21 63.8534 84.114 63.9 83.9504L63.886 83.9495Z" fill-rule="evenodd" fill="#003849"/>
			<path id="Path_50103" d="M60.809 81.9536C61.5615 82.7866 62.3995 83.5381 63.309 84.1958C63.4565 84.282 63.6459 84.2322 63.7321 84.0847C63.8182 83.9373 63.7685 83.7478 63.621 83.6616C62.7565 83.032 61.9607 82.3125 61.247 81.5156C61.1247 81.4033 60.9356 81.4075 60.8182 81.5249C60.7007 81.6423 60.6967 81.8313 60.809 81.9536L60.809 81.9536Z" fill-rule="evenodd" fill="#003849"/>
			<path id="Path_50104" d="M55.949 87.7126C55.0982 87.9934 54.3614 88.5425 53.849 89.2776C53.3757 90.0303 53.0825 90.8821 52.9921 91.7666C52.9534 91.9302 53.0476 92.0959 53.208 92.1465C53.3727 92.1907 53.5424 92.0945 53.5891 91.9307C53.6678 91.1309 53.9214 90.3584 54.332 89.6675C54.7581 89.0281 55.3856 88.5493 56.1151 88.3076C56.488 88.1765 56.328 87.5786 55.951 87.7075L55.949 87.7126Z" fill-rule="evenodd" fill="#003849"/>
			<path id="Path_50105" d="M245.793 104.242C247.898 110.461 250.026 116.673 252.177 122.877C254.151 128.577 256.135 134.277 258.185 139.949C258.871 141.849 259.552 143.749 260.301 145.622C260.329 145.712 260.396 145.786 260.484 145.822C260.572 145.857 260.672 145.852 260.755 145.807C264.289 144.222 267.976 142.966 271.619 141.66C276.262 139.996 280.912 138.346 285.505 136.546C287.995 135.57 290.469 134.546 292.905 133.446C293.026 133.375 293.084 133.232 293.047 133.097C289.785 123.031 286.495 112.987 282.579 103.153C281.318 99.9878 280.018 96.8376 278.704 93.6956C278.655 93.5339 278.488 93.439 278.324 93.4797C268.586 96.3076 258.955 99.4797 249.356 102.746C248.243 103.124 247.133 103.515 246.012 103.866C245.634 103.985 245.795 104.582 246.177 104.466C248.8 103.643 251.39 102.707 253.994 101.829C258.845 100.195 263.711 98.6084 268.594 97.0696C271.883 96.0396 275.183 95.043 278.494 94.0796L278.113 93.8638C282.154 103.527 285.886 113.273 289.177 123.218C290.284 126.562 291.377 129.912 292.456 133.266L292.598 132.917C283.887 136.881 274.748 139.786 265.798 143.135C263.998 143.808 262.205 144.497 260.453 145.282L260.908 145.467C259.279 141.393 257.863 137.228 256.408 133.092C254.2 126.829 252.023 120.556 249.876 114.273C248.712 110.879 247.555 107.484 246.404 104.087C246.277 103.712 245.679 103.873 245.804 104.251L245.793 104.242Z" fill-rule="evenodd" fill="#003849"/>
			<path id="Path_50106" d="M251.027 102.479C252.664 107.342 254.316 112.2 255.983 117.052C258.05 123.104 260.123 129.153 262.202 135.2C263.135 137.906 264.069 140.61 265.002 143.314C265.132 143.688 265.729 143.527 265.602 143.15C263.77 137.857 261.948 132.561 260.135 127.261C258.104 121.337 256.079 115.411 254.059 109.483C253.246 107.095 252.437 104.707 251.63 102.316C251.503 101.941 250.906 102.102 251.03 102.48L251.027 102.479Z" fill-rule="evenodd" fill="#003849"/>
			<path id="Path_50107" d="M267.723 109.154C264.286 110.354 263.257 110.589 261.279 112.506C260.228 113.557 260.228 115.288 261.959 115.412C263.875 115.536 266.596 114.299 268.389 113.619C270.305 112.877 272.16 112.012 273.953 111.146C275.004 110.59 276.24 110.032 276.179 108.735C276.055 106.509 272.222 107.25 267.724 109.154L267.723 109.154Z" fill-rule="evenodd" fill="#003849"/>
			<path id="Path_50108" d="M264.536 122.629C269.373 121.012 274.127 119.163 278.879 117.312C279.245 117.169 279.086 116.571 278.714 116.712C273.963 118.563 269.209 120.412 264.371 122.029C263.996 122.155 264.156 122.752 264.536 122.629Z" fill-rule="evenodd" fill="#003849"/>
			<path id="Path_50109" d="M263.231 119.873C268.068 118.255 272.822 116.406 277.574 114.555C277.94 114.412 277.781 113.814 277.409 113.955C272.658 115.806 267.904 117.656 263.066 119.272C262.691 119.398 262.851 119.995 263.231 119.873Z" fill-rule="evenodd" fill="#003849"/>
			<path id="Path_50110" d="M283.152 38.5254C280.711 41.1035 280.527 45.3625 282.026 48.4585C284.166 52.3145 288.761 54.0835 292.935 52.6584C296.568 51.219 299.126 47.9111 299.605 44.0325C299.809 40.1553 297.518 36.5798 293.91 35.1455C292.141 34.3665 290.16 34.21 288.291 34.7014C286.168 35.3623 284.336 36.7324 283.103 38.5825C282.871 38.9055 283.403 39.2153 283.637 38.8945C285.72 35.9944 289.068 34.3315 292.621 35.3374C296.046 36.2629 298.569 39.1709 299.003 42.6924C299.093 46.1836 297.304 49.4548 294.317 51.2634C292.486 52.4778 290.226 52.8606 288.097 52.3174C286.146 51.8599 284.407 50.7566 283.162 49.1865C281.126 46.2954 281.09 41.6035 283.586 38.9666C283.86 38.6775 283.423 38.2395 283.149 38.5286L283.152 38.5254Z" fill-rule="evenodd" fill="#003849"/>
			<path id="Path_50111" d="M285.365 40.2146C283.28 42.3618 283.575 46.8066 285.875 48.6448C287.975 50.2446 290.504 50.8806 292.946 49.4788C296.518 47.4348 298.356 42.4917 294.718 39.1377C293.427 37.8286 291.606 37.1863 289.779 37.3967C287.953 37.6069 286.325 38.6465 285.365 40.2146L285.365 40.2146Z" fill-rule="evenodd" fill="#5596A5"/>
			<path id="Path_50112" d="M286.752 46.1658C287.038 44.9658 287.325 43.7632 287.612 42.5579C287.705 42.1707 287.112 42.0068 287.012 42.3938C286.725 43.5938 286.439 44.7964 286.152 46.0017C286.06 46.3887 286.652 46.5537 286.752 46.1658Z" fill-rule="evenodd" fill="#003849"/>
			<path id="Path_50113" d="M289.613 47.5569C290.25 44.8867 290.927 42.2249 291.564 39.5569C291.657 39.1697 291.064 39.0059 290.964 39.3928C290.327 42.0637 289.65 44.7249 289.013 47.3928C288.921 47.7798 289.513 47.9438 289.613 47.5569Z" fill-rule="evenodd" fill="#003849"/>
			<path id="Path_50114" d="M293.192 44.9963C293.365 44.2695 293.497 43.5325 293.712 42.8154C293.757 42.6497 293.66 42.4788 293.494 42.4333C293.328 42.3882 293.157 42.4858 293.112 42.6514C292.897 43.3684 292.765 44.1055 292.592 44.8325C292.547 44.998 292.644 45.1692 292.81 45.2144C292.976 45.2598 293.147 45.1621 293.192 44.9963Z" fill-rule="evenodd" fill="#003849"/>
			<path id="Path_50115" d="M297.481 48.8789C300.374 49.9858 303.303 51.0059 306.242 51.9788C307.838 52.6243 309.541 52.9636 311.262 52.9788C312.162 52.9287 314.104 52.6367 314.408 51.5928C314.808 50.2188 312.524 49.2698 311.615 48.8618C309.397 47.9182 307.106 47.1565 304.764 46.5837C302.897 46.0422 300.999 45.6133 299.08 45.2998C298.691 45.2458 298.523 45.8418 298.915 45.8999C300.351 46.1323 301.773 46.4395 303.177 46.8198C305.375 47.343 307.544 47.9854 309.672 48.7439C310.602 49.0684 311.504 49.4653 312.372 49.9309C312.841 50.1919 313.572 50.5659 313.779 51.1057C314.1 51.9348 312.219 52.2439 311.671 52.3237C309.993 52.4312 308.312 52.1494 306.761 51.5007C303.701 50.4939 300.652 49.4319 297.644 48.2798C297.272 48.1379 297.111 48.7349 297.479 48.8799L297.481 48.8789Z" fill-rule="evenodd" fill="#003849"/>
			<path id="Path_50116" d="M109.033 107.781C106.333 99.5955 94.999 99.1045 88.55 102.757C87.7668 103.195 87.035 103.719 86.368 104.32C86.0327 104.623 85.7198 104.95 85.432 105.299C85.2 105.568 85.0858 105.92 85.115 106.275C85.045 108.028 84.989 109.781 84.936 111.533C84.7933 116.263 84.6743 120.994 84.579 125.725C84.4969 129.75 84.361 133.79 84.45 137.817C84.4523 137.926 84.5119 138.027 84.6071 138.081C84.7022 138.136 84.8191 138.137 84.915 138.083C90.558 135.376 97.4969 133.015 103.715 135.083C105.538 135.7 107.203 136.709 108.593 138.04C108.693 138.137 108.846 138.157 108.968 138.088C111.852 135.827 115.382 134.546 119.045 134.433C122.182 134.506 125.265 135.256 128.085 136.633C129.668 137.349 131.199 138.172 132.715 139.019C132.811 139.073 132.928 139.072 133.023 139.017C133.119 138.962 133.178 138.862 133.18 138.751L133.18 104.978C133.18 104.61 133.28 104.148 133.027 103.865C132.562 103.443 132.04 103.089 131.477 102.812C127.456 100.506 122.738 99.7275 118.189 100.622C114.209 101.37 109.64 103.58 108.433 107.782C108.388 107.948 108.485 108.119 108.651 108.165C108.817 108.21 108.988 108.112 109.033 107.947C109.903 104.917 112.775 102.978 115.601 101.961C119.15 100.714 122.989 100.546 126.633 101.478C128.837 102.034 130.907 103.028 132.72 104.399L132.567 104.133L132.567 138.758L133.032 138.49C127.398 135.34 121.067 132.515 114.532 134.506C112.416 135.182 110.431 136.214 108.662 137.558L109.037 137.605C106.592 135.32 103.427 133.959 100.086 133.758C96.6395 133.606 93.1975 134.144 89.961 135.338C88.1331 135.967 86.3445 136.706 84.605 137.55L85.071 137.817C84.998 134.56 85.095 131.294 85.155 128.039C85.2396 123.444 85.347 118.85 85.477 114.256C85.5317 112.305 85.5917 110.355 85.657 108.406C85.6823 107.667 85.7097 106.927 85.739 106.188C85.768 105.488 86.719 104.808 87.246 104.38C90.4137 102.033 94.3262 100.918 98.255 101.241C102.598 101.499 106.996 103.569 108.439 107.941C108.563 108.318 109.16 108.156 109.039 107.778L109.033 107.781Z" fill-rule="evenodd" fill="#003849"/>
			<path id="Path_50117" d="M108.424 107.864C108.424 116.057 108.494 124.25 108.527 132.444C108.533 134.064 108.537 135.685 108.541 137.306C108.542 137.476 108.739 137.614 108.983 137.614C109.226 137.614 109.423 137.476 109.424 137.306C109.424 129.113 109.354 120.919 109.321 112.726C109.314 111.105 109.31 109.485 109.307 107.865C109.306 107.694 109.109 107.557 108.865 107.557C108.622 107.557 108.425 107.694 108.424 107.865L108.424 107.864Z" fill-rule="evenodd" fill="#003849"/>
			<path id="Path_50118" d="M87.897 109.43C88.3677 108.785 89.1516 108.448 89.943 108.55C90.577 108.711 91.1591 109.056 91.783 109.25C93.283 109.72 94.337 109.168 95.614 108.431C96.3007 107.978 97.1064 107.739 97.929 107.744C98.8848 107.91 99.8027 108.247 100.639 108.739C101.344 109.158 102.161 109.348 102.978 109.285C103.817 109.127 104.458 108.479 105.278 108.263C105.444 108.217 105.541 108.046 105.496 107.881C105.451 107.715 105.28 107.617 105.114 107.663C104.251 107.889 103.504 108.678 102.6 108.702C101.585 108.559 100.612 108.197 99.75 107.642C98.3273 106.929 96.6332 107.025 95.3 107.894C94.7168 108.307 94.0661 108.615 93.377 108.806C92.5335 108.863 91.6913 108.676 90.951 108.268C90.4557 108.002 89.9008 107.868 89.3391 107.878C88.6063 108.027 87.9445 108.417 87.459 108.986C87.174 109.264 87.611 109.701 87.897 109.424L87.897 109.43Z" fill-rule="evenodd" fill="#003849"/>
			<path id="Path_50119" d="M87.897 113.576C88.3679 112.932 89.1518 112.595 89.943 112.697C90.577 112.858 91.1591 113.203 91.783 113.397C93.283 113.867 94.337 113.315 95.614 112.577C96.3007 112.124 97.1064 111.885 97.929 111.891C98.8848 112.056 99.8027 112.393 100.639 112.885C101.344 113.303 102.161 113.493 102.978 113.431C103.817 113.275 104.458 112.625 105.278 112.409C105.444 112.363 105.541 112.192 105.496 112.027C105.451 111.861 105.28 111.763 105.114 111.809C104.251 112.036 103.503 112.824 102.6 112.848C101.585 112.705 100.612 112.343 99.75 111.788C98.3273 111.075 96.6332 111.171 95.3 112.04C94.717 112.453 94.0662 112.762 93.377 112.952C92.5336 113.009 91.6914 112.823 90.951 112.415C90.4557 112.149 89.9008 112.015 89.3391 112.025C88.6063 112.173 87.9445 112.563 87.459 113.132C87.173 113.41 87.611 113.847 87.897 113.57L87.897 113.576Z" fill-rule="evenodd" fill="#003849"/>
			<path id="Path_50120" d="M87.897 117.722C88.3678 117.078 89.1517 116.741 89.943 116.843C90.577 117.004 91.1591 117.349 91.783 117.543C93.283 118.013 94.337 117.461 95.614 116.724C96.3007 116.271 97.1063 116.031 97.929 116.037C98.8848 116.203 99.8027 116.54 100.639 117.032C101.344 117.45 102.161 117.641 102.978 117.578C103.817 117.419 104.458 116.772 105.278 116.556C105.444 116.51 105.541 116.339 105.496 116.174C105.451 116.008 105.28 115.91 105.114 115.956C104.251 116.183 103.504 116.971 102.6 116.995C101.585 116.852 100.612 116.49 99.75 115.935C98.3273 115.222 96.6332 115.318 95.3 116.187C94.7168 116.6 94.0661 116.909 93.377 117.099C92.5335 117.156 91.6914 116.969 90.951 116.561C90.4557 116.296 89.9008 116.161 89.3391 116.171C88.6063 116.319 87.9445 116.709 87.459 117.278C87.173 117.556 87.611 117.993 87.897 117.716L87.897 117.722Z" fill-rule="evenodd" fill="#003849"/>
			<path id="Path_50121" d="M87.897 121.87C88.3677 121.225 89.1516 120.888 89.943 120.99C90.577 121.152 91.1591 121.496 91.783 121.69C93.283 122.16 94.337 121.608 95.614 120.87C96.3007 120.417 97.1064 120.177 97.929 120.183C98.8848 120.349 99.8027 120.686 100.639 121.177C101.344 121.596 102.161 121.786 102.978 121.724C103.817 121.568 104.459 120.917 105.278 120.702C105.444 120.656 105.541 120.485 105.496 120.32C105.451 120.154 105.28 120.056 105.114 120.102C104.252 120.329 103.503 121.118 102.6 121.141C101.585 120.998 100.612 120.636 99.75 120.081C98.3273 119.368 96.6332 119.464 95.3 120.333C94.7168 120.746 94.0661 121.054 93.377 121.245C92.5334 121.302 91.6912 121.115 90.951 120.707C90.4557 120.441 89.9008 120.307 89.3391 120.317C88.6063 120.466 87.9445 120.856 87.459 121.425C87.174 121.703 87.611 122.14 87.897 121.863L87.897 121.87Z" fill-rule="evenodd" fill="#003849"/>
			<path id="Path_50122" d="M87.897 126.016C88.3678 125.372 89.1517 125.035 89.943 125.137C90.577 125.298 91.1591 125.643 91.783 125.837C93.283 126.307 94.337 125.755 95.614 125.017C96.3007 124.564 97.1064 124.325 97.929 124.331C98.8848 124.497 99.8029 124.834 100.639 125.326C101.344 125.744 102.161 125.934 102.978 125.872C103.817 125.716 104.458 125.066 105.278 124.85C105.444 124.804 105.541 124.633 105.496 124.468C105.451 124.302 105.28 124.204 105.114 124.25C104.251 124.477 103.504 125.265 102.6 125.289C101.585 125.146 100.612 124.784 99.75 124.229C98.3273 123.516 96.6332 123.612 95.3 124.481C94.717 124.894 94.0662 125.203 93.377 125.393C92.5336 125.45 91.6914 125.264 90.951 124.856C90.4557 124.591 89.9008 124.456 89.3391 124.466C88.6063 124.614 87.9445 125.004 87.459 125.573C87.173 125.851 87.611 126.288 87.897 126.011L87.897 126.016Z" fill-rule="evenodd" fill="#003849"/>
			<path id="Path_50123" d="M87.897 130.163C88.3677 129.518 89.1516 129.181 89.943 129.283C90.577 129.444 91.1591 129.789 91.783 129.983C93.283 130.453 94.337 129.901 95.614 129.164C96.3007 128.711 97.1064 128.472 97.929 128.477C98.8848 128.643 99.8027 128.98 100.639 129.472C101.344 129.891 102.161 130.081 102.978 130.018C103.817 129.86 104.458 129.212 105.278 128.996C105.444 128.95 105.541 128.779 105.496 128.614C105.451 128.448 105.28 128.35 105.114 128.396C104.251 128.623 103.504 129.411 102.6 129.435C101.585 129.292 100.612 128.93 99.75 128.375C98.3273 127.662 96.6332 127.758 95.3 128.627C94.7168 129.04 94.0661 129.349 93.3771 129.539C92.5335 129.596 91.6913 129.409 90.951 129.001C90.4557 128.736 89.9008 128.601 89.3391 128.611C88.6063 128.76 87.9445 129.15 87.459 129.719C87.174 129.997 87.611 130.434 87.897 130.157L87.897 130.163Z" fill-rule="evenodd" fill="#003849"/>
			<path id="Path_50124" d="M111.615 109.43C112.086 108.785 112.87 108.448 113.661 108.55C114.295 108.711 114.877 109.056 115.502 109.25C117.002 109.72 118.056 109.168 119.332 108.431C120.019 107.978 120.824 107.739 121.647 107.744C122.603 107.91 123.521 108.247 124.357 108.739C125.062 109.156 125.878 109.347 126.695 109.285C127.534 109.129 128.176 108.479 128.995 108.263C129.161 108.217 129.258 108.046 129.213 107.881C129.168 107.715 128.997 107.617 128.831 107.663C127.968 107.889 127.221 108.678 126.317 108.702C125.302 108.559 124.329 108.197 123.467 107.642C122.044 106.929 120.35 107.025 119.017 107.894C118.434 108.307 117.783 108.615 117.094 108.806C116.25 108.863 115.408 108.676 114.668 108.268C114.173 108.002 113.618 107.868 113.056 107.878C112.323 108.027 111.661 108.417 111.175 108.986C110.889 109.264 111.327 109.701 111.613 109.424L111.615 109.43Z" fill-rule="evenodd" fill="#003849"/>
			<path id="Path_50125" d="M111.615 113.576C112.086 112.932 112.87 112.595 113.661 112.697C114.295 112.858 114.877 113.203 115.502 113.397C117.002 113.867 118.056 113.315 119.332 112.577C120.019 112.124 120.824 111.885 121.647 111.891C122.603 112.056 123.521 112.393 124.357 112.885C125.062 113.302 125.878 113.493 126.695 113.431C127.534 113.275 128.176 112.625 128.995 112.409C129.161 112.363 129.258 112.192 129.213 112.027C129.168 111.861 128.997 111.763 128.831 111.809C127.968 112.036 127.22 112.824 126.317 112.848C125.302 112.705 124.329 112.343 123.467 111.788C122.044 111.075 120.35 111.171 119.017 112.04C118.434 112.453 117.783 112.762 117.094 112.952C116.251 113.009 115.408 112.823 114.668 112.415C114.173 112.149 113.618 112.015 113.056 112.025C112.323 112.173 111.661 112.563 111.175 113.132C110.889 113.41 111.327 113.847 111.613 113.57L111.615 113.576Z" fill-rule="evenodd" fill="#003849"/>
			<path id="Path_50126" d="M111.615 117.722C112.086 117.078 112.87 116.741 113.661 116.843C114.295 117.004 114.877 117.349 115.502 117.543C117.002 118.013 118.056 117.461 119.332 116.724C120.019 116.271 120.824 116.031 121.647 116.037C122.603 116.203 123.521 116.54 124.357 117.032C125.062 117.449 125.878 117.64 126.695 117.578C127.534 117.421 128.176 116.772 128.995 116.556C129.161 116.51 129.258 116.339 129.213 116.174C129.168 116.008 128.997 115.91 128.831 115.956C127.968 116.183 127.221 116.971 126.317 116.995C125.302 116.852 124.329 116.49 123.467 115.935C122.044 115.222 120.35 115.318 119.017 116.187C118.434 116.6 117.783 116.908 117.094 117.099C116.25 117.156 115.408 116.969 114.668 116.561C114.173 116.295 113.618 116.161 113.056 116.171C112.323 116.319 111.661 116.709 111.175 117.278C110.889 117.556 111.327 117.993 111.613 117.716L111.615 117.722Z" fill-rule="evenodd" fill="#003849"/>
			<path id="Path_50127" d="M111.615 121.87C112.086 121.225 112.87 120.888 113.661 120.99C114.295 121.152 114.877 121.496 115.502 121.69C117.002 122.16 118.056 121.608 119.332 120.87C120.019 120.417 120.824 120.178 121.647 120.183C122.603 120.349 123.521 120.686 124.357 121.177C125.062 121.595 125.878 121.786 126.695 121.724C127.534 121.568 128.176 120.917 128.995 120.702C129.161 120.656 129.258 120.485 129.213 120.32C129.168 120.154 128.997 120.056 128.831 120.102C127.969 120.329 127.22 121.118 126.317 121.141C125.302 120.998 124.329 120.636 123.467 120.081C122.044 119.368 120.35 119.464 119.017 120.333C118.434 120.746 117.783 121.054 117.094 121.245C116.25 121.302 115.408 121.115 114.668 120.707C114.173 120.441 113.618 120.307 113.056 120.317C112.323 120.466 111.661 120.856 111.175 121.425C110.889 121.703 111.327 122.14 111.613 121.863L111.615 121.87Z" fill-rule="evenodd" fill="#003849"/>
			<path id="Path_50128" d="M111.615 126.016C112.086 125.372 112.87 125.035 113.661 125.137C114.295 125.298 114.877 125.643 115.502 125.837C117.002 126.307 118.056 125.755 119.332 125.017C120.019 124.564 120.824 124.325 121.647 124.331C122.603 124.497 123.521 124.834 124.357 125.326C125.062 125.743 125.878 125.934 126.695 125.872C127.534 125.716 128.176 125.066 128.995 124.85C129.161 124.804 129.258 124.633 129.213 124.468C129.168 124.302 128.997 124.204 128.831 124.25C127.968 124.477 127.22 125.265 126.317 125.289C125.301 125.146 124.329 124.784 123.467 124.229C122.044 123.516 120.35 123.612 119.017 124.481C118.434 124.894 117.783 125.203 117.094 125.393C116.251 125.45 115.408 125.264 114.668 124.856C114.173 124.591 113.618 124.456 113.056 124.466C112.323 124.614 111.661 125.004 111.175 125.573C110.889 125.851 111.327 126.288 111.613 126.011L111.615 126.016Z" fill-rule="evenodd" fill="#003849"/>
			<path id="Path_50129" d="M111.615 130.163C112.086 129.518 112.87 129.181 113.661 129.282C114.295 129.444 114.877 129.789 115.502 129.982C117.002 130.453 118.056 129.901 119.332 129.164C120.019 128.711 120.824 128.472 121.647 128.477C122.603 128.643 123.521 128.98 124.357 129.471C125.062 129.889 125.878 130.08 126.695 130.018C127.534 129.862 128.176 129.211 128.995 128.996C129.161 128.95 129.258 128.779 129.213 128.614C129.168 128.448 128.997 128.35 128.831 128.396C127.968 128.623 127.221 129.411 126.317 129.435C125.302 129.292 124.329 128.93 123.467 128.375C122.044 127.662 120.35 127.758 119.017 128.626C118.434 129.04 117.783 129.348 117.094 129.539C116.25 129.596 115.408 129.409 114.668 129C114.173 128.735 113.618 128.601 113.056 128.611C112.323 128.76 111.661 129.15 111.175 129.719C110.889 129.997 111.327 130.434 111.613 130.156L111.615 130.163Z" fill-rule="evenodd" fill="#003849"/>
			<path id="Path_50130" d="M294.716 94.7366C290.855 88.1987 290.334 79.3757 294.058 72.6548C295.793 69.4224 298.65 66.9353 302.09 65.6616C306.404 64.1572 311.14 64.4404 315.244 66.4487C317.437 67.5903 319.393 69.1372 321.01 71.0076C321.89 72.0073 322.697 73.0688 323.425 74.1836C324.382 75.5735 325.232 77.0344 325.966 78.5537L326.076 78.1306C322.276 80.2976 318.368 82.2766 314.486 84.2866C309.63 86.8 304.763 89.2949 299.886 91.7717C298.019 92.7231 296.153 93.6743 294.286 94.6257C293.932 94.8076 294.244 95.3406 294.598 95.1597C298.491 93.1677 302.387 91.1797 306.284 89.1958C311.152 86.7046 316.017 84.2087 320.853 81.6567C322.706 80.6787 324.561 79.7026 326.381 78.6648C326.524 78.5754 326.573 78.3899 326.492 78.2417C325.809 76.8328 325.027 75.4749 324.15 74.1777C323.495 73.1528 322.778 72.1685 322.004 71.2297C320.541 69.4243 318.792 67.8704 316.827 66.6296C312.808 64.2139 307.996 63.4883 303.444 64.6118C299.736 65.5293 296.501 67.792 294.368 70.9607C292.238 74.2156 291.053 77.998 290.946 81.8867C290.735 86.4929 291.857 91.062 294.175 95.0479C294.261 95.1951 294.451 95.2446 294.598 95.1587C294.745 95.0725 294.795 94.8831 294.709 94.7356L294.716 94.7366Z" fill-rule="evenodd" fill="#003849"/>
			<path id="Path_50131" d="M299.4 87.2495C297.078 83.3191 296.929 78.4736 299.006 74.4084C300.021 72.5068 301.705 71.0493 303.733 70.3174C306.246 69.4614 308.997 69.6477 311.372 70.8345C314.136 72.45 316.303 74.9155 317.551 77.8635C317.588 77.7224 317.625 77.5815 317.662 77.4404C312.65 80.2974 307.434 82.8264 302.295 85.4453C301.188 86.0095 300.082 86.5735 298.977 87.1375C298.623 87.3193 298.935 87.8525 299.289 87.6714C304.431 85.0415 309.589 82.4414 314.698 79.7476C315.798 79.1675 316.898 78.5884 317.975 77.9734C318.119 77.8845 318.168 77.6985 318.086 77.5505C316.883 74.7998 314.933 72.4412 312.458 70.7415C310.073 69.271 307.201 68.8101 304.475 69.4604C299.769 70.5535 297.184 75.0864 296.956 79.6604C296.814 82.4233 297.478 85.168 298.867 87.5605C298.953 87.7078 299.143 87.7576 299.29 87.6714C299.438 87.5852 299.487 87.396 299.401 87.2485L299.4 87.2495Z" fill-rule="evenodd" fill="#003849"/>
			<path id="Path_50132" d="M296.852 90.1865C297.302 90.9946 297.536 91.9045 298.009 92.7007C298.095 92.8481 298.285 92.8977 298.432 92.8115C298.579 92.7253 298.629 92.5361 298.543 92.3887C298.07 91.5886 297.836 90.6826 297.386 89.8745C297.192 89.5266 296.658 89.8386 296.852 90.1865L296.852 90.1865Z" fill-rule="evenodd" fill="#003849"/>
			<path id="Path_50133" d="M303.842 87.7727C304.102 88.3638 304.405 88.9353 304.747 89.4827C304.803 89.5781 304.905 89.6367 305.016 89.636C305.126 89.6355 305.228 89.5759 305.283 89.48C305.337 89.384 305.337 89.2661 305.281 89.1707C304.939 88.623 304.636 88.0518 304.376 87.4607C304.289 87.3142 304.101 87.2646 303.953 87.3499C303.809 87.4385 303.76 87.6248 303.842 87.7727L303.842 87.7727Z" fill-rule="evenodd" fill="#003849"/>
			<path id="Path_50134" d="M310.882 84.1013C311.031 84.4014 311.202 84.6814 311.359 84.9734C311.515 85.2434 311.632 85.5342 311.706 85.8374C311.751 86.0029 311.922 86.1006 312.088 86.0554C312.254 86.01 312.351 85.8391 312.306 85.6733C312.085 85.0129 311.788 84.3806 311.42 83.7893C311.333 83.6428 311.145 83.5933 310.997 83.6782C310.853 83.7668 310.804 83.9534 310.886 84.1013L310.882 84.1013Z" fill-rule="evenodd" fill="#003849"/>
			<path id="Path_50135" d="M317.167 80.8967C317.173 80.9048 317.242 80.9968 317.212 80.9539L317.285 81.0537C317.334 81.1204 317.381 81.187 317.428 81.2539C317.52 81.3872 317.608 81.5242 317.692 81.6648C317.866 81.9507 318.024 82.2449 318.174 82.5437C318.261 82.6899 318.449 82.7393 318.597 82.6548C318.741 82.5659 318.79 82.3799 318.708 82.2317C318.404 81.6042 318.035 81.01 317.608 80.4587C317.487 80.3386 317.292 80.3386 317.171 80.4587C317.055 80.5818 317.055 80.7739 317.171 80.8967L317.167 80.8967Z" fill-rule="evenodd" fill="#003849"/>
			<path id="Path_50136" d="M324.37 75.3308C323.804 75.6399 323.237 75.9468 322.66 76.2358C322.514 76.323 322.464 76.5112 322.549 76.6589C322.638 76.8022 322.824 76.8511 322.972 76.7698C323.548 76.481 324.115 76.1699 324.681 75.865C324.828 75.7781 324.877 75.5894 324.792 75.4419C324.703 75.2976 324.517 75.2485 324.369 75.3308L324.37 75.3308Z" fill-rule="evenodd" fill="#003849"/>
			<path id="Path_50137" d="M319.731 69.6968C319.166 70.2087 318.556 70.6677 317.971 71.1548C317.851 71.2759 317.851 71.4714 317.971 71.5928C318.094 71.7087 318.285 71.7087 318.408 71.5928C318.994 71.1057 319.608 70.6467 320.168 70.1338C320.288 70.0127 320.288 69.8179 320.168 69.6968C320.046 69.5803 319.853 69.5803 319.731 69.6968L319.731 69.6968Z" fill-rule="evenodd" fill="#003849"/>
			<path id="Path_50138" d="M313.347 65.3848C312.987 65.8999 312.647 66.4299 312.291 66.9438C312.206 67.0916 312.256 67.2798 312.402 67.3669C312.55 67.4487 312.736 67.3997 312.825 67.2559C313.185 66.7419 313.525 66.2119 313.881 65.6968C313.966 65.5493 313.917 65.3606 313.77 65.2739C313.622 65.1921 313.436 65.241 313.347 65.3848Z" fill-rule="evenodd" fill="#003849"/>
			<path id="Path_50139" d="M305.923 64.6538C305.774 65.2959 305.569 65.9229 305.423 66.5649C305.378 66.7305 305.475 66.9016 305.641 66.9468C305.807 66.9922 305.978 66.8945 306.023 66.7288C306.172 66.0869 306.377 65.46 306.523 64.8179C306.568 64.6521 306.471 64.4812 306.305 64.4358C306.139 64.3906 305.968 64.4883 305.923 64.6538Z" fill-rule="evenodd" fill="#003849"/>
			<path id="Path_50140" d="M298.007 67.8198C298.402 68.2627 298.868 68.6338 299.264 69.0767C299.385 69.1963 299.58 69.1963 299.701 69.0767C299.818 68.9541 299.818 68.7612 299.701 68.6387C299.301 68.1968 298.839 67.8247 298.444 67.3816C298.323 67.2622 298.128 67.2622 298.007 67.3816C297.889 67.5039 297.889 67.6973 298.007 67.8196L298.007 67.8198Z" fill-rule="evenodd" fill="#003849"/>
			<path id="Path_50141" d="M293.265 74.4875C293.776 74.6672 294.296 74.8184 294.824 74.9404C294.931 74.97 295.046 74.9402 295.125 74.8621C295.204 74.7839 295.236 74.6694 295.208 74.562C295.18 74.4543 295.096 74.3699 294.989 74.3406C294.461 74.2183 293.941 74.0671 293.43 73.8875C293.266 73.8438 293.096 73.9397 293.049 74.1035C293.008 74.2676 293.103 74.4351 293.265 74.4834L293.265 74.4875Z" fill-rule="evenodd" fill="#003849"/>
			<path id="Path_50142" d="M291.436 82.5771C292.153 82.5146 292.868 82.4414 293.58 82.3179C293.744 82.262 293.841 82.0542 293.796 81.853C293.747 81.655 293.58 81.5388 293.416 81.5886C292.766 81.7012 292.097 81.7625 291.437 81.821C291.326 81.8206 291.224 81.8926 291.169 82.0098C291.113 82.127 291.113 82.2712 291.169 82.3884C291.224 82.5056 291.326 82.5776 291.437 82.5771L291.436 82.5771Z" fill-rule="evenodd" fill="#003849"/>
			<path id="Path_50143" d="M292.674 89.8757C293.231 89.6785 293.776 89.45 294.307 89.1917C294.453 89.1045 294.502 88.916 294.417 88.7686C294.328 88.6248 294.142 88.5759 293.994 88.6577C293.867 88.7207 293.739 88.7827 293.61 88.8406L293.428 88.9207L293.35 88.9546L293.293 88.9788C293.033 89.0847 292.771 89.1846 292.508 89.2786C292.342 89.3242 292.245 89.4954 292.29 89.6611C292.336 89.8269 292.507 89.9243 292.673 89.8787L292.674 89.8757Z" fill-rule="evenodd" fill="#003849"/>
			<path id="Path_50144" d="M91.49 79.6995C92.49 75.2085 87.979 70.8044 88.162 66.0356C88.382 61.5356 92.108 59.4106 96.287 60.1755C101.169 61.1755 105.02 64.8364 104.487 70.2686C104.115 74.0596 100.936 76.1145 98.538 78.5686C97.7137 79.397 97.0346 80.3579 96.529 81.4116L91.49 79.6995Z" fill-rule="evenodd" fill="#FFD066"/>
			<path id="Path_50145" d="M96.176 81.2256C94.876 80.7876 93.528 80.4446 92.254 79.9197C91.3105 79.47 90.2618 79.2878 89.222 79.3926C88.637 79.4775 87.854 79.7395 87.755 80.4197C87.624 81.3105 88.731 81.9465 89.366 82.3027L89.44 81.7375C88.567 81.9375 87.205 82.2776 86.797 83.1926C86.297 84.3147 87.913 85.0186 88.681 85.3396L88.681 84.7395C87.857 85.0457 85.981 85.7346 86.524 86.9656C86.7905 87.4329 87.1935 87.8076 87.679 88.0396C88.3569 88.4172 89.0646 88.7385 89.795 89.0007C91.2618 89.592 92.7909 90.0154 94.353 90.2627C95.178 90.3735 96.501 90.3625 96.7419 89.3347C96.983 88.3066 95.955 87.3347 95.177 86.8516L95.021 87.4277C96.014 87.4055 97.5439 87.1396 97.5129 85.8467C97.3284 84.7925 96.6086 83.9102 95.613 83.5176L95.375 84.0825C96.199 84.2827 98.402 84.7417 98.613 83.4036C98.801 82.2036 97.046 81.4875 96.178 81.2217C95.797 81.1047 95.633 81.7017 96.013 81.8215C96.5446 81.9656 97.045 82.2065 97.489 82.5327C97.689 82.6897 98.042 82.9976 98.006 83.2917C97.906 84.0786 95.913 83.5806 95.54 83.4917C95.213 83.4126 94.975 83.8916 95.302 84.0566C96.0537 84.3496 96.6344 84.9644 96.884 85.7317C97.047 86.6997 95.67 86.8005 95.0229 86.8147C94.8859 86.8191 94.7677 86.9124 94.7318 87.0449C94.696 87.1772 94.7509 87.3176 94.8669 87.3906C95.406 87.7266 96.133 88.3276 96.155 89.0295C96.181 89.8516 94.894 89.7297 94.384 89.6536C93.1838 89.4412 92.0031 89.1301 90.854 88.7236C89.6905 88.4077 88.5849 87.9082 87.579 87.2437C87.321 87.0527 86.929 86.7437 87.103 86.3816C87.376 85.8215 88.327 85.5337 88.847 85.3406C88.981 85.3025 89.0733 85.1799 89.0733 85.0405C89.0733 84.9014 88.981 84.7788 88.847 84.7407C88.409 84.5576 86.886 83.9617 87.475 83.2727C88.0765 82.7546 88.8181 82.4265 89.606 82.3296C89.724 82.2944 89.8103 82.1931 89.8263 82.071C89.8423 81.949 89.785 81.8291 89.68 81.7646C89.36 81.5847 88.043 80.9055 88.436 80.3647C88.777 79.8906 89.764 79.9407 90.259 79.9856C91.1594 80.1492 92.0356 80.4253 92.867 80.8076C93.907 81.1736 94.967 81.4707 96.014 81.8206C96.392 81.9478 96.555 81.3506 96.179 81.2207L96.176 81.2256Z" fill-rule="evenodd" fill="#003849"/>
			<path id="Path_50146" d="M88.866 82.2263L93.784 83.8933C94.162 84.0215 94.324 83.4243 93.948 83.2935L89.031 81.6243C88.653 81.4963 88.491 82.0923 88.866 82.2244L88.866 82.2263Z" fill-rule="evenodd" fill="#003849"/>
			<path id="Path_50147" d="M90.879 86.0437L94.938 87.4207C95.316 87.5486 95.478 86.9526 95.103 86.8206L91.044 85.4436C90.666 85.3157 90.504 85.9126 90.88 86.0437L90.879 86.0437Z" fill-rule="evenodd" fill="#003849"/>
			<path id="Path_50148" d="M92.723 80.1318C93.5597 79.136 94.1219 77.9387 94.354 76.6589C94.4836 75.5305 94.5331 74.3943 94.502 73.2588C94.6926 71.9512 94.6455 70.6199 94.363 69.3289C94.2281 68.7576 93.8293 68.2844 93.289 68.0549C92.6358 67.864 91.9303 68.0276 91.428 68.4868C90.3 69.6428 91.428 71.7148 92.544 72.408C94.806 73.8079 96.444 71.2598 97.312 69.5139L96.736 69.3579C96.676 70.6978 96.684 72.9209 98.091 73.6309C99.361 74.2708 100.723 73.2549 101.168 72.085C101.458 71.3228 101.468 69.6689 100.203 70.0159C99.5078 70.3123 98.9189 70.8127 98.514 71.4509C97.8979 72.2722 97.3807 73.1633 96.973 74.106C96.0159 76.2878 95.3139 78.573 94.881 80.9158C94.806 81.3049 95.402 81.4709 95.481 81.0798C95.7795 79.5337 96.1838 78.0098 96.691 76.5188C97.1936 74.8745 97.9504 73.3191 98.934 71.9089C99.244 71.4968 100.834 69.7188 100.734 71.23C100.709 72.2878 99.8647 73.1436 98.807 73.1819C97.236 73.0818 97.301 70.4629 97.35 69.356C97.3471 69.218 97.2536 69.0984 97.1204 69.0623C96.9872 69.0264 96.8462 69.0823 96.774 69.2C96.13 70.4998 95.012 72.751 93.207 72.0508C92.5427 71.7637 92.0262 71.2151 91.7791 70.5349C91.579 70.0349 91.452 69.2549 91.927 68.8569C92.3462 68.5186 92.9396 68.501 93.3781 68.814C93.7012 69.1943 93.8902 69.6704 93.916 70.1689C94.0076 71.187 93.9962 72.2119 93.882 73.2278C93.827 74.2068 93.951 75.1689 93.809 76.1509C93.6429 77.4519 93.1137 78.6797 92.282 79.6938C92.0281 79.9939 92.463 80.4358 92.7191 80.1318L92.723 80.1318Z" fill-rule="evenodd" fill="#003849"/>
			<path id="Path_50149" d="M326.212 20.7156C321.703 20.3245 317.444 22.842 315.612 26.9807C313.854 30.9111 314.456 35.4963 317.169 38.8396C320.674 42.6509 325.989 44.2297 331.006 42.9507C333.395 42.2947 335.426 40.7173 336.653 38.5647C337.854 36.301 338.362 33.7341 338.116 31.1836C337.955 28.915 337.087 26.7542 335.634 25.0046C333.795 22.9934 331.358 21.6284 328.682 21.1116C327.868 20.9316 327.044 20.7981 326.215 20.7117C325.82 20.6687 325.823 21.2876 326.215 21.3296C329.085 21.5193 331.831 22.5674 334.098 24.3376C335.749 25.7693 336.878 27.7095 337.306 29.8525C338.247 34.3977 336.639 39.8357 332.183 41.8667C327.904 43.8176 322.064 42.5437 318.627 39.4546C315.631 36.6794 314.489 32.4329 315.691 28.5295C316.956 23.8718 321.415 20.821 326.215 21.3296C326.615 21.3567 326.615 20.7385 326.215 20.7117L326.212 20.7156Z" fill-rule="evenodd" fill="#003849"/>
			<path id="Path_50150" d="M326.286 23.8269C323.009 23.5447 319.917 25.3799 318.594 28.3909C317.328 31.2422 317.774 34.5637 319.748 36.9797C322.293 39.7378 326.15 40.8708 329.782 39.9277C333.492 38.8567 335.21 35.0918 334.907 31.4377C334.784 29.5652 333.991 27.7996 332.673 26.4639C330.901 24.8938 328.653 23.9639 326.289 23.8228C325.894 23.7788 325.897 24.3977 326.289 24.4409C329.911 24.8408 333.367 26.6709 334.155 30.4878C334.821 33.7129 333.677 37.5728 330.508 39.0049C327.209 40.2571 323.488 39.5723 320.851 37.2278C318.759 35.2471 317.979 32.2476 318.841 29.4988C319.803 26.2546 322.919 24.1389 326.289 24.4409C326.689 24.4668 326.689 23.8489 326.289 23.8228L326.286 23.8269Z" fill-rule="evenodd" fill="#003849"/>
			<path id="Path_50151" d="M353.614 30.7734C349.102 30.3784 344.839 32.896 343.006 37.0376C341.248 40.968 341.85 45.5532 344.563 48.8965C348.069 52.7104 353.386 54.2908 358.405 53.0105C360.794 52.3542 362.825 50.7769 364.052 48.6245C365.252 46.3606 365.761 43.7939 365.514 41.2434C365.353 38.9749 364.485 36.814 363.032 35.0645C361.193 33.0535 358.755 31.6882 356.08 31.1716C355.266 30.9912 354.442 30.8577 353.613 30.7715C353.218 30.7285 353.221 31.3474 353.613 31.3894C356.483 31.5791 359.229 32.6272 361.496 34.3975C363.148 35.8291 364.276 37.769 364.704 39.9126C365.645 44.4575 364.038 49.8955 359.581 51.9255C355.302 53.8765 349.462 52.6025 346.025 49.5134C343.028 46.7385 341.887 42.4917 343.089 38.5886C344.354 33.9307 348.813 30.8801 353.613 31.3884C354.013 31.4155 354.013 30.7976 353.613 30.7705L353.614 30.7734Z" fill-rule="evenodd" fill="#003849"/>
			<path id="Path_50152" d="M353.683 33.887C350.406 33.6047 347.314 35.4399 345.991 38.4509C344.724 41.3022 345.17 44.624 347.145 47.0398C349.69 49.7959 353.544 50.9285 357.175 49.9868C360.885 48.9158 362.603 45.1499 362.3 41.4958C362.175 39.6243 361.381 37.8601 360.063 36.5259C358.291 34.9558 356.043 34.0259 353.679 33.8848C353.284 33.8408 353.287 34.46 353.679 34.5029C357.301 34.9028 360.757 36.7329 361.545 40.5498C362.211 43.7749 361.067 47.6348 357.898 49.0669C354.599 50.3196 350.878 49.6348 348.241 47.2898C346.15 45.3091 345.37 42.3096 346.231 39.5608C347.193 36.3167 350.309 34.2004 353.679 34.502C354.079 34.5278 354.079 33.9099 353.679 33.8838L353.683 33.887Z" fill-rule="evenodd" fill="#003849"/>
			<path id="Path_50153" d="M338.096 34.2026C339.925 33.0667 342.531 34.2446 343.496 35.9968C343.688 36.3447 344.223 36.0337 344.03 35.6848C342.903 33.6428 339.892 32.3577 337.781 33.6687C337.444 33.8787 337.754 34.4138 338.094 34.2026L338.096 34.2026Z" fill-rule="evenodd" fill="#003849"/>
			<path id="Path_50154" d="M337.626 36.5579C339.346 35.4067 341.771 36.4937 342.642 38.2097C342.822 38.5647 343.355 38.2527 343.176 37.8977C342.159 35.8977 339.302 34.6978 337.314 36.0237C336.985 36.2437 337.294 36.7798 337.626 36.5579Z" fill-rule="evenodd" fill="#003849"/>
			<path id="Path_50155" d="M321.235 29.9006L326.63 27.4006C326.991 27.2336 326.677 26.7007 326.317 26.8667L320.922 29.3667C320.562 29.5337 320.875 30.0667 321.235 29.9006Z" fill-rule="evenodd" fill="#003849"/>
			<path id="Path_50156" d="M323.049 33.3335C325.543 32.1775 328.026 30.9976 330.521 29.8416C330.881 29.6746 330.568 29.1416 330.209 29.3076C327.715 30.4636 325.231 31.6436 322.737 32.7996C322.377 32.9666 322.69 33.4995 323.05 33.3335L323.049 33.3335Z" fill-rule="evenodd" fill="#003849"/>
			<path id="Path_50157" d="M326.924 35.1648C327.665 34.8528 328.384 34.4927 329.114 34.1548C329.26 34.0674 329.309 33.8792 329.224 33.7317C329.136 33.5869 328.949 33.5378 328.801 33.6208C328.12 33.9377 327.451 34.2788 326.759 34.5698C326.598 34.6199 326.504 34.7861 326.543 34.9497C326.59 35.1138 326.759 35.21 326.924 35.1658L326.924 35.1648Z" fill-rule="evenodd" fill="#003849"/>
			<path id="Path_50158" d="M348.123 41.5706L355.317 38.2395C355.678 38.0725 355.364 37.5396 355.005 37.7056L347.811 41.0364C347.451 41.2034 347.764 41.7366 348.123 41.5706Z" fill-rule="evenodd" fill="#003849"/>
			<path id="Path_50159" d="M352.642 44.9397C354.042 44.2603 355.453 43.6072 356.874 42.9805C357.021 42.8938 357.07 42.7051 356.985 42.5576C356.896 42.4133 356.71 42.3643 356.562 42.4465C355.139 43.074 353.729 43.7268 352.33 44.4055C351.972 44.5796 352.286 45.1125 352.642 44.9397Z" fill-rule="evenodd" fill="#003849"/>
			<path id="Path_50160" d="M356.75 46.1616L357.125 45.9438C357.161 45.9199 357.191 45.885 357.213 45.8428C357.241 45.8052 357.26 45.7593 357.269 45.7097C357.281 45.6592 357.283 45.6057 357.274 45.5542C357.272 45.5022 357.259 45.4519 357.236 45.4084C357.195 45.3206 357.129 45.2561 357.05 45.2288L356.966 45.2148C356.911 45.2148 356.856 45.2332 356.808 45.2681L356.434 45.4858C356.398 45.51 356.368 45.5447 356.346 45.5869C356.292 45.667 356.269 45.7727 356.284 45.8755C356.286 45.9275 356.299 45.9778 356.321 46.0212C356.362 46.1094 356.429 46.1738 356.508 46.2009L356.591 46.2148C356.646 46.2151 356.701 46.1968 356.749 46.1616L356.75 46.1616Z" fill-rule="evenodd" fill="#003849"/>
			<path id="Path_50161" d="M82.694 39.1396C79.457 39.7546 76.233 40.4507 73.024 41.1987C71.704 41.5066 70.373 41.8047 69.08 42.2107C68.7835 42.2759 68.4998 42.3894 68.24 42.5466C67.9529 42.8699 67.7949 43.2874 67.796 43.7197C67.6013 45.3342 67.5251 46.9609 67.568 48.5867C67.5698 48.6965 67.6293 48.7976 67.7246 48.8523C67.82 48.907 67.9372 48.9075 68.033 48.8535C68.7659 48.3284 69.4227 47.7046 69.985 46.9995C70.2946 46.5674 70.6544 46.1736 71.057 45.8267C71.8395 45.3022 72.6636 44.8425 73.521 44.4526C75.837 43.2937 78.207 42.2527 80.521 41.0867C81.3945 40.6995 82.2239 40.2197 82.995 39.6555C83.304 39.4045 82.865 38.9697 82.558 39.2175C81.8909 39.6997 81.1754 40.1108 80.423 40.4446C79.323 41.0017 78.208 41.5276 77.093 42.0537C74.9769 42.9465 72.9238 43.9822 70.9481 45.1536C69.675 45.9846 68.997 47.4536 67.72 48.3176L68.1851 48.5857C68.1851 47.2317 68.199 45.8726 68.32 44.5237C68.353 44.1577 68.361 43.2986 68.585 43.0547C68.8243 42.9219 69.0826 42.8271 69.351 42.7737C72.231 41.8936 75.223 41.3157 78.165 40.6907C79.726 40.3586 81.29 40.0327 82.859 39.7336C83.249 39.6597 83.084 39.0637 82.694 39.1335L82.694 39.1396Z" fill-rule="evenodd" fill="#003849"/>
			<path id="Path_50162" d="M70.626 46.3337C71.811 47.4336 72.79 48.7236 73.941 49.8547C74.43 50.3357 75.073 50.8687 75.65 50.2346C76.2538 49.5264 76.8192 48.7864 77.344 48.0178C78.275 46.7407 79.185 45.4497 80.085 44.1506C81.2144 42.5215 82.324 40.8787 83.414 39.2227C83.633 38.8887 83.098 38.5786 82.88 38.9106C80.821 42.0488 78.696 45.1516 76.468 48.1726C76.131 48.6296 75.793 49.0857 75.437 49.5278C75.17 49.8567 75.118 50.0347 74.729 49.7378C74.1651 49.2471 73.6488 48.7043 73.187 48.1167C72.507 47.3496 71.814 46.5957 71.063 45.8967C70.772 45.6257 70.333 46.0627 70.626 46.3347L70.626 46.3337Z" fill-rule="evenodd" fill="#003849"/>
			<path id="Path_50163" d="M83.147 38.7576C79.523 38.5886 75.9 38.3757 72.272 38.2847C70.527 38.2407 68.772 38.1997 67.028 38.3066C66.528 38.3367 64.965 38.2776 64.854 39.0066C64.754 39.6587 65.745 40.5505 66.121 40.9736C66.76 41.7056 67.4398 42.4011 68.157 43.0566C68.452 43.3225 68.89 42.8867 68.594 42.6196C68.034 42.1196 67.509 41.5667 66.994 41.0195C66.694 40.6956 66.394 40.3657 66.115 40.0195C65.981 39.8567 65.849 39.6917 65.73 39.5195C65.6635 39.3765 65.5828 39.2405 65.489 39.1135C65.352 38.9995 65.527 39.1777 65.43 39.1765C65.3929 39.1765 65.477 39.1626 65.46 39.1606C65.6376 39.1353 65.8121 39.092 65.981 39.0317C66.517 38.9534 67.0574 38.9092 67.599 38.8997C71.126 38.7607 74.677 38.9646 78.199 39.1316C79.848 39.2097 81.499 39.3015 83.147 39.3787C83.547 39.3967 83.547 38.7786 83.147 38.7607L83.147 38.7576Z" fill-rule="evenodd" fill="#003849"/>
			<path id="Path_50164" d="M52.504 70.1526C56.3538 68.9873 59.2541 65.804 60.057 61.8625C60.3547 60.3354 60.0957 58.7522 59.327 57.3997C58.5956 56.0654 57.4766 54.9846 56.118 54.2996C54.9506 53.6848 53.5283 53.8298 52.509 54.6675C51.322 55.6797 50.4091 57.6675 51.228 59.1477C52.072 60.6736 54.1281 61.0415 55.7141 60.9927C57.7991 60.9338 59.7762 60.0527 61.2141 58.5415C62.361 57.2947 62.769 55.5835 63.3051 54.0237C63.5535 53.1873 63.9358 52.3967 64.437 51.6826C64.9919 50.9138 65.8326 50.4006 66.77 50.2585C66.9407 50.2585 67.079 50.1204 67.079 49.9497C67.079 49.7791 66.9407 49.6406 66.77 49.6406C65.5173 49.8062 64.4051 50.5251 63.7401 51.5996C63.0849 52.7458 62.5836 53.9734 62.249 55.2505C61.8772 56.6289 61.1008 57.864 60.0201 58.7966C58.3673 60.1008 56.2363 60.6372 54.163 60.2705C52.55 59.9707 51.0991 58.8477 51.678 57.0557C52.129 55.6646 53.3151 54.3206 54.897 54.5557C56.2109 54.8638 57.3659 55.6433 58.1431 56.7466C59.0461 57.8103 59.5485 59.1565 59.563 60.5515C59.525 64.6926 56.191 68.3877 52.345 69.5586C51.9661 69.6736 52.1281 70.2705 52.5101 70.1587L52.504 70.1526Z" fill-rule="evenodd" fill="#003849"/>
			<path id="Path_50165" d="M16.18 133.01C34.232 114.709 56.98 112.485 80.97 111C78.25 116.44 66.627 122.375 60.939 125.344C55.3661 128.117 49.5771 130.432 43.629 132.268C34.729 134.493 25.329 132.762 16.429 133.01L16.18 133.01Z" fill-rule="evenodd" fill="#D67676"/>
			<path id="Path_50166" d="M17.022 133.367C24.463 130.61 31.887 127.795 39.429 125.322C46.796 122.907 54.321 121.097 61.763 118.942C65.8002 117.815 69.7596 116.425 73.616 114.782C74.053 114.591 73.676 113.952 73.242 114.142C66.289 117.182 58.882 118.984 51.576 120.942C44.045 122.965 36.649 125.388 29.315 128.042C25.141 129.55 20.987 131.11 16.825 132.652C16.381 132.817 16.574 133.534 17.025 133.368L17.022 133.367Z" fill-rule="evenodd" fill="#003849"/>
			<path id="Path_50167" d="M35.334 121.868C33.044 124.14 30.0941 125.813 28.228 128.496C28.1438 128.642 28.1675 128.826 28.286 128.946C29.739 130.208 31.7791 130.364 33.519 131.02C33.967 131.188 34.16 130.472 33.7191 130.304C32.119 129.704 30.144 129.577 28.814 128.421L28.872 128.871C30.6931 126.252 33.623 124.613 35.8621 122.393C36.007 122.247 36.0063 122.011 35.8605 121.866C35.7147 121.721 35.479 121.722 35.334 121.868L35.334 121.868Z" fill-rule="evenodd" fill="#003849"/>
			<path id="Path_50168" d="M44.669 118.356C43.134 120.509 41.122 122.282 39.723 124.538C39.6661 124.638 39.6581 124.758 39.7015 124.865C39.7448 124.971 39.8345 125.052 39.945 125.084C43.056 125.848 46.316 125.947 49.345 127.062C49.794 127.227 49.987 126.51 49.545 126.346C46.519 125.231 43.259 125.133 40.145 124.368C40.219 124.55 40.292 124.732 40.367 124.914C41.767 122.66 43.777 120.883 45.313 118.732C45.59 118.342 44.947 117.972 44.672 118.357L44.669 118.356Z" fill-rule="evenodd" fill="#003849"/>
			<path id="Path_50169" d="M54.194 116.253C53.316 117.854 52.111 119.448 51.808 121.288C51.7604 121.485 51.8737 121.685 52.067 121.745C53.8843 122.371 55.7437 122.867 57.631 123.229C58.097 123.323 58.297 122.607 57.831 122.513C55.9434 122.152 54.084 121.656 52.267 121.03C52.3524 121.181 52.4387 121.333 52.526 121.485C52.82 119.708 53.989 118.174 54.838 116.628C55.068 116.209 54.428 115.834 54.197 116.253L54.194 116.253Z" fill-rule="evenodd" fill="#003849"/>
			<path id="Path_50170" d="M63.551 115.106C63.1262 116.159 62.7548 117.232 62.438 118.322C62.3962 118.484 62.4657 118.654 62.609 118.74C63.6811 119.2 64.7838 119.584 65.909 119.891C66.364 120.041 66.558 119.324 66.109 119.175C65.0435 118.889 63.999 118.53 62.983 118.1L63.153 118.518C63.47 117.428 63.8415 116.355 64.266 115.302C64.419 114.849 63.703 114.655 63.551 115.103L63.551 115.106Z" fill-rule="evenodd" fill="#003849"/>
			<path id="Path_50171" d="M48.699 118.543C48.3714 118.562 48.1152 118.833 48.1152 119.161C48.1152 119.49 48.3714 119.761 48.699 119.78C49.0267 119.761 49.2828 119.49 49.2828 119.161C49.2828 118.833 49.0267 118.562 48.699 118.543Z" fill-rule="evenodd" fill="#003849"/>
			<path id="Path_50172" d="M50.307 116.812C49.9794 116.831 49.7232 117.102 49.7232 117.43C49.7232 117.759 49.9794 118.03 50.307 118.049C50.6346 118.03 50.8907 117.759 50.8907 117.43C50.8907 117.102 50.6346 116.831 50.307 116.812Z" fill-rule="evenodd" fill="#003849"/>
			<path id="Path_50173" d="M60.322 120.274C59.9944 120.293 59.7382 120.564 59.7382 120.892C59.7382 121.22 59.9944 121.492 60.322 121.51C60.6497 121.492 60.9058 121.22 60.9058 120.892C60.9058 120.564 60.6497 120.293 60.322 120.274Z" fill-rule="evenodd" fill="#003849"/>
			<path id="Path_50174" d="M62.053 121.264C61.7254 121.282 61.4692 121.553 61.4692 121.882C61.4692 122.21 61.7254 122.481 62.053 122.5C62.3807 122.481 62.6368 122.21 62.6368 121.882C62.6368 121.553 62.3807 121.282 62.053 121.264Z" fill-rule="evenodd" fill="#003849"/>
			<path id="Path_50175" d="M75.9011 112.979C75.5734 112.998 75.3173 113.269 75.3173 113.597C75.3173 113.926 75.5734 114.197 75.9011 114.216C76.2287 114.197 76.4848 113.926 76.4848 113.597C76.4848 113.269 76.2287 112.998 75.9011 112.979Z" fill-rule="evenodd" fill="#003849"/>
			<path id="Path_50176" d="M1.19897 113.06C0.45697 99.4595 1.19897 86.1045 9.60699 74.7295C16.778 65.3296 29.143 57.6665 40.271 54.2046C40.024 66.5696 34.089 82.3955 26.171 91.7925C22.2118 96.4131 17.7336 100.562 12.825 104.157C9.36298 106.878 5.65399 111.329 1.20197 112.319L1.19897 113.06Z" fill-rule="evenodd" fill="#5596A5"/>
			<path id="Path_50177" d="M2.54602 110.932C5.77191 103.469 9.67877 96.3176 14.2169 89.5706C16.343 86.3374 18.595 83.1995 20.802 80.0234C22.939 76.9495 24.926 73.7744 27.036 70.6833C29.2708 67.2188 31.8908 64.0183 34.846 61.1436C35.198 60.8193 34.671 60.2954 34.321 60.6194C28.858 65.6594 25.143 72.3193 21.011 78.4114C18.829 81.6313 16.525 84.7654 14.366 88.0034C12.126 91.3625 9.974 94.7815 7.97803 98.2925C5.68347 102.314 3.63086 106.47 1.83105 110.736C1.64703 111.176 2.36401 111.367 2.54602 110.937L2.54602 110.932Z" fill-rule="evenodd" fill="#003849"/>
			<path id="Path_50178" d="M4.66199 93.6484C4.80634 96.6663 5.14038 99.6724 5.66199 102.648C5.70764 102.809 5.85333 102.92 6.01996 102.921C7.6413 102.975 9.2583 102.724 10.787 102.181C12.3512 101.697 13.8785 101.101 15.3571 100.397C15.789 100.197 15.412 99.5542 14.983 99.7573C13.5611 100.431 12.0927 101.002 10.5891 101.466C9.12445 101.989 7.57428 102.231 6.01996 102.179L6.37799 102.452C5.86865 99.5422 5.54272 96.6033 5.40198 93.6523C5.38098 93.1772 4.63898 93.1743 4.65997 93.6523L4.66199 93.6484Z" fill-rule="evenodd" fill="#003849"/>
			<path id="Path_50179" d="M11.215 81.4065C11.458 85.0935 10.566 88.8926 11.599 92.5066C11.6461 92.666 11.7909 92.7764 11.957 92.7795C13.8611 92.7827 15.7547 92.4968 17.573 91.9316C19.4376 91.4561 21.2286 90.728 22.896 89.7676C23.303 89.5195 22.931 88.8777 22.522 89.1277C20.9092 90.0601 19.176 90.7666 17.371 91.2275C15.6168 91.7747 13.7896 92.0515 11.952 92.0486L12.31 92.3215C11.298 88.7776 12.19 85.0305 11.952 81.4155C11.921 80.9417 11.179 80.9375 11.21 81.4155L11.215 81.4065Z" fill-rule="evenodd" fill="#003849"/>
			<path id="Path_50180" d="M17.644 73.7417C17.644 75.0098 17.544 76.2766 17.525 77.5417C17.4094 79.0405 17.5186 80.5481 17.849 82.0146C17.9282 82.4417 18.2075 82.8047 18.6 82.9907C19.0733 83.1418 19.5727 83.1938 20.067 83.1436C21.6253 83.0356 23.1712 82.7917 24.687 82.4146C26.087 82.1057 27.478 81.7407 28.871 81.3916C29.061 81.3303 29.1688 81.1299 29.1151 80.9375C29.0613 80.7451 28.8654 80.6296 28.671 80.6758C26.123 81.407 23.5275 81.9617 20.903 82.3357C20.23 82.4087 18.876 82.7046 18.595 81.9207C18.2561 80.5923 18.1436 79.2163 18.262 77.8506C18.272 76.4797 18.378 75.1096 18.384 73.7397C18.384 73.5347 18.2179 73.3687 18.013 73.3687C17.8081 73.3687 17.642 73.5347 17.642 73.7397L17.644 73.7417Z" fill-rule="evenodd" fill="#003849"/>
			<path id="Path_50181" d="M24.4451 65.21C24.438 66.4028 24.277 67.595 24.238 68.7878C24.0745 69.9846 24.2166 71.2031 24.6511 72.3298C25.144 73.218 26.337 73.0388 27.179 72.9028C28.5908 72.6392 29.975 72.2451 31.314 71.7258C32.566 71.2749 33.814 70.7839 35.014 70.2258C35.447 70.0259 35.071 69.387 34.64 69.5859C32.4752 70.6106 30.2146 71.4194 27.8911 72.001C27.3632 72.1382 26.8234 72.2249 26.2791 72.26C25.9871 72.272 25.572 72.3059 25.358 72.0688C25.1238 71.678 25.0036 71.2295 25.011 70.7739C24.9597 70.1516 24.9467 69.5269 24.972 68.9028C25.007 67.6709 25.1721 66.4399 25.183 65.208C25.183 65.0029 25.0169 64.8369 24.812 64.8369C24.6071 64.8369 24.441 65.0029 24.441 65.208L24.4451 65.21Z" fill-rule="evenodd" fill="#003849"/>
			<path id="Path_50182" d="M19.128 69.1665C18.8003 69.1851 18.5442 69.4563 18.5442 69.7844C18.5442 70.1128 18.8003 70.3838 19.128 70.4026C19.4556 70.3838 19.7117 70.1128 19.7117 69.7844C19.7117 69.4563 19.4556 69.1853 19.128 69.1665Z" fill-rule="evenodd" fill="#003849"/>
			<path id="Path_50183" d="M20.859 67.3076C20.5313 67.3262 20.2752 67.5974 20.2752 67.9255C20.2752 68.2539 20.5313 68.5249 20.859 68.5437C21.1866 68.5249 21.4427 68.2539 21.4427 67.9255C21.4427 67.5974 21.1866 67.3264 20.859 67.3076Z" fill-rule="evenodd" fill="#003849"/>
			<path id="Path_50184" d="M21.353 69.9077C21.0253 69.9263 20.7692 70.1975 20.7692 70.5256C20.7692 70.854 21.0253 71.125 21.353 71.1438C21.6807 71.125 21.9368 70.854 21.9368 70.5256C21.9368 70.1975 21.6807 69.9265 21.353 69.9077Z" fill-rule="evenodd" fill="#003849"/>
			<path id="Path_50185" d="M29.019 76.8325C28.6913 76.8511 28.4352 77.1223 28.4352 77.4504C28.4352 77.7788 28.6913 78.0498 29.019 78.0686C29.3466 78.0498 29.6027 77.7788 29.6027 77.4504C29.6027 77.1223 29.3466 76.8513 29.019 76.8325Z" fill-rule="evenodd" fill="#003849"/>
			<path id="Path_50186" d="M30.75 74.4785C30.4223 74.4971 30.1662 74.7683 30.1662 75.0964C30.1662 75.4248 30.4223 75.6958 30.75 75.7146C31.0776 75.6958 31.3337 75.4248 31.3337 75.0964C31.3337 74.7683 31.0776 74.4973 30.75 74.4785Z" fill-rule="evenodd" fill="#003849"/>
			<path id="Path_50187" d="M31.616 77.0796C31.2883 77.0981 31.0322 77.3694 31.0322 77.6975C31.0322 78.0259 31.2883 78.2969 31.616 78.3157C31.9437 78.2969 32.1998 78.0259 32.1998 77.6975C32.1998 77.3694 31.9437 77.0984 31.616 77.0796Z" fill-rule="evenodd" fill="#003849"/>
			<path id="Path_50188" d="M15.418 95.2515C15.0904 95.27 14.8343 95.5413 14.8343 95.8694C14.8343 96.1975 15.0904 96.4688 15.418 96.4875C15.7457 96.4688 16.0018 96.1975 16.0018 95.8694C16.0018 95.5413 15.7457 95.27 15.418 95.2515Z" fill-rule="evenodd" fill="#003849"/>
			<path id="Path_50189" d="M18.015 94.5098C17.6874 94.5283 17.4313 94.7996 17.4313 95.1277C17.4313 95.4558 17.6874 95.7271 18.015 95.7458C18.3427 95.7271 18.5988 95.4558 18.5988 95.1277C18.5988 94.7996 18.3427 94.5283 18.015 94.5098Z" fill-rule="evenodd" fill="#003849"/>
			<path id="Path_50190" d="M6.88702 86.9717C6.55939 86.9902 6.30328 87.2615 6.30328 87.5896C6.30328 87.9177 6.55939 88.189 6.88702 88.2078C7.21466 88.189 7.47076 87.9177 7.47076 87.5896C7.47076 87.2615 7.21466 86.9902 6.88702 86.9717Z" fill-rule="evenodd" fill="#003849"/>
			<path id="Path_50191" d="M7.38104 84.1235C7.05341 84.1421 6.7973 84.4133 6.7973 84.7415C6.7973 85.0696 7.05341 85.3408 7.38104 85.3596C7.70868 85.3408 7.96478 85.0696 7.96478 84.7415C7.96478 84.4133 7.70868 84.1421 7.38104 84.1235Z" fill-rule="evenodd" fill="#003849"/>
			<path id="Path_50192" d="M36.809 62.4897C36.4813 62.5083 36.2252 62.7795 36.2252 63.1077C36.2252 63.436 36.4813 63.707 36.809 63.7258C37.1367 63.707 37.3928 63.436 37.3928 63.1077C37.3928 62.7795 37.1367 62.5085 36.809 62.4897Z" fill-rule="evenodd" fill="#003849"/>
			<path id="Path_50193" d="M0.481995 133.132C0.0950317 125.646 -0.72998 109.281 1.133 101.818C4.633 89.4707 9.526 97.0027 11.233 105.298C15.747 91.3057 21.12 77.3887 27.943 96.5288C30.343 94.8286 38.754 81.8738 42.858 88.4707C44.358 91.2007 36.849 99.7327 35.233 102.365C40.393 102.814 51.245 103.588 44.019 110.93C40.406 114.601 32.519 115.646 27.99 117.851C33.457 120.751 41.757 124.945 31.846 129.28C25.324 132.523 7.646 132.542 0.486023 133.131L0.481995 133.132Z" fill-rule="evenodd" fill="#003849"/>
			<path id="Path_50194" d="M1.38898 134.023C11.606 123.215 21.61 112.196 31.165 100.795C33.8077 97.6421 36.412 94.4578 38.978 91.2417C39.469 90.6257 38.599 89.7417 38.103 90.3677C28.839 101.991 19.03 113.174 8.961 124.103C6.16565 127.137 3.35034 130.152 0.515015 133.149C-0.0310059 133.727 0.84198 134.603 1.39001 134.023L1.38898 134.023Z" fill-rule="evenodd" fill="#5596A5"/>
			<path id="Path_50195" d="M20.859 95.5027C20.848 100.614 20.121 105.728 20.612 110.835C20.6239 111.171 20.8937 111.441 21.23 111.453C26.517 111.953 31.775 110.728 37.057 110.711C37.3846 110.692 37.6407 110.421 37.6407 110.093C37.6407 109.765 37.3846 109.493 37.057 109.475C31.775 109.492 26.517 110.72 21.23 110.217L21.848 110.835C21.357 105.728 22.084 100.613 22.095 95.5027C22.0764 95.175 21.8052 94.9189 21.477 94.9189C21.1488 94.9189 20.8777 95.175 20.859 95.5027Z" fill-rule="evenodd" fill="#5596A5"/>
			<path id="Path_50196" d="M7.00702 109.845C7.00702 115.16 6.69 120.597 7.771 125.837C7.84644 126.105 8.0918 126.291 8.37103 126.291C13.865 126.052 19.39 126.536 24.857 125.773C25.641 125.665 25.308 124.474 24.528 124.582C19.18 125.327 13.748 124.82 8.37103 125.053L8.97101 125.508C7.914 120.384 8.24799 115.042 8.25098 109.845C8.23236 109.518 7.96118 109.262 7.633 109.262C7.30481 109.262 7.03363 109.518 7.01501 109.845L7.00702 109.845Z" fill-rule="evenodd" fill="#5596A5"/>
			<path id="Path_50197" d="M17.025 103.973C16.5246 103.989 16.1275 104.399 16.1275 104.9C16.1275 105.401 16.5246 105.811 17.025 105.828C17.5254 105.811 17.9225 105.401 17.9225 104.9C17.9225 104.399 17.5254 103.989 17.025 103.973L17.025 103.973Z" fill-rule="evenodd" fill="#5596A5"/>
			<path id="Path_50198" d="M17.025 99.2734C16.5246 99.2898 16.1275 99.7002 16.1275 100.201C16.1275 100.702 16.5246 101.112 17.025 101.128C17.5254 101.112 17.9225 100.702 17.9225 100.201C17.9225 99.7002 17.5254 99.2898 17.025 99.2734L17.025 99.2734Z" fill-rule="evenodd" fill="#5596A5"/>
			<path id="Path_50199" d="M25.433 100.016C24.9326 100.032 24.5355 100.442 24.5355 100.943C24.5355 101.444 24.9326 101.854 25.433 101.871C25.9333 101.854 26.3305 101.444 26.3305 100.943C26.3305 100.442 25.9334 100.032 25.433 100.016L25.433 100.016Z" fill-rule="evenodd" fill="#5596A5"/>
			<path id="Path_50200" d="M37.798 105.208C37.2976 105.225 36.9005 105.635 36.9005 106.136C36.9005 106.637 37.2976 107.047 37.798 107.063C38.2983 107.047 38.6955 106.637 38.6955 106.136C38.6955 105.635 38.2983 105.225 37.798 105.208L37.798 105.208Z" fill-rule="evenodd" fill="#5596A5"/>
			<path id="Path_50201" d="M41.507 106.692C41.0066 106.709 40.6095 107.119 40.6095 107.62C40.6095 108.121 41.0066 108.531 41.507 108.547C42.0073 108.531 42.4045 108.121 42.4045 107.62C42.4045 107.119 42.0073 106.709 41.507 106.692L41.507 106.692Z" fill-rule="evenodd" fill="#5596A5"/>
			<path id="Path_50202" d="M21.4761 118.315C20.9756 118.332 20.5786 118.742 20.5786 119.243C20.5786 119.744 20.9756 120.154 21.476 120.17C21.9764 120.154 22.3735 119.744 22.3735 119.243C22.3735 118.742 21.9764 118.332 21.4761 118.315L21.4761 118.315Z" fill-rule="evenodd" fill="#5596A5"/>
			<path id="Path_50203" d="M31.615 123.262C31.1146 123.278 30.7175 123.688 30.7175 124.189C30.7175 124.69 31.1146 125.1 31.615 125.117C32.1154 125.1 32.5125 124.69 32.5125 124.189C32.5125 123.688 32.1154 123.278 31.6151 123.262L31.615 123.262Z" fill-rule="evenodd" fill="#5596A5"/>
			<path id="Path_50204" d="M6.88599 101.747C6.38562 101.763 5.98853 102.173 5.98853 102.674C5.98853 103.175 6.38562 103.585 6.88599 103.602C7.38635 103.585 7.78351 103.175 7.78351 102.674C7.78351 102.173 7.38635 101.763 6.88599 101.747L6.88599 101.747Z" fill-rule="evenodd" fill="#5596A5"/>
			<path id="Path_50205" d="M3.91901 119.552C3.41864 119.568 3.02155 119.979 3.02155 120.479C3.02155 120.98 3.41864 121.39 3.91901 121.407C4.41943 121.39 4.81653 120.98 4.81653 120.479C4.81653 119.979 4.41943 119.568 3.91901 119.552L3.91901 119.552Z" fill-rule="evenodd" fill="#5596A5"/>
			<path id="Path_50206" d="M358.569 133.01C340.517 114.709 317.769 112.485 293.779 111C296.499 116.44 308.122 122.375 313.81 125.344C319.383 128.117 325.172 130.432 331.12 132.268C340.02 134.493 349.42 132.762 358.32 133.01L358.569 133.01Z" fill-rule="evenodd" fill="#FFD066"/>
			<path id="Path_50207" d="M357.926 132.651C350.485 129.896 343.061 127.079 335.519 124.607C328.259 122.229 320.85 120.432 313.513 118.323C309.425 117.195 305.417 115.799 301.513 114.143C301.08 113.953 300.701 114.593 301.139 114.782C308.015 117.79 315.317 119.609 322.545 121.544C330.187 123.592 337.692 126.031 345.132 128.717C349.343 130.238 353.532 131.812 357.732 133.366C358.18 133.532 358.373 132.815 357.932 132.65L357.926 132.651Z" fill-rule="evenodd" fill="#003849"/>
			<path id="Path_50208" d="M338.895 122.391C341.133 124.611 344.063 126.25 345.885 128.87L345.943 128.42C344.613 129.576 342.634 129.702 341.037 130.302C340.595 130.469 340.786 131.187 341.237 131.019C342.978 130.364 345.017 130.208 346.471 128.945C346.589 128.825 346.613 128.64 346.529 128.495C344.663 125.812 341.713 124.139 339.423 121.866C339.278 121.722 339.043 121.722 338.898 121.866C338.753 122.011 338.753 122.247 338.898 122.392L338.895 122.391Z" fill-rule="evenodd" fill="#003849"/>
			<path id="Path_50209" d="M329.44 118.73C330.975 120.882 332.989 122.658 334.386 124.912L334.608 124.366C331.497 125.131 328.237 125.23 325.208 126.344C324.764 126.508 324.956 127.225 325.408 127.06C328.434 125.945 331.694 125.846 334.808 125.083C334.918 125.051 335.008 124.97 335.052 124.863C335.095 124.757 335.087 124.636 335.03 124.536C333.63 122.28 331.619 120.507 330.084 118.354C329.809 117.969 329.165 118.339 329.443 118.729L329.44 118.73Z" fill-rule="evenodd" fill="#003849"/>
			<path id="Path_50210" d="M319.919 116.629C320.768 118.175 321.937 119.708 322.231 121.486L322.49 121.03C320.673 121.656 318.814 122.152 316.926 122.514C316.459 122.608 316.656 123.324 317.126 123.23C319.013 122.867 320.873 122.371 322.69 121.746C322.882 121.685 322.995 121.486 322.949 121.29C322.649 119.449 321.441 117.856 320.563 116.255C320.333 115.837 319.692 116.21 319.922 116.63L319.919 116.629Z" fill-rule="evenodd" fill="#003849"/>
			<path id="Path_50211" d="M310.484 115.304C310.909 116.356 311.28 117.429 311.597 118.519L311.768 118.1C310.752 118.53 309.707 118.889 308.641 119.175C308.19 119.324 308.383 120.041 308.841 119.891C309.966 119.584 311.069 119.2 312.141 118.741C312.284 118.655 312.354 118.484 312.311 118.323C311.995 117.233 311.623 116.16 311.198 115.108C311.047 114.657 310.329 114.851 310.483 115.308L310.484 115.304Z" fill-rule="evenodd" fill="#003849"/>
			<path id="Path_50212" d="M326.051 118.543C326.379 118.562 326.635 118.833 326.635 119.161C326.635 119.49 326.379 119.761 326.051 119.78C325.723 119.761 325.467 119.49 325.467 119.161C325.467 118.833 325.723 118.562 326.051 118.543Z" fill-rule="evenodd" fill="#003849"/>
			<path id="Path_50213" d="M324.443 116.812C324.771 116.831 325.027 117.102 325.027 117.43C325.027 117.759 324.771 118.03 324.443 118.049C324.115 118.03 323.859 117.759 323.859 117.43C323.859 117.102 324.115 116.831 324.443 116.812Z" fill-rule="evenodd" fill="#003849"/>
			<path id="Path_50214" d="M314.428 120.274C314.756 120.293 315.012 120.564 315.012 120.892C315.012 121.22 314.756 121.492 314.428 121.51C314.1 121.492 313.844 121.22 313.844 120.892C313.844 120.564 314.1 120.293 314.428 120.274Z" fill-rule="evenodd" fill="#003849"/>
			<path id="Path_50215" d="M312.697 121.264C313.025 121.282 313.281 121.553 313.281 121.882C313.281 122.21 313.025 122.481 312.697 122.5C312.369 122.481 312.113 122.21 312.113 121.882C312.113 121.553 312.369 121.282 312.697 121.264Z" fill-rule="evenodd" fill="#003849"/>
			<path id="Path_50216" d="M298.849 112.979C299.177 112.998 299.433 113.269 299.433 113.597C299.433 113.926 299.177 114.197 298.849 114.216C298.521 114.197 298.265 113.926 298.265 113.597C298.265 113.269 298.521 112.998 298.849 112.979Z" fill-rule="evenodd" fill="#003849"/>
			<path id="Path_50217" d="M373.551 113.06C374.293 99.4595 373.551 86.1045 365.143 74.7295C357.971 65.3296 345.607 57.6665 334.479 54.2046C334.726 66.5696 340.661 82.3955 348.579 91.7925C352.541 96.4133 357.022 100.562 361.933 104.157C365.395 106.878 369.105 111.329 373.556 112.319L373.551 113.06Z" fill-rule="evenodd" fill="#5596A5"/>
			<path id="Path_50218" d="M372.92 110.737C369.691 103.245 365.779 96.0654 361.236 89.2896C359.074 85.9966 356.777 82.8035 354.536 79.5686C352.381 76.4636 350.376 73.2566 348.236 70.1384C345.998 66.6829 343.379 63.4897 340.428 60.6196C340.078 60.2966 339.552 60.8196 339.903 61.1436C345.346 66.1655 349.033 72.7996 353.154 78.8696C355.3 82.0295 357.56 85.1084 359.681 88.2856C361.902 91.6135 364.038 94.9995 366.021 98.4746C368.331 102.499 370.395 106.659 372.203 110.933C372.385 111.366 373.103 111.177 372.918 110.732L372.92 110.737Z" fill-rule="evenodd" fill="#003849"/>
			<path id="Path_50219" d="M369.348 93.6484C369.207 96.5994 368.881 99.5386 368.372 102.448L368.73 102.176C367.176 102.227 365.626 101.985 364.162 101.462C362.658 100.999 361.19 100.427 359.768 99.7534C359.339 99.5535 358.961 100.19 359.394 100.394C360.873 101.097 362.4 101.693 363.964 102.177C365.492 102.72 367.109 102.971 368.73 102.917C368.896 102.915 369.041 102.804 369.088 102.645C369.61 99.6685 369.944 96.6626 370.088 93.6445C370.11 93.1675 369.368 93.1685 369.346 93.6445L369.348 93.6484Z" fill-rule="evenodd" fill="#003849"/>
			<path id="Path_50220" d="M362.794 81.4067C362.557 85.0217 363.449 88.7688 362.436 92.3127L362.794 92.0398C360.956 92.0427 359.129 91.7659 357.375 91.2188C355.57 90.7581 353.837 90.0515 352.224 89.1189C351.816 88.8699 351.442 89.5107 351.85 89.7588C353.519 90.7222 355.311 91.4526 357.178 91.9299C358.996 92.4951 360.89 92.781 362.794 92.7778C362.96 92.7744 363.105 92.6641 363.152 92.5049C364.185 88.8889 363.293 85.0879 363.536 81.4048C363.567 80.9277 362.825 80.9299 362.794 81.4048L362.794 81.4067Z" fill-rule="evenodd" fill="#003849"/>
			<path id="Path_50221" d="M356.365 73.7415C356.365 74.9065 356.457 76.0725 356.479 77.2415C356.577 78.6841 356.502 80.1331 356.255 81.5576C356.18 81.8884 356.121 82.2246 355.806 82.3335C355.33 82.4448 354.837 82.4634 354.354 82.3884C352.854 82.2451 351.367 81.9902 349.905 81.6255C348.623 81.3364 347.353 81.0015 346.078 80.6816C345.884 80.6355 345.688 80.751 345.634 80.9434C345.58 81.1357 345.688 81.3362 345.878 81.3975C348.602 82.1943 351.386 82.7698 354.202 83.1187C355.086 83.1936 356.348 83.3186 356.777 82.3525C357.198 81.0205 357.352 79.6182 357.228 78.2266C357.228 76.7266 357.111 75.2385 357.104 73.7446C357.104 73.5396 356.938 73.3735 356.733 73.3735C356.528 73.3735 356.362 73.5396 356.362 73.7446L356.365 73.7415Z" fill-rule="evenodd" fill="#003849"/>
			<path id="Path_50222" d="M349.564 65.2095C349.571 66.2676 349.708 67.3254 349.756 68.3826C349.924 69.5459 349.839 70.7319 349.507 71.8596C349.186 72.5854 347.913 72.2246 347.325 72.1055C346.012 71.8169 344.722 71.4304 343.467 70.9495C342.332 70.5366 341.205 70.0916 340.107 69.5876C339.676 69.3875 339.299 70.0286 339.733 70.2275C342.077 71.3606 344.54 72.2271 347.077 72.8105C347.877 72.9775 349.258 73.3105 349.908 72.6025C350.635 71.8145 350.538 70.2896 350.526 69.3025C350.51 67.9336 350.316 66.5715 350.307 65.2026C350.307 64.9976 350.141 64.8315 349.936 64.8315C349.731 64.8315 349.565 64.9976 349.565 65.2026L349.564 65.2095Z" fill-rule="evenodd" fill="#003849"/>
			<path id="Path_50223" d="M355.622 69.1665C355.95 69.1851 356.206 69.4563 356.206 69.7844C356.206 70.1128 355.95 70.3838 355.622 70.4026C355.294 70.3838 355.038 70.1128 355.038 69.7844C355.038 69.4563 355.294 69.1853 355.622 69.1665Z" fill-rule="evenodd" fill="#003849"/>
			<path id="Path_50224" d="M353.891 67.3076C354.219 67.3262 354.475 67.5974 354.475 67.9255C354.475 68.2539 354.219 68.5249 353.891 68.5437C353.563 68.5249 353.307 68.2539 353.307 67.9255C353.307 67.5974 353.563 67.3264 353.891 67.3076Z" fill-rule="evenodd" fill="#003849"/>
			<path id="Path_50225" d="M353.397 69.9077C353.725 69.9263 353.981 70.1975 353.981 70.5256C353.981 70.854 353.725 71.125 353.397 71.1438C353.069 71.125 352.813 70.854 352.813 70.5256C352.813 70.1975 353.069 69.9265 353.397 69.9077Z" fill-rule="evenodd" fill="#003849"/>
			<path id="Path_50226" d="M345.731 76.8325C346.059 76.8511 346.315 77.1223 346.315 77.4504C346.315 77.7788 346.059 78.0498 345.731 78.0686C345.403 78.0498 345.147 77.7788 345.147 77.4504C345.147 77.1223 345.403 76.8513 345.731 76.8325Z" fill-rule="evenodd" fill="#003849"/>
			<path id="Path_50227" d="M344 74.4785C344.328 74.4971 344.584 74.7683 344.584 75.0964C344.584 75.4248 344.328 75.6958 344 75.7146C343.672 75.6958 343.416 75.4248 343.416 75.0964C343.416 74.7683 343.672 74.4973 344 74.4785Z" fill-rule="evenodd" fill="#003849"/>
			<path id="Path_50228" d="M343.134 77.0796C343.462 77.0981 343.718 77.3694 343.718 77.6975C343.718 78.0259 343.462 78.2969 343.134 78.3157C342.806 78.2969 342.55 78.0259 342.55 77.6975C342.55 77.3694 342.806 77.0984 343.134 77.0796Z" fill-rule="evenodd" fill="#003849"/>
			<path id="Path_50229" d="M359.332 95.2515C359.66 95.27 359.916 95.5413 359.916 95.8694C359.916 96.1975 359.66 96.4688 359.332 96.4875C359.004 96.4688 358.748 96.1975 358.748 95.8694C358.748 95.5413 359.004 95.27 359.332 95.2515Z" fill-rule="evenodd" fill="#003849"/>
			<path id="Path_50230" d="M356.735 94.5098C357.063 94.5283 357.319 94.7996 357.319 95.1277C357.319 95.4558 357.063 95.7271 356.735 95.7458C356.407 95.7271 356.151 95.4558 356.151 95.1277C356.151 94.7996 356.407 94.5283 356.735 94.5098Z" fill-rule="evenodd" fill="#003849"/>
			<path id="Path_50231" d="M367.863 86.9717C368.191 86.9902 368.447 87.2615 368.447 87.5896C368.447 87.9177 368.191 88.189 367.863 88.2078C367.535 88.189 367.279 87.9177 367.279 87.5896C367.279 87.2615 367.535 86.9902 367.863 86.9717Z" fill-rule="evenodd" fill="#003849"/>
			<path id="Path_50232" d="M367.369 84.1235C367.697 84.1421 367.953 84.4133 367.953 84.7415C367.953 85.0696 367.697 85.3408 367.369 85.3596C367.041 85.3408 366.785 85.0696 366.785 84.7415C366.785 84.4133 367.041 84.1421 367.369 84.1235Z" fill-rule="evenodd" fill="#003849"/>
			<path id="Path_50233" d="M337.941 62.4897C338.269 62.5083 338.525 62.7795 338.525 63.1077C338.525 63.436 338.269 63.707 337.941 63.7258C337.613 63.707 337.357 63.436 337.357 63.1077C337.357 62.7795 337.613 62.5085 337.941 62.4897Z" fill-rule="evenodd" fill="#003849"/>
			<path id="Path_50234" d="M374.268 133.132C374.656 125.646 375.481 109.281 373.617 101.818C370.117 89.4707 365.224 97.0027 363.517 105.298C359.004 91.3057 353.629 77.3887 346.807 96.5288C344.407 94.8286 335.996 81.8738 331.891 88.4707C330.397 91.2007 337.9 99.7327 339.517 102.365C334.356 102.814 323.505 103.588 330.731 110.93C334.344 114.601 342.231 115.646 346.761 117.851C341.295 120.751 332.994 124.945 342.905 129.28C349.427 132.523 367.105 132.542 374.265 133.131L374.268 133.132Z" fill-rule="evenodd" fill="#003849"/>
			<path id="Path_50235" d="M374.236 133.148C364.019 122.34 354.015 111.321 344.46 99.9194C341.817 96.7668 339.213 93.5825 336.648 90.3665C336.148 89.7446 335.282 90.6245 335.773 91.2405C345.038 102.864 354.847 114.045 364.915 124.976C367.711 128.01 370.526 131.025 373.361 134.021C373.909 134.601 374.782 133.721 374.236 133.147L374.236 133.148Z" fill-rule="evenodd" fill="#5596A5"/>
			<path id="Path_50236" d="M352.655 95.5024C352.666 100.614 353.393 105.728 352.902 110.834L353.52 110.217C348.233 110.717 342.975 109.491 337.693 109.474C337.365 109.493 337.109 109.764 337.109 110.093C337.109 110.421 337.365 110.692 337.693 110.71C342.975 110.728 348.233 111.956 353.52 111.452C353.857 111.441 354.127 111.171 354.138 110.834C354.629 105.728 353.902 100.613 353.891 95.5024C353.872 95.1748 353.601 94.9185 353.273 94.9185C352.945 94.9185 352.673 95.1748 352.655 95.5024Z" fill-rule="evenodd" fill="#5596A5"/>
			<path id="Path_50237" d="M366.503 109.846C366.503 115.046 366.84 120.385 365.783 125.508L366.383 125.054C361.006 124.82 355.575 125.327 350.227 124.582C349.448 124.473 349.112 125.665 349.898 125.774C355.365 126.536 360.89 126.052 366.383 126.291C366.662 126.291 366.908 126.105 366.983 125.837C368.064 120.597 367.75 115.16 367.747 109.846C367.728 109.518 367.457 109.262 367.129 109.262C366.801 109.262 366.529 109.518 366.511 109.846L366.503 109.846Z" fill-rule="evenodd" fill="#5596A5"/>
			<path id="Path_50238" d="M357.725 103.973C358.225 103.989 358.622 104.399 358.622 104.9C358.622 105.401 358.225 105.811 357.725 105.828C357.225 105.811 356.828 105.401 356.828 104.9C356.828 104.399 357.225 103.989 357.725 103.973L357.725 103.973Z" fill-rule="evenodd" fill="#5596A5"/>
			<path id="Path_50239" d="M357.725 99.2734C358.225 99.2898 358.622 99.7002 358.622 100.201C358.622 100.702 358.225 101.112 357.725 101.128C357.225 101.112 356.828 100.702 356.828 100.201C356.828 99.7002 357.225 99.2898 357.725 99.2734L357.725 99.2734Z" fill-rule="evenodd" fill="#5596A5"/>
			<path id="Path_50240" d="M349.317 100.016C349.817 100.032 350.214 100.442 350.214 100.943C350.214 101.444 349.817 101.854 349.317 101.871C348.817 101.854 348.42 101.444 348.42 100.943C348.42 100.442 348.817 100.032 349.317 100.016L349.317 100.016Z" fill-rule="evenodd" fill="#5596A5"/>
			<path id="Path_50241" d="M336.952 105.208C337.452 105.225 337.849 105.635 337.849 106.136C337.849 106.637 337.452 107.047 336.952 107.063C336.452 107.047 336.055 106.637 336.055 106.136C336.055 105.635 336.452 105.225 336.952 105.208L336.952 105.208Z" fill-rule="evenodd" fill="#5596A5"/>
			<path id="Path_50242" d="M333.243 106.692C333.743 106.709 334.141 107.119 334.141 107.62C334.141 108.121 333.743 108.531 333.243 108.547C332.743 108.531 332.346 108.121 332.346 107.62C332.346 107.119 332.743 106.709 333.243 106.692L333.243 106.692Z" fill-rule="evenodd" fill="#5596A5"/>
			<path id="Path_50243" d="M353.274 118.315C353.774 118.332 354.172 118.742 354.172 119.243C354.172 119.744 353.774 120.154 353.274 120.17C352.774 120.154 352.377 119.744 352.377 119.243C352.377 118.742 352.774 118.332 353.274 118.315L353.274 118.315Z" fill-rule="evenodd" fill="#5596A5"/>
			<path id="Path_50244" d="M343.135 123.262C343.635 123.278 344.032 123.688 344.032 124.189C344.032 124.69 343.635 125.1 343.135 125.117C342.635 125.1 342.238 124.69 342.238 124.189C342.238 123.688 342.635 123.278 343.135 123.262L343.135 123.262Z" fill-rule="evenodd" fill="#5596A5"/>
			<path id="Path_50245" d="M367.864 101.747C368.364 101.763 368.761 102.173 368.761 102.674C368.761 103.175 368.364 103.585 367.864 103.602C367.364 103.585 366.967 103.175 366.967 102.674C366.967 102.173 367.364 101.763 367.864 101.747L367.864 101.747Z" fill-rule="evenodd" fill="#5596A5"/>
			<path id="Path_50246" d="M370.831 119.552C371.331 119.568 371.729 119.979 371.729 120.479C371.729 120.98 371.331 121.39 370.831 121.407C370.331 121.39 369.934 120.98 369.934 120.479C369.934 119.979 370.331 119.568 370.831 119.552L370.831 119.552Z" fill-rule="evenodd" fill="#5596A5"/>
			<path id="Path_50247" d="M160.702 134.08C160.331 128.64 159.466 123.694 161.197 118.38C161.692 117.02 162.928 112.321 165.03 113.311C166.514 113.929 166.266 117.886 166.761 119.122C168.987 116.649 168.987 112.322 171.707 110.096C175.416 106.881 174.18 112.696 174.307 114.796C176.78 113.683 180.613 106.141 183.951 107.254C187.042 108.367 179.376 115.538 178.511 117.022C179.995 117.269 181.602 116.28 183.211 116.404C185.56 116.528 186.426 118.011 184.2 119.495C181.851 120.855 175.792 120.731 174.8 123.695C176.284 124.437 182.837 122.829 182.466 126.044C182.095 128.393 176.16 128.764 174.429 129.259C169.607 130.495 165.529 132.474 161.075 134.452L160.702 134.08Z" fill-rule="evenodd" fill="#4094A8"/>
			<path id="Path_50248" d="M161.216 134.112C165.759 127.188 172.003 121.689 177.525 115.589C179.044 113.911 180.503 112.18 181.865 110.372C182.104 110.054 181.565 109.745 181.331 110.06C176.372 116.646 170.057 122.029 164.773 128.334C163.304 130.075 161.938 131.9 160.682 133.8C160.463 134.134 160.999 134.444 161.216 134.112L161.216 134.112Z" fill-rule="evenodd" fill="#003849"/>
			<path id="Path_50249" d="M170.914 113.967C170.218 116.782 169.923 119.682 170.038 122.581C170.04 122.677 170.085 122.767 170.161 122.825C170.238 122.884 170.337 122.904 170.43 122.881C174.243 122.073 177.769 120.321 181.43 119.048C181.803 118.917 181.642 118.321 181.265 118.448C177.6 119.72 174.073 121.473 170.265 122.281L170.656 122.581C170.541 119.738 170.829 116.894 171.511 114.132C171.588 113.744 170.992 113.577 170.911 113.968L170.914 113.967Z" fill-rule="evenodd" fill="#003849"/>
			<path id="Path_50250" d="M163.855 119.12C164.201 122.405 164.366 125.708 164.35 129.012C164.35 129.108 164.396 129.199 164.472 129.258C164.549 129.316 164.649 129.336 164.742 129.312C168.484 128.208 172.281 127.3 176.117 126.592C176.507 126.518 176.342 125.922 175.952 125.992C172.116 126.7 168.319 127.608 164.577 128.712L164.968 129.011C164.984 125.707 164.819 122.405 164.473 119.119C164.443 118.726 163.825 118.72 163.855 119.12Z" fill-rule="evenodd" fill="#003849"/>
			<path id="Path_50251" d="M140.731 98.0737C155.419 104.533 164.383 122.613 161.498 135.539C143.712 130.574 141.03 113.432 140.731 98.0737Z" fill-rule="evenodd" fill="#003849"/>
			<path id="Path_50252" d="M144.238 103.325C148.738 111.474 152.378 120.051 156.638 128.318C157.838 130.654 159.099 132.962 160.432 135.227C160.518 135.374 160.708 135.424 160.855 135.337C161.002 135.251 161.052 135.062 160.966 134.915C156.25 126.906 152.56 118.364 148.435 110.05C147.259 107.679 146.046 105.33 144.768 103.013C144.576 102.666 144.041 102.977 144.234 103.325L144.238 103.325Z" fill-rule="evenodd" fill="#4094A8"/>
			<path id="Path_50253" d="M144.299 110.762C145.978 111.413 147.607 112.188 149.171 113.08C149.254 113.127 149.355 113.133 149.443 113.097C149.532 113.061 149.599 112.987 149.626 112.895C150.026 110.957 149.757 108.957 150.007 107.002C150.058 106.609 149.439 106.612 149.389 107.002C149.146 108.902 149.42 110.851 149.029 112.731L149.483 112.546C147.871 111.629 146.193 110.834 144.464 110.166C144.089 110.03 143.927 110.628 144.299 110.766L144.299 110.762Z" fill-rule="evenodd" fill="#4094A8"/>
			<path id="Path_50254" d="M145.659 117.068C148.012 117.935 150.359 118.81 152.633 119.881C152.716 119.928 152.817 119.934 152.905 119.898C152.994 119.862 153.061 119.788 153.088 119.696C153.466 117.459 153.717 115.202 153.84 112.937C153.864 112.537 153.246 112.537 153.222 112.937C153.103 115.147 152.859 117.349 152.491 119.532L152.945 119.347C150.627 118.254 148.227 117.358 145.824 116.472C145.45 116.335 145.289 116.931 145.659 117.072L145.659 117.068Z" fill-rule="evenodd" fill="#4094A8"/>
			<path id="Path_50255" d="M149.121 124.609C151.48 125.6 153.893 126.447 156.292 127.33C156.456 127.371 156.624 127.276 156.673 127.114C157.392 125.177 157.853 123.154 158.043 121.096C158.096 120.703 157.477 120.708 157.425 121.096C157.235 123.098 156.781 125.066 156.076 126.949L156.457 126.733C154.057 125.851 151.644 125.002 149.286 124.013C148.92 123.859 148.76 124.458 149.121 124.614L149.121 124.609Z" fill-rule="evenodd" fill="#4094A8"/>
			<path id="Path_50256" d="M228.898 118.392C224.15 109.515 209.398 110.366 205.838 119.706C205.317 121.083 205.114 122.56 205.245 124.027C204.969 126.048 205.304 128.105 206.207 129.934C207.898 133.411 212.007 135.14 215.635 135.501C224.655 136.401 233.649 127.275 228.898 118.393L228.898 118.392Z" fill-rule="evenodd" fill="#FFD066"/>
			<path id="Path_50257" d="M216.766 125.239C217.613 125.271 218.842 125.148 219.072 124.138C219.135 123.3 218.763 122.488 218.086 121.989C217.372 121.301 216.39 120.965 215.404 121.072C214.225 121.384 213.314 122.319 213.032 123.505C212.497 124.779 212.673 126.24 213.495 127.35C214.361 128.272 215.55 128.822 216.813 128.885C219.848 129.198 222.963 127.596 223.556 124.405C224.295 120.421 220.718 117.104 217.146 116.259C213.882 115.489 210.468 116.547 208.999 119.738C207.489 123.016 208.269 127.276 210.041 130.305C210.928 131.919 212.443 133.093 214.227 133.548C216.25 133.937 218.336 133.848 220.318 133.286C222.263 132.848 224.033 131.838 225.401 130.386C226.432 129.173 227.099 127.693 227.327 126.117C227.827 122.998 227.005 119.333 224.502 117.229C223.908 116.733 223.234 116.34 222.509 116.068C222.137 115.927 221.976 116.524 222.344 116.668C227.999 118.823 228.274 127.901 223.613 131.168C222.054 132.197 220.271 132.836 218.413 133.03C216.616 133.378 214.756 133.186 213.068 132.479C211.653 131.662 210.566 130.378 209.994 128.847C209.289 127.241 208.894 125.516 208.83 123.763C208.772 120.946 209.993 117.937 212.84 116.957C216.174 115.99 219.757 117.196 221.828 119.981C222.891 121.344 223.261 123.124 222.828 124.797C222.422 126.172 221.414 127.287 220.087 127.828C218.187 128.603 215.037 128.65 213.777 126.701C212.719 125.064 213.754 121.343 216.118 121.681C216.909 121.822 217.616 122.259 218.094 122.905C218.419 123.338 218.738 124.052 218.153 124.411C217.72 124.612 217.24 124.685 216.767 124.624C216.367 124.607 216.367 125.223 216.767 125.241L216.766 125.239Z" fill-rule="evenodd" fill="#003849"/>
			<path id="Path_50258" d="M217.699 102.278L217.699 110.15C217.699 110.32 217.923 110.459 218.199 110.459C218.475 110.459 218.699 110.32 218.699 110.15L218.699 102.278C218.699 102.107 218.475 101.969 218.199 101.969C217.923 101.969 217.699 102.107 217.699 102.278Z" fill-rule="evenodd" fill="#003849"/>
			<path id="Path_50259" d="M208.262 109.267L210.192 111.201C210.313 111.321 210.509 111.321 210.63 111.2C210.75 111.079 210.75 110.883 210.629 110.763L208.696 108.829C208.575 108.708 208.379 108.708 208.259 108.829C208.138 108.95 208.138 109.146 208.259 109.267L208.262 109.267Z" fill-rule="evenodd" fill="#003849"/>
			<path id="Path_50260" d="M228.286 109.242L225.938 111.591C225.83 111.713 225.836 111.899 225.951 112.014C226.067 112.13 226.252 112.136 226.375 112.029L228.723 109.68C228.831 109.558 228.825 109.372 228.71 109.257C228.594 109.141 228.409 109.135 228.286 109.242Z" fill-rule="evenodd" fill="#003849"/>
			<path id="Path_50261" d="M198.179 118.597C199.845 119.153 201.554 119.569 203.289 119.84C203.678 119.9 203.846 119.305 203.454 119.24C201.719 118.969 200.01 118.553 198.344 117.997C197.965 117.871 197.803 118.468 198.179 118.597Z" fill-rule="evenodd" fill="#003849"/>
			<path id="Path_50262" d="M233.145 120.256C234.845 119.977 236.555 119.824 238.255 119.565C238.647 119.506 238.48 118.91 238.09 118.966C236.39 119.226 234.677 119.376 232.98 119.656C232.589 119.72 232.755 120.315 233.145 120.256Z" fill-rule="evenodd" fill="#003849"/>
			<path id="Path_50263" d="M233.338 127.923C234.078 127.923 234.809 128.102 235.548 128.105C235.718 128.105 235.856 127.922 235.856 127.697C235.856 127.471 235.718 127.289 235.548 127.288C234.809 127.288 234.078 127.108 233.338 127.105C233.227 127.105 233.125 127.183 233.069 127.309C233.014 127.436 233.014 127.592 233.069 127.719C233.125 127.846 233.227 127.923 233.338 127.923L233.338 127.923Z" fill-rule="evenodd" fill="#003849"/>
			<path id="Path_50264" d="M200.608 128.242C201.558 128.264 202.509 128.198 203.452 128.045C203.616 127.985 203.713 127.761 203.668 127.544C203.619 127.33 203.452 127.205 203.288 127.259C202.399 127.397 201.503 127.453 200.608 127.426C200.437 127.426 200.299 127.609 200.299 127.834C200.299 128.059 200.437 128.242 200.608 128.242L200.608 128.242Z" fill-rule="evenodd" fill="#003849"/>
			<path id="Path_50265" d="M54.077 27.4373C53.358 24.1992 50.753 17.3333 46.619 17.4553C42.2199 17.5876 42.9658 25.0991 43.3169 28.6348C43.3526 28.9949 43.3843 29.3137 43.406 29.5791C43.535 31.1572 46.006 31.1702 45.879 29.5791C45.847 29.1792 45.718 27.8962 45.641 26.3892C45.9299 26.5835 46.2967 26.6211 46.619 26.4893C47.977 26.0051 49.384 25.7512 50.71 25.1892C51.1309 26.126 51.4601 27.1011 51.693 28.1013C52.039 29.6572 54.423 29.0012 54.077 27.4431L54.077 27.4373ZM45.583 24.3101C45.6963 24.2175 45.8244 24.145 45.962 24.0952L45.962 24.0942C47.163 23.6702 48.457 23.4841 49.626 22.9702C48.993 21.7502 48.038 20.0752 46.849 19.9102C45.839 19.77 45.583 21.9641 45.583 24.3101Z" clip-rule="evenodd" fill-rule="evenodd" fill="#D67676" fill-opacity="1.000000"/>
			<path id="Path_50266" d="M121.5 88.5005C120.113 89.5134 118.567 89.5256 117.629 87.9465C116.629 86.2576 117.855 84.8196 119.486 84.3306C120.118 84.1277 120.477 83.4629 120.301 82.823C120.125 82.1833 119.476 81.7961 118.829 81.9456C115.773 82.8606 113.865 85.7456 115.315 88.8354C115.932 90.1965 117.141 91.1975 118.593 91.5493C120.045 91.9009 121.578 91.5637 122.749 90.6355C124.024 89.7065 122.792 87.5586 121.501 88.5005L121.5 88.5005Z" fill-rule="evenodd" fill="#4094A8"/>
			<path id="Path_50267" d="M71.793 67.6128C71.3395 67.6284 70.98 68.0005 70.98 68.4543C70.98 68.908 71.3395 69.28 71.793 69.2959C72.2465 69.2803 72.606 68.908 72.606 68.4543C72.606 68.0005 72.2465 67.6284 71.793 67.6128Z" fill-rule="evenodd" fill="#4094A8"/>
			<path id="Path_50268" d="M73.304 65.0889C72.8506 65.1045 72.491 65.4766 72.491 65.9304C72.491 66.384 72.8506 66.7561 73.304 66.772C73.7574 66.7561 74.1169 66.384 74.1169 65.9304C74.1169 65.4766 73.7574 65.1045 73.304 65.0889Z" fill-rule="evenodd" fill="#4094A8"/>
			<path id="Path_50269" d="M74.4821 67.9487C74.0286 67.9644 73.6691 68.3364 73.6691 68.7903C73.6691 69.2439 74.0286 69.6162 74.4821 69.6318C74.9355 69.6162 75.295 69.2439 75.295 68.7903C75.295 68.3364 74.9355 67.9644 74.4821 67.9487Z" fill-rule="evenodd" fill="#4094A8"/>
			<path id="Path_50270" d="M313.907 99.1138C313.454 99.1294 313.094 99.5015 313.094 99.9553C313.094 100.409 313.454 100.781 313.907 100.797C314.36 100.781 314.72 100.409 314.72 99.9553C314.72 99.5017 314.36 99.1296 313.907 99.1138Z" fill-rule="evenodd" fill="#4094A8"/>
			<path id="Path_50271" d="M315.425 96.5854C314.972 96.6011 314.612 96.9731 314.612 97.427C314.612 97.8806 314.972 98.2529 315.425 98.2686C315.879 98.2529 316.238 97.8806 316.238 97.427C316.238 96.9731 315.879 96.6011 315.425 96.5854L315.425 96.5854Z" fill-rule="evenodd" fill="#4094A8"/>
			<path id="Path_50272" d="M316.6 99.4453C316.147 99.4609 315.787 99.833 315.787 100.287C315.787 100.74 316.147 101.113 316.6 101.128C317.053 101.113 317.413 100.74 317.413 100.287C317.413 99.833 317.053 99.4609 316.6 99.4453L316.6 99.4453Z" fill-rule="evenodd" fill="#4094A8"/>
			<g opacity="0.300000">
				<mask id="mask45_302" mask-type="alpha" maskUnits="userSpaceOnUse" x="172.571899" y="56.969727" width="48.028992" height="25.042969">
					<rect id="Rectangle_2389" x="172.571899" y="56.969727" width="48.028999" height="25.042999" fill="#000000"/>
				</mask>
				<g mask="url(#mask45_302)">
					<path id="Path_50273" d="M206.172 81.5557C197.669 82.1968 189.129 82.1653 180.631 81.4617C170.563 80.6206 169.412 69.1746 180.107 72.7146C174.941 60.1936 185.133 53.6426 192.651 66.2046C193.561 52.1047 211.322 55.0925 207.058 68.7996C212.485 65.8667 222.2 67.7107 220.373 76.4177C219.273 82.1125 210.873 81.6345 206.173 81.5557L206.172 81.5557Z" fill-rule="evenodd" fill="#90CCD6"/>
				</g>
			</g>
		</g>
	</g>
	<defs/>
</svg>
